<?xml version="1.0" encoding="UTF-8"?>
<svg id="Layer_1" data-name="Layer 1" xmlns="http://www.w3.org/2000/svg" xmlns:xlink="http://www.w3.org/1999/xlink" viewBox="0 0 24.56 23.59">
  <defs>
    <style>
      .cls-1 {
        fill: url(#linear-gradient-2);
      }

      .cls-2 {
        fill: #fff;
      }

      .cls-3 {
        fill: #f36b21;
      }

      .cls-4 {
        fill: url(#linear-gradient-4);
      }

      .cls-5 {
        fill: url(#linear-gradient-3);
      }

      .cls-6 {
        fill: url(#linear-gradient-5);
      }

      .cls-7 {
        fill: #323231;
      }

      .cls-8 {
        fill: url(#linear-gradient-7);
      }

      .cls-9 {
        fill: url(#linear-gradient-6);
      }

      .cls-10 {
        fill: url(#linear-gradient);
      }
    </style>
    <linearGradient id="linear-gradient" x1="8.16" y1="11.66" x2="12.87" y2="3.5" gradientUnits="userSpaceOnUse">
      <stop offset="0" stop-color="#131312"/>
      <stop offset=".02" stop-color="#141413"/>
      <stop offset=".33" stop-color="#2a2a2a"/>
      <stop offset=".63" stop-color="#383838"/>
      <stop offset=".89" stop-color="#3d3d3d"/>
    </linearGradient>
    <linearGradient id="linear-gradient-2" x1="12.79" y1="11.94" x2="17.43" y2="3.9" xlink:href="#linear-gradient"/>
    <linearGradient id="linear-gradient-3" x1="13.35" y1="4.03" x2="13.55" y2="3.69" xlink:href="#linear-gradient"/>
    <linearGradient id="linear-gradient-4" x1="5.72" y1="11.39" x2="19.16" y2="11.39" xlink:href="#linear-gradient"/>
    <linearGradient id="linear-gradient-5" x1="12.44" y1="14.04" x2="12.44" y2="11.76" gradientUnits="userSpaceOnUse">
      <stop offset=".23" stop-color="#b5b5b6"/>
      <stop offset=".66" stop-color="#fff"/>
    </linearGradient>
    <linearGradient id="linear-gradient-6" x1="12.78" y1="14.19" x2="12.78" y2="10.28" xlink:href="#linear-gradient-5"/>
    <linearGradient id="linear-gradient-7" x1="12.78" y1="14.19" x2="12.78" y2="10.28" gradientUnits="userSpaceOnUse">
      <stop offset="0" stop-color="#f36b21"/>
      <stop offset=".29" stop-color="#f26821"/>
      <stop offset=".49" stop-color="#f25e21"/>
      <stop offset=".68" stop-color="#f04f22"/>
      <stop offset=".84" stop-color="#ef3922"/>
      <stop offset="1" stop-color="#ed1c23"/>
      <stop offset="1" stop-color="#ed1c24"/>
    </linearGradient>
  </defs>
  <g>
    <g>
      <path class="cls-7" d="M5.5,19.05s-.05-.01-.07-.03c-.02-.02-.03-.04-.03-.07,0-.01,0-.02,0-.03l1.06-2.97s.03-.07.06-.1c.03-.03.08-.05.13-.05h.85c.06,0,.1.02.13.05.03.03.05.06.06.1l1.06,2.97s0,.02,0,.03c0,.03,0,.05-.03.07-.02.02-.04.03-.07.03h-.71c-.05,0-.09-.01-.12-.04-.02-.02-.04-.05-.05-.07l-.14-.39h-1.12l-.14.39s-.03.04-.05.07-.06.04-.12.04h-.71ZM6.74,17.77h.69l-.35-1.04-.34,1.04Z"/>
      <path class="cls-7" d="M9.19,19.05s-.06-.01-.08-.04c-.02-.02-.04-.05-.04-.09v-3s.01-.06.04-.09c.02-.02.05-.04.08-.04h1.27c.3,0,.56.05.78.15.22.1.39.24.52.43s.19.42.2.7c0,.13,0,.25,0,.35s0,.22,0,.35c-.01.29-.08.53-.2.72s-.29.33-.5.42c-.22.09-.48.14-.78.14h-1.29ZM10.07,18.26h.39c.1,0,.19-.02.26-.05.07-.03.13-.09.17-.16.04-.07.06-.17.06-.28,0-.09,0-.17,0-.24,0-.07,0-.14,0-.21,0-.07,0-.15,0-.24,0-.17-.05-.29-.15-.37-.09-.08-.21-.12-.37-.12h-.37v1.67Z"/>
      <path class="cls-7" d="M12.57,19.05s-.06-.01-.08-.04c-.02-.02-.04-.05-.04-.09v-3s.01-.06.04-.09c.02-.02.05-.04.08-.04h2.27s.06.01.09.04c.02.02.04.05.04.09v.55s-.01.06-.04.08c-.02.02-.05.04-.09.04h-1.43v.46h1.33s.06.01.09.03c.02.02.04.05.04.09v.5s-.01.06-.04.09c-.02.02-.05.04-.09.04h-1.33v.47h1.47s.06.01.09.04c.02.02.04.05.04.09v.54s-.01.06-.04.09c-.02.02-.05.04-.09.04h-2.31Z"/>
      <path class="cls-7" d="M15.6,19.05s-.06-.01-.09-.04c-.02-.02-.04-.05-.04-.09v-3s.01-.06.04-.09c.02-.02.05-.04.09-.04h.62c.06,0,.1.02.13.05.03.03.05.05.06.06l.74,1.29.74-1.29s.03-.03.06-.06c.03-.03.07-.05.13-.05h.62s.06.01.09.04.03.05.03.09v3s-.01.06-.03.09-.05.04-.09.04h-.7s-.06-.01-.09-.04-.04-.05-.04-.09v-1.5l-.42.73s-.04.05-.06.07c-.02.02-.06.04-.11.04h-.28s-.08-.01-.1-.04c-.02-.02-.04-.05-.06-.07l-.42-.73v1.5s-.01.06-.03.09-.05.04-.09.04h-.7Z"/>
    </g>
    <g>
      <path class="cls-3" d="M8.9,21.23c-.22,0-.42-.04-.58-.11-.16-.07-.29-.18-.37-.32-.09-.14-.14-.32-.15-.52,0-.1,0-.21,0-.32s0-.22,0-.33c0-.2.06-.37.15-.51.09-.14.22-.24.38-.32s.35-.11.57-.11c.18,0,.33.02.47.07s.25.1.34.17c.09.07.16.15.21.24.05.09.07.17.08.26,0,.02,0,.04-.02.05-.02.01-.03.02-.05.02h-.52s-.05,0-.06-.01-.02-.02-.03-.04c-.02-.04-.04-.07-.07-.11-.03-.04-.08-.07-.13-.1s-.13-.04-.22-.04c-.13,0-.24.04-.32.11-.08.07-.12.18-.13.34,0,.2,0,.41,0,.61,0,.17.05.28.13.36s.19.11.32.11c.09,0,.17-.01.24-.05.07-.03.12-.08.16-.14.04-.06.06-.15.06-.25v-.07h-.33s-.05,0-.07-.03c-.02-.02-.03-.04-.03-.06v-.26s0-.05.03-.06c.02-.02.04-.03.07-.03h.89s.05,0,.06.03c.02.02.02.04.02.06v.4c0,.2-.05.38-.14.52-.09.14-.22.25-.39.33s-.36.11-.59.11Z"/>
      <path class="cls-3" d="M11.77,21.19s-.04,0-.06-.02c-.02-.02-.03-.04-.03-.06v-.76l-.82-1.51s0-.01,0-.02c0,0,0-.01,0-.02,0-.02,0-.04.02-.05.02-.01.03-.02.05-.02h.44s.06,0,.08.03c.02.02.03.03.04.05l.51.91.51-.91s.02-.03.04-.05c.02-.02.05-.03.08-.03h.44s.04,0,.05.02c.01.02.02.03.02.05,0,0,0,.01,0,.02,0,0,0,.01,0,.02l-.82,1.51v.76s0,.05-.02.06c-.02.02-.04.02-.06.02h-.46Z"/>
      <path class="cls-3" d="M14.24,21.19s-.04,0-.06-.02-.03-.04-.03-.06v-2.3s0-.05.03-.06.04-.02.06-.02h.38s.07.01.09.03.03.04.04.05l.62,1.12.62-1.12s.02-.03.04-.05.05-.03.09-.03h.38s.05,0,.07.02.03.04.03.06v2.3s0,.05-.03.06-.04.02-.07.02h-.42s-.05,0-.07-.02-.03-.04-.03-.06v-1.32l-.4.74s-.02.04-.04.06c-.02.02-.04.02-.08.02h-.18s-.06,0-.08-.02c-.02-.02-.03-.04-.05-.06l-.4-.74v1.32s0,.05-.02.06-.04.02-.06.02h-.42Z"/>
    </g>
  </g>
  <g>
    <g>
      <g>
        <path class="cls-2" d="M14.53,9.96c-.25.3-.15.75-.27,1.11.16-.06.36-.23.42-.39.04-.11.08-.81.03-.87l-.17.15Z"/>
        <path class="cls-2" d="M12.11,9.24c-.41-.21-.87-.18-1.31-.08-.09.02-.6.16-.62.23-.01.03.05.22.07.27.09.27.24.53.33.8-.18-.12-.31-.31-.51-.41l-.08.38c.57.4,1.31.51,1.99.37,0-.27-.09-.54-.06-.82.01-.12.23-.68.19-.74Z"/>
        <path class="cls-2" d="M10.38,10.96c-.15-.14-.39-.23-.58-.32l-.64.37s-.04.02-.07,0c-.04-.02-.21-.16-.25-.19-.56-.46-.76-1.15-1.25-1.58-.04-.03-.14-.06-.09-.1.08-.08.24-.16.35-.25.33-.29.61-.7.65-1.14-.09,0-.18-.02-.26-.04-.03,0-.03.01-.03-.04l.85-.43c-.04.08.2.5.24.5.26-.48.09-1.05-.09-1.53-.59-.02-1.13.24-1.31.83-.05.17-.05.29-.06.46-.02.16-.05.12-.13.2-.29.34-.59.98-.71,1.42-.02.08-.08.31-.07.37,0,.04.17.22.2.26.44.49,1.29,1.2,1.83,1.57.4.27.41.05.73.12.11.02.46.27.49.26.11-.02-.11-.21-.14-.24-.06-.06-.21-.14-.25-.19-.02-.02-.03-.05-.02-.07.09-.09.65.34.75.41.01-.01-.06-.11-.08-.13-.16-.2-.36-.36-.54-.54.12,0,.24.08.34.14.13.07.25.16.36.25.02,0,.04,0,.03-.03-.03-.07-.2-.3-.26-.36Z"/>
        <path class="cls-2" d="M13.64,10.88c.04.13,0,.27.02.4.01.1.05-.02.06-.04.16-.27.33-.48.4-.8.03-.14.02-.3.05-.42.03-.14.27-.29.3-.57,0-.05,0-.2,0-.22,0-.01.18-.1.22-.14.16-.13.31-.31.34-.52-.01-.01-.17.08-.21.09-.03.01-.26.07-.28.06,0,0,.02-.03.01-.05-.02-.13-.6-.25-.73-.27-.11-.02-.51-.1-.58,0-.04.06-.08.34-.05.4.02.05.25.07.32.09.17.05.55.22.61.39.03.08.03.16.02.24l-.12-.13c-.32-.23-.99-.39-.91.23.05.39.61.32.89.31-.04.22-.23.29-.44.28-.11,0-.32-.07-.41,0-.11.09-.05.52-.02.65h.48Z"/>
        <path class="cls-2" d="M11.35,7.36s.11,0,.17-.05c.11-.09.08-.27.08-.33-.03-.26-.29-.44-.48-.54-.13-.07-.21-.2-.22-.34,0,0,0,0,0,0,0-.11.04-.27.02-.36-.01-.06-.06-.08-.09-.12-.11-.2-.2-.45-.2-.68l.16.19c.16.13.73.38.92.33.09-.03.17-.32.13-.39-.02-.03-.12-.07-.09-.11,0,0,.14-.03.17-.08.02-.03-.01-.08-.01-.12,0-.09.15-.13.23-.13-.02-.11-.17-.41-.28-.44-.09-.02-.21.04-.23-.08-.03-.15.24-.17.35-.16.02-.28-.05-.67-.37-.74.03.47-.42.67-.75.89-.09-.06-.19-.24-.31-.26-.42-.09-.42.5-.16.68l.19.12c-.04.09-.35.15-.37.18-.01.02-.04.37-.06.46-.07.29-.26.54-.52.68.66.64,1.16,1.1,1.36,1.27.05.04.19.15.37.15Z"/>
        <path class="cls-2" d="M14.93,9.51c.18-.12.29-.33.34-.54-.06.05-.09.12-.14.18-.11.11-.34.17-.19.37Z"/>
        <path class="cls-2" d="M14.7,5.21c.07-.01.04-.1.05-.16.01-.05.07-.22.06-.24,0-.04-.08-.06-.08-.11,0-.02.02-.03.04-.04.04-.02.16,0,.15-.05-.01-.06.09-.22.2-.27,0,0-.12-.35-.2-.43-.09-.09-.42-.02-.45-.18-.04-.2.43-.02.48-.07-.05-.09-.12-.46-.17-.51-.08-.08-.48-.08-.6-.11,0,.22-.04.46-.22.6-.05.04-.17.11-.23.1-.02,0-.1-.28-.27-.31-.39-.06-.41.49-.26.73.1.16.23.14.38.2.01.45.19.58.58.72.09.03.47.15.54.14Z"/>
        <path class="cls-2" d="M17.9,10.73c.03-.47.1-.86-.13-1.29-.06-.1-.2-.26-.23-.35-.1-.32,0-.55-.21-.89-.02-.03-.19-.27-.21-.27-.01,0-.05-.02-.06,0-.01.01-.05.28-.06.32-.02.11-.06-.07-.08-.09-.02-.04-.08-.12-.09-.15-.03-.09.04-.34.05-.46.03-.55-.2-1.14-.74-1.35-.27-.11-.68-.13-.93.06-.04.03-.1.12-.12.13-.06.04-.44-.11-.54-.09.03-.05.09-.09.14-.12.01,0,.24-.09.19-.13l-1.3.21.45-.88-.34-.09-.3.87-.13-1.63-.24.07.16,1.75c-.07-.03-.12-.07-.2-.1-.07-.03-.19-.06-.27-.04.14.08.35.45.47.5.09.03.24-.13.27-.1-.03.06-.07.12-.09.19-.09.27-.12.95.09,1.16.26.25,1.08.18,1.4.06.34-.13.92-.59.73-1,.4.16.87.43,1.06.83-.18-.08-.37-.16-.58-.13-.25.52.2,1.23.62,1.53.06.04.28.19.34.18.06,0,.16-.2.18-.26,0,0,.03.02.03.03.02.08,0,.36,0,.46-.01.25-.07.51-.06.76l-.27-.44s-.03,0-.04.01c-.04.08-.05.29-.04.39.02.21.16.36.24.54.14.32.19.71.21,1.06h.46c.02-.12.04-.25.06-.38.03-.28.06-.57.08-.85Z"/>
      </g>
      <g>
        <g>
          <path class="cls-10" d="M8.69,11.96l.19-.39c-.13-.08-.24-.2-.36-.29-.57-.46-1.17-.86-1.66-1.41-.05-.06-.26-.29-.26-.35.15-.55.34-1.14.64-1.63.07-.11.28-.35.32-.42.05-.12.05-.42.13-.61.45-1.16,1.82-.59,2.15-1.64.19-.58-.17-.69-.22-1.17-.02-.24.01-.47.12-.69-.34-.06-.48.23-.46.53.02.37.16.57.04.97-.14.49-.78.84-1.26.65.19-.1.35-.27.42-.47.19-.57-.29-1.07-.03-1.73s1.06-.73,1.5-.24c.75-.89,2.34-.45,2.27.8,0,.08-.05.19-.04.27.02.12.2.34.24.47.02.16-.27.18-.29.2-.01.02.03.13.02.18,0,.04-.05.08-.07.13-.08.23-.02.59-.39.58-.1,0-.39-.11-.44-.1-.07.02-.09.4.03.47.06.04.3.12.37.15.44.14.81.16.93.71.05.2-.01.36,0,.51,0,.05.07.15.09.22.08.27.04.51-.08.76-.03.05-.1.13-.11.16-.03.14-.02.33-.04.48-.05.35-.19.7-.17,1.05,0,.17.04.37.06.54.05.43.13.86.19,1.29h-3.85ZM11.52,7.31c.11-.09.08-.27.08-.33-.03-.26-.29-.44-.48-.54-.13-.07-.21-.2-.22-.34,0,0,0,0,0,0,0-.11.04-.27.02-.36-.01-.06-.06-.08-.09-.12-.11-.2-.2-.45-.2-.68l.16.19c.16.13.73.38.92.33.09-.03.17-.32.13-.39-.02-.03-.12-.07-.09-.11,0,0,.14-.03.17-.08.02-.03-.01-.08-.01-.12,0-.09.15-.13.23-.13-.02-.11-.17-.41-.28-.44-.09-.02-.21.04-.23-.08-.03-.15.24-.17.35-.16.02-.28-.05-.67-.37-.74.03.47-.42.67-.75.89-.09-.06-.19-.24-.31-.26-.42-.09-.42.5-.16.68l.19.12c-.04.09-.35.15-.37.18-.01.02-.04.37-.06.46-.07.29-.26.54-.52.68.66.64,1.16,1.1,1.36,1.27.05.04.19.15.37.15.04,0,.11,0,.17-.05ZM9.21,6.22c-.59-.02-1.13.24-1.31.83-.05.17-.05.29-.06.46s-.05.12-.13.2c-.29.34-.59.98-.71,1.42-.02.08-.08.31-.07.37,0,.04.17.22.2.26.44.49,1.29,1.2,1.83,1.57.4.27.41.05.73.12.11.02.46.27.49.26.11-.02-.11-.21-.14-.24-.06-.06-.21-.14-.25-.19-.02-.02-.03-.05-.02-.07.09-.09.65.34.75.41.01-.01-.06-.11-.08-.13-.16-.2-.36-.36-.54-.54.12,0,.24.08.34.14.13.07.25.16.36.25.02,0,.04,0,.03-.03-.03-.07-.2-.3-.26-.36-.15-.14-.39-.23-.58-.32l-.64.37s-.04.02-.07,0c-.04-.02-.21-.16-.25-.19-.56-.46-.76-1.15-1.25-1.58-.04-.03-.14-.06-.09-.1.08-.08.24-.16.35-.25.33-.29.61-.7.65-1.14-.09,0-.18-.02-.26-.04-.03,0-.03.01-.03-.04l.85-.43c-.04.08.2.5.24.5.26-.48.09-1.05-.09-1.53ZM8.82,7.96s-.03.03-.04.05c-.05.11-.08.24-.14.35-.16.33-.41.6-.65.87.37.53.63,1.14,1.16,1.54.24-.23.4-.42.48-.76.06-.25-.02-.4-.12-.63-.21-.48-.51-.93-.7-1.42ZM12.11,9.24c-.41-.21-.87-.18-1.31-.08-.09.02-.6.16-.62.23-.01.03.05.22.07.27.09.27.24.53.33.8-.18-.12-.31-.31-.51-.41l-.08.38c.57.4,1.31.51,1.99.37,0-.27-.09-.54-.06-.82.01-.12.23-.68.19-.74Z"/>
          <path class="cls-1" d="M12.83,11.96c-.04-.5-.16-1-.21-1.5s.11-.89.17-1.39c.01-.12,0-.29.02-.4.01-.07.11-.18.14-.27.14-.39.02-.74-.03-1.13-.02-.13,0-.26-.02-.4-.12-.55-.55-.79-1.08-.88.45-.37.88-.8.91-1.41s-.41-1.3.05-1.87c.57-.71,1.76-.13,2.49-.06-.02.07-.05.15-.08.22-.03.06-.15.21-.15.26,0,.13.18.44.13.55-.01.02-.06.04-.06.07-.02.08.21.49.19.63-.02.12-.18.09-.21.16s0,.19,0,.27c-.01.07-.08.12-.09.18-.02.12.07.23-.03.36-.08.11-.32.08-.45.08-.05,0-.14-.05-.14.02,0,.12.19.2.28.24.12.05.54.18.66.2.07,0,.17-.03.24-.03.8-.02,1.4.37,1.58,1.17.04.18.03.42.08.56.01.04.34.42.41.56.15.32.13.64.24.92.05.13.21.28.28.44s.13.36.14.54c.04.64-.06,1.29-.14,1.93h-.37c.02-.12.04-.25.06-.38.03-.28.06-.57.08-.85.03-.47.1-.86-.13-1.29-.06-.1-.2-.26-.23-.35-.1-.32,0-.55-.21-.89-.02-.03-.19-.27-.21-.27-.01,0-.05-.02-.06,0-.01.01-.05.28-.06.32-.02.11-.06-.07-.08-.09-.02-.04-.08-.12-.09-.15-.03-.09.04-.34.05-.46.03-.55-.2-1.14-.74-1.35-.27-.11-.68-.13-.93.06-.04.03-.1.12-.12.13-.06.04-.44-.11-.54-.09.03-.05.09-.09.14-.12.01,0,.24-.09.19-.13l-1.3.21.45-.88-.34.24-.3.54-.13-1.63-.18.58.09,1.24c-.07-.03-.12-.07-.2-.1-.07-.03-.19-.06-.27-.04.14.08.35.45.47.5.09.03.24-.13.27-.1-.03.06-.07.12-.09.19-.09.27-.12.95.09,1.16.26.25,1.08.18,1.4.06.34-.13.92-.59.73-1,.4.16.87.43,1.06.83-.18-.08-.37-.16-.58-.13-.25.52.2,1.23.62,1.53.06.04.28.19.34.18s.16-.2.18-.26c0,0,.03.02.03.03.02.08,0,.36,0,.46-.01.25-.07.51-.06.76l-.27-.44s-.03,0-.04.01c-.04.08-.05.29-.04.39.02.21.16.36.24.54.14.32.19.71.21,1.06h-.31c0-.19-.04-.39-.09-.58-.15-.5-.43-.63-.39-1.23,0-.07.07-.4.07-.42,0-.03-.22-.16-.26-.2-.22-.19-.36-.45-.52-.69-.12.38-.41.67-.6,1-.16.29-.13.73-.14,1.06,0,.27.03.29.08.53.04.17.06.35.11.52h-2.42ZM14.93,3.91c-.09-.09-.42-.02-.45-.18-.04-.2.43-.02.48-.07-.05-.09-.12-.46-.17-.51-.08-.08-.48-.08-.6-.11,0,.22-.04.46-.22.6-.05.04-.17.11-.23.1-.02,0-.1-.28-.27-.31-.39-.06-.41.49-.26.73.1.16.23.14.38.2.01.45.19.58.58.72.09.03.47.15.54.14.07-.01.04-.1.05-.16.01-.05.07-.22.06-.24,0-.04-.08-.06-.08-.11,0-.02.02-.03.04-.04.04-.02.16,0,.15-.05-.01-.06.09-.22.2-.27,0,0-.12-.35-.2-.43ZM13.16,10.88h.48c.04.13,0,.27.02.4.01.1.05-.02.06-.04.16-.27.33-.48.4-.8.03-.14.02-.3.05-.42.03-.14.27-.29.3-.57,0-.05,0-.2,0-.22,0-.01.18-.1.22-.14.16-.13.31-.31.34-.52-.01-.01-.17.08-.21.09-.03.01-.26.07-.28.06,0,0,.02-.03.01-.05-.02-.13-.6-.25-.73-.27-.11-.02-.51-.1-.58,0-.04.06-.08.34-.05.4.02.05.25.07.32.09.17.05.55.22.61.39.03.08.03.16.02.24l-.12-.13c-.32-.23-.99-.39-.91.23.05.39.61.32.89.31-.04.22-.23.29-.44.28-.11,0-.32-.07-.41,0-.11.09-.05.52-.02.65ZM15.27,8.96c-.06.05-.09.12-.14.18-.11.11-.34.17-.19.37.18-.12.29-.33.34-.54Z"/>
        </g>
        <path class="cls-5" d="M13.55,4.14c-.11-.05-.21-.18-.24-.29-.08-.24.1-.35.2-.12.03.06.1.37.04.41Z"/>
      </g>
    </g>
    <g>
      <path class="cls-4" d="M19.14,12.42c-.02-.07-.04-.13-.08-.19-.05-.08-.12-.14-.19-.17.01-.1.02-.19.03-.28.01-.2,0-.36-.03-.49-.08-.31-.27-.42-.38-.45l-.32-.11s0-.02,0-.03c-.03-.11-.06-.19-.11-.27-.07-.11-.17-.19-.29-.23l-.67-.23c-.06-.02-.12-.03-.18-.03-.16,0-.33.07-.49.21-.11.09-.22.22-.33.39-.16.24-.33.54-.48.89-.35-.17-.81-.36-1.36-.5l.4-.75c.07-.14.06-.31-.04-.43-.08-.1-.19-.15-.31-.15-.03,0-.07,0-.1.01l-.55.15.54-1.81c.04-.15,0-.31-.12-.41-.07-.07-.17-.1-.26-.1-.05,0-.11.01-.16.03l-1.79.77c-.11.05-.2.15-.23.27l-.57,2.31c-.58.11-1.15.29-1.68.54-.05.02-.09.04-.13.06-.15-.35-.32-.65-.48-.89-.11-.16-.22-.29-.33-.39-.16-.14-.32-.21-.49-.21h0c-.06,0-.12,0-.18.03l-.67.23c-.12.04-.22.12-.3.24-.05.08-.09.17-.11.28,0,0,0,0,0,0l-.32.11c-.12.04-.21.12-.28.23-.05.07-.08.16-.1.26-.03.14-.04.32-.02.53,0,.07.01.14.02.21-.08.04-.15.1-.19.17-.03.05-.06.12-.08.19-.02.09-.02.19-.01.31.02.19.07.44.15.68.08.23.17.44.27.6.06.09.12.17.18.23.11.11.24.17.38.17.04,0,.08,0,.12-.02,0,0,0,.01.01.02.11.17.21.31.31.4.16.15.32.23.49.23.06,0,.11,0,.17-.03l.32-.11c.05.05.1.08.16.11.1.06.21.09.32.09.06,0,.12,0,.18-.03l.67-.23c.11-.04.21-.11.28-.22.05-.07.09-.16.12-.26.04-.15.05-.33.04-.55h1.89s-.3,1.51-.3,1.51l.8-1.51h2.72c0,.22,0,.4.04.55.03.1.07.19.12.26.07.1.17.18.28.22l.67.23c.06.02.12.03.18.03.11,0,.21-.03.32-.09.05-.03.11-.07.16-.11l.32.11c.05.02.11.03.17.03.17,0,.33-.08.49-.23.1-.1.21-.24.31-.4,0,0,0-.01.01-.02.04.01.08.02.12.02.14,0,.26-.06.38-.17.06-.06.12-.13.18-.23.1-.16.2-.37.27-.6.08-.24.14-.48.15-.68,0-.12,0-.22-.01-.31Z"/>
      <path class="cls-6" d="M9.12,12.58c.22.73.3,1.31.17,1.35-.15.05-.51-.61-.8-1.48-.29-.87-.41-1.61-.27-1.66.13-.04.41.44.67,1.12.03-.02.07-.04.11-.07-.37-.94-.83-1.59-1.09-1.5l-.67.23c-.29.1-.21,1.1.17,2.24.39,1.14.94,1.98,1.23,1.89l.67-.23c.27-.09.22-.94-.08-1.96-.04.03-.08.05-.12.07ZM8.24,12.8c-.02-.08-.05-.15-.07-.23-.03-.08-.05-.16-.08-.23-.27-.88-.31-1.63-.11-1.84-.1.37.01,1.16.31,2.03.29.87.69,1.56.99,1.8-.28-.04-.71-.67-1.03-1.53ZM6.98,11.06l-.46.15c-.24.08-.18.92.14,1.86s.78,1.65,1.02,1.56l.46-.15c-.27-.32-.57-.92-.81-1.63-.24-.71-.36-1.37-.35-1.79ZM6.36,12.36l-.18.06c-.11.04-.08.42.07.86.15.44.36.76.47.72l.2-.07c-.12-.24-.24-.52-.35-.83-.09-.26-.16-.52-.21-.75ZM8.78,12.17s-.03.04-.03.06c.01.11.05.21.11.3.02.02.04.03.07.01.18-.13,1.02-.66,2.21-.91l.1-.43c-1.38.25-2.3.85-2.47.97ZM18.36,11.21l-.46-.15c.01.42-.11,1.08-.35,1.79-.24.71-.55,1.31-.81,1.63l.46.15c.24.08.7-.62,1.02-1.56.32-.95.39-1.78.14-1.86ZM18.7,12.42l-.18-.06c-.05.23-.12.48-.21.75-.11.31-.23.6-.35.83l.2.07c.11.04.32-.29.47-.72.15-.44.18-.82.07-.86ZM16.02,12.52c.06-.09.1-.19.11-.3,0-.02,0-.04-.03-.06-.17-.12-1.01-.67-2.29-.94l-.19.37c1.26.25,2.14.81,2.33.94.02.01.05,0,.07-.01ZM17.63,10.57l-.67-.23c-.26-.09-.72.56-1.09,1.5.04.02.08.05.11.07.26-.68.54-1.17.67-1.12.15.05.03.79-.27,1.66-.29.87-.65,1.53-.8,1.48-.13-.04-.05-.62.17-1.35-.03-.02-.07-.04-.12-.07-.31,1.02-.35,1.87-.08,1.96l.67.23c.29.1.84-.75,1.23-1.89.39-1.14.46-2.14.17-2.24ZM16.8,12.33c-.03.07-.06.15-.08.23-.03.08-.05.16-.07.23-.32.86-.75,1.48-1.03,1.53.3-.23.7-.93.99-1.8.29-.87.4-1.66.31-2.03.2.21.16.96-.11,1.84Z"/>
      <polygon class="cls-9" points="14.31 9.99 13.07 10.33 13.82 7.84 12.03 8.61 11.25 11.77 12.25 11.5 11.48 15.33 14.31 9.99"/>
      <polygon class="cls-8" points="14.31 9.99 13.07 10.33 13.82 7.84 12.03 8.61 11.25 11.77 12.25 11.5 11.48 15.33 14.31 9.99"/>
    </g>
  </g>
</svg>