<?xml version="1.0" encoding="UTF-8"?>
<svg id="Layer_1" data-name="Layer 1" xmlns="http://www.w3.org/2000/svg" viewBox="0 0 24.56 23.59">
  <defs>
    <style>
      .cls-1 {
        fill: #ffcc40;
      }

      .cls-2 {
        fill: #8dc63f;
      }

      .cls-3 {
        fill: #fbb040;
      }
    </style>
  </defs>
  <g>
    <path class="cls-2" d="M10.2,5.11s.06-.01.09-.01c.06,0,.09-.04.12-.09-.08.04-.15.07-.21.1ZM10.67,4.89s.04,0,.06,0c.07,0,.1-.05.14-.09.01-.01-.08.03-.2.09ZM10.67,4.89s.04,0,.06,0c.07,0,.1-.05.14-.09.01-.01-.08.03-.2.09ZM10.2,5.11s.06-.01.09-.01c.06,0,.09-.04.12-.09-.08.04-.15.07-.21.1ZM10.2,5.11s.06-.01.09-.01c.06,0,.09-.04.12-.09-.08.04-.15.07-.21.1ZM10.67,4.89s.04,0,.06,0c.07,0,.1-.05.14-.09.01-.01-.08.03-.2.09ZM13.53,10.71s-.03-.02-.05-.03c-.07-.02-.13-.05-.18-.1,0,0,0,0,0,0-.19-.16-.27-.38-.54-.42-.15-.02-.3,0-.45-.03-.03,0-.05-.01-.07-.03-.03-.02-.05-.06-.07-.09-.05-.09-.12-.16-.21-.2-.01,0-.02-.01-.03-.02-.04-.02-.08-.03-.11-.01-.04.01-.06.05-.09.07-.11.09-.29.04-.41.11-.02.01-.05.03-.07.05-.05.04-.09.08-.15.08-.03,0-.06-.01-.09-.02,0,0-.01,0-.02,0-.11-.05-.24-.08-.36-.08-.02,0-.04,0-.05,0-.03.01-.05.05-.06.07-.07.11-.22.15-.34.2,0,0,0,0,0,0-.05.02-.09.04-.13.07-.03.02-.06.05-.09.06-.04.01-.08,0-.12,0l-.24-.03h0l-.23-.03s.06.03.08.05c.23.15.44.33.61.54.04.05.08.09.09.15.01.04.01.09.02.14.02.19.12.36.21.53.03.06.07.12.13.14.02,0,.03.01.05.02.02,0,.03.01.05.02.04.03.05.08.06.13,0,.02,0,.04.01.06.02.08.04.17.05.25,1.22-.5,2.22-1.02,2.99-1.48-.04-.07-.1-.12-.17-.16h0ZM10.67,4.89s.04,0,.06,0c.07,0,.1-.05.14-.09.01-.01-.08.03-.2.09ZM10.2,5.11s.06-.01.09-.01c.06,0,.09-.04.12-.09-.08.04-.15.07-.21.1ZM10.2,5.11s.06-.01.09-.01c.06,0,.09-.04.12-.09-.08.04-.15.07-.21.1ZM10.67,4.89s.04,0,.06,0c.07,0,.1-.05.14-.09.01-.01-.08.03-.2.09ZM13.53,10.71s-.03-.02-.05-.03c-.07-.02-.13-.05-.18-.1,0,0,0,0,0,0-.19-.16-.27-.38-.54-.42-.15-.02-.3,0-.45-.03-.03,0-.05-.01-.07-.03-.03-.02-.05-.06-.07-.09-.05-.09-.12-.16-.21-.2-.01,0-.02-.01-.03-.02-.04-.02-.08-.03-.11-.01-.04.01-.06.05-.09.07-.11.09-.29.04-.41.11-.02.01-.05.03-.07.05-.05.04-.09.08-.15.08-.03,0-.06-.01-.09-.02,0,0-.01,0-.02,0-.11-.05-.24-.08-.36-.08-.02,0-.04,0-.05,0-.03.01-.05.05-.06.07-.07.11-.22.15-.34.2,0,0,0,0,0,0-.05.02-.09.04-.13.07-.03.02-.06.05-.09.06-.04.01-.08,0-.12,0l-.24-.03h0l-.23-.03s.06.03.08.05c.23.15.44.33.61.54.04.05.08.09.09.15.01.04.01.09.02.14.02.19.12.36.21.53.03.06.07.12.13.14.02,0,.03.01.05.02.02,0,.03.01.05.02.04.03.05.08.06.13,0,.02,0,.04.01.06.02.08.04.17.05.25,1.22-.5,2.22-1.02,2.99-1.48-.04-.07-.1-.12-.17-.16h0ZM11.3,12.88c-.02.08-.08.46-.08.54,1.34-.76,2.34-1.6,2.82-2.04,0-.11-.09-.22-.09-.22,0,0-1.75,1.24-2.65,1.72h0ZM13.53,10.71s-.03-.02-.05-.03c-.07-.02-.13-.05-.18-.1,0,0,0,0,0,0-.19-.16-.27-.38-.54-.42-.15-.02-.3,0-.45-.03-.03,0-.05-.01-.07-.03-.03-.02-.05-.06-.07-.09-.05-.09-.12-.16-.21-.2-.01,0-.02-.01-.03-.02-.04-.02-.08-.03-.11-.01-.04.01-.06.05-.09.07-.11.09-.29.04-.41.11-.02.01-.05.03-.07.05-.05.04-.09.08-.15.08-.03,0-.06-.01-.09-.02,0,0-.01,0-.02,0-.11-.05-.24-.08-.36-.08-.02,0-.04,0-.05,0-.03.01-.05.05-.06.07-.07.11-.22.15-.34.2,0,0,0,0,0,0-.05.02-.09.04-.13.07-.03.02-.06.05-.09.06-.04.01-.08,0-.12,0l-.24-.03h0l-.23-.03s.06.03.08.05c.23.15.44.33.61.54.04.05.08.09.09.15.01.04.01.09.02.14.02.19.12.36.21.53.03.06.07.12.13.14.02,0,.03.01.05.02.02,0,.03.01.05.02.04.03.05.08.06.13,0,.02,0,.04.01.06.02.08.04.17.05.25,1.22-.5,2.22-1.02,2.99-1.48-.04-.07-.1-.12-.17-.16h0ZM10.67,4.89s.04,0,.06,0c.07,0,.1-.05.14-.09.01-.01-.08.03-.2.09ZM10.2,5.11s.06-.01.09-.01c.06,0,.09-.04.12-.09-.08.04-.15.07-.21.1ZM10.2,5.11s.06-.01.09-.01c.06,0,.09-.04.12-.09-.08.04-.15.07-.21.1ZM10.67,4.89s.04,0,.06,0c.07,0,.1-.05.14-.09.01-.01-.08.03-.2.09ZM13.53,10.71s-.03-.02-.05-.03c-.07-.02-.13-.05-.18-.1,0,0,0,0,0,0-.19-.16-.27-.38-.54-.42-.15-.02-.3,0-.45-.03-.03,0-.05-.01-.07-.03-.03-.02-.05-.06-.07-.09-.05-.09-.12-.16-.21-.2-.01,0-.02-.01-.03-.02-.04-.02-.08-.03-.11-.01-.04.01-.06.05-.09.07-.11.09-.29.04-.41.11-.02.01-.05.03-.07.05-.05.04-.09.08-.15.08-.03,0-.06-.01-.09-.02,0,0-.01,0-.02,0-.11-.05-.24-.08-.36-.08-.02,0-.04,0-.05,0-.03.01-.05.05-.06.07-.07.11-.22.15-.34.2,0,0,0,0,0,0-.05.02-.09.04-.13.07-.03.02-.06.05-.09.06-.04.01-.08,0-.12,0l-.24-.03h0l-.23-.03s.06.03.08.05c.23.15.44.33.61.54.04.05.08.09.09.15.01.04.01.09.02.14.02.19.12.36.21.53.03.06.07.12.13.14.02,0,.03.01.05.02.02,0,.03.01.05.02.04.03.05.08.06.13,0,.02,0,.04.01.06.02.08.04.17.05.25,1.22-.5,2.22-1.02,2.99-1.48-.04-.07-.1-.12-.17-.16h0ZM13.53,10.71s-.03-.02-.05-.03c-.07-.02-.13-.05-.18-.1,0,0,0,0,0,0-.19-.16-.27-.38-.54-.42-.15-.02-.3,0-.45-.03-.03,0-.05-.01-.07-.03-.03-.02-.05-.06-.07-.09-.05-.09-.12-.16-.21-.2-.01,0-.02-.01-.03-.02-.04-.02-.08-.03-.11-.01-.04.01-.06.05-.09.07-.11.09-.29.04-.41.11-.02.01-.05.03-.07.05-.05.04-.09.08-.15.08-.03,0-.06-.01-.09-.02,0,0-.01,0-.02,0-.11-.05-.24-.08-.36-.08-.02,0-.04,0-.05,0-.03.01-.05.05-.06.07-.07.11-.22.15-.34.2,0,0,0,0,0,0-.05.02-.09.04-.13.07-.03.02-.06.05-.09.06-.04.01-.08,0-.12,0l-.24-.03h0l-.23-.03s.06.03.08.05c.23.15.44.33.61.54.04.05.08.09.09.15.01.04.01.09.02.14.02.19.12.36.21.53.03.06.07.12.13.14.02,0,.03.01.05.02.02,0,.03.01.05.02.04.03.05.08.06.13,0,.02,0,.04.01.06.02.08.04.17.05.25,1.22-.5,2.22-1.02,2.99-1.48-.04-.07-.1-.12-.17-.16h0ZM10.67,4.89s.04,0,.06,0c.07,0,.1-.05.14-.09.01-.01-.08.03-.2.09ZM10.2,5.11s.06-.01.09-.01c.06,0,.09-.04.12-.09-.08.04-.15.07-.21.1ZM10.3,5.09c.06,0,.09-.04.12-.09-.08.04-.15.07-.21.1.03,0,.06-.01.09-.01ZM10.67,4.89s.04,0,.06,0c.07,0,.1-.05.14-.09.01-.01-.08.03-.2.09ZM13.53,10.71s-.03-.02-.05-.03c-.07-.02-.13-.05-.18-.1,0,0,0,0,0,0-.19-.16-.27-.38-.54-.42-.15-.02-.3,0-.45-.03-.03,0-.05-.01-.07-.03-.03-.02-.05-.06-.07-.09-.05-.09-.12-.16-.21-.2-.01,0-.02-.01-.03-.02-.04-.02-.08-.03-.11-.01-.04.01-.06.05-.09.07-.11.09-.29.04-.41.11-.02.01-.05.03-.07.05-.05.04-.09.08-.15.08-.03,0-.06-.01-.09-.02,0,0-.01,0-.02,0-.11-.05-.24-.08-.36-.08-.02,0-.04,0-.05,0-.03.01-.05.05-.06.07-.07.11-.22.15-.34.2,0,0,0,0,0,0-.05.02-.09.04-.13.07-.03.02-.06.05-.09.06-.04.01-.08,0-.12,0l-.24-.03h0l-.23-.03s.06.03.08.05c.23.15.44.33.61.54.04.05.08.09.09.15.01.04.01.09.02.14.02.19.12.36.21.53.03.06.07.12.13.14.02,0,.03.01.05.02.02,0,.03.01.05.02.04.03.05.08.06.13,0,.02,0,.04.01.06.02.08.04.17.05.25,1.22-.5,2.22-1.02,2.99-1.48-.04-.07-.1-.12-.17-.16h0ZM16.93,12.55c-.08.17-.13.36-.25.51-.09.11-.18.23-.28.35-.09.11-.18.22-.28.32-.11.11-.21.22-.33.32-.13.12-.27.23-.41.33-.11.09-.24.16-.36.24-.11.07-.23.14-.35.21-.13.07-.26.13-.4.19-.13.06-.27.12-.4.17-.08.03-.17.05-.26.08-.12.03-.24.07-.36.1-.08.02-.16.04-.24.06-.14.02-.29.04-.43.06-.13.01-.25.02-.38.03-.02,0-.03,0-.05,0-.18,0-.36,0-.53-.01,0,0,0-.01,0-.02.12-.14.18-.32.29-.48.04-.06.11-.12.18-.15.15-.08.31-.15.46-.22.19-.09.37-.2.48-.4.04-.08.05-.17.05-.25,0-.06,0-.11.06-.15,0,0,0,0,0,0,.07-.08.14-.12.25-.07.04.02.11-.01.17-.03.09-.03.18-.06.26-.1.08-.04.15-.08.23-.13.02,0,.03-.03.04-.05.04-.13.13-.21.25-.28.13-.07.18-.19.19-.33,0-.08.03-.13.11-.15.22-.08.38-.24.51-.44.07-.11.04-.3-.06-.39-.05-.04-.09-.08-.14-.12-.02-.01-.05-.01-.08-.01-.14,0-.29,0-.43,0-.05,0-.08-.04-.09-.09,0-.03-.21-.08-.22-.11-.52.56-1.58,1.46-2.81,2.51-.01.06-.08.33-.1.38-.06.24-.15.47-.15.72,0,.08.03.16.04.25,0,.02,0,.03.01.05-.49-.07-.97-.2-1.42-.37-.07-.03-.14-.06-.21-.09-.25-.11-.5-.24-.74-.38-.07-.04-.13-.08-.19-.12-.11-.08-.22-.15-.33-.24-.09-.07-.17-.14-.25-.21-.25-.21-.47-.45-.68-.7-.08-.1-.15-.2-.22-.3-.03-.04-.05-.07-.07-.11-.03-.04-.06-.09-.08-.13-.02-.03-.04-.07-.06-.1-.05-.09-.1-.17-.14-.26-.12-.24-.23-.5-.31-.76-.17-.5-.27-1.04-.3-1.61,0-.1,0-.21-.01-.32,0-.09,0-.17,0-.26,0-.12,0-.24.02-.36.11-1.18.58-2.28,1.33-3.16,0,.02,0,.03-.01.05,0,0,.01-.02.02-.02,0,0,.01-.01.02-.02,0,0,.01,0,.02,0,0,.02-.01.05-.02.07-.07.19-.15.38-.2.58-.07.25-.12.5-.17.75-.04.2-.02.4,0,.61.02.14.04.27.06.41,0,.05.02.1.08.12,0,0,.01.02.02.03.02.03.04.06.07.07.09.04.13.1.14.19,0,.09.04.16.11.22.03.02.05.06.09.09.05.04.1.09.15.12.12.06.21.15.31.24.05.04.09.09.15.13.05.04.11.07.17.1.05.03.11.06.17.1-.01,0-.02,0-.03,0,0,0,.02.01.03.02.11.08.18.2.24.32.07,0,.14.02.21.04.17.06.33.15.49.15-.05-.04-.09-.11-.12-.19-.05-.12-.08-.26-.08-.33-.04,0-.07,0-.11,0-.06,0-.11-.05-.08-.11.05-.13.1-.28.23-.36.06-.04.06-.11,0-.16-.02-.02-.03-.03-.04-.05-.04-.06-.07-.07-.13-.03-.04.03-.07.07-.11.11-.02.02-.05.04-.08.05-.11.04-.22.03-.33.02-.09,0-.16-.05-.21-.12-.04-.06-.06-.13-.08-.2-.02-.07-.03-.14-.05-.21-.03-.13.03-.22.11-.31.04-.04.07-.08.12-.11.03-.02.06-.02.1-.02.05-.01.11-.01.15-.03.12-.06.25-.05.37-.04.06,0,.12,0,.18-.03.07-.03.13-.08.2-.12.02.05.04.11.05.17.02.1.07.2.15.25.09.06.11.15.14.24.03.09.08.17.16.22.03.02.13-.01.16-.05.03-.04.03-.08,0-.13-.08-.09-.11-.21-.14-.33,0-.03-.03-.06-.05-.08-.04-.03-.05-.07-.03-.11.02-.04.04-.07.05-.11.02-.04.02-.07.04-.11.01-.03.03-.06.04-.09.05-.09.1-.18.14-.27,0,0,0-.02,0-.03-.02-.07.03-.09.09-.11.15-.04.23-.15.31-.28.02-.04.04-.05.09-.05.07,0,.14,0,.2-.02.09-.03.11-.1.05-.19,0,0-.01-.02-.02-.04.09,0,.17-.01.25-.01.1,0,.2,0,.3.01,0,0,.01,0,.02,0,.09.06.19.05.28,0,.08-.05.14-.13.17-.23.03-.1.03-.13-.05-.19-.02-.01-.05-.02-.08-.02-.11.01-.23.05-.34.05-.12,0-.25-.02-.34-.11-.05-.04-.04-.09.02-.12.13-.07.27-.11.42-.11.25,0,.43-.15.48-.4.02-.11-.03-.21-.11-.28-.11-.09-.24-.11-.36-.15-.03-.01-.08,0-.11.02-.04.01-.06.02-.08-.02-.08-.12-.18-.21-.31-.28-.1-.06-.22-.04-.3.05-.07.09-.11.19-.15.29-.01.03.02.08.02.12,0,.03,0,.07-.02.11-.02.06-.06.11-.08.17-.03.06-.09.09-.15.05-.04-.02-.08-.06-.11-.1-.04-.03-.07-.08-.11-.11-.05-.03-.1-.02-.16,0-.02,0-.05,0-.07-.01-.09-.06-.15-.15-.19-.25,0-.02.01-.05.03-.08.05-.07.1-.14.15-.21,0,0,0,0,0,0,.01-.02.04-.03.06-.04,0,0,0,0,0,0,.07-.04.18-.1.32-.16,0,0,0,0,0,0,.01-.02.03-.04.05-.04.03,0,.06,0,.08-.01.28-.13.57-.25.59-.23.05.06.11.07.18.07.04,0,.08.02.12.04.04.02.08.06.13.03.06-.03.08-.07.05-.12-.06-.11-.12-.21-.2-.31-.04-.05-.1-.08-.16-.1-.09-.03-.19-.05-.28-.07-.15-.02-.29.01-.42.08-.14.07-.16.08-.38.02-.16-.04-.31-.02-.46.06-.13.07-.26.15-.41.16-.03,0-.05,0-.08,0,0,0,0,0,0-.01.01,0,.03-.02.04-.03.33-.16.66-.31,1.02-.4.25-.07.51-.11.77-.17.05-.01.07,0,.08.06,0,.02.04.06.06.06.1,0,.19,0,.29-.01.05,0,.11-.01.16,0,.08.02.17,0,.25,0,.02,0,.04,0,.06,0,.11-.01.18.04.19.15,0,.02.03.05.05.05.05,0,.11,0,.16,0,.04,0,.07,0,.08.05,0,.01.02.03.04.04.06,0,.12,0,.18,0,.02,0,.04,0,.09,0-.08.09.02.14.01.21.05.02.11.04.16.05.05,0,.1-.02.15-.02.07,0,.11.02.13.09.01.06.04.08.1.08.14,0,.28-.02.42-.06.18-.04.34-.15.53-.14.13,0,.27,0,.4.02.1.02.18.09.27.14.08.04.15.09.22.13.04.02.05.04.03.08-.02.03-.03.06-.05.09-.05.1-.02.2.07.26.06.04.11.09.16.13.01.01.03.01.04.02.03.02.07.05.1.08,0,0,.01.02.02.03.08.08.08.08.04.19-.02.06-.04.12-.04.18,0,.09-.05.15-.11.21-.1.08-.2.15-.29.24-.09.09-.08.16.01.24.1.08.19.17.28.25.04.04.08.07.13.11,0,0,.02.02.03.02.02.01.03.03.04.04.06.06.1.14.06.23-.03.08-.05.16-.09.24,0,0-.01.01-.02.02-.03.03-.07.06-.1.09-.03.03-.06.05-.1.07-.07.03-.16.02-.24,0-.09-.01-.18-.02-.28-.03-.02,0-.04,0-.05,0-.03.02-.03.06-.04.1-.03.1-.16.11-.26.11-.04.05,0,.12.05.17.05.05.1.11.16.14.07.04.15.06.22.07.01,0,.03,0,.04,0,.1.02.2.03.3.05,0,0,0,.01,0,.02,0,.03-.01.06-.03.09l.28.24s.04.03.05.05c.04.06.03.13.02.2,0,.02,0,.03,0,.05,0,.02,0,.05,0,.07,0,.05.02.11.05.16,0,.02.02.04.03.06.05.12.05.25.09.37.04.11.15.23.23.32.07.08.14.15.22.21.07.06.17.04.23.11.11,0,.19.06.29.09.05.02.08.04.05.1-.02.04-.04.09-.05.14-.02.09-.01.17.04.25.06.1.06.22.07.34,0,.11,0,.23,0,.34,0,.02,0,.05,0,.06.05.07.03.15.03.22,0,.19,0,.38.04.57.02.07.02.13,0,.2h0ZM17.74,7.65s-.03-.1-.05-.14c-.02-.04-.03-.09-.05-.13-.03-.08-.07-.15-.1-.23-.03-.06-.06-.12-.09-.18,0,0,0-.02-.01-.02-.02-.05-.05-.09-.07-.14-.01-.02-.02-.04-.04-.07-.06-.11-.12-.21-.19-.32-.51-.8-1.19-1.47-2-1.96-1.78-1.1-3.99-1.19-5.92-.23-1.59.79-2.73,2.17-3.19,3.8-.04.15-.08.31-.11.46-.01.06-.02.11-.03.17-.02.14-.04.29-.06.44h0c0,.13-.02.26-.02.38,0,.09,0,.18,0,.27,0,.71.12,1.39.32,2.02.06.19.14.38.22.56.04.1.09.19.14.29.02.04.04.07.06.11.04.07.08.14.12.21,0,0,0,0,0,0,.03.05.06.1.09.14.23.35.5.68.8.97.08.08.17.16.25.23.01,0,.02.02.04.03.04.03.08.06.11.1.04.04.09.07.13.11,0,0,0,0,0,0,.02.02.04.03.06.05h0c.27.2.56.38.87.54h0c.07.04.14.07.22.1.15.07.31.13.47.19.73.27,1.51.41,2.29.41.48,0,.96-.05,1.42-.16,1.17-.26,2.21-.85,3-1.69.88-.94,1.43-2.16,1.63-3.62h0c.1-.9-.02-1.83-.32-2.68h0ZM10.41,5.01c-.08.04-.15.07-.21.1.03,0,.06-.01.09-.01.06,0,.09-.04.12-.09ZM10.87,4.8s-.08.03-.2.09c.02,0,.04,0,.06,0,.07,0,.1-.05.14-.09ZM13.53,10.71s-.03-.02-.05-.03c-.07-.02-.13-.05-.18-.1,0,0,0,0,0,0-.19-.16-.27-.38-.54-.42-.15-.02-.3,0-.45-.03-.03,0-.05-.01-.07-.03-.03-.02-.05-.06-.07-.09-.05-.09-.12-.16-.21-.2-.01,0-.02-.01-.03-.02-.04-.02-.08-.03-.11-.01-.04.01-.06.05-.09.07-.11.09-.29.04-.41.11-.02.01-.05.03-.07.05-.05.04-.09.08-.15.08-.03,0-.06-.01-.09-.02,0,0-.01,0-.02,0-.11-.05-.24-.08-.36-.08-.02,0-.04,0-.05,0-.03.01-.05.05-.06.07-.07.11-.22.15-.34.2,0,0,0,0,0,0-.05.02-.09.04-.13.07-.03.02-.06.05-.09.06-.04.01-.08,0-.12,0l-.24-.03h0l-.23-.03s.06.03.08.05c.23.15.44.33.61.54.04.05.08.09.09.15.01.04.01.09.02.14.02.19.12.36.21.53.03.06.07.12.13.14.02,0,.03.01.05.02.02,0,.03.01.05.02.04.03.05.08.06.13,0,.02,0,.04.01.06.02.08.04.17.05.25,1.22-.5,2.22-1.02,2.99-1.48-.04-.07-.1-.12-.17-.16h0ZM13.53,10.71s-.03-.02-.05-.03c-.07-.02-.13-.05-.18-.1,0,0,0,0,0,0-.19-.16-.27-.38-.54-.42-.15-.02-.3,0-.45-.03-.03,0-.05-.01-.07-.03-.03-.02-.05-.06-.07-.09-.05-.09-.12-.16-.21-.2-.01,0-.02-.01-.03-.02-.04-.02-.08-.03-.11-.01-.04.01-.06.05-.09.07-.11.09-.29.04-.41.11-.02.01-.05.03-.07.05-.05.04-.09.08-.15.08-.03,0-.06-.01-.09-.02,0,0-.01,0-.02,0-.11-.05-.24-.08-.36-.08-.02,0-.04,0-.05,0-.03.01-.05.05-.06.07-.07.11-.22.15-.34.2,0,0,0,0,0,0-.05.02-.09.04-.13.07-.03.02-.06.05-.09.06-.04.01-.08,0-.12,0l-.24-.03h0l-.23-.03s.06.03.08.05c.23.15.44.33.61.54.04.05.08.09.09.15.01.04.01.09.02.14.02.19.12.36.21.53.03.06.07.12.13.14.02,0,.03.01.05.02.02,0,.03.01.05.02.04.03.05.08.06.13,0,.02,0,.04.01.06.02.08.04.17.05.25,1.22-.5,2.22-1.02,2.99-1.48-.04-.07-.1-.12-.17-.16h0ZM10.67,4.89s.04,0,.06,0c.07,0,.1-.05.14-.09.01-.01-.08.03-.2.09ZM10.2,5.11s.06-.01.09-.01c.06,0,.09-.04.12-.09-.08.04-.15.07-.21.1ZM10.2,5.11s.06-.01.09-.01c.06,0,.09-.04.12-.09-.08.04-.15.07-.21.1ZM10.67,4.89s.04,0,.06,0c.07,0,.1-.05.14-.09.01-.01-.08.03-.2.09ZM13.53,10.71s-.03-.02-.05-.03c-.07-.02-.13-.05-.18-.1,0,0,0,0,0,0-.19-.16-.27-.38-.54-.42-.15-.02-.3,0-.45-.03-.03,0-.05-.01-.07-.03-.03-.02-.05-.06-.07-.09-.05-.09-.12-.16-.21-.2-.01,0-.02-.01-.03-.02-.04-.02-.08-.03-.11-.01-.04.01-.06.05-.09.07-.11.09-.29.04-.41.11-.02.01-.05.03-.07.05-.05.04-.09.08-.15.08-.03,0-.06-.01-.09-.02,0,0-.01,0-.02,0-.11-.05-.24-.08-.36-.08-.02,0-.04,0-.05,0-.03.01-.05.05-.06.07-.07.11-.22.15-.34.2,0,0,0,0,0,0-.05.02-.09.04-.13.07-.03.02-.06.05-.09.06-.04.01-.08,0-.12,0l-.24-.03h0l-.23-.03s.06.03.08.05c.23.15.44.33.61.54.04.05.08.09.09.15.01.04.01.09.02.14.02.19.12.36.21.53.03.06.07.12.13.14.02,0,.03.01.05.02.02,0,.03.01.05.02.04.03.05.08.06.13,0,.02,0,.04.01.06.02.08.04.17.05.25,1.22-.5,2.22-1.02,2.99-1.48-.04-.07-.1-.12-.17-.16h0ZM13.53,10.71s-.03-.02-.05-.03c-.07-.02-.13-.05-.18-.1,0,0,0,0,0,0-.19-.16-.27-.38-.54-.42-.15-.02-.3,0-.45-.03-.03,0-.05-.01-.07-.03-.03-.02-.05-.06-.07-.09-.05-.09-.12-.16-.21-.2-.01,0-.02-.01-.03-.02-.04-.02-.08-.03-.11-.01-.04.01-.06.05-.09.07-.11.09-.29.04-.41.11-.02.01-.05.03-.07.05-.05.04-.09.08-.15.08-.03,0-.06-.01-.09-.02,0,0-.01,0-.02,0-.11-.05-.24-.08-.36-.08-.02,0-.04,0-.05,0-.03.01-.05.05-.06.07-.07.11-.22.15-.34.2,0,0,0,0,0,0-.05.02-.09.04-.13.07-.03.02-.06.05-.09.06-.04.01-.08,0-.12,0l-.24-.03h0l-.23-.03s.06.03.08.05c.23.15.44.33.61.54.04.05.08.09.09.15.01.04.01.09.02.14.02.19.12.36.21.53.03.06.07.12.13.14.02,0,.03.01.05.02.02,0,.03.01.05.02.04.03.05.08.06.13,0,.02,0,.04.01.06.02.08.04.17.05.25,1.22-.5,2.22-1.02,2.99-1.48-.04-.07-.1-.12-.17-.16h0ZM10.67,4.89s.04,0,.06,0c.07,0,.1-.05.14-.09.01-.01-.08.03-.2.09ZM10.2,5.11s.06-.01.09-.01c.06,0,.09-.04.12-.09-.08.04-.15.07-.21.1ZM10.2,5.11s.06-.01.09-.01c.06,0,.09-.04.12-.09-.08.04-.15.07-.21.1ZM10.67,4.89s.04,0,.06,0c.07,0,.1-.05.14-.09.01-.01-.08.03-.2.09ZM13.53,10.71s-.03-.02-.05-.03c-.07-.02-.13-.05-.18-.1,0,0,0,0,0,0-.19-.16-.27-.38-.54-.42-.15-.02-.3,0-.45-.03-.03,0-.05-.01-.07-.03-.03-.02-.05-.06-.07-.09-.05-.09-.12-.16-.21-.2-.01,0-.02-.01-.03-.02-.04-.02-.08-.03-.11-.01-.04.01-.06.05-.09.07-.11.09-.29.04-.41.11-.02.01-.05.03-.07.05-.05.04-.09.08-.15.08-.03,0-.06-.01-.09-.02,0,0-.01,0-.02,0-.11-.05-.24-.08-.36-.08-.02,0-.04,0-.05,0-.03.01-.05.05-.06.07-.07.11-.22.15-.34.2,0,0,0,0,0,0-.05.02-.09.04-.13.07-.03.02-.06.05-.09.06-.04.01-.08,0-.12,0l-.24-.03h0l-.23-.03s.06.03.08.05c.23.15.44.33.61.54.04.05.08.09.09.15.01.04.01.09.02.14.02.19.12.36.21.53.03.06.07.12.13.14.02,0,.03.01.05.02.02,0,.03.01.05.02.04.03.05.08.06.13,0,.02,0,.04.01.06.02.08.04.17.05.25,1.22-.5,2.22-1.02,2.99-1.48-.04-.07-.1-.12-.17-.16h0ZM10.67,4.89s.04,0,.06,0c.07,0,.1-.05.14-.09.01-.01-.08.03-.2.09ZM10.2,5.11s.06-.01.09-.01c.06,0,.09-.04.12-.09-.08.04-.15.07-.21.1ZM10.2,5.11s.06-.01.09-.01c.06,0,.09-.04.12-.09-.08.04-.15.07-.21.1ZM10.67,4.89s.04,0,.06,0c.07,0,.1-.05.14-.09.01-.01-.08.03-.2.09ZM10.67,4.89s.04,0,.06,0c.07,0,.1-.05.14-.09.01-.01-.08.03-.2.09ZM10.2,5.11s.06-.01.09-.01c.06,0,.09-.04.12-.09-.08.04-.15.07-.21.1ZM10.2,5.11s.06-.01.09-.01c.06,0,.09-.04.12-.09-.08.04-.15.07-.21.1ZM10.67,4.89s.04,0,.06,0c.07,0,.1-.05.14-.09.01-.01-.08.03-.2.09Z"/>
    <path class="cls-3" d="M17.51,7.18c-1.67,1.61-4.2,4.18-6.86,4.92-1.57.51-2.77.81-4.15.5-2.07-.6-1.92-3.26-.45-4.62l-.09.53s-.12.42.15.96c.43.89,6.73.83,11.32-2.6-.19.14,0,.08.08.3h0Z"/>
    <path class="cls-1" d="M5.96,8.53c-.24.4-.32.76-.2,1.08.45,1.22,3.66,1.04,7.25-.18,1.85-.63,3.47-1.7,4.44-2.43.58-.44.93-.75.94-.76,0,0,0,0,0,0h0s-.33.39-.88.93c-.22.22-.49.48-.78.75-1.22,1.13-3,2.57-4.94,3.46-2.5,1.14-5.56,1.71-6.33.17-.45-.91-.38-2.01.51-3.13v.11s-.01,0-.01,0Z"/>
    <g>
      <path class="cls-3" d="M20.14,4.26c-.71-.09-1.34.49-1.73.87-.02.02-.04.04-.07.06-.05-.01-.21-.08-.43-.18,0,0,0,0,.01-.01.02-.03.04-.05.06-.08.02-.03.03-.05.04-.08.01-.02.02-.05.03-.07,0-.02.01-.04.01-.06,0-.02,0-.04,0-.05,0-.01-.01-.03-.02-.04,0-.01-.02-.02-.04-.02-.01,0-.03,0-.05,0-.02,0-.04,0-.06,0-.02,0-.05.01-.07.02-.03.01-.05.02-.08.04-.03.01-.05.03-.08.05-.03.02-.06.04-.08.06-.02.02-.04.04-.06.05-.13-.06-.27-.12-.42-.18,0,0,.01-.01.02-.02.02-.02.04-.04.06-.07.02-.02.03-.04.05-.07.01-.02.03-.04.03-.06,0-.02.02-.04.02-.06,0-.02,0-.04,0-.05s0-.03,0-.04c0-.01,0-.02-.02-.03,0,0-.02-.01-.03-.02-.01,0-.03,0-.04,0-.02,0-.03,0-.05,0-.02,0-.04.01-.06.02-.02,0-.04.02-.07.03-.02.01-.05.03-.07.04-.02.02-.05.03-.07.05-.02.02-.05.04-.07.06-.02.02-.04.04-.06.06,0,0,0,0,0,0-.33-.13-.67-.26-1-.36-.09-.03-.14.1-.07.15.59.39,1.41.86,1.8,1.6l.49-.31c-.51.51-1.17,1.17-1.17,1.17l-.91-.09-.24.25.17.03,1,.52h0s2.38-1.57,3.43-3c.05-.07,0-.18-.09-.19Z"/>
      <path class="cls-3" d="M19.29,7.15s-.02-.01-.03-.02c-.01,0-.03,0-.04,0-.02,0-.03,0-.05,0-.02,0-.04,0-.06,0-.02,0-.04,0-.07.01-.02,0-.05.01-.07.02-.02,0-.03.01-.05.02,0-.14.02-.27.02-.4.02,0,.04-.02.06-.03.03-.01.05-.03.08-.04.02-.02.05-.03.07-.05.02-.02.04-.03.06-.05.02-.02.03-.03.04-.05.01-.02.02-.03.03-.05,0-.01.01-.03.01-.04,0-.01,0-.02,0-.04,0-.01-.01-.02-.02-.03,0,0-.02-.02-.04-.02-.01,0-.03,0-.05-.01-.02,0-.04,0-.06,0-.02,0-.05,0-.07,0-.03,0-.05,0-.08.02,0-.25,0-.4,0-.4h0s-.81.67-.81.67c.38.57.35,1.31.44,1.88,0,.07.1.07.12,0,.09-.32.15-.7.19-1.06.02,0,.03,0,.05-.02.02,0,.05-.02.07-.03.02,0,.05-.02.07-.03s.04-.02.06-.04c.02-.01.04-.03.06-.04.02-.01.03-.03.05-.04.01-.01.03-.03.03-.04,0-.01.02-.03.02-.04,0-.01,0-.02,0-.03,0-.01,0-.02,0-.03,0,0,0-.02-.02-.02Z"/>
    </g>
    <path class="cls-3" d="M15.68,9.78c-.2.17-.85.73-1.73,1.38-.76.56-1.69,1.2-2.65,1.72-.7.39-1.42.71-2.1.91-.48.14-.88.22-1.2.24-.16.01-.3.02-.42.01-1.14-.05-1.13-.83-.89-1.12,0,0,0,0,0,0,.01.02.1.15.11.16.06.09.22.2.53.25.54.09,1.5,0,3.08-.6.19-.08.38-.15.57-.23,1.17-.49,2.12-.99,2.87-1.44,1.03-.62,1.65-1.12,1.85-1.28h0Z"/>
    <path class="cls-3" d="M10.41,14.01c-1.58.75-2.11.67-2.29.52-.03-.03-.14-.13-.15-.12-.18.32.02,1.15,1.88.46,2.04-.76,4.61-3.69,4.61-3.69,0,0-1.58,1.67-4.05,2.84h0Z"/>
  </g>
  <g>
    <g>
      <path class="cls-3" d="M5.21,17.81h.02s0,0,0,0h0c.11-.03.19-.09.24-.17.05-.08.08-.18.08-.28,0-.15-.05-.27-.15-.36-.09-.07-.21-.11-.37-.11h-.78v1.58h.32v-.63h.28s.37.61.37.61v.02s.04,0,.04,0h.26s.09,0,.09,0l-.05-.08-.37-.58ZM4.58,17.16h.27c.12,0,.21,0,.26.03.08.03.11.08.11.16s-.03.2-.32.2h-.32v-.39Z"/>
      <path class="cls-3" d="M6.59,16.92v-.03h-.3v.03s-.55,1.48-.55,1.48l-.02.07h.07s.24,0,.24,0h.04s.01-.03.01-.03l.15-.43h.44l.15.43v.03h.36l-.02-.07-.54-1.48ZM6.55,17.72h-.24s.12-.36.12-.36l.12.36Z"/>
      <polygon class="cls-3" points="8.42 16.88 8.37 16.88 8.37 16.93 8.37 17.94 7.71 16.91 7.7 16.88 7.67 16.88 7.43 16.88 7.38 16.88 7.38 16.93 7.38 18.41 7.38 18.46 7.43 18.46 7.63 18.46 7.68 18.46 7.68 18.41 7.68 17.43 8.31 18.44 8.33 18.46 8.35 18.46 8.61 18.46 8.66 18.46 8.66 18.41 8.66 16.93 8.66 16.88 8.61 16.88 8.42 16.88"/>
      <polygon class="cls-3" points="9.13 16.88 9.08 16.88 9.08 16.93 9.08 18.41 9.08 18.46 9.13 18.46 9.36 18.46 9.41 18.46 9.41 18.41 9.41 16.93 9.41 16.88 9.36 16.88 9.13 16.88"/>
      <path class="cls-3" d="M10.45,16.92v-.03h-.3v.03s-.55,1.48-.55,1.48l-.02.07h.07s.24,0,.24,0h.04s.01-.03.01-.03l.15-.43h.44l.15.43v.03h.36l-.02-.07-.54-1.48ZM10.42,17.72h-.24s.12-.36.12-.36l.12.36Z"/>
      <polygon class="cls-3" points="12.43 16.89 11.84 16.88 11.79 16.88 11.79 16.93 11.79 17.12 11.79 17.17 11.84 17.17 12.26 17.17 12.26 18.41 12.26 18.46 12.31 18.46 12.54 18.46 12.59 18.46 12.59 18.41 12.59 17.17 13.01 17.17 13.06 17.17 13.06 17.12 13.06 16.94 13.06 16.89 13.01 16.89 12.43 16.89"/>
      <path class="cls-3" d="M14.26,17.81h.02s0,0,0,0h0c.11-.03.19-.09.24-.17.05-.08.08-.18.08-.28,0-.15-.05-.27-.15-.36-.09-.07-.21-.11-.37-.11h-.78v1.58h.32v-.63h.28s.37.61.37.61v.02s.04,0,.04,0h.26s.09,0,.09,0l-.05-.08-.37-.58ZM13.63,17.16h.27c.12,0,.21,0,.26.03.08.03.11.08.11.16s-.03.2-.32.2h-.32v-.39Z"/>
      <path class="cls-3" d="M15.67,16.92v-.03h-.3v.03s-.55,1.48-.55,1.48l-.02.07h.07s.24,0,.24,0h.04s.01-.03.01-.03l.15-.43h.44l.15.43v.03h.36l-.02-.07-.54-1.48ZM15.63,17.72h-.24s.12-.36.12-.36l.12.36Z"/>
      <polygon class="cls-3" points="17.24 16.88 17.2 16.89 17.19 16.92 16.83 17.95 16.48 16.92 16.46 16.88 16.43 16.88 16.2 16.88 16.13 16.88 16.15 16.95 16.67 18.43 16.68 18.46 16.72 18.46 16.93 18.46 16.96 18.46 16.97 18.43 17.51 16.95 17.54 16.88 17.47 16.88 17.24 16.88"/>
      <polygon class="cls-3" points="18.09 18.18 18.09 17.77 18.75 17.77 18.8 17.77 18.8 17.72 18.8 17.54 18.8 17.49 18.75 17.49 18.09 17.49 18.09 17.15 18.22 17.15 18.63 17.15 18.75 17.15 18.86 17.15 18.91 17.15 18.91 17.1 18.91 16.93 18.91 16.88 18.86 16.88 18.33 16.88 17.81 16.88 17.77 16.89 17.77 16.93 17.77 18.41 17.77 18.46 17.82 18.46 18.88 18.46 18.93 18.46 18.93 18.41 18.93 18.23 18.93 18.18 18.88 18.18 18.09 18.18"/>
      <polygon class="cls-3" points="20.25 18.17 19.54 18.17 19.54 16.93 19.54 16.88 19.5 16.88 19.27 16.88 19.22 16.88 19.22 16.93 19.22 18.41 19.22 18.46 19.27 18.46 20.25 18.46 20.3 18.46 20.3 18.41 20.3 18.22 20.3 18.17 20.25 18.17"/>
    </g>
    <g>
      <path class="cls-2" d="M8.4,19.61s0-.02,0-.03c0,0,0-.02,0-.02,0,0,0-.01,0-.02,0,0,0,.01,0,.02,0,0,0,.02,0,.02,0,0,0,.02,0,.03l-.14.41h-.16l-.23-.79h.17l.13.47s.01.04.02.06c0,.02.01.04.02.06,0,.02.01.05.02.07,0-.02.02-.05.02-.07,0-.02.01-.04.02-.06,0-.02.01-.04.02-.06l.12-.37h.09l.13.37s.01.04.02.06c0,.02.01.04.02.06,0,.02.01.05.02.07,0-.02.01-.05.02-.07,0-.02.01-.04.02-.06,0-.02.01-.04.02-.06l.13-.47h.1l-.23.79h-.16l-.14-.42Z"/>
      <path class="cls-2" d="M9.51,20.03h-.16v-.79h.16v.79Z"/>
      <path class="cls-2" d="M10.17,20.03v-.71h-.24s0-.08,0-.08h.64v.08s-.24,0-.24,0v.71h-.16Z"/>
      <path class="cls-2" d="M11.52,20.03v-.36h-.36v.36h-.16v-.79h.16v.35h.36v-.35h.16v.79h-.16Z"/>
      <path class="cls-2" d="M13.4,20.03l-.56-.56h0s0,.09,0,.13c0,.02,0,.03,0,.05,0,.02,0,.03,0,.05,0,.01,0,.03,0,.04,0,.01,0,.02,0,.02v.27h-.09v-.8h.07l.56.56h0s0-.08,0-.12c0-.02,0-.03,0-.05,0-.02,0-.03,0-.05,0-.01,0-.03,0-.04v-.29h.09v.8h-.07Z"/>
      <path class="cls-2" d="M14.48,20.03l-.09-.27h-.3s-.1.27-.1.27h-.1l.31-.79.16-.03.29.81h-.17ZM14.36,19.68l-.12-.34-.13.34h.25Z"/>
      <path class="cls-2" d="M15.71,20.03l-.56-.56h0s0,.09,0,.13c0,.02,0,.03,0,.05,0,.02,0,.03,0,.05,0,.01,0,.03,0,.04,0,.01,0,.02,0,.02v.27h-.09v-.8h.07l.56.56h0s0-.08,0-.12c0-.02,0-.03,0-.05,0-.02,0-.03,0-.05,0-.01,0-.03,0-.04v-.29h.09v.8h-.07Z"/>
      <path class="cls-2" d="M16.45,20.03h-.16v-.79h.16v.79Z"/>
    </g>
  </g>
</svg>