<?xml version="1.0" encoding="UTF-8"?>
<svg id="Layer_1" data-name="Layer 1" xmlns="http://www.w3.org/2000/svg" viewBox="0 0 24.56 23.59">
  <defs>
    <style>
      .cls-1 {
        fill: #2b3990;
      }

      .cls-2 {
        fill: #009444;
      }
    </style>
  </defs>
  <g>
    <g>
      <path class="cls-2" d="M5.11,19.46s.05,0,.07.01c.02,0,.03.02.04.04.01.02.02.03.02.06,0,.02,0,.04,0,.07v.11h-1.11v-1.28h0v-.28s0-.05.02-.07c.01-.02.03-.03.05-.04.02-.01.04-.02.07-.02.03,0,.05,0,.08,0h.13v1.42h.62Z"/>
      <path class="cls-2" d="M5.44,19.5l.52-1.46h.38l.53,1.46c.06.17-.02.25-.24.24h-.05l-.14-.43h-.58l-.14.43h-.06c-.2,0-.27-.08-.21-.24ZM5.94,19.05h.42l-.21-.64-.21.64Z"/>
      <path class="cls-2" d="M7.14,19.74h0c0-.27,0-.53,0-.79,0-.26,0-.51,0-.77,0-.03,0-.05.02-.07.01-.02.03-.03.05-.04.02-.01.04-.02.07-.02.03,0,.05,0,.08,0h.51c.09,0,.16.01.23.03.07.02.12.05.17.09.04.04.08.08.1.14s.03.11.03.17c0,.04,0,.07-.02.11-.01.04-.03.07-.05.1-.02.03-.05.06-.08.08-.03.02-.07.05-.13.07.07.02.13.04.17.07.04.02.07.05.1.09.03.03.05.07.06.12.02.04.02.09.02.14,0,.07-.01.14-.04.19-.03.06-.06.11-.11.15-.05.04-.11.08-.19.1-.08.02-.16.04-.26.04h-.73ZM7.49,18.75h.25c.1,0,.17-.02.23-.06.05-.04.08-.09.08-.17,0-.07-.02-.12-.06-.16-.04-.04-.11-.06-.2-.06h-.3v.44ZM7.49,18.99v.49h.31c.21,0,.32-.08.32-.25,0-.08-.03-.15-.08-.18-.06-.04-.14-.06-.25-.06h-.3Z"/>
      <path class="cls-2" d="M8.63,18.89c0-.13.02-.24.05-.35.04-.11.09-.2.16-.28.07-.08.16-.14.26-.18.1-.04.22-.07.36-.07s.25.02.36.07c.1.04.19.11.26.18.07.08.12.17.16.28.04.11.05.22.05.35s-.02.24-.05.35c-.04.11-.09.2-.16.28-.07.08-.16.14-.26.18-.1.04-.22.07-.36.07s-.25-.02-.36-.07c-.1-.04-.19-.1-.26-.18-.07-.08-.12-.17-.16-.28-.04-.11-.05-.22-.05-.35ZM8.99,18.89s0,.07,0,.11c0,.04.01.08.02.11.01.04.02.07.04.11.02.04.04.07.06.1.04.05.09.09.14.12.05.03.12.04.2.04s.14-.01.2-.04c.05-.03.1-.07.14-.12.03-.03.05-.06.06-.1.02-.04.03-.07.04-.11.01-.04.02-.08.02-.11,0-.04,0-.08,0-.11s0-.07,0-.11c0-.04-.01-.08-.02-.11-.01-.04-.02-.07-.04-.11-.02-.04-.04-.07-.06-.1-.04-.05-.09-.09-.14-.12-.05-.03-.12-.04-.2-.04s-.14.01-.2.04c-.05.03-.1.07-.14.12-.03.03-.05.06-.06.1-.02.04-.03.07-.04.11-.01.04-.02.08-.02.11,0,.04,0,.08,0,.11Z"/>
      <path class="cls-2" d="M10.52,18.18s0-.05.02-.07c.01-.02.03-.03.05-.04.02-.01.04-.02.07-.02.03,0,.05,0,.08,0h.48c.11,0,.2.01.27.04.08.03.14.07.19.12.05.05.09.11.11.17.02.06.03.13.03.2,0,.05,0,.09-.02.14s-.03.09-.05.13c-.02.04-.05.08-.09.12-.04.04-.09.07-.15.1l.23.41c.1.18.04.27-.18.27h-.07l-.33-.63h-.29v.49s0,.05-.02.07c-.01.02-.03.03-.05.04-.02.01-.04.02-.07.02-.03,0-.05,0-.08,0h-.13v-.36h0v-1.2ZM11.19,18.86s.09,0,.13-.02c.04-.01.06-.03.09-.06.02-.02.04-.05.05-.09.01-.03.02-.07.02-.11s0-.07-.02-.1c-.01-.03-.03-.06-.05-.09-.02-.02-.05-.04-.09-.06-.04-.01-.08-.02-.13-.02h-.31v.54h.32Z"/>
      <path class="cls-2" d="M12.07,19.5l.52-1.46h.38l.53,1.46c.06.17-.02.25-.24.24h-.05l-.14-.43h-.58l-.14.43h-.06c-.2,0-.27-.08-.21-.24ZM12.56,19.05h.42l-.21-.64-.21.64Z"/>
      <path class="cls-2" d="M14.52,19.6s0,.05-.02.07c-.01.02-.03.03-.05.04-.02.01-.04.02-.07.02-.03,0-.05,0-.08,0h-.13v-1.42h-.37s-.05,0-.07-.02c-.02-.01-.03-.02-.04-.04-.01-.02-.02-.04-.02-.06,0-.02,0-.05,0-.08v-.08h1.36v.08s0,.05,0,.08c0,.02-.01.05-.02.06-.01.02-.03.03-.04.04-.02.01-.04.02-.07.02h-.36v1.28Z"/>
      <path class="cls-2" d="M15.18,18.89c0-.13.02-.24.05-.35.04-.11.09-.2.16-.28.07-.08.16-.14.26-.18.1-.04.22-.07.36-.07s.25.02.36.07c.1.04.19.11.26.18.07.08.12.17.16.28.04.11.05.22.05.35s-.02.24-.05.35c-.04.11-.09.2-.16.28-.07.08-.16.14-.26.18-.1.04-.22.07-.36.07s-.25-.02-.36-.07c-.1-.04-.19-.1-.26-.18-.07-.08-.12-.17-.16-.28-.04-.11-.05-.22-.05-.35ZM15.53,18.89s0,.07,0,.11c0,.04.01.08.02.11.01.04.02.07.04.11.02.04.04.07.06.1.04.05.09.09.14.12.05.03.12.04.2.04s.14-.01.2-.04c.05-.03.1-.07.14-.12.03-.03.05-.06.06-.1.02-.04.03-.07.04-.11.01-.04.02-.08.02-.11,0-.04,0-.08,0-.11s0-.07,0-.11c0-.04-.01-.08-.02-.11-.01-.04-.02-.07-.04-.11-.02-.04-.04-.07-.06-.1-.04-.05-.09-.09-.14-.12-.05-.03-.12-.04-.2-.04s-.14.01-.2.04c-.05.03-.1.07-.14.12-.03.03-.05.06-.06.1-.02.04-.03.07-.04.11-.01.04-.02.08-.02.11,0,.04,0,.08,0,.11Z"/>
      <path class="cls-2" d="M17.28,18.04h.13v1.56s0,.05-.02.07c-.01.02-.03.03-.05.04-.02.01-.04.02-.07.02-.03,0-.05,0-.08,0h-.13c0-.27,0-.53,0-.79,0-.26,0-.51,0-.77,0-.03,0-.05.02-.07.01-.02.03-.03.05-.04.02-.01.04-.02.07-.02.03,0,.05,0,.08,0Z"/>
      <path class="cls-2" d="M17.72,18.18s0-.05.02-.07c.01-.02.03-.03.05-.04.02-.01.04-.02.07-.02.03,0,.05,0,.08,0h.48c.11,0,.2.01.27.04.08.03.14.07.19.12.05.05.09.11.11.17.02.06.03.13.03.2,0,.05,0,.09-.02.14s-.03.09-.05.13c-.02.04-.05.08-.09.12-.04.04-.09.07-.15.1l.23.41c.1.18.04.27-.18.27h-.07l-.33-.63h-.29v.49s0,.05-.02.07c-.01.02-.03.03-.05.04-.02.01-.04.02-.07.02-.03,0-.05,0-.08,0h-.13v-.36h0v-1.2ZM18.38,18.86s.09,0,.13-.02c.04-.01.06-.03.09-.06.02-.02.04-.05.05-.09.01-.03.02-.07.02-.11s0-.07-.02-.1c-.01-.03-.03-.06-.05-.09-.02-.02-.05-.04-.09-.06-.04-.01-.08-.02-.13-.02h-.31v.54h.32Z"/>
      <path class="cls-2" d="M20.43,19.74h-1.01c-.09,0-.13-.06-.13-.16v-1.39s0-.05.02-.07c.01-.02.03-.03.05-.04.02-.01.04-.02.07-.02.03,0,.05,0,.08,0h.93v.11s0,.05,0,.07c0,.02-.01.04-.02.06-.01.02-.03.03-.04.04-.02,0-.04.01-.07.01h-.65v.42h.57s.05,0,.07.01c.02,0,.03.02.04.04.01.02.02.03.02.06,0,.02,0,.04,0,.07v.11c-.23,0-.47,0-.72,0v.42h.65s.05,0,.07.01c.02,0,.03.02.04.04.01.02.02.03.02.06,0,.02,0,.04,0,.07v.11Z"/>
    </g>
    <g>
      <rect class="cls-1" x="5.54" y="13.25" width="1.31" height=".92" rx=".26" ry=".26"/>
      <path class="cls-1" d="M5.92,17.49h.55c.21,0,.38-.17.38-.38v-2.38c0-.16-.13-.29-.29-.29h-.73c-.16,0-.29.13-.29.29v2.38c0,.21.17.38.38.38Z"/>
      <path class="cls-1" d="M18.88,14.47c-.27-.7-.87-1.18-1.54-1.21h-.13s-.01,0-.02,0l-3.13.9s-.05.03-.05.06v2.92c0,.2.16.35.35.35h2.97s0,0,0,0c.91-.07,1.65-.95,1.68-2.05,0-.43-.04-.75-.14-.97ZM16.97,16.56h-1.58s-.06-.03-.06-.06v-2.27s.03-.06.06-.06h1.14c.65,0,1.2.52,1.21,1.17,0,0,0,.02,0,.03,0,.66-.35,1.19-.77,1.19Z"/>
      <path class="cls-1" d="M15.42,13.41c.09-.03.07-.16-.02-.16h-3.33s-.04,0-.06.03l-1.58,1.77s-.09.04-.12,0l-.98-1.09h0s-.61-.68-.61-.68c-.02-.02-.04-.03-.06-.03h-1.08s-.08.04-.08.08v3.74c0,.23.19.42.42.42h.81s.08-.04.08-.08v-2.38h0s1.2,1.3,1.2,1.3c.06.07.16.11.25.11h.22c.1,0,.19-.04.25-.11l1.06-1.15c.05-.05.14-.02.14.05v2.17s.04.08.08.08h.8c.23,0,.42-.19.42-.42v-2.97s.02-.07.06-.08l2.14-.62Z"/>
    </g>
  </g>
  <g>
    <path class="cls-1" d="M10.84,12.24c-.23,0-.45,0-.68,0-.05,0-.05,0-.05-.05,0-.04,0-.08,0-.12,0-.03.01-.04.04-.04.09,0,.18,0,.26,0,.04,0,.05-.01.05-.05,0-.13,0-.27,0-.4,0-.07,0-.07.07-.07.55,0,1.1,0,1.65,0,.01,0,.03,0,.04,0-.18-.15-.28-.34-.26-.58.01-.16.08-.31.21-.42.27-.24.65-.22.9.06.22.24.22.69-.12.93.01.01.03,0,.04,0,.38,0,.75,0,1.13,0,.27,0,.54,0,.8,0,.06,0,.06,0,.06.06,0,.14,0,.27,0,.41,0,.04.01.05.05.05.08,0,.16,0,.24,0,.03,0,.05.01.04.04,0,.05,0,.1,0,.14,0,.03-.01.04-.04.04-.01,0-.03,0-.04,0-1.31,0-2.63,0-3.94,0h-.45ZM12.58,11.37c.22.01.4-.18.4-.39,0-.22-.17-.4-.4-.4-.24,0-.4.17-.4.4,0,.22.18.4.4.39Z"/>
    <path class="cls-1" d="M13,7.07c-.1,0-.17-.05-.19-.15-.02-.09-.03-.17-.04-.26-.01-.1-.03-.2-.04-.3-.02-.14-.04-.27-.06-.41-.02-.14-.04-.29-.06-.43-.02-.13-.03-.26-.05-.4-.02-.13-.04-.25-.06-.38-.01-.08-.02-.16-.03-.25-.01-.1-.03-.2-.04-.3-.01-.08,0-.15.06-.2.03-.02.06-.04.09-.04.08-.01.16-.02.24-.03.09-.01.18-.03.27-.04.08,0,.16-.02.24-.03.06,0,.13-.02.19-.02.08,0,.15.02.19.09.02.03.02.07.03.11.02.15.04.3.06.45.01.11.03.22.05.33.02.15.04.29.06.44,0,.08.02.15.03.23.01.13.04.25.06.38.01.08.02.17.03.25.01.1.03.21.04.31.02.12.03.23.05.35,0,.07-.05.15-.12.18-.04.01-.07.02-.11.02-.19.03-.37.05-.56.08-.09.01-.17.02-.26.04-.02,0-.04,0-.07,0Z"/>
    <path class="cls-1" d="M13.92,8.98c.54,0,1.08,0,1.62,0q.07,0,.07.07c0,.1,0,.19,0,.29q0,.07-.07.07c-.49,0-.99,0-1.48,0-.53,0-1.06,0-1.59,0-.07,0-.14,0-.21,0-.02,0-.03-.01-.03-.03,0-.12,0-.23,0-.35,0-.03.01-.04.04-.04.01,0,.03,0,.04,0,.54,0,1.08,0,1.62,0h0Z"/>
    <path class="cls-2" d="M10.8,10.66c-.12-.04-.23-.07-.33-.12-.09-.04-.19-.08-.28-.13-.23-.13-.43-.29-.56-.53-.06-.12-.1-.25-.11-.38-.01-.12,0-.23.01-.35.01-.09.04-.18.06-.27.06-.22.15-.42.25-.62.05-.09.08-.2.12-.29.05-.14.11-.27.16-.41.04-.12.07-.24.09-.36.02-.15.02-.3,0-.45,0-.08-.01-.16-.03-.24,0-.01,0-.03,0-.04.03.02.04.05.05.07.07.12.12.25.16.38.03.11.05.23.06.34,0,.14,0,.28-.01.42-.02.16-.06.32-.12.47-.07.19-.17.37-.26.55-.07.14-.12.29-.16.44-.02.11-.04.22-.04.33,0,.2.07.38.18.55.12.19.29.33.47.46.08.06.16.1.25.15.01,0,.03.01.04.03Z"/>
    <path class="cls-1" d="M9.98,6.18c.15-.09.3-.17.46-.25.09-.04.18-.08.27-.13,0,0,0,0,.01,0,0,.01,0,.02-.02.03-.1.12-.2.25-.31.36-.08.08-.17.15-.26.22-.23.2-.48.37-.69.6-.11.12-.2.26-.24.42-.03.12-.03.24,0,.35.05.2.16.37.29.52.02.03.04.05.06.08-.06-.02-.11-.05-.16-.09-.17-.12-.3-.27-.38-.46-.06-.14-.08-.29-.07-.45.03-.26.15-.47.31-.67.1-.12.21-.23.34-.32l.38-.23Z"/>
    <path class="cls-1" d="M10.31,8.45c.07.03.14.06.2.1.25.17.43.39.55.67.07.15.11.31.13.47.01.09.02.18.03.27,0,.16.02.33.05.49.03.16.09.31.21.43.07.07.15.12.24.15.05.02.04.06.06.09,0,0,0,.02,0,.03.02.07.02.08-.06.07-.31-.04-.54-.19-.68-.49-.07-.15-.1-.3-.12-.46-.02-.2-.02-.4-.04-.59-.02-.24-.06-.47-.18-.68-.1-.18-.22-.35-.37-.5-.01-.01-.02-.02-.03-.04Z"/>
    <path class="cls-1" d="M9.93,6.08s-.01,0,0-.01c.02-.03.05-.06.08-.09.2-.23.43-.42.69-.58.11-.07.22-.13.34-.18.1-.04.19-.08.29-.11.08-.02.15-.05.23-.07.1-.03.21-.05.31-.06.15-.03.3-.02.46-.03.04,0,.09,0,.14,0,.03,0,.03.02.03.04,0,.09.03.18.03.27,0,.02.02.05,0,.07-.02.01-.04,0-.07,0-.09,0-.18-.02-.28-.01-.15,0-.3,0-.45.03-.22.03-.42.09-.63.17-.17.07-.39.18-.52.25-.07.04-.25.14-.32.17-.16.07-.17.07-.32.15,0,0,0,0,0,0Z"/>
    <path class="cls-1" d="M15.02,9.5s0,.02-.01.02c-.14.26-.32.49-.52.69-.21.21-.44.38-.7.52-.12.07-.25.12-.37.17-.02,0-.05.01-.06-.02-.02-.05-.06-.1-.08-.14-.01-.02-.02-.03.01-.05.18-.08.35-.18.51-.29.19-.14.35-.29.5-.47.11-.13.21-.28.3-.43.01-.02.03-.03.06-.03.11,0,.22,0,.33,0,.01,0,.03,0,.04.02Z"/>
    <path class="cls-1" d="M13.77,7.07s.03,0,.04,0c.02,0,.04.01.04.03.01.09.02.18.03.27,0,.04-.01.05-.04.06-.07.01-.13.02-.2.03-.1.01-.21.03-.31.04-.06,0-.07,0-.08-.06-.02-.08-.02-.17-.04-.26,0-.04.01-.05.04-.05.04,0,.08-.01.12-.02.13-.02.27-.04.4-.06,0,0,0,0,0,0Z"/>
    <path class="cls-1" d="M10.06,9.57s-.06.01-.06-.03c0-.05,0-.05.04-.06.09-.01.18-.02.27-.03.09-.01.19-.02.28-.03.04,0,.07,0,.11-.01.03,0,.05.02.05.06,0,.03-.02.03-.04.03-.13.01-.25.03-.38.04-.09,0-.18.02-.27.03Z"/>
    <path class="cls-2" d="M10.7,9.8s.02,0,.03,0c.03,0,.04,0,.05.04,0,.03,0,.05-.04.05-.09,0-.17.02-.26.03-.1.01-.21.02-.31.04-.03,0-.08-.05-.07-.08,0-.02.03-.02.04-.02.04,0,.08,0,.12-.01.09,0,.17-.02.26-.03.06,0,.12-.01.17-.02Z"/>
    <path class="cls-1" d="M9.49,7.21c.18.01.36.02.54.03.02,0,.04,0,.03.03,0,.02,0,.05-.04.05-.08,0-.17,0-.25-.01-.1-.01-.19,0-.29-.02-.01,0-.02,0-.03,0-.02,0-.05,0-.06-.02,0-.02.04-.06.07-.06.01,0,.02,0,.03,0,0,0,0,0,0,0Z"/>
    <path class="cls-2" d="M9.82,7.73c-.15-.01-.31-.02-.48-.03-.04,0-.04-.03-.04-.06,0-.04.03-.03.05-.02.09,0,.18.01.27.02.09,0,.19,0,.28.01.02,0,.05,0,.04.03,0,.02,0,.06-.04.06-.02,0-.05,0-.08,0Z"/>
    <path class="cls-2" d="M10.54,8.99s.07.02.07.06c0,.02,0,.02-.02.02-.08,0-.15.02-.23.03-.09,0-.19.02-.28.03-.02,0-.05.02-.06-.02,0-.04.02-.07.05-.08.16-.02.31-.03.47-.05Z"/>
    <path class="cls-1" d="M10.49,10.31s-.09-.04-.1-.06c0-.01,0-.02.01-.02.02,0,.03,0,.05,0,.1-.01.21-.02.31-.03,0,0,.01,0,.02,0,.02.02.01.04.02.07,0,.02,0,.02-.02.03-.1,0-.19.02-.28.03Z"/>
    <path class="cls-1" d="M9.52,8.03c.09.01.18,0,.27.02.02,0,.03,0,.02.03-.02.06-.02.06-.09.05-.05-.01-.11,0-.16,0-.04,0-.08,0-.09-.05-.01-.03,0-.04.03-.04,0,0,.01,0,.02,0Z"/>
    <path class="cls-2" d="M9.89,6.79c.07,0,.12,0,.18,0,.04,0,.03.03.03.05,0,.03,0,.04-.04.04-.1,0-.2,0-.3-.02,0,0-.02,0-.02-.01,0,0,0-.01.01-.02.04-.04.09-.06.13-.05Z"/>
    <path class="cls-2" d="M12.9,10.98c.02.16-.14.33-.32.32-.19,0-.33-.15-.33-.32,0-.19.14-.32.32-.33.18,0,.33.15.32.33Z"/>
  </g>
  <path class="cls-2" d="M5.84,12.9c-.05-.12-.09-.24-.13-.36-.03-.12-.06-.25-.08-.38-.04-.25-.05-.51-.03-.77.04-.52.21-1.03.5-1.47.07-.11.15-.21.24-.31.09-.1.18-.19.28-.28.1-.09.2-.17.31-.24.03-.02.05-.04.08-.05l.08-.05c.06-.03.11-.07.17-.09.23-.12.48-.21.73-.27.13-.03.25-.05.38-.07.13-.01.25-.02.38-.02-.25.05-.49.12-.72.22-.23.09-.45.2-.66.33-.21.13-.4.28-.57.45-.17.17-.33.35-.46.56-.27.4-.44.86-.52,1.34-.04.24-.06.49-.05.74,0,.25.02.5.07.75Z"/>
  <path class="cls-2" d="M18.52,13.5c.12-.4.21-.8.27-1.21.05-.4.08-.81.06-1.21,0-.2-.02-.4-.05-.6-.01-.1-.03-.2-.05-.3l-.03-.15s0-.05-.02-.07l-.02-.07c-.05-.19-.11-.38-.17-.57l-.05-.14-.03-.07-.03-.07-.06-.14s-.04-.09-.07-.13c-.17-.36-.39-.69-.64-1-.25-.31-.53-.59-.84-.85-.31-.25-.65-.48-1-.68-.36-.2-.73-.36-1.13-.5.21.02.42.06.62.11.2.05.41.11.6.19.4.15.78.35,1.13.59.09.06.17.13.26.19l.12.1s.08.07.12.11c.16.14.31.3.45.46.04.04.07.08.1.12l.05.06.05.06s.07.09.1.13l.09.13c.12.18.23.37.32.56.02.05.05.1.07.15l.06.15.03.07.03.08.06.15c.02.05.03.1.05.15.02.05.03.1.05.16l.04.16c.01.05.02.11.03.16l.02.08s0,.05.01.08l.03.16c.01.11.03.21.03.32,0,.11.01.21.01.32,0,.11,0,.21,0,.32-.02.43-.09.85-.21,1.26-.06.2-.13.4-.21.6-.08.19-.17.38-.28.56Z"/>
</svg>