<?xml version="1.0" encoding="UTF-8"?>
<svg id="Layer_1" data-name="Layer 1" xmlns="http://www.w3.org/2000/svg" viewBox="0 0 24.56 23.59">
  <defs>
    <style>
      .cls-1 {
        fill: #ffd800;
      }

      .cls-2 {
        fill: #fff;
        stroke: #414042;
        stroke-miterlimit: 10;
        stroke-width: .05px;
      }

      .cls-3 {
        fill: #005fa0;
      }

      .cls-4 {
        fill: #414042;
      }
    </style>
  </defs>
  <path class="cls-2" d="M2.91,9.29c-.27.02-.36-.06-.56,0-.01,0-.22.07-.34.24-.32.44.04,1.22.44,1.54.24.18.45.22.71.15.14.08.11.08.03.22-.43,1.01-.21,1.31.46,2.42.12.29.14.82.05,1.15-.22.98.44,1.81,1.42,1.94.82.22,1.56-.26,1.95-.87.34.45.9.63,1.48.6.7-.04,1.28-.43,1.59-1.02.59.42,1.51.14,1.7-.56.08-.25.07-.51.03-.79.39.69,1.38.86,2.01.38.1-.12.16,0,.27.05.49.28,1.16.14,1.49-.3.16-.16.13-.45.36-.21.63.41,1.48.39,2.12-.03.6-.3.55-.87.85-.22.31.44.86.62,1.4.54.1.12.21.21.34.27.7.36,1.52-.19,1.64-.92.14-.71-.06-1.24.07-1.97.06-.45-.1-1-.5-1.26.24-.11.47-.32.61-.54.29-.4.15-1-.35-1.13.11-.4-.02-.67-.11-.79-.15-.28-.49-.22-.57-.4-.04-.11-.1-.2-.18-.29-.46-.52-1.38-.44-1.81.08-.22.4-.19,0-.46-.13-.3-.2-.72-.21-1.03-.02-.19-.16-.44-.26-.68-.25-.29-.01-.66.17-.83.37-.28-.17-.63-.22-.97-.16-.78.01-.78.54-1.19.23-.27-.67-1.22-1.02-1.82-.53-.2.15-.33.35-.38.59-.22.1-.29.37-.42.42-.26,0-.13-.5-.33-.76-.61-.98-1.25-.84-2.51-.46-.23.02-.57.06-.96.19-.55.18-.72.37-1.03.31-.34-.06-.37-.31-.77-.55-.6-.36-1.27-.25-1.32-.24-.84.15-1.64.93-1.54,1.54.01.08.08.13.15.32.09.25.16.44.08.59-.11.21-.45.24-.59.25"/>
  <path class="cls-3" d="M3.65,12.47c-.09-.28-.05-.56.11-.84,0-.02.01-.03.03-.06.41-.5.98-.69,1.7-.54,0,0,.03,0,.04,0,.17.06.32.14.42.25,0,0,.01.02.01.03.01,0,.01.02.01.03.29.42.48.69.55.76.01,0,.02.02.03.02.01,0,.01.02.02.03.3-.65.51-1.04.63-1.17.03-.02.04-.04.06-.06.26-.3.58-.44.97-.45.62.02.96.27,1.02.77v-.03c.02.12.03.27.02.46,0,.02,0,.03,0,.04-.08.55-.1.88-.07.98,0,0-.01-.02-.02-.04.02.05.03.1.03.14.02.12.15.47.4,1.05v.03c.07.19.11.38.12.57.04.41-.06.76-.27,1.08h0c-.22.32-.53.5-.93.53h-.02c-.44.02-.78-.11-.98-.39-.01,0-.01-.02-.01-.03-.14-.21-.18-.44-.15-.72,0-.03,0-.05,0-.08.02-.13.13-.51.32-1.12.02-.07.02-.12.02-.18v-.02s-.01-.06-.03-.08c0,.01-.03.02-.03.05h-.02s0,.01,0,.01c-.05.06-.13.24-.25.55,0,.01-.01.03-.02.04-.03.06-.06.1-.1.14-.08.1-.19.16-.32.19-.11.02-.22,0-.33-.04-.05-.02-.1-.05-.15-.09l-.07-.08c.06.07.04.05.03.04-.25-.26-.4-.42-.48-.45t.01,0s-.03,0-.04-.01c-.01,0-.02,0-.03-.01,0,.02,0,.04.01.07.02.09.06.17.1.25.26.41.42.69.46.81.01.02.01.03.02.04.1.27.11.51.03.72,0,0,0,.03-.01.04-.28.54-.71.75-1.29.62-.03,0-.06,0-.1-.02-.15-.04-.3-.1-.46-.17-.02-.02-.05-.03-.07-.05-.02-.02-.03-.02-.05-.04-.12-.13-.21-.3-.25-.5-.03-.14-.03-.29.01-.47,0,0,0-.02,0-.03.01-.04.03-.09.04-.13v-.52c0-.14,0-.28-.03-.41-.03-.2-.08-.36-.13-.47-.32-.5-.49-.82-.54-.98-.01-.03-.02-.06-.02-.09"/>
  <path class="cls-3" d="M11.12,11.32h.02c.1.02.17.04.23.06.04.01.06.02.09.04.11.07.16.19.15.31.01.12-.03.24-.14.31-.03.02-.07.04-.1.06-.06.02-.13.04-.21.05-.09.01-.19.02-.31,0h0c-.13-.02-.24-.04-.31-.07-.18-.08-.27-.21-.27-.37h0c0-.21.11-.34.33-.39.06-.02.13-.02.21-.02.08,0,.19.01.33.03M11.25,14.9v-.05s.01,0,.01,0c-.07.27-.24.39-.51.38,0,0-.02,0-.03,0-.17-.02-.3-.12-.37-.29-.02-.05-.04-.09-.05-.14-.03-.12-.03-.27-.01-.43,0-.1.04-.28.1-.55,0-.03,0-.04,0-.05-.01-.07-.04-.13-.05-.19-.11-.31-.11-.58-.01-.8.04-.09.09-.18.17-.24.04-.03.09-.07.13-.09.02,0,.05-.02.07-.02h0s0,0,0,0c0,0,0,0,0,0,0,0,.02,0,.03,0,.05-.02.1-.02.15-.03.25-.02.41.09.46.3,0,0,0,.02,0,.03h0s0,.06.01.07c0,.05,0,.12-.02.18,0,.04-.01.06-.01.1h0c-.05.18-.08.33-.1.43-.02.06-.03.15-.03.26,0,.08,0,.16,0,.23,0,.09.02.23.05.41h0c0,.06.01.11.02.16,0,.1,0,.18,0,.24,0,.05-.01.09-.03.13"/>
  <path class="cls-3" d="M14.45,14.17c-.11-.06-.22-.16-.32-.29v-.02c-.1-.14-.15-.34-.18-.59t0-.02c-.01-.09-.02-.37-.01-.83,0-.09,0-.16-.02-.21h0c-.01-.09-.04-.14-.07-.18-.09-.02-.2.08-.32.33v.02c.01.06.03.15.06.25.09.27.13.44.14.52,0,0,.01.02.01.03.03.15.04.28.04.4v.02c-.02.2-.07.37-.19.5-.04.03-.07.06-.11.09-.07.05-.15.09-.25.11h-.02s-.09.01-.13.02c-.3.01-.53-.11-.68-.37v-.02s-.05-.08-.06-.13c0,0-.01-.03-.02-.04-.02-.06-.04-.13-.04-.2,0-.05,0-.12.02-.18,0-.02,0-.03.02-.04l.1-.31s0-.05.01-.09h0c0-.14,0-.25,0-.32,0,0,0-.02-.01-.03l-.2-.46s-.01-.03-.01-.04c-.04-.14-.07-.26-.06-.36,0-.03,0-.06.01-.09v-.02c.04-.12.08-.22.15-.3.1-.14.23-.21.38-.22.06,0,.12,0,.18.02.1.03.21.08.31.16.02.02.03.03.04.04,0,0,.02.02.03.03.1-.09.21-.16.34-.21.25-.12.52-.09.79.1h.02c.11.1.19.19.25.33h0c.06.15.13.33.18.55.04.1.11.24.21.41,0,0,.01.02.01.03.04.08.08.17.12.26.07.17.11.36.12.56v.02c0,.27-.07.48-.18.62-.05.07-.11.12-.18.16-.02.01-.03.01-.04.02h0c-.15.06-.32.05-.47-.03"/>
  <path class="cls-1" d="M18.59,12.72h0c.15-.36.08-.7-.2-1.03-.05-.09-.11-.16-.17-.23-.21-.24-.49-.37-.84-.4t-.03,0c-.47.01-.87.18-1.21.52v.02c-.31.33-.41.74-.32,1.24v.02c.06.27.17.48.31.65.12.14.28.24.46.31h0c.36.12.74.08,1.12-.13h.01c.38-.25.66-.57.84-.96M17.85,12.31s.08.04.08.09c0,.03,0,.06-.02.08-.04.08-.09.12-.16.13-.1.01-.16-.06-.14-.15.03-.11.16-.17.25-.16M17.6,11.9c.08-.04.15-.01.17.09,0,.06,0,.12-.03.16-.03.07-.08.11-.15.12-.06,0-.12-.03-.13-.09-.02-.08,0-.15.05-.21.02-.03.06-.06.09-.08M17.23,11.71c.08-.04.15-.01.16.08.02.1,0,.19-.09.26-.05.04-.12.05-.17.01-.05-.04-.06-.09-.05-.15,0-.03.01-.06.03-.08.03-.06.07-.1.12-.12M16.88,12.16c-.08.03-.15,0-.18-.09-.02-.09,0-.17.07-.23.05-.04.11-.04.14.01.05.08.06.16.03.24-.02.03-.03.06-.07.07M17.21,13.08s-.03-.05-.05-.08c-.02-.04-.05-.05-.09-.05-.02,0-.05,0-.07,0-.05,0-.09-.02-.12-.06,0-.01-.01-.02-.02-.03-.04-.06-.06-.07-.13-.06-.03,0-.07,0-.1,0-.09-.04-.13-.15-.08-.25.03-.08.09-.13.16-.17.1-.06.21-.11.33-.12.08,0,.16,0,.24.04.08.05.14.12.18.21.05.1.07.21.07.33,0,.09-.02.17-.08.23-.07.07-.18.08-.24.01"/>
  <path class="cls-3" d="M20.35,11.29v.02c.07.17.08.34.05.53v-.05s0,.05,0,.08c-.02.1-.08.32-.2.65-.02.07-.03.14-.03.19,0,.08.02.15.07.18.1.08.23.09.39.04.06-.01.11-.06.16-.1,0-.05,0-.08,0-.13v-.02s-.02-.18-.06-.43h0c0-.07,0-.15-.02-.24,0-.18,0-.33.03-.45.06-.27.21-.45.44-.53.03-.02.07-.02.09-.02.23-.02.39.09.49.31.03.08.05.16.06.25h0c0,.07,0,.15,0,.24v.02c-.03.27-.04.48-.05.62,0,.13,0,.26.01.4h0c0,.07,0,.18.01.36h0c0,.06,0,.1,0,.14,0,.14,0,.27-.04.38h0c-.04.14-.08.25-.15.33-.1.13-.22.21-.38.22-.14,0-.25-.04-.36-.17-.03-.04-.07-.1-.1-.15l.02.05s-.06-.11-.07-.17c0,0,0-.02,0-.03v-.02s0,0,0,0c-.09.04-.2.07-.31.1h-.02c-.39.08-.68-.02-.87-.27-.06-.09-.11-.18-.13-.29v-.02s-.15-.74-.15-.74c-.13-.38-.2-.61-.22-.71,0-.05,0-.08,0-.12v.09c-.05-.31,0-.55.15-.76.01-.02.02-.03.03-.03.11-.11.21-.2.33-.24,0,0,.02,0,.03,0,.2-.07.38-.04.55.1.1.09.21.22.27.42"/>
  <path class="cls-4" d="M20.81,9.81c-.93,1.18-1.99-.15-.77-1.02-.28-.37-.24-.94.13-1.09.56-.28,1.15.23.43.86.16.25.29.44.46.62.11-.07.15-.23.14-.39-.05-.56.54-.57.36-.05-.08.22-.21.32-.37.58.33.29.53.48.71.15.49-.17-.35,1.13-1.09.33M20.13,8.94c-.29.23.19.99.51.7-.2-.2-.34-.41-.51-.7M20.4,7.94c-.08,0-.05.08.1.4.17-.17-.06-.41-.1-.4"/>
  <path class="cls-3" d="M8.4,7.38h.02s.05,0,.07,0c.02,0,.05,0,.08,0,.11,0,.21-.02.3-.03.05,0,.1-.01.15-.02.52-.16.85-.25.99-.27,0,0,.01,0,.03,0,.03,0,.05,0,.08,0,.37-.01.6.12.7.36.2.46.2.8-.02,1.01-.01,0-.03.02-.03.02-.02.02-.04.02-.06.03-.05.03-.1.04-.16.05-.09.01-.21,0-.32-.03h0c-.09-.03-.18-.08-.3-.16,0,.03.02.06.03.11.03.11.16.44.4,1,0,0,0,.01,0,.02.06.16.08.3.08.43v-.03s0,.05,0,.05c-.02.42-.22.66-.61.71-.05,0-.11.01-.18.01,0,0-.02,0-.03,0-.43-.07-.67-.31-.73-.7h0c0-.11,0-.24.05-.41,0,0,0-.01,0-.03.17-.42.28-.75.33-.98.01-.06.02-.12.02-.17-.2.2-.34.32-.42.36-.01,0-.03.02-.04.02-.07.04-.15.07-.22.08-.02,0-.04,0-.06,0-.06,0-.12,0-.18-.03,0,0-.02-.02-.04-.02h0c-.22-.13-.33-.35-.31-.66,0-.1.02-.19.05-.26,0-.03.01-.05.02-.09,0,0,0-.01,0-.02.03-.08.06-.15.1-.2.06-.08.13-.13.22-.15"/>
  <path class="cls-3" d="M13.25,7.72c.08,0,.15.03.23.07.19.08.31.23.36.44h0c.01.06.02.12.02.17,0,0,.01,0,.03,0,.06,0,.12,0,.16.02.18.04.26.13.26.29,0,.03,0,.07-.02.1,0,.03-.03.07-.06.1-.09.08-.2.13-.32.14-.05,0-.12,0-.18,0h0s0,0-.01,0c-.04.1-.07.22-.13.35-.02.06-.03.13-.04.2,0,.02,0,.03,0,.05h0c.17-.14.3-.24.4-.27.03-.02.07-.02.09-.02.02,0,.05,0,.07,0,.15-.02.27.04.37.15.02.03.04.06.06.09,0,.01,0,.03.02.04.02.1.01.19-.04.28-.03.06-.08.11-.14.17-.14.14-.29.23-.45.28-.35.14-.63.08-.84-.17-.08-.1-.13-.23-.15-.42h0c0-.12-.02-.21-.02-.29h0c.01-.22.01-.37.01-.47-.03,0-.06,0-.07,0-.02,0-.03,0-.05,0h.03c-.07,0-.12,0-.16-.01-.05,0-.09-.02-.12-.04h0s-.07-.06-.1-.1c-.11-.15-.07-.29.1-.4,0,0,.01,0,.02-.02.03-.02.05-.03.08-.03.05-.02.1-.02.17-.03h0s.02,0,.03,0c-.01-.03-.01-.07-.02-.1,0-.01,0-.02,0-.03,0-.09,0-.17.01-.24,0-.01.02-.03.02-.05,0-.01.02-.03.02-.04.03-.04.06-.07.1-.1.09-.07.19-.11.3-.1"/>
  <path class="cls-1" d="M16.66,8.94h0c-.02-.33-.12-.61-.31-.86h0c-.18-.22-.42-.29-.74-.23-.08,0-.14.01-.21.03-.23.05-.42.18-.56.38t-.01.02c-.16.3-.2.6-.1.93h0c.1.31.33.51.69.63h.01c.19.06.37.07.53.03.13-.03.26-.09.37-.18h0c.22-.19.32-.44.32-.74M15.77,8.46s.03-.05.05-.08c.05-.05.1-.05.14.02.02.04.03.08.02.12,0,.06-.03.1-.08.12-.04.02-.09,0-.11-.03-.03-.05-.03-.1-.01-.16M15.46,8.46s.03-.08.06-.12c.05-.05.1-.04.13.02.04.07.04.14,0,.21-.03.04-.07.06-.11.05-.04-.01-.06-.05-.07-.09,0-.02,0-.04,0-.06M15.23,8.53s.07-.05.1-.02c.05.04.08.1.08.16,0,.02-.01.05-.03.07-.05.04-.11.03-.15-.02-.04-.06-.04-.12,0-.18M15.99,9.23c-.03.07-.11.1-.17.07-.02,0-.04-.03-.05-.04-.02-.02-.05-.02-.08-.01-.02,0-.03.01-.05.02-.04.02-.07.01-.1-.02,0,0-.01-.01-.02-.02-.04-.03-.06-.04-.11-.01-.02.01-.04.02-.07.02-.07,0-.12-.07-.12-.15,0-.06.03-.11.07-.16.06-.07.12-.13.2-.17.05-.03.11-.04.18-.03.07.01.13.05.18.1.06.06.1.13.13.21.02.06.03.12,0,.18M16.17,8.72c0,.06-.03.11-.08.13-.06.03-.13,0-.13-.08,0-.08.07-.16.14-.17.04,0,.06.01.08.05,0,.02,0,.05,0,.06"/>
  <path class="cls-3" d="M17.79,8.01h0c.05.13.07.25.05.38v-.04s0,.04,0,.06c0,.07-.05.23-.12.47-.01.05-.01.1-.02.14,0,.06.02.1.06.12.07.05.18.05.29.01.04-.01.08-.05.12-.08,0-.03,0-.06,0-.09h0s-.02-.14-.06-.31h0c0-.05-.01-.1-.03-.17-.01-.13-.01-.23,0-.32.04-.2.14-.32.3-.4.02-.01.05-.02.07-.02.17-.03.29.05.37.2.03.05.04.11.05.18h0c0,.05,0,.1,0,.17h0c0,.2-.01.35-.01.46,0,.09.01.18.02.28h0c0,.05.01.13.02.25h0s0,.07,0,.1c0,.1,0,.19-.02.27h0c-.02.1-.05.18-.1.24-.07.1-.16.16-.27.17-.1.01-.19-.02-.27-.11-.03-.03-.05-.07-.08-.1l.02.03s-.05-.08-.06-.12c0,0,0-.01,0-.02h0s0-.02,0-.02c-.07.03-.14.06-.23.08h-.01c-.29.07-.5.02-.65-.15-.05-.06-.09-.12-.11-.2h0s-.13-.53-.13-.53c-.11-.26-.17-.42-.19-.5,0-.03,0-.06,0-.08v.07c-.05-.21-.02-.39.09-.55,0-.01.01-.02.02-.03.08-.08.15-.15.23-.18,0,0,.01,0,.02,0,.14-.06.28-.04.41.05.08.06.16.15.21.29"/>
  <path class="cls-1" d="M12.17,8.83h0c-.1-.18-.27-.26-.51-.25-.05,0-.1,0-.15,0-.17.02-.32.09-.44.23t0,.01c-.14.21-.2.43-.17.69h0c.05.24.19.42.43.54h.01c.13.07.26.09.38.08.1,0,.19-.04.28-.1h0c.17-.12.27-.3.3-.53h0c.02-.25-.03-.47-.14-.67M11.76,9.02s.04-.02.06,0c.01.01.03.02.03.04.02.04.02.08,0,.11-.02.05-.08.05-.11.01-.04-.04-.02-.12.01-.16M11.5,8.99s.04-.07.09-.04c.03.01.05.04.06.06.02.04.02.07,0,.1-.02.03-.05.04-.08.03-.04-.02-.06-.05-.07-.09,0-.02,0-.04,0-.07M11.3,9.09s.04-.07.09-.05c.05.03.08.07.08.12,0,.03-.02.07-.05.08-.03,0-.06,0-.08-.02-.01-.01-.02-.02-.03-.04-.02-.03-.02-.06-.01-.09M11.38,9.38s-.05.06-.1.05c-.05-.02-.07-.06-.08-.11,0-.03.02-.06.05-.06.05,0,.09.02.11.07,0,.02.01.03,0,.05M11.88,9.54s-.03,0-.05,0c-.02,0-.04,0-.05.02,0,.01-.01.02-.02.03-.02.02-.04.04-.07.03,0,0-.01,0-.02,0-.04,0-.05,0-.07.04,0,.02-.02.03-.03.04-.05.03-.1,0-.13-.04-.02-.04-.03-.08-.02-.12,0-.06.02-.13.05-.18.02-.04.05-.07.09-.09.05-.02.1-.02.15-.01.06.01.12.04.17.07.04.03.07.06.07.11,0,.05-.02.1-.07.11"/>
  <path class="cls-4" d="M5.35,7.51c.02.14-.03.25-.05.36-.01.06-.01.13.08.09.35-.13.69-.11,1.02.06.33.17.55.43.68.77,0,0,.02.01.04.03.08-.16.11-.35.24-.54-.05.31-.05.58-.06.85,0,.16,0,.31.05.46.06.19.16.23.33.14.28-.14.4-.35.37-.66-.04-.35-.17-.67-.36-.96-.14-.21-.29-.23-.51-.07-.09.06-.16.2-.26.19-.09-.01-.17-.13-.26-.19-.23-.17-.49-.26-.78-.26-.15,0-.22-.05-.22-.21-.01-.4-.19-.51-.57-.4-.3.09-.58.23-.82.43-.24.21-.28.6-.09.85.08.11.18.1.28.03.23-.13.38-.34.54-.54.12-.13.21-.28.33-.43"/>
  <path class="cls-4" d="M2.95,10.54c-.12-.18-.22-.31-.27-.47-.05-.14-.02-.18.14-.18.01,0,.02,0,.03,0,.26.11.44.02.59-.19.06-.09.16-.14.26-.18.14-.05.19-.15.19-.29,0-.09.02-.17.03-.26.01-.1.06-.11.13-.06.13.08.23.19.31.31.03.04.04.09.1.12.04-.09,0-.16-.04-.23-.11-.18-.28-.29-.45-.4-.08-.05-.11,0-.13.06-.03.14-.06.29-.08.43-.01.08-.04.14-.12.18-.17.09-.32.21-.44.37-.04.06-.09.07-.16.06-.15-.02-.3-.04-.45-.05-.06,0-.12,0-.1.09.05.25.15.48.35.66.01.01.04.01.09.03"/>
  <path class="cls-4" d="M4.9,9.68s0,.05,0,.07c.12.32.73.56,1.08.38-.12,0-.21.01-.3,0-.12,0-.2-.06-.2-.2,0-.08.03-.13.12-.13.06,0,.12-.01.18-.04.13-.06.16-.19.07-.3-.09-.11-.21-.17-.34-.18-.09,0-.18,0-.23.09-.05.09-.03.17.03.25.06.08.17.15.04.26-.09.08-.2.05-.32-.08-.04-.04-.05-.1-.12-.13"/>
  <path class="cls-4" d="M5.36,8.94c.12,0,.22-.09.22-.22,0-.13-.07-.21-.2-.22-.12-.01-.23.09-.24.21,0,.12.1.23.22.23"/>
  <path class="cls-4" d="M6.19,9.16c-.01.12.08.23.2.24.13,0,.21-.06.23-.19.02-.11-.07-.23-.19-.25-.12-.02-.23.07-.24.2"/>
  <path class="cls-4" d="M3.77,10.5c-.03-.09-.09-.16-.19-.19-.07-.02-.12,0-.15.06-.02.06-.03.13.06.16.03,0,.06.02.06.06.01.11.09.12.16.09.08-.03.08-.1.06-.18"/>
  <path class="cls-4" d="M4.48,9.92c-.04-.1-.1-.17-.21-.19-.07-.01-.12.02-.14.09-.01.06-.01.11.06.13.04,0,.07.03.07.07,0,.1.08.11.15.09.09-.03.09-.11.07-.19"/>
  <path class="cls-4" d="M4.18,10.81s.02,0,.03,0c.15.01.35-.18.35-.35-.02.05-.03.09-.05.12-.03.04-.06.07-.11.04-.03-.02-.04-.03-.03-.07,0-.02.02-.05.02-.08,0-.06-.04-.1-.1-.08-.06.01-.1.05-.13.1-.02.03-.03.07,0,.11.02.04.06.04.1.04.04,0,.09-.04.11.03.01.05-.02.09-.09.11-.02,0-.05,0-.07.02"/>
</svg>