<?xml version="1.0" encoding="UTF-8"?>
<svg id="Layer_1" data-name="Layer 1" xmlns="http://www.w3.org/2000/svg" xmlns:xlink="http://www.w3.org/1999/xlink" viewBox="0 0 24.56 23.59">
  <defs>
    <style>
      .cls-1 {
        fill: url(#linear-gradient-2);
      }

      .cls-2 {
        fill: none;
      }

      .cls-3 {
        fill: url(#linear-gradient);
      }

      .cls-4 {
        clip-path: url(#clippath);
      }
    </style>
    <linearGradient id="linear-gradient" x1="3.83" y1="11.8" x2="20.74" y2="11.8" gradientUnits="userSpaceOnUse">
      <stop offset="0" stop-color="#c32381"/>
      <stop offset=".18" stop-color="#ba217a"/>
      <stop offset=".48" stop-color="#a11c6a"/>
      <stop offset=".85" stop-color="#7a154e"/>
      <stop offset="1" stop-color="#691243"/>
    </linearGradient>
    <linearGradient id="linear-gradient-2" x1="3.82" y1="11.55" x2="20.55" y2="11.55" xlink:href="#linear-gradient"/>
    <clipPath id="clippath">
      <path class="cls-2" d="M1.83,1.34v20.91h20.91V1.34H1.83ZM15.4,6.5c-.23-.14-.47-.26-.72-.37-.76-.32-1.56-.48-2.39-.48-.39,0-.79.04-1.18.12l-.86-.49c.06-.05.11-.1.17-.15.51-.42,1.2-.68,1.85-.85.48-.13,1.06-.11,1.55.03,1,.3,1.94,1.04,2.63,1.95l-1.03.24Z"/>
    </clipPath>
  </defs>
  <path class="cls-3" d="M12.29,4.64c.97,0,1.9.19,2.78.56.85.36,1.62.88,2.27,1.53s1.17,1.42,1.53,2.27c.37.88.56,1.82.56,2.78s-.19,1.9-.56,2.78c-.36.85-.88,1.62-1.53,2.27s-1.42,1.17-2.27,1.53c-.88.37-1.82.56-2.78.56s-1.9-.19-2.78-.56c-.85-.36-1.62-.88-2.27-1.53s-1.17-1.42-1.53-2.27c-.37-.88-.56-1.82-.56-2.78s.19-1.9.56-2.78c.36-.85.88-1.62,1.53-2.27s1.42-1.17,2.27-1.53c.88-.37,1.82-.56,2.78-.56M12.29,3.34h0C7.62,3.34,3.83,7.13,3.83,11.8h0c0,4.67,3.78,8.45,8.45,8.45h0c4.67,0,8.45-3.78,8.45-8.45h0c0-4.67-3.78-8.45-8.45-8.45h0Z"/>
  <path class="cls-1" d="M20.51,18.04c-.31-.64-.7-1.56-1.04-2.14-.99-1.65-2.5-2.41-4.3-1.78-1.75.62-3.39,1.56-5.04,2.43-1.16.61-2.23,1.4-3.41,1.98-1.92.94-3.17.08-2.84-2.04.72-4.6,2.93-8.41,6.53-11.38.51-.42,1.2-.68,1.85-.85.48-.13,1.06-.11,1.55.03,1.93.58,3.63,2.76,3.75,4.76.02.39-.07.82-.23,1.18-.44,1.01-1.49,1.13-2.16.24-.47-.62-.85-1.32-1.32-1.94-.82-1.07-1.54-1.18-2.53-.3-1.57,1.38-2.8,3.04-3.65,4.96-.14.32-.16.89.04,1.09.2.22.79.29,1.1.16.97-.41,1.91-.92,2.84-1.44,1.63-.92,3.31-1.44,5.2-1.03,2.48.54,3.96,3.5,3.67,6.07Z"/>
  <g class="cls-4">
    <path class="cls-3" d="M12.29,4.64c.97,0,1.9.19,2.78.56.85.36,1.62.88,2.27,1.53s1.17,1.42,1.53,2.27c.37.88.56,1.82.56,2.78s-.19,1.9-.56,2.78c-.36.85-.88,1.62-1.53,2.27s-1.42,1.17-2.27,1.53c-.88.37-1.82.56-2.78.56s-1.9-.19-2.78-.56c-.85-.36-1.62-.88-2.27-1.53s-1.17-1.42-1.53-2.27c-.37-.88-.56-1.82-.56-2.78s.19-1.9.56-2.78c.36-.85.88-1.62,1.53-2.27s1.42-1.17,2.27-1.53c.88-.37,1.82-.56,2.78-.56M12.29,3.34h0C7.62,3.34,3.83,7.13,3.83,11.8h0c0,4.67,3.78,8.45,8.45,8.45h0c4.67,0,8.45-3.78,8.45-8.45h0c0-4.67-3.78-8.45-8.45-8.45h0Z"/>
  </g>
</svg>