<?xml version="1.0" encoding="UTF-8"?>
<svg id="Layer_1" data-name="Layer 1" xmlns="http://www.w3.org/2000/svg" viewBox="0 0 24.56 23.59">
  <defs>
    <style>
      .cls-1 {
        fill: #be2126;
      }

      .cls-2 {
        fill: #1d1d1b;
      }

      .cls-3 {
        fill: #0355a0;
      }
    </style>
  </defs>
  <g>
    <path class="cls-1" d="M4.07,11.78c.04,1.31.34,2.56.83,3.68h.18s-.05-.1-.08-.14c.17.05.36.08.64.08,0,0,.02,0,.02,0,.03-1.43.93-2.57,2.04-2.57s2.01,1.14,2.04,2.57c.54-.03.75-.18,1.1-.28.13-1.29.99-2.29,2.02-2.29s1.88.99,2.02,2.27c.16-.04.34-.06.6-.06.21,0,.38.02.52.04.15-1.27.99-2.25,2.02-2.25s1.88.99,2.02,2.27c.05.01.09.02.14.04-.04.07-.08.15-.12.22,0,.04,0,.08,0,.12h.21c.51-1.15.8-2.42.84-3.77-5.65-.9-11.4-.87-17.04.09Z"/>
    <path class="cls-1" d="M20.25,10.67c-5.09-.61-10.24-.61-15.33,0h0v.37h0s0,0,0,0v.82h.34v-.86c.85-.1,1.7-.18,2.55-.24v1.1h.12v-1.11c1.01-.07,2.02-.12,3.03-.15v1.25h.12v-1.26c1.01-.02,2.02-.02,3.03,0v1.26h.12v-1.25c1.01.03,2.02.07,3.03.15v1.11h.12v-1.1c.85.06,1.7.14,2.55.24v.86h.34v-1.19h0s0,0,0,0Z"/>
    <g>
      <path class="cls-2" d="M7.69,6.35c-.08.19-.18.35-.32.49-.13.14-.29.25-.47.33-.18.08-.38.12-.59.12-.04,0-.09,0-.15,0-.06,0-.13-.02-.19-.03-.06-.02-.11-.04-.16-.08-.04-.03-.07-.08-.07-.15,0-.04.04-.07.12-.07.03.02.08.05.12.06.05.02.1.03.14.04.05.01.09.02.13.03.04,0,.07,0,.08,0,.13,0,.25-.03.38-.09.12-.06.24-.14.33-.24.1-.1.18-.21.23-.34.06-.12.09-.25.09-.38,0-.23-.04-.45-.11-.63-.07-.19-.18-.35-.31-.48-.13-.13-.29-.23-.48-.3-.19-.07-.39-.11-.62-.11-.21,0-.41.04-.59.12-.18.08-.34.19-.48.34-.14.14-.25.31-.33.51-.08.19-.12.4-.12.62,0,.28.07.52.2.73s.3.39.49.56c.2.17.41.32.64.47.23.15.44.3.64.46.2.16.36.34.49.54.13.2.2.43.2.69,0,.34-.07.64-.22.91-.15.27-.34.5-.58.68-.23.19-.5.33-.79.43-.29.1-.58.15-.87.15-.13,0-.27-.02-.44-.06-.17-.04-.32-.09-.47-.17-.15-.08-.27-.17-.37-.29-.1-.12-.15-.26-.15-.43,0-.08.04-.16.13-.23.09-.07.17-.11.25-.11.01,0,.03.02.05.06.02.04.04.09.07.14.02.05.04.1.06.15.02.05.03.08.04.1.11.19.26.33.45.42.19.09.39.14.61.14s.45-.04.65-.12c.21-.08.39-.19.54-.34.16-.15.28-.32.37-.52.09-.2.14-.43.14-.67,0-.22-.06-.42-.19-.59-.13-.17-.29-.33-.49-.49-.2-.16-.41-.31-.64-.47-.23-.16-.44-.33-.64-.51-.2-.18-.36-.39-.49-.61-.13-.22-.19-.49-.19-.78s.07-.57.2-.83c.13-.26.3-.48.52-.67.21-.19.46-.34.74-.45.28-.11.56-.16.85-.16.21,0,.41.03.61.08.2.05.38.14.53.26.16.12.28.28.38.47.1.19.14.43.14.7,0,.21-.04.4-.12.59Z"/>
      <path class="cls-2" d="M10.15,10.44s-.08.09-.14.13c-.06.04-.11.07-.18.1-.06.03-.11.04-.16.04-.2,0-.33-.05-.42-.16-.08-.11-.12-.24-.12-.41,0-.19.02-.37.07-.56.04-.19.09-.38.15-.57-.13.25-.25.48-.37.69-.12.21-.23.39-.35.54-.12.15-.24.27-.36.35-.12.09-.26.13-.4.13-.07,0-.14-.02-.19-.05-.05-.04-.1-.08-.13-.14-.03-.06-.06-.12-.08-.19-.02-.07-.03-.14-.03-.21,0-.27.05-.54.16-.81.11-.27.25-.5.43-.71.18-.21.4-.38.65-.51.25-.13.52-.19.82-.19.03,0,.05,0,.07,0,.01,0,.02.02.02.06,0,.03-.01.06-.04.08-.02.03-.06.05-.1.08-.04.02-.08.04-.12.06-.04.01-.09.02-.12.02-.06,0-.1-.02-.11-.07-.11.07-.22.17-.35.3-.13.13-.24.28-.35.44-.11.16-.2.34-.27.53-.07.19-.11.37-.11.56,0,.02,0,.05,0,.09,0,.03.01.07.03.1.01.03.03.06.05.08.02.02.05.03.09.03.06,0,.14-.05.24-.15.1-.1.2-.24.32-.42.12-.18.25-.38.38-.62.13-.24.27-.5.41-.77,0-.01,0-.03,0-.04.01-.01.02-.03.03-.06,0-.02.02-.05.05-.07.03-.02.07-.05.14-.06.07-.02.17-.03.3-.03.02,0,.04.01.04.04,0,.01,0,.03,0,.04,0,.01,0,.03-.01.05-.04.13-.09.28-.15.45-.06.17-.11.33-.15.49-.05.16-.09.31-.12.45-.03.14-.05.25-.05.33,0,.04,0,.08,0,.14,0,.05.01.1.03.14s.04.08.07.11c.03.03.07.04.13.04.04,0,.07,0,.1-.01.02,0,.05-.02.06-.03.02-.01.04-.02.06-.03.02,0,.04-.01.07-.01.02,0,.04,0,.05.03,0,.02.01.04.01.07,0,.03-.02.07-.05.11Z"/>
      <path class="cls-2" d="M14.04,10.59s-.08.07-.13.09c-.05.02-.11.04-.16.06-.06.01-.1.02-.14.02-.18,0-.32-.06-.4-.19s-.13-.27-.13-.43c0-.17,0-.32.01-.45,0-.13.03-.27.07-.43,0-.01,0-.04.02-.08.01-.04.02-.08.03-.12,0-.04.02-.08.03-.12,0-.04.01-.07.01-.1,0,0,0-.02,0-.03,0,0-.01-.01-.02-.01-.02,0-.07.03-.12.1-.06.07-.13.16-.21.27-.08.11-.16.23-.25.37-.09.14-.18.28-.27.42-.03.05-.06.12-.1.2-.04.08-.08.16-.12.23-.04.07-.09.14-.14.19-.05.05-.1.08-.16.08-.04,0-.09,0-.15-.01-.06,0-.09-.05-.09-.12,0,0,0-.03.03-.11.02-.08.04-.17.07-.29.03-.12.06-.25.1-.39.04-.14.07-.28.1-.41.03-.13.05-.25.07-.35.02-.1.03-.17.03-.21,0-.01-.01-.02-.04-.02-.01,0-.05.03-.1.1-.05.06-.11.14-.17.22-.06.08-.11.16-.16.24-.05.08-.08.13-.1.15-.08.12-.15.23-.22.33-.07.1-.14.21-.21.33-.04.08-.08.16-.11.22-.03.07-.06.12-.09.17-.03.05-.08.08-.12.11-.05.03-.12.04-.21.04-.05,0-.09-.01-.11-.04-.02-.03-.03-.07-.03-.11,0-.06.01-.13.04-.21.02-.08.05-.15.07-.22.06-.29.13-.57.2-.82.08-.26.11-.49.11-.69,0-.08-.01-.14-.04-.16-.02-.02-.06-.04-.1-.04,0,0-.03,0-.06.01s-.06.01-.08.01c-.04,0-.06-.01-.06-.04,0-.04.03-.08.09-.12.06-.04.13-.08.22-.11.09-.03.17-.06.26-.08.09-.02.16-.03.22-.03.03,0,.06,0,.09,0,.03,0,.04.03.04.07,0,.12-.02.25-.05.4-.03.15-.07.3-.11.44-.04.14-.08.28-.11.4-.03.12-.05.21-.05.26,0,.03,0,.05.03.05.03,0,.06-.02.11-.07.04-.04.1-.11.17-.21.07-.1.16-.22.27-.37.11-.15.24-.34.4-.56.1-.14.19-.24.29-.32.1-.08.19-.11.3-.11.01,0,.02,0,.03.03,0,.02,0,.04,0,.05,0,.12-.02.25-.05.4-.03.15-.07.3-.11.45-.04.15-.07.28-.11.41-.03.12-.05.21-.05.26,0,.04,0,.06.03.06s.06-.04.11-.11c.06-.07.12-.16.19-.27.07-.11.15-.21.23-.33.08-.11.15-.21.21-.29.05-.07.11-.14.16-.22.05-.08.11-.15.18-.22.06-.07.14-.12.22-.16.08-.04.18-.07.29-.07.04,0,.07.03.07.08,0,.02,0,.06-.02.11-.01.05-.03.1-.05.15-.02.05-.04.1-.05.15-.02.05-.03.08-.03.09-.06.22-.11.43-.17.65-.05.22-.08.44-.08.67,0,.08,0,.15.02.21.01.06.04.12.08.19.02.04.06.06.11.07.05,0,.09.01.14.01s.08,0,.12.01c.03,0,.05.03.05.06,0,.05-.02.1-.06.14Z"/>
      <path class="cls-2" d="M16.24,8.58c-.12.17-.27.34-.45.51-.18.16-.36.31-.54.45-.18.14-.33.24-.45.3,0,.05,0,.09.01.1,0,.07.03.14.06.19.04.06.08.1.14.14.06.04.12.07.18.09.07.02.13.03.19.03.21,0,.38-.06.5-.19.12-.13.23-.28.3-.46.02-.06.06-.09.11-.09.07,0,.1.03.1.09,0,.07-.04.17-.12.28-.08.11-.19.22-.32.33-.13.11-.28.19-.44.27-.16.07-.32.11-.48.11-.26,0-.46-.08-.6-.25-.13-.16-.2-.37-.2-.6s.05-.49.15-.73c.1-.24.24-.45.41-.63.17-.19.37-.34.6-.45.23-.11.48-.17.74-.17.11,0,.18.02.22.07.04.04.06.1.06.16,0,.14-.06.29-.19.47ZM15.79,8.18s-.04-.03-.09-.03c-.08,0-.18.05-.28.16-.1.11-.2.23-.29.38-.09.15-.16.3-.22.45-.06.15-.09.27-.09.36,0,.02-.01.06-.01.11.09-.05.2-.14.32-.25s.23-.23.33-.36c.1-.13.19-.26.26-.39.07-.13.1-.24.1-.34,0-.04,0-.07-.02-.09Z"/>
      <path class="cls-2" d="M19.21,10.52s-.11.08-.17.11c-.07.03-.14.06-.21.08-.07.02-.13.03-.18.03-.12,0-.22-.03-.29-.08-.07-.05-.12-.12-.16-.2-.04-.08-.06-.17-.07-.27,0-.1-.01-.2-.01-.29,0-.08,0-.17.02-.28.01-.11.03-.22.06-.34.02-.12.05-.24.08-.36.03-.12.06-.24.09-.35-.08.09-.16.18-.23.29-.08.1-.15.2-.21.3-.06.1-.12.18-.16.25-.04.07-.07.12-.08.14-.02.04-.07.12-.13.24-.06.11-.13.23-.2.36-.07.12-.14.23-.21.33s-.11.15-.14.16c-.03,0-.07.01-.11.01h-.12s-.08,0-.1-.02c-.02-.01-.03-.04-.03-.08,0-.02,0-.05.01-.1,0-.05.02-.1.04-.16.01-.06.03-.12.04-.18.01-.06.03-.11.04-.15.03-.12.06-.26.1-.41.04-.15.08-.29.11-.43.04-.14.07-.26.09-.37.02-.11.04-.2.04-.25,0-.04,0-.08-.03-.12-.02-.04-.05-.06-.09-.06-.02,0-.05,0-.07.02-.02.01-.05.02-.08.02-.07,0-.11-.04-.11-.12,0-.04.03-.08.1-.12.06-.04.14-.07.23-.09.09-.02.18-.04.26-.06s.15-.02.2-.02c.02,0,.05,0,.08.01.03,0,.05.04.05.1,0,.11-.02.23-.05.34-.03.12-.07.24-.11.37-.04.13-.07.27-.11.42-.03.15-.05.31-.05.48.07-.1.13-.19.19-.28.06-.09.11-.16.15-.22.03-.05.09-.13.16-.23.07-.1.15-.2.23-.31.08-.11.16-.21.25-.32.08-.1.15-.19.2-.25,0-.01,0-.03.01-.04.02-.03.06-.06.11-.09.05-.03.14-.04.29-.04.09,0,.14.03.14.08,0,.03,0,.07-.02.12s-.03.11-.05.16c-.02.06-.04.11-.06.17-.02.05-.03.09-.04.12-.07.2-.13.4-.18.59-.05.2-.07.4-.07.62,0,.05,0,.11,0,.17,0,.07.01.13.03.19.02.06.05.11.08.15.03.04.09.06.15.06s.12,0,.14-.03c.03-.02.06-.03.09-.03.02,0,.05,0,.08.02.04.01.05.05.05.11,0,.04-.02.09-.07.12Z"/>
      <path class="cls-2" d="M11.91,12.75c-.09.21-.21.4-.36.55s-.33.28-.53.38c-.2.09-.42.14-.66.14-.04,0-.1,0-.17,0-.07,0-.14-.02-.21-.04-.07-.02-.13-.05-.18-.09-.05-.04-.07-.09-.07-.17,0-.05.05-.07.14-.07.04.03.09.05.14.07.06.02.11.04.16.05.05.01.1.02.15.03.05,0,.08,0,.1,0,.14,0,.29-.03.43-.1.14-.07.27-.16.38-.27.11-.11.2-.24.26-.38.07-.14.1-.29.1-.43,0-.26-.04-.5-.12-.72-.08-.21-.2-.39-.35-.54s-.33-.26-.54-.34c-.21-.08-.44-.12-.7-.12-.24,0-.46.05-.67.14-.21.09-.39.22-.54.38-.15.16-.28.35-.37.57-.09.22-.14.45-.14.7,0,.31.07.59.22.82.15.23.33.44.55.63.22.19.46.36.72.53.26.17.5.34.72.52.22.18.41.38.55.61.15.22.22.48.22.78,0,.38-.08.72-.25,1.03-.17.3-.38.56-.65.77-.26.21-.56.37-.89.48-.33.11-.66.17-.98.17-.14,0-.31-.02-.5-.06-.19-.04-.36-.1-.53-.19-.17-.09-.3-.19-.42-.33-.11-.13-.17-.29-.17-.48,0-.09.05-.18.14-.26.1-.08.19-.12.29-.12.02,0,.04.02.06.07.02.05.05.1.07.16.02.06.05.12.07.17.02.06.03.1.05.11.13.21.29.37.5.48.21.1.44.15.69.15s.5-.05.74-.14c.23-.09.44-.22.61-.38.18-.17.32-.36.42-.59.1-.23.15-.48.15-.76,0-.25-.07-.47-.22-.66-.15-.19-.33-.38-.55-.55-.22-.18-.46-.35-.72-.53-.26-.18-.5-.37-.72-.57-.22-.21-.4-.44-.55-.69-.15-.25-.22-.55-.22-.88s.07-.64.22-.93c.15-.29.34-.55.59-.76.24-.21.52-.38.83-.51.31-.12.63-.19.95-.19.24,0,.47.03.69.09.23.06.43.16.6.3.18.14.32.31.42.53s.16.48.16.79c0,.23-.04.45-.13.67Z"/>
      <path class="cls-2" d="M13.29,15.08s-.07.02-.13.03c-.06.01-.12.02-.18.03-.06,0-.12.01-.18.02-.06,0-.09,0-.12,0h0c-.09.31-.16.61-.21.89-.05.28-.08.51-.08.71,0,.11.03.21.09.3.06.09.15.14.26.14.06,0,.11,0,.15-.02.04-.01.07-.02.11-.03.03-.01.07-.02.1-.03.03-.01.07-.02.12-.02.03,0,.04.02.04.05,0,.06-.03.12-.09.19-.06.06-.14.12-.22.17-.09.05-.18.09-.28.12-.1.03-.19.05-.27.05-.1,0-.19-.02-.26-.07-.07-.05-.13-.11-.18-.18-.05-.07-.08-.15-.1-.24-.02-.09-.03-.17-.03-.24,0-.17.03-.41.09-.74.06-.33.14-.69.25-1.08-.13-.02-.24-.05-.33-.09-.09-.04-.14-.09-.14-.17,0-.04,0-.09.02-.15.02-.06.06-.1.12-.1.02,0,.04,0,.06.01.02,0,.04.02.06.02.02,0,.06.02.11.03.05.01.11.02.19.03.07-.25.15-.53.24-.85.09-.32.2-.68.31-1.1.02-.09.05-.17.09-.23.04-.06.09-.09.15-.09.07,0,.16.06.27.17.04.03.07.09.07.17,0,.04,0,.09-.03.14-.02.05-.05.1-.1.14-.1.35-.2.67-.28.94-.08.27-.14.52-.19.73h.56c.06,0,.09.02.1.05,0,.03.01.06.01.1,0,.09-.05.16-.16.19Z"/>
      <path class="cls-2" d="M15.83,15.27c-.14.2-.31.39-.51.57-.2.18-.4.35-.61.51-.21.15-.38.27-.51.34,0,.06,0,.1.02.12,0,.08.03.16.07.22.04.06.09.12.16.16.06.04.13.08.21.1.07.02.15.03.22.03.24,0,.43-.07.57-.22.14-.15.25-.32.34-.52.03-.07.07-.1.12-.1.08,0,.12.03.12.1,0,.08-.05.19-.14.31-.09.13-.21.25-.36.37-.15.12-.31.22-.5.3s-.36.12-.54.12c-.3,0-.52-.09-.67-.28-.15-.18-.23-.41-.23-.68s.06-.56.17-.82c.11-.27.27-.51.46-.72.19-.21.42-.38.68-.51.26-.13.54-.19.83-.19.12,0,.2.02.25.07.04.05.07.11.07.18,0,.15-.07.33-.21.52ZM15.32,14.82s-.05-.03-.1-.03c-.09,0-.2.06-.31.18-.12.12-.22.26-.32.43-.1.17-.18.33-.25.5-.07.17-.1.31-.1.41-.01.03-.02.07-.02.12.1-.06.22-.15.36-.28.13-.12.26-.26.37-.41.12-.15.21-.29.29-.44.08-.15.12-.27.12-.38,0-.05,0-.08-.02-.1Z"/>
      <path class="cls-2" d="M18.67,16.04s-.09.06-.15.08c-.06.03-.12.05-.19.07-.07.02-.13.02-.18.02-.08,0-.15-.02-.2-.05-.05-.03-.1-.07-.13-.12s-.06-.11-.07-.17c-.01-.06-.02-.13-.02-.19,0-.03,0-.08.02-.14.01-.06.02-.1.02-.13-.1,0-.2.07-.29.2-.09.14-.17.3-.24.49-.07.19-.13.39-.19.59-.05.2-.1.37-.14.51-.04.15-.1.25-.15.29-.06.04-.14.06-.25.06-.05,0-.09,0-.13-.01-.04,0-.05-.03-.05-.08,0-.03,0-.09.02-.17.02-.08.04-.16.06-.25.02-.09.05-.19.07-.29.02-.1.05-.19.07-.26.02-.1.05-.2.07-.31.03-.11.05-.21.07-.31.02-.1.04-.19.05-.27.01-.08.02-.15.02-.2,0-.18-.02-.29-.05-.33-.03-.04-.07-.05-.11-.05-.03,0-.06,0-.09,0-.03,0-.06,0-.08,0-.03,0-.05-.01-.07-.03-.02-.02-.03-.05-.03-.07,0-.04.04-.08.12-.12.08-.04.18-.08.29-.12.11-.04.21-.06.31-.09.1-.02.17-.03.2-.03.04,0,.08,0,.12,0,.03,0,.05.03.04.07,0,.11-.03.23-.06.37-.04.14-.05.26-.05.38,0,.03.01.05.03.05.07-.05.15-.13.22-.23.08-.1.15-.2.23-.31.07-.1.15-.19.22-.26.07-.07.14-.11.21-.11h.33s.04.01.04.04c0,.02,0,.04-.01.07,0,.02-.02.04-.03.06-.07.14-.13.29-.2.46-.07.17-.1.33-.1.48.01.09.03.14.07.17.04.02.12.03.25.03.08,0,.13,0,.14.02.01.02.02.05.02.11,0,.03-.02.06-.06.08Z"/>
      <path class="cls-2" d="M21.22,13.01c-.14.32-.31.63-.51.94-.2.31-.41.6-.63.87-.22.27-.42.51-.58.72-.04.15-.09.31-.12.46-.04.15-.08.3-.12.45l.21-.17c.21-.18.4-.37.58-.57.18-.21.36-.42.53-.63.06-.07.11-.13.15-.2.05-.07.09-.13.13-.19.04-.06.08-.11.11-.14.03-.04.06-.06.07-.06.04,0,.09.01.13.04.04.03.08.06.11.1.03.04.06.08.07.12.02.04.03.08.03.1,0,.05-.03.12-.09.2-.06.09-.14.18-.24.28-.1.1-.21.21-.33.32-.12.11-.24.21-.36.31-.12.1-.23.19-.34.27-.1.08-.19.15-.26.2.12.12.24.23.36.35.12.12.24.23.36.33.12.1.25.18.39.25.14.07.29.11.45.11.03.01.04.02.05.04,0,.02,0,.04,0,.07,0,.03-.02.07-.05.1-.03.04-.08.07-.13.1-.06.03-.12.06-.19.08-.07.02-.14.03-.21.03-.12,0-.22-.02-.32-.07-.1-.05-.19-.1-.27-.17-.09-.07-.17-.14-.24-.23-.08-.08-.15-.16-.22-.22-.05-.04-.12-.1-.2-.17-.08-.07-.2-.17-.36-.3-.04.18-.08.34-.11.48-.03.14-.05.26-.06.34,0,.02-.01.04-.03.06-.02.02-.05.04-.07.04h-.31c-.07,0-.11-.06-.11-.17.11-.48.23-.97.36-1.47.13-.5.26-.99.38-1.48.05-.19.12-.39.21-.6s.19-.43.31-.64c.12-.21.24-.41.37-.6s.26-.36.4-.51c.13-.15.26-.27.38-.35.12-.09.22-.13.32-.13.04,0,.08.01.1.04.02.03.04.06.06.1.01.04.02.08.03.12,0,.04,0,.08,0,.11,0,.29-.07.6-.21.92ZM20.9,12.3s-.03-.04-.07-.04c-.04,0-.09.03-.15.09-.06.06-.11.14-.16.23-.05.09-.1.2-.16.31-.05.12-.1.22-.14.33-.04.1-.08.19-.11.27-.03.08-.05.13-.06.16-.03.07-.08.22-.15.46-.07.24-.15.52-.24.83.15-.14.31-.33.46-.57.15-.23.29-.48.41-.73.12-.25.21-.49.29-.72.07-.23.11-.41.11-.55,0-.03,0-.05-.01-.08Z"/>
    </g>
  </g>
  <g>
    <path class="cls-3" d="M10.73,18.42h.21v.38l.37-.38h.15v.1s-.39.36-.39.36l.39.37v.1h-.15l-.37-.38v.38h-.21v-.93Z"/>
    <path class="cls-3" d="M11.66,19.35v-.83l.11-.1h.41l.11.1v.83h-.21v-.42h-.21v.42h-.21ZM11.87,18.83h.21s0-.31,0-.31h-.21v.31Z"/>
    <path class="cls-3" d="M12.49,19.35v-.93h.1l.52.57v-.57h.11v.93s-.11,0-.11,0l-.52-.6v.6h-.11Z"/>
    <path class="cls-3" d="M13.42,19.35v-.83l.11-.1h.41l.11.1v.83h-.21v-.42h-.21v.42h-.21ZM13.63,18.83h.21s0-.31,0-.31h-.21v.31Z"/>
    <path class="cls-3" d="M14.25,18.42h.21v.83h.31v.11h-.52v-.93Z"/>
    <path class="cls-3" d="M15.2,18.52v.31h.21v.11h-.21v.31h.31v.11h-.52v-.93h.52v.1h-.31Z"/>
    <path class="cls-3" d="M15.72,19.35v-.93h.1l.52.57v-.57h.11v.93s-.11,0-.11,0l-.52-.6v.6h-.11Z"/>
    <path class="cls-3" d="M16.85,18.52v.31h.21v.11h-.21v.31h.31v.11h-.52v-.93h.52v.1h-.31Z"/>
    <path class="cls-3" d="M17.47,18.42h.21v.93h-.21v-.93Z"/>
    <path class="cls-3" d="M17.99,18.42h.21v.83h.31v.11h-.52v-.93Z"/>
    <path class="cls-3" d="M18.73,19.35v-.83l.11-.1h.41l.11.1v.83h-.21v-.42h-.21v.42h-.21ZM18.94,18.83h.21s0-.31,0-.31h-.21v.31Z"/>
    <path class="cls-3" d="M19.56,19.35v-.93h.1l.52.57v-.57h.11v.93s-.11,0-.11,0l-.52-.6v.6h-.11Z"/>
    <path class="cls-3" d="M20.48,19.35v-.93h.48s.05,0,.06.01c.02,0,.03.02.05.03.01.01.02.03.03.04,0,.01,0,.03,0,.05v.64s0,.02,0,.03c0,.01,0,.02,0,.04,0,.01-.01.03-.03.05s-.03.03-.05.03c-.02,0-.03,0-.04,0s-.02,0-.03,0h-.47ZM20.69,19.25h.2v-.72h-.2v.72Z"/>
  </g>
</svg>