<?xml version="1.0" encoding="UTF-8"?>
<svg id="Layer_1" data-name="Layer 1" xmlns="http://www.w3.org/2000/svg" viewBox="0 0 24.56 23.59">
  <defs>
    <style>
      .cls-1 {
        fill: #b2d236;
      }
    </style>
  </defs>
  <path class="cls-1" d="M9.35,4.51c.51,3.67.98,7.37,1.1,11.08.02,1,.02,2-.12,2.99-.08.56-.21,1.19-.56,1.65-.16.2-.36.35-.61.41-.51.13-1.04-.29-1.38-.62-.37-.35-.68-.75-.98-1.16-.87-1.23-1.55-2.57-2.08-3.97-.49-1.33-1.13-3.49-.48-4.83.22-.45.61-.77,1.11-.86.45-.08.91-.02,1.35.05,1.36.24,2.61.48,3.96.01,1.07-.36,1.89-1.03,2.56-1.93.52-.69,1-1.43,1.62-2.04,1.52-1.49,3.64-2.25,5.74-2.35-2.46.22-4.85,1.28-6.32,3.32-.83,1.14-1.36,2.15-2.65,2.87-1.08.62-2.27.8-3.49.66-.62-.06-1.22-.19-1.84-.27-.4-.04-.81-.07-1.18.11-.8.4-.83,1.52-.76,2.3.22,2.19,1.48,4.92,2.74,6.72.39.54,1.02,1.34,1.63,1.6.12.05.25.07.37.04.02,0,.04-.01.05-.02.6-.2.78-1.19.87-1.75.11-.73.14-1.46.15-2.2,0-3.95-.44-7.89-.81-11.82h0Z"/>
  <path class="cls-1" d="M9.13,3.11h.27c.1,0,.18.08.18.18v.26c0,.24-.19.43-.43.43h-.26c-.1,0-.18-.08-.18-.18v-.27c0-.23.19-.42.42-.42Z" transform="translate(2.15 10.42) rotate(-65.63)"/>
</svg>