<?xml version="1.0" encoding="UTF-8"?>
<svg id="Layer_1" data-name="Layer 1" xmlns="http://www.w3.org/2000/svg" xmlns:xlink="http://www.w3.org/1999/xlink" viewBox="0 0 79.34 23.59">
  <defs>
    <style>
      .cls-1 {
        fill: url(#linear-gradient-2);
      }

      .cls-2 {
        fill: #010101;
      }

      .cls-3 {
        fill: #e61e25;
      }

      .cls-4 {
        fill: url(#linear-gradient);
      }
    </style>
    <linearGradient id="linear-gradient" x1="900.99" y1="1285.58" x2="916.31" y2="1285.58" gradientTransform="translate(281.68 -1541.11) rotate(45)" gradientUnits="userSpaceOnUse">
      <stop offset="0" stop-color="#e61e25"/>
      <stop offset="1" stop-color="#e61e25"/>
    </linearGradient>
    <linearGradient id="linear-gradient-2" x1="913.42" y1="1284.2" x2="923.03" y2="1286.96" gradientTransform="translate(281.68 -1541.11) rotate(45)" gradientUnits="userSpaceOnUse">
      <stop offset="0" stop-color="#010101"/>
      <stop offset=".57" stop-color="#292729"/>
      <stop offset="1" stop-color="#434143"/>
    </linearGradient>
  </defs>
  <g>
    <g>
      <path class="cls-2" d="M38.07,3.67l-1.67,11.43h-1.67l-1.02-6.47c0-.23-.03-.58-.06-1.04,0,.23-.02.58-.06,1.04l-1.01,6.47h-1.68l-1.67-11.43h1.73l.88,6.77c.01.23.03.58.06,1.04,0-.23.03-.58.07-1.04l.98-6.77h1.4l.98,6.77c.01.23.04.58.07,1.04,0-.23.02-.58.06-1.04l.88-6.77h1.73Z"/>
      <path class="cls-2" d="M40.76,15.08h-1.71V3.67h1.71v11.41Z"/>
      <path class="cls-2" d="M47.94,15.08h-1.5l-2.73-7.18c.07.35.11.62.11.82v6.36h-1.66V3.67h1.5l2.73,7.04c-.07-.35-.11-.62-.11-.82V3.67h1.66v11.41Z"/>
      <path class="cls-2" d="M55.1,15.08h-1.5l-2.73-7.18c.07.35.11.62.11.82v6.36h-1.66V3.67h1.5l2.73,7.04c-.07-.35-.11-.62-.11-.82V3.67h1.66v11.41Z"/>
      <path class="cls-2" d="M61.2,15.08h-4.73V3.67h4.69v1.51h-2.98v3.33h2.57v1.48h-2.57v3.58h3.03v1.51Z"/>
      <path class="cls-2" d="M68.21,15.08h-1.78l-1.88-5.3v-1.03h1.68v-3.62h-2.15v9.95h-1.71V3.67h4.53c.69,0,1.03.35,1.03,1.05v4.15c0,.48-.16.79-.49.93-.18.07-.54.11-1.11.11l1.88,5.17Z"/>
    </g>
    <g>
      <path class="cls-3" d="M32.19,19.92h-1.31v-4h1.3v.31h-.94v1.49h.86v.32h-.86v1.56h.96v.31Z"/>
      <path class="cls-3" d="M36.07,19.92h-1.28v-4h.36v3.68h.92v.31Z"/>
      <path class="cls-3" d="M39.91,19.92h-1.31v-4h1.3v.31h-.94v1.49h.86v.32h-.86v1.56h.96v.31Z"/>
      <path class="cls-3" d="M44.11,19.64c0,.08-.03.15-.08.2-.05.05-.12.08-.21.08h-1.03c-.08,0-.15-.03-.2-.08-.05-.05-.08-.12-.08-.2v-3.43c0-.08.03-.15.08-.2.05-.05.12-.08.2-.08h1.03c.08,0,.15.03.21.08.05.05.08.12.08.2v.93h-.36v-.9h-.89v3.37h.89v-.98h.36v1.01Z"/>
      <path class="cls-3" d="M48.14,16.24h-.62v3.68h-.36v-3.68h-.62v-.31h1.6v.31Z"/>
      <path class="cls-3" d="M52.3,19.92h-.37l-.74-2.14.05-.07h.63v-1.47h-.91v3.68h-.36v-4h1.34c.08,0,.15.03.2.08s.08.12.08.2v1.52c0,.19-.13.29-.39.29-.03,0-.06,0-.11,0-.05,0-.09,0-.11,0,.23.64.46,1.28.69,1.92Z"/>
      <path class="cls-3" d="M56.57,19.64c0,.08-.03.15-.08.2s-.12.08-.21.08h-1.12c-.08,0-.15-.03-.2-.08-.05-.05-.08-.12-.08-.2v-3.43c0-.08.03-.15.08-.2.05-.05.12-.08.2-.08h1.12c.08,0,.15.03.21.08s.08.12.08.2v3.43ZM56.21,19.61v-3.37h-.98v3.37h.98Z"/>
      <path class="cls-3" d="M60.89,19.92h-.25l-1.07-2.94v2.94h-.33v-4h.27l1.05,2.89v-2.89h.33v4Z"/>
      <path class="cls-3" d="M63.95,19.92h-.36v-4h.36v4Z"/>
      <path class="cls-3" d="M68.26,19.64c0,.08-.03.15-.08.2-.05.05-.12.08-.21.08h-1.03c-.08,0-.15-.03-.2-.08-.05-.05-.08-.12-.08-.2v-3.43c0-.08.03-.15.08-.2.05-.05.12-.08.2-.08h1.03c.08,0,.15.03.21.08.05.05.08.12.08.2v.93h-.36v-.9h-.89v3.37h.89v-.98h.36v1.01Z"/>
    </g>
  </g>
  <g>
    <polygon class="cls-4" points="21.92 9.09 16.45 9.09 16.45 3.67 11.08 3.67 11.08 14.5 21.92 14.5 21.92 9.09"/>
    <polygon class="cls-1" points="16.5 14.5 16.5 19.92 27.34 19.92 27.34 14.5 21.87 14.5 16.5 14.5"/>
  </g>
</svg>