<?xml version="1.0" encoding="UTF-8"?>
<svg id="Layer_1" data-name="Layer 1" xmlns="http://www.w3.org/2000/svg" viewBox="0 0 24.56 23.59">
  <defs>
    <style>
      .cls-1 {
        fill: #f04c23;
      }

      .cls-2 {
        fill: #fff;
      }
    </style>
  </defs>
  <g>
    <path d="M18.25,5.91c-.62.36-1.21.7-1.83,1.06,0-.11,0-.17,0-.23,0-.36,0-.73,0-1.09-.01-.71-.61-1.34-1.31-1.35-1.88,0-3.77,0-5.65,0-.72,0-1.31.61-1.32,1.33,0,.38,0,.75,0,1.13,0,.06,0,.12-.02.21-.61-.35-1.19-.69-1.81-1.04v11.93c.62-.36,1.2-.69,1.83-1.05,0,.39.02.73,0,1.07-.05.69.55,1.43,1.38,1.43,1.85,0,3.7,0,5.55,0,.64,0,1.17-.42,1.3-1.04.07-.32.04-.66.05-.99,0-.14,0-.28,0-.46.62.36,1.21.7,1.83,1.05V5.91ZM8.53,6.37c.01-.23,0-.47,0-.71.02-.56.43-.96.98-.96,1.85,0,3.7,0,5.55,0,.52,0,.95.43.96.95,0,.24,0,.48,0,.72,0,.14-.05.17-.17.17-1.19,0-2.39,0-3.58,0h0c-1.19,0-2.38,0-3.56,0-.14,0-.19-.03-.18-.18ZM16.03,17.07c-.01.29,0,.58,0,.87-.02.54-.44.95-.98.96-1.83,0-3.67,0-5.5,0-.6,0-1-.41-1.01-1.01,0-.27,0-.55,0-.82,0-.13.03-.17.17-.17,1.19,0,2.39,0,3.58,0h0c1.19,0,2.38,0,3.57,0,.14,0,.19.03.18.18Z"/>
    <path class="cls-2" d="M12.28,16.89c1.19,0,2.38,0,3.57,0,.14,0,.19.03.18.18-.01.29,0,.58,0,.87-.02.54-.44.95-.98.96-1.83,0-3.67,0-5.5,0-.6,0-1-.41-1.01-1.01,0-.27,0-.55,0-.82,0-.13.03-.17.17-.17,1.19,0,2.39,0,3.58,0h0ZM12.27,17.17h0c-1.12,0-2.23,0-3.35,0-.13,0-.18.04-.17.17.01.16,0,.32,0,.49,0,.5.31.8.81.8.78,0,1.57,0,2.35,0,1.03,0,2.05,0,3.08,0,.45,0,.76-.3.79-.74,0-.17,0-.34,0-.5.02-.17-.04-.22-.21-.22-1.1,0-2.21,0-3.31,0Z"/>
    <path class="cls-2" d="M12.27,6.55c-1.19,0-2.38,0-3.56,0-.14,0-.19-.03-.18-.18.01-.23,0-.47,0-.71.02-.56.43-.96.98-.96,1.85,0,3.7,0,5.55,0,.52,0,.95.43.96.95,0,.24,0,.48,0,.72,0,.14-.05.17-.17.17-1.19,0-2.39,0-3.58,0h0ZM12.26,6.28c.28,0,.56,0,.84,0,.84,0,1.68,0,2.52,0,.13,0,.19-.03.17-.17-.01-.13,0-.26,0-.39-.03-.47-.32-.75-.79-.75-.71,0-1.41,0-2.12,0-1.11,0-2.22,0-3.33,0-.37,0-.65.18-.75.53-.05.19-.03.4-.04.6-.01.14.04.18.18.18,1.11,0,2.22,0,3.33,0Z"/>
    <path d="M12.27,17.17c1.1,0,2.21,0,3.31,0,.17,0,.23.05.21.22-.02.17,0,.34,0,.5-.03.45-.34.74-.79.74-1.03,0-2.05,0-3.08,0-.78,0-1.57,0-2.35,0-.5,0-.81-.31-.81-.8,0-.16,0-.33,0-.49,0-.13.04-.17.17-.17,1.12,0,2.23,0,3.35,0h0ZM12.27,18.32c.34,0,.35.08.34-.34,0-.38.03-.33-.33-.33-.39,0-.34-.05-.34.33,0,.37-.04.33.33.33Z"/>
    <path d="M12.26,6.28c-1.11,0-2.22,0-3.33,0-.14,0-.19-.05-.18-.18.02-.2,0-.41.04-.6.09-.35.38-.53.75-.53,1.11,0,2.22,0,3.33,0,.71,0,1.41,0,2.12,0,.48,0,.76.28.79.75,0,.13,0,.26,0,.39.01.14-.04.17-.17.17-.84,0-1.68,0-2.52,0-.28,0-.56,0-.84,0Z"/>
    <path class="cls-2" d="M12.27,18.32c-.37,0-.33.04-.33-.33,0-.38-.05-.33.34-.33.37,0,.33-.05.33.33,0,.42,0,.33-.34.34Z"/>
    <rect class="cls-2" x="11.14" y="5.55" width="2.28" height=".16" rx=".08" ry=".08"/>
    <circle class="cls-2" cx="14.69" cy="5.62" r=".13"/>
  </g>
  <path class="cls-2" d="M12.24,9.34l-3.44-1.99v-.18c0-.11.09-.2.2-.2h6.56c.11,0,.2.09.2.2v.16l-3.51,2.01Z"/>
  <polygon class="cls-2" points="15.76 16.43 12.24 14.42 8.8 16.41 15.76 16.43"/>
  <polygon class="cls-1" points="6.31 17.85 6.31 5.92 12.24 9.34 18.25 5.91 18.25 17.86 12.24 14.42 6.31 17.85"/>
  <path class="cls-2" d="M7.56,15.61v-7.47c2.49,1.44,4.94,2.85,7.39,4.27.03-.04.04-.05.04-.07,0-.44,0-.87,0-1.31,0-.05-.06-.12-.11-.15-.34-.2-.69-.4-1.03-.6-.08-.04-.15-.1-.26-.17,1.13-.66,2.24-1.3,3.38-1.97v7.48c-2.48-1.43-4.92-2.84-7.4-4.27,0,.12-.02.18-.02.25,0,.88,0,1.76,0,2.64,0,.16-.05.25-.19.33-.55.3-1.09.62-1.63.94-.05.03-.1.05-.18.09ZM13.81,10.16c.08.04.12.07.16.09.33.16.66.33,1,.49.11.05.15.11.15.23,0,.97,0,1.95,0,2.92,0,.11.03.18.13.24.39.23.76.47,1.15.7.15.09.3.18.47.28v-6.67c-1.02.58-2.01,1.14-3.04,1.73Z"/>
  <path class="cls-1" d="M13.81,10.16c1.03-.58,2.02-1.15,3.04-1.73v6.67c-.17-.1-.32-.18-.47-.28-.38-.23-.76-.47-1.15-.7-.1-.06-.13-.13-.13-.24,0-.97,0-1.95,0-2.92,0-.12-.04-.18-.15-.23-.33-.16-.66-.32-1-.49-.04-.02-.08-.05-.16-.09ZM16.54,14.55v-5.59c-.7.4-1.37.78-2.07,1.18.29.15.54.28.79.39.12.05.16.12.16.26,0,.83,0,1.67,0,2.5,0,.19-.06.42.03.56.09.15.31.23.48.33.2.12.4.24.62.37Z"/>
  <path class="cls-2" d="M16.54,14.55c-.22-.13-.42-.24-.62-.37-.17-.1-.39-.18-.48-.33-.08-.14-.03-.37-.03-.56,0-.83,0-1.67,0-2.5,0-.13-.04-.2-.16-.26-.25-.11-.5-.25-.79-.39.7-.4,1.37-.78,2.07-1.18v5.59Z"/>
</svg>