<?xml version="1.0" encoding="UTF-8"?>
<svg id="Layer_1" data-name="Layer 1" xmlns="http://www.w3.org/2000/svg" viewBox="0 0 24.56 23.59">
  <defs>
    <style>
      .cls-1 {
        fill: #0193ba;
      }

      .cls-2 {
        fill: #0094b8;
      }

      .cls-3 {
        fill: #6dafb5;
      }

      .cls-4 {
        fill: #13181b;
      }
    </style>
  </defs>
  <g>
    <path class="cls-3" d="M8.74,14.36c-.91-1.98,1.59-3.5,2.06-3.76.08-.05.07-.19-.02-.21-.03,0-.06-.01-.11-.01h-1s-.23-.11-.23-.39c0-.28.26-.36.26-.36h1.73s.99.11.92-.48c0,0,0-.31-.44-.29-.44.02-3.46,0-3.46,0,0,0-.35,0-.36-.39-.01-.39.41-.38.41-.38h4.42s.52-.02.62-.68h-5.18s-.31-.12-.26-.43c.05-.31.23-.33.23-.33h5.06s.11-.73-.47-.72-4.56,0-4.56,0c0,0-.25-.06-.28-.35-.03-.28.24-.38.24-.38h4.2s.46-.46-.17-.68h-3.38s-.3-.07-.28-.45c.01-.38.44-.33.44-.33h2.76s-.11-.12-.09-.28c.01-.1.03-.17.07-.23h-4.5v12.99h2.63c-.07-.02-.13-.06-.19-.09-.35-.24-.6-.72-1.09-1.78"/>
    <path class="cls-2" d="M16.75,10.38c-.18-.39-.57-.73-.85-1.03-.04-.04-.08-.08-.12-.12.02-.03.03-.06.05-.1h0s0,0,0,0h0s.01-.02.01-.03c.27-.58.57-1.25.57-1.92s-.14-1.32-.41-1.9c0-.02-.02-.04-.03-.06-.59-1.22-1.68-1.97-2.86-1.97h-.66c.63.68,1,1.27,1.21,1.64.18.33.29.59.34.71.13.32.3.74.34,1.21.06.63-.11,1.13-.22,1.44-.59,1.68-2.76,2.92-2.93,3.02h1.37c.17.04.3.21.29.4,0,.17-.11.31-.26.36h-2.33s-.02,0-.02,0c-.07.06-.46.39-.63.61-.02.03,0,.07.03.07h3.81c.19.04.32.23.3.42-.01.16-.13.3-.28.34h-4c-.07,0-.13.07-.13.15,0,.12.03.29.12.47.02.05.06.07.11.07h3.58c.17.02.3.18.3.36,0,.19-.13.36-.3.38h-3.03c-.06,0-.09.07-.05.13l.35.51s.03.03.05.03h1.95s.26.07.28.35c0,.16-.07.26-.14.31h1.31c1.2,0,2.3-.78,2.88-2.03.27-.58.41-1.24.41-1.91s-.14-1.34-.42-1.92"/>
  </g>
  <g>
    <path class="cls-1" d="M5.86,19.21c-.08-.03-.17-.05-.27-.05h-.49v1.18h.22v-.34h.27c.1,0,.19-.02.27-.05.08-.03.13-.08.17-.15s.06-.14.06-.22-.02-.16-.06-.23c-.04-.06-.1-.11-.17-.14M5.8,19.76s-.12.06-.22.06h-.26v-.47h.26c.1,0,.17.02.22.06.05.04.07.1.07.17s-.02.13-.07.17"/>
    <polygon class="cls-1" points="8.41 19.65 7.8 19.65 7.8 19.16 7.58 19.16 7.58 20.35 7.8 20.35 7.8 19.84 8.41 19.84 8.41 20.35 8.63 20.35 8.63 19.16 8.41 19.16 8.41 19.65"/>
    <path class="cls-1" d="M10.65,19.16l-.53,1.18h.23l.12-.27h.59l.12.27h.23l-.53-1.18h-.22ZM10.53,19.9l.22-.52.22.52h-.44Z"/>
    <path class="cls-1" d="M13.65,19.95c.08-.03.13-.08.17-.14.04-.06.06-.14.06-.22,0-.13-.04-.23-.13-.31-.09-.08-.21-.11-.37-.11h-.49v1.18h.22v-.35h.27s.03,0,.05,0l.24.35h.24l-.27-.39s.01,0,.02,0M13.59,19.41s.07.1.07.17-.02.13-.07.17c-.05.04-.12.06-.22.06h-.26v-.47h.26c.1,0,.17.02.22.06"/>
    <polygon class="cls-1" points="16.5 19.16 16.04 19.95 15.57 19.16 15.39 19.16 15.39 20.35 15.6 20.35 15.6 19.57 15.99 20.21 16.09 20.21 16.48 19.56 16.48 20.35 16.69 20.35 16.68 19.16 16.5 19.16"/>
    <path class="cls-1" d="M19.23,20.35h.23l-.53-1.18h-.22l-.53,1.18h.23l.12-.27h.59l.12.27ZM18.59,19.9l.22-.52.22.52h-.44Z"/>
    <path class="cls-4" d="M6.53,17.96s-.02,0-.03-.01c.07-.04.13-.09.17-.15.05-.07.07-.15.07-.25,0-.14-.06-.25-.18-.34-.12-.09-.3-.13-.54-.13h-.93v1.82h.98c.25,0,.43-.04.56-.13.13-.09.19-.21.19-.37,0-.1-.03-.19-.08-.27-.05-.07-.13-.13-.22-.17M5.61,17.45h.35c.09,0,.15.01.2.04.04.03.07.07.07.13,0,.06-.02.1-.07.13-.04.03-.11.04-.2.04h-.35v-.35ZM6.24,18.48s-.11.05-.2.05h-.43v-.37h.43c.09,0,.16.02.2.05.05.03.07.08.07.14s-.02.11-.07.14"/>
    <rect class="cls-4" x="7.1" y="17.08" width=".52" height="1.82"/>
    <path class="cls-4" d="M9.62,17.31c-.09-.08-.2-.15-.32-.2-.12-.05-.26-.07-.4-.07s-.28.02-.4.07c-.12.05-.23.11-.32.2-.09.09-.16.19-.21.3-.05.11-.08.24-.08.37s.03.26.08.38c.05.12.12.22.21.3.09.09.2.15.32.2.12.05.26.07.4.07s.28-.02.4-.07c.12-.05.23-.11.32-.2.09-.08.16-.19.21-.3.05-.12.08-.24.08-.38s-.03-.26-.08-.38c-.05-.11-.12-.21-.21-.3M9.35,18.2c-.03.06-.06.12-.1.16-.04.05-.1.08-.16.11-.06.02-.12.04-.19.04s-.13-.01-.19-.04c-.06-.02-.11-.06-.16-.11-.05-.05-.08-.1-.1-.16-.02-.06-.04-.13-.04-.21s.01-.15.04-.21c.02-.06.06-.12.1-.16.05-.05.1-.08.16-.11.06-.02.12-.04.19-.04s.13.01.19.04c.06.02.11.06.16.11.04.05.08.1.1.16.03.06.04.13.04.21s-.01.15-.04.21"/>
    <path class="cls-4" d="M10.75,17.61s.1-.08.16-.11c.06-.02.14-.04.21-.04.09,0,.17.02.24.05.07.03.14.08.2.15l.33-.3c-.09-.11-.2-.19-.34-.25-.14-.06-.29-.09-.46-.09-.15,0-.29.02-.41.07-.12.05-.23.11-.32.2-.09.08-.16.18-.21.3-.05.12-.08.24-.08.38s.03.27.08.38c.05.12.12.22.21.3.09.08.2.15.32.2.12.05.25.07.4.07.13,0,.27-.02.4-.06.14-.04.26-.1.36-.17v-.8h-.86v.33h.41v.22s-.03.01-.05.02c-.07.03-.15.04-.22.04s-.15-.01-.21-.04c-.06-.03-.12-.06-.16-.11-.05-.05-.08-.1-.11-.17-.03-.06-.04-.13-.04-.21s.01-.15.04-.21c.03-.06.06-.12.11-.17"/>
    <polygon class="cls-4" points="12.69 18.17 13.5 18.17 13.5 17.78 12.69 17.78 12.69 17.48 13.61 17.48 13.61 17.08 12.19 17.08 12.19 18.9 13.65 18.9 13.65 18.5 12.69 18.5 12.69 18.17"/>
    <polygon class="cls-4" points="15.16 18.05 14.36 17.08 13.94 17.08 13.94 18.9 14.44 18.9 14.44 17.93 15.24 18.9 15.67 18.9 15.67 17.08 15.16 17.08 15.16 18.05"/>
    <path class="cls-4" d="M16.62,17.08l-.8,1.82h.53l.14-.36h.77l.14.36h.54l-.81-1.82h-.51ZM16.63,18.17l.23-.58.23.58h-.47Z"/>
    <polygon class="cls-4" points="18.59 18.49 18.59 17.08 18.08 17.08 18.08 18.9 19.46 18.9 19.46 18.49 18.59 18.49"/>
  </g>
</svg>