<?xml version="1.0" encoding="UTF-8"?>
<svg id="Layer_1" data-name="Layer 1" xmlns="http://www.w3.org/2000/svg" viewBox="0 0 24.56 23.59">
  <defs>
    <style>
      .cls-1 {
        fill: #ee232c;
      }

      .cls-2 {
        fill: #2eb44d;
      }

      .cls-3 {
        fill: #252122;
      }

      .cls-4 {
        fill: #2a2527;
      }
    </style>
  </defs>
  <path class="cls-2" d="M11.03,14.27c-.55-.26-1.08-.61-1.45-1.1-1.68-2.18.24-5.23.63-7.57.08-.5,0-.66-.08-1.12,0-.04-.03-.16.04-.14,1.15,1.58,2.23,3.34,2.77,5.25.37,1.31.52,3.14-.32,4.31-.15.21-.2.21-.41.08-1.11-.69-1.59-2.34-1.65-3.58-.03-.54.07-1.08.13-1.61.06.01.05.07.06.11.32,1.06.4,2.04,1.17,2.93.05.06.37.4.42.34-.03-1.3-.18-2.62-.61-3.85-.2-.56-.52-1.26-.92-1.7-.02-.02-.14-.14-.15-.12-.18.99-.59,1.95-.77,2.94-.27,1.47-.17,2.92.77,4.12.19.24.44.44.59.71-.07,0-.15,0-.22,0Z"/>
  <path class="cls-1" d="M13.38,14.27s0-.09,0-.13c.18-.54.39-1.09.43-1.67.18-2.48-.84-4.9-1.99-7.03-.05-.17.15-.48.24-.64.73-1.22,2.24-1.99,3.61-2.24.04.01-.04.07-.05.08-.23.18-.5.33-.72.52-1.03.88-1.18,2-.95,3.29.35,2.01,1.52,3.22,1.11,5.45-.17.91-.59,1.96-1.46,2.37-.07,0-.15,0-.22,0Z"/>
  <path class="cls-3" d="M11.03,14.27c.07,0,.15,0,.22,0,.1,0,.19,0,.29,0,.36.06.59.44.77.71.08-.3.4-.66.71-.71.11-.02.24,0,.35,0,.07,0,.15,0,.22,0,.82-.01,1.64.1,2.35-.39.06-.04.28-.31.34-.12.06.17-.39.74-.53.87-.77.75-1.68.38-2.62.48-.19.02-.39.13-.52.27-.07.08-.18.31-.19.32-.03.02-.24.01-.28-.01-.04-.02-.07-.15-.11-.2-.48-.6-1.4-.33-2.1-.38-.83-.06-1.46-.6-1.7-1.38.23-.11.34.14.54.25.62.36,1.55.26,2.24.28Z"/>
  <path class="cls-4" d="M13.98,18.02h.64s.11-.1.11-.11v-.55c.44-.07.23.22.29.48,0,.04.11.18.13.18h.78s.08-.04.08-.05c-.12-.12-.19-.22-.35-.28-.04-.02-.14-.02-.15-.02,0,0,0-.2,0-.23.04-.11.49-.21.61-.21.14,0,.67.12.7.27.02.12-.3.41-.37.51h.66s0-.14.03-.21c.14-.35.74-.31.86.05.02.05,0,.16.01.16h1.19c-.01-.22-.16-.4-.39-.4-.1,0-.26.08-.34.06-.02,0-.09-.16-.08-.2.01-.05.16-.1.21-.11.47-.08.78.12.88.58.01.06.07.35,0,.35h-1.52s0,.07-.08.12c-.16.11-.36.13-.53.04-.08-.04-.13-.14-.19-.16-.18-.05-.54.02-.74,0-.09-.01-.19-.11-.22-.11-.03,0-.26.1-.35.11-.16.02-.67.03-.79-.05-.08-.05-.08-.12-.1-.14-.02-.02-.05.08-.09.11-.13.1-.8.11-.97.06-.22-.05-.16-.22-.21-.25-.1-.07-.49.1-.56-.19-.05-.23,0-.57.27-.63.12-.02.18.02.27.02.04,0,.33-.08.33.02v.77ZM13.66,17.53c-.09-.09-.29-.06-.3.11,0,.18.21.13.34.14,0-.07,0-.2-.04-.24ZM16.45,17.55c-.04-.05-.48-.09-.53-.03s.11.1.14.12c.04.04.16.18.19.19.06,0,.25-.2.2-.28ZM17.51,17.81c-.16.04-.17.41,0,.46.36.11.31-.54,0-.46Z"/>
  <path class="cls-4" d="M6.96,16.71v1.27s.04.05.05.05h.49v-.56h.28v.45c0,.14.34.21.34.03v-.49h.28v.45c0,.11.34.21.34.06v-.61c.43-.07.24.21.28.48,0,.05.08.17.14.17h1.3c-.07-.39-.42-.49-.75-.31-.11-.22-.08-.31.17-.34.38-.05.67.08.8.45.02.07.12.49.01.49h-1.5c-.07,0-.18-.15-.19-.16-.06-.01-.05.07-.13.12-.14.09-.27.08-.41.01-.04-.02-.13-.13-.16-.1,0,0,0,.06-.07.1-.24.14-.35-.03-.45-.03-.02,0-.06.05-.12.05-.18,0-.78.03-.9-.06-.05-.04-.08-.11-.09-.17-.02-.13-.02-.33-.03-.47-.01-.3.01-.6,0-.89h.31Z"/>
  <path class="cls-4" d="M11.66,20.51s-.09.08-.13.09c-.17.07-1.4.07-1.64.05-.12-.01-.2-.04-.25-.16-.17.25-.6.16-.86.09.01.29-.5.66-.59.25.11.06.38-.15.38-.23v-.63s.2-.08.24-.02c.13.18-.24.57.53.47.23-.03.11-.33.14-.5h.22c0,.11-.02.5.14.5h.89c-.06-.21-.2-.31-.42-.28-.11.01-.23.14-.26-.05,0-.05,0-.05.02-.09s.43-.44.46-.45c.27.13.06.22-.05.37.1,0,.24.06.31.14s.13.33.15.35c.06.04.41.01.5-.02v-.95c0-.06.22-.06.22,0v1.06Z"/>
  <path class="cls-4" d="M14.1,19.81v.58c0,.07.47.06.54.02.15-.1-.08-.44.1-.47.35-.07,0,.46.34.5.67.09.27-.28.41-.47.05-.07.22-.06.24.08.07.53-.12.68-.64.61-.16-.02-.21-.12-.22-.12-.04,0-.17.11-.28.12-.13.02-.53.02-.62-.06-.05-.04-.06-.15-.1-.16-.16-.04-.39.09-.42-.2-.06-.49.32-.41.66-.42ZM13.91,20.24c.12-.12-.3-.47-.24-.03.03.04.23.04.24.03Z"/>
  <path class="cls-4" d="M5.71,19.81v.55s.04.05.03.08h.45c.16,0,.1-.4.11-.5h.22c.02.18-.08.47.17.5.51.07.41-.1.39-.5.06,0,.2-.02.24.03.05.06.02.48-.04.56-.1.16-.55.16-.71.09-.04-.02-.09-.09-.13-.09-.02,0-.06.07-.13.09-.14.05-.63.06-.75-.03-.05-.04-.06-.15-.1-.16-.19-.04-.39.1-.42-.23-.04-.47.34-.37.66-.39ZM5.52,20.24c.12-.12-.3-.47-.24-.03.03.04.23.04.24.03Z"/>
  <path class="cls-4" d="M5.34,17.61v.58c0,.13.19.32.33.33.14.01.42-.14.42-.27v-.64h.28v.67c0,.05-.15.31-.2.36-.3.29-.78.21-.99-.13-.03-.05-.12-.25-.12-.29v-.61h.28Z"/>
  <path class="cls-4" d="M16.95,19.4c.07,0,.19-.03.21.05.05.15-.05.92.04.98.05.03.27-.01.34,0-.1-.31.09-.59.43-.51s.35.57.07.68c-.16.07-1.1.13-1.1-.13v-1.08ZM17.98,20.13c-.18-.19-.36.27-.13.33.18.04.22-.24.13-.33Z"/>
  <path class="cls-4" d="M11.85,16.71v1.21s-.14.22-.19.25c-.12.09-.64.23-.68.09-.1-.3.15-.21.31-.24.5-.11.17-.94.25-1.3h.31Z"/>
  <path class="cls-4" d="M7.62,20.84c.13.02.27-.04.31-.17-.15-.06-.25-.04-.34-.19-.22-.37.24-.71.54-.48.17.14.12.62.02.79-.11.19-.48.4-.53.05ZM8.03,20.43c0-.09.02-.31-.08-.34-.23-.07-.31.46.08.34Z"/>
  <path class="cls-4" d="M12.13,16.71h.28c0,.38-.01.76,0,1.14,0,.1.1.41-.02.45-.05.02-.26.01-.26-.04v-1.55Z"/>
  <path class="cls-4" d="M12.51,20.35c-.05.22-.47.32-.66.3v-.2c.74-.01.29-.65.41-1,.03-.09.25-.05.25,0,0,.23.04.72,0,.91Z"/>
  <path class="cls-4" d="M18.83,19.4h.22c0,.22,0,.45,0,.67,0,.17.07.3-.11.45-.13.11-.66.25-.55-.09.1.05.44-.08.44-.17v-.86Z"/>
  <path class="cls-3" d="M11.35,16.71v1.13s-.24.07-.25.06l-.03-1.14c0-.1.22-.03.28-.05Z"/>
  <path class="cls-4" d="M16.73,19.93v.67c0,.24-.54.67-.63.23.15.05.41-.16.41-.3v-.61h.22Z"/>
  <rect class="cls-4" x="12.72" y="19.4" width=".22" height="1.25"/>
  <path class="cls-3" d="M15.95,19.43h.19s.03,1.14.03,1.14c0,.09-.16.03-.22.05v-1.19Z"/>
  <rect class="cls-3" x="19.3" y="19.43" width=".19" height="1.19"/>
  <path class="cls-4" d="M18.7,20.28s-.21.08-.22.06c0-.19,0-.39,0-.58,0-.09-.07-.26-.02-.33.04-.06.24-.03.24.02,0,.12.02.8,0,.83Z"/>
  <path class="cls-4" d="M12.13,19.4v.86s-.18.09-.22.08v-.94h.22Z"/>
  <path class="cls-4" d="M10.94,18.8c-.03-.17.1-.14.12-.16.03-.03,0-.27.21-.25.16.02.13.27-.05.16v.09s.16,0,.16,0v.16h-.44Z"/>
  <path class="cls-4" d="M18.61,20.87c-.01.06.07.02.09.03,0,0,0,.12,0,.12-.01.01-.29,0-.34,0,.01-.05.14-.29.16-.3.14-.09.3.09.09.14Z"/>
  <path class="cls-4" d="M12.16,20.75s-.02.07-.05.1c0,0-.16,0-.08.06.01,0,.09,0,.13,0,.05.21-.19.1-.34.12l.14-.28s.2-.01.21,0Z"/>
  <rect class="cls-4" x="13.26" y="16.77" width=".28" height=".25"/>
  <rect class="cls-4" x="13.6" y="16.77" width=".28" height=".25"/>
  <rect class="cls-4" x="5.59" y="17.14" width=".25" height=".28"/>
  <rect class="cls-4" x="18.73" y="18.4" width=".25" height=".25"/>
  <rect class="cls-4" x="14.85" y="18.4" width=".25" height=".25"/>
  <rect class="cls-4" x="14.51" y="18.4" width=".25" height=".25"/>
  <rect class="cls-4" x="5.18" y="19.46" width=".22" height=".22"/>
  <rect class="cls-4" x="13.57" y="19.46" width=".22" height=".22"/>
  <path class="cls-4" d="M7.31,19.59v.22s-.22,0-.22,0c-.02-.2.02-.24.22-.22Z"/>
  <path class="cls-4" d="M9.81,19.59v.22s-.22,0-.22,0c-.02-.2.02-.24.22-.22Z"/>
  <path class="cls-4" d="M15.45,19.81h-.22s0-.22,0-.22c.2-.02.24.02.22.22Z"/>
  <rect class="cls-4" x="5.46" y="19.46" width=".19" height=".22"/>
  <rect class="cls-4" x="13.85" y="19.46" width=".19" height=".22"/>
  <rect class="cls-4" x="9.34" y="19.59" width=".19" height=".22"/>
  <rect class="cls-4" x="15.51" y="19.59" width=".19" height=".22"/>
  <rect class="cls-4" x="6.12" y="20.71" width=".22" height=".19"/>
  <rect class="cls-4" x="14.51" y="20.71" width=".22" height=".19"/>
  <rect class="cls-3" x="6.4" y="20.71" width=".19" height=".19"/>
  <rect class="cls-3" x="14.79" y="20.71" width=".19" height=".19"/>
</svg>