<?xml version="1.0" encoding="UTF-8"?>
<svg id="Layer_1" data-name="Layer 1" xmlns="http://www.w3.org/2000/svg" xmlns:xlink="http://www.w3.org/1999/xlink" viewBox="0 0 24.56 23.59">
  <defs>
    <style>
      .cls-1 {
        fill: url(#linear-gradient-2);
      }

      .cls-2 {
        fill: url(#linear-gradient);
      }

      .cls-3 {
        fill: #414042;
      }
    </style>
    <linearGradient id="linear-gradient" x1="7.74" y1="19.65" x2="16.82" y2="3.94" gradientUnits="userSpaceOnUse">
      <stop offset="0" stop-color="#db9e27"/>
      <stop offset="1" stop-color="#bc7229"/>
    </linearGradient>
    <linearGradient id="linear-gradient-2" x1="9.62" y1="13.94" x2="14.93" y2="4.75" xlink:href="#linear-gradient"/>
  </defs>
  <path class="cls-2" d="M12.28,3.27c.58,0,1.16.06,1.72.17.55.11,1.08.28,1.6.5.5.21.99.48,1.45.79.45.3.88.66,1.26,1.04.39.39.74.81,1.04,1.26.31.46.57.94.79,1.45.22.51.38,1.05.5,1.6.11.56.17,1.14.17,1.72s-.06,1.16-.17,1.72c-.11.55-.28,1.08-.5,1.6-.21.5-.48.99-.79,1.45-.3.45-.66.88-1.04,1.26-.39.39-.81.74-1.26,1.04-.46.31-.94.57-1.45.79-.51.22-1.05.38-1.6.5-.56.11-1.14.17-1.72.17s-1.16-.06-1.72-.17c-.55-.11-1.08-.28-1.6-.5-.5-.21-.99-.48-1.45-.79-.45-.3-.88-.66-1.26-1.04-.39-.39-.74-.81-1.04-1.26-.31-.46-.57-.94-.79-1.45-.22-.51-.38-1.05-.5-1.6-.11-.56-.17-1.14-.17-1.72s.06-1.16.17-1.72c.11-.55.28-1.08.5-1.6.21-.5.48-.99.79-1.45.3-.45.66-.88,1.04-1.26.39-.39.81-.74,1.26-1.04.46-.31.94-.57,1.45-.79.51-.22,1.05-.38,1.6-.5.56-.11,1.14-.17,1.72-.17M12.28,2.73C7.27,2.73,3.21,6.79,3.21,11.8s4.06,9.07,9.07,9.07,9.07-4.06,9.07-9.07S17.29,2.73,12.28,2.73h0Z"/>
  <g>
    <g>
      <path class="cls-3" d="M6.49,15.03v.35h-1.14v-.31l.63-.85h-.61v-.35h1.08v.31l-.63.85h.67Z"/>
      <path class="cls-3" d="M8.11,14.62c0,.45-.32.78-.76.78s-.76-.33-.76-.78.32-.78.76-.78.76.33.76.78ZM7.74,14.62c0-.21-.13-.42-.4-.42s-.4.21-.4.42.13.43.4.43.4-.21.4-.43Z"/>
      <path class="cls-3" d="M9.6,13.87v1.5h-.32l-.59-.88v.88h-.37v-1.5h.32l.59.88v-.88h.37Z"/>
      <path class="cls-3" d="M10.8,15.03v.35h-.95v-1.5h.93v.35h-.56v.23h.49v.33h-.49v.25h.58Z"/>
      <path class="cls-3" d="M13.23,13.87v1.5h-.37v-.89l-.39.65h-.14l-.39-.65v.89h-.37v-1.5h.39l.44.73.44-.73h.39Z"/>
      <path class="cls-3" d="M14.96,14.62c0,.45-.32.78-.76.78s-.76-.33-.76-.78.32-.78.76-.78.76.33.76.78ZM14.59,14.62c0-.21-.13-.42-.4-.42s-.4.21-.4.42.13.43.4.43.4-.21.4-.43Z"/>
      <path class="cls-3" d="M16.32,14.92c0,.27-.16.46-.55.46h-.6v-1.5h.55c.36,0,.55.16.55.41,0,.14-.06.23-.16.29h0c.14.07.22.18.22.34ZM15.53,14.16v.33h.16c.13,0,.2-.07.2-.16,0-.11-.07-.16-.2-.16h-.16ZM15.95,14.9c0-.1-.07-.16-.2-.16h-.21v.35h.21c.14,0,.2-.08.2-.18Z"/>
      <path class="cls-3" d="M16.88,13.87v1.5h-.37v-1.5h.37Z"/>
      <path class="cls-3" d="M18.07,15.03v.35h-.93v-1.5h.37v1.16h.56Z"/>
      <path class="cls-3" d="M19.21,15.03v.35h-.95v-1.5h.93v.35h-.56v.23h.49v.33h-.49v.25h.58Z"/>
    </g>
    <g>
      <path class="cls-3" d="M9.99,16.9l-.16-.28h-.13v.28h-.15v-.78h.27c.17,0,.29.11.29.25,0,.1-.05.17-.14.21l.19.31h-.17ZM9.7,16.5h.12c.08,0,.14-.04.14-.11,0-.07-.05-.11-.14-.11h-.12v.23Z"/>
      <path class="cls-3" d="M10.74,16.68h-.42c.02.08.08.12.16.12.06,0,.11-.03.13-.06l.11.07c-.05.06-.13.11-.24.11-.19,0-.31-.12-.31-.29s.13-.29.29-.29c.17,0,.3.13.28.35ZM10.6,16.57c-.01-.07-.06-.12-.14-.12-.07,0-.12.04-.14.12h.28ZM10.61,16.1l-.11.16h-.11l.07-.16h.15Z"/>
      <path class="cls-3" d="M11.44,16.62c0,.15-.1.29-.27.29-.09,0-.14-.03-.18-.08v.28h-.14v-.78h.14v.07s.09-.08.18-.08c.17,0,.27.15.27.29ZM11.29,16.62c0-.09-.06-.16-.15-.16s-.15.07-.15.16.05.16.15.16.15-.07.15-.16Z"/>
      <path class="cls-3" d="M12.01,16.57v.34h-.14v-.06s-.09.07-.16.07c-.08,0-.2-.05-.2-.16,0-.18.23-.18.3-.18h.06c0-.08-.03-.12-.12-.12-.05,0-.1.03-.12.04l-.1-.07c.06-.06.14-.09.23-.09.18,0,.24.1.24.24ZM11.87,16.66h0c-.1,0-.21,0-.21.08,0,.04.03.08.1.08s.11-.04.12-.06v-.1Z"/>
      <path class="cls-3" d="M12.47,16.33v.15c-.17-.02-.19.09-.19.19v.23h-.14v-.56h.14v.09c.04-.07.12-.11.19-.11Z"/>
      <path class="cls-3" d="M13.02,16.57v.34h-.14v-.06s-.09.07-.16.07c-.08,0-.2-.05-.2-.16,0-.18.23-.18.3-.18h.06c0-.08-.03-.12-.12-.12-.05,0-.1.03-.12.04l-.1-.07c.06-.06.14-.09.23-.09.18,0,.24.1.24.24ZM12.87,16.66h0c-.1,0-.21,0-.21.08,0,.04.03.08.1.08s.11-.04.12-.06v-.1Z"/>
      <path class="cls-3" d="M13.3,16.47v.2c0,.06,0,.1.09.1,0,0,.02,0,.03,0v.13s-.03,0-.06,0c-.14,0-.2-.1-.2-.21v-.23h-.08v-.13h.08v-.12h.14v.12h.12v.13h-.12Z"/>
      <path class="cls-3" d="M13.53,16.19s.03-.07.07-.07.08.03.08.07-.03.08-.08.08-.07-.03-.07-.08ZM13.54,16.34h.14v.56h-.14v-.56Z"/>
      <path class="cls-3" d="M14.37,16.62c0,.16-.13.29-.3.29s-.3-.13-.3-.29.13-.29.3-.29.3.13.3.29ZM14.23,16.62c0-.09-.06-.16-.15-.16s-.15.07-.15.16.06.16.15.16.15-.07.15-.16Z"/>
      <path class="cls-3" d="M14.98,16.56v.34h-.14v-.31c0-.07-.03-.13-.11-.13s-.12.06-.12.13v.31h-.14v-.56h.14v.07s.08-.08.16-.08c.14,0,.21.12.21.23Z"/>
      <path class="cls-3" d="M8,17.29v.19h.27v.14h-.27v.3h-.15v-.78h.45v.14h-.3Z"/>
      <path class="cls-3" d="M8.56,17.15v.78h-.14v-.78h.14Z"/>
      <path class="cls-3" d="M9.16,17.58v.34h-.14v-.06s-.09.07-.16.07c-.08,0-.2-.05-.2-.16,0-.18.23-.18.3-.18h.06c0-.08-.03-.12-.12-.12-.05,0-.1.03-.12.04l-.1-.07c.06-.06.14-.09.23-.09.18,0,.24.1.24.24ZM9.02,17.68h0c-.1,0-.21,0-.21.08,0,.04.03.08.1.08s.11-.04.12-.06v-.1Z"/>
      <path class="cls-3" d="M9.73,17.75c0,.11-.08.19-.24.19-.11,0-.22-.04-.24-.14l.14-.04s.03.06.11.06c.06,0,.09-.02.09-.06,0-.05-.08-.05-.15-.07-.11-.02-.16-.07-.16-.17,0-.11.09-.18.22-.18.1,0,.19.05.21.15l-.13.03s-.03-.06-.09-.06c-.04,0-.08.02-.08.06,0,.05.08.05.12.06.14.03.2.07.2.16Z"/>
      <path class="cls-3" d="M10.33,17.58v.34h-.14v-.31c0-.07-.03-.13-.11-.13s-.12.06-.12.13v.31h-.14v-.78h.14v.28s.08-.08.16-.08c.14,0,.21.12.21.23Z"/>
      <path class="cls-3" d="M11.11,17.53v.12h-.35v-.12h.35Z"/>
      <path class="cls-3" d="M12.19,17.54c0,.23-.15.39-.41.39h-.24v-.78h.24c.26,0,.41.16.41.39ZM12.04,17.54c0-.17-.12-.25-.26-.25h-.09v.5h.09c.14,0,.26-.08.26-.25Z"/>
      <path class="cls-3" d="M12.84,17.7h-.42c.02.08.08.12.16.12.06,0,.11-.03.13-.06l.11.07c-.05.06-.13.11-.24.11-.19,0-.31-.12-.31-.29s.13-.29.29-.29c.17,0,.3.13.28.35ZM12.7,17.59c-.01-.07-.06-.12-.14-.12-.07,0-.12.04-.14.12h.28ZM12.71,17.12l-.11.16h-.11l.07-.16h.15Z"/>
      <path class="cls-3" d="M13.33,17.73l.12.07c-.05.08-.14.14-.25.14-.17,0-.3-.13-.3-.29s.13-.29.3-.29c.11,0,.2.05.25.14l-.12.07s-.07-.07-.13-.07c-.09,0-.15.07-.15.16s.06.16.15.16c.06,0,.1-.03.13-.07Z"/>
      <path class="cls-3" d="M14.09,17.64c0,.16-.13.29-.3.29s-.3-.13-.3-.29.13-.29.3-.29.3.13.3.29ZM13.94,17.64c0-.09-.06-.16-.15-.16s-.15.07-.15.16.06.16.15.16.15-.07.15-.16Z"/>
      <path class="cls-3" d="M14.75,17.15v.78h-.14v-.07s-.09.08-.18.08c-.17,0-.27-.15-.27-.29s.1-.29.27-.29c.09,0,.14.03.18.08v-.28h.14ZM14.6,17.64c0-.09-.05-.16-.15-.16s-.15.07-.15.16.06.16.15.16.15-.07.15-.16Z"/>
      <path class="cls-3" d="M15.35,17.58v.34h-.14v-.06s-.09.07-.16.07c-.08,0-.2-.05-.2-.16,0-.18.23-.18.3-.18h.06c0-.08-.03-.12-.12-.12-.05,0-.1.03-.12.04l-.1-.07c.06-.06.14-.09.23-.09.18,0,.24.1.24.24ZM15.21,17.68h0c-.1,0-.21,0-.21.08,0,.04.03.08.1.08s.11-.04.12-.06v-.1Z"/>
      <path class="cls-3" d="M16.04,17.36v.5c0,.16-.11.28-.3.28-.12,0-.22-.05-.27-.11l.11-.07s.07.06.15.06c.11,0,.17-.06.17-.17v-.04s-.09.09-.18.09c-.17,0-.27-.13-.27-.27s.1-.27.27-.27c.09,0,.14.04.18.09v-.07h.14ZM15.89,17.62c0-.08-.06-.15-.15-.15s-.15.07-.15.15.06.15.15.15.15-.07.15-.15Z"/>
      <path class="cls-3" d="M16.71,17.7h-.42c.02.08.08.12.16.12.06,0,.11-.03.13-.06l.11.07c-.05.06-.13.11-.24.11-.19,0-.31-.12-.31-.29s.13-.29.29-.29c.17,0,.3.13.28.35ZM16.57,17.59c-.01-.07-.06-.12-.14-.12-.07,0-.12.04-.14.12h.28Z"/>
    </g>
    <path class="cls-1" d="M15.85,5.44c-.45,0-.87.2-1.12.53l-2.39,3.01-.76-.63,1.04-1.47c.17-.25.19-.55.03-.8s-.44-.41-.76-.41h-3.64c-.29,0-.52.21-.52.47v.57c0,.26.23.47.52.47h2.14l-2.47,3.35c-.13.17-.2.38-.2.58v1.4c0,.35.31.63.69.63h4.44c.27,0,.48-.2.48-.44v-.58c0-.24-.22-.44-.48-.44h-3.11c-.1,0-.18-.05-.23-.12-.05-.08-.04-.17,0-.24l1.15-1.69,1.04.95c.18.16.43.25.68.24.25-.01.49-.12.65-.31l2.04-2.33v4.31c0,.29.26.53.58.53h.55c.32,0,.58-.24.58-.53v-6.18c0-.48-.43-.87-.96-.87Z"/>
  </g>
</svg>