<?xml version="1.0" encoding="UTF-8"?>
<svg id="Layer_1" data-name="Layer 1" xmlns="http://www.w3.org/2000/svg" viewBox="0 0 24.56 23.59">
  <defs>
    <style>
      .cls-1 {
        fill: #61b06e;
      }

      .cls-2 {
        fill: #939598;
      }

      .cls-3 {
        fill: #c8202d;
      }
    </style>
  </defs>
  <g>
    <g>
      <g>
        <path class="cls-1" d="M14.24,14.44h-.85l-.13.69h-.74l.49-2.66c.18.41.71.18.64.55l-.17.92h.64l-.21-.89c-.12-.53-.84-.3-.84-.8v-.47c.44.73,1.33.06,1.54.98l.53,2.36h-.75l-.16-.69Z"/>
        <path class="cls-1" d="M15.35,13.49h-.14v-.41h.14v-.77h.75v.77h.72v.41h-.72v.82c0,.48.91,0,.91.63v.47c-.21-.35-.65-.3-1.01-.3s-.65-.05-.65-.52v-1.11Z"/>
        <path class="cls-1" d="M17.12,11.64c.2.52.75.24.75.61v2.88h-.75v-3.49Z"/>
        <path class="cls-1" d="M18.77,14.42c0,.18.1.25.22.25.09,0,.19-.03.27-.08v-.71c0-.37.56-.09.75-.61v1.86h-.75v-.1c-.16.07-.4.13-.63.13-.32,0-.61-.13-.61-.55v-.95c0-.97,1.42-.25,1.85-.98v.47c0,.5-1.1.23-1.1.8v.46Z"/>
        <path class="cls-1" d="M20.17,14.39c.08.1.53.25.83.25.18,0,.31-.06.26-.21-.03-.09-.21-.08-.42-.08-.31,0-.68-.01-.68-.35v-.37c0-.97,1.42-.21,1.85-.94v.47c0,.67-1.1.23-1.1.63,0,.28,1.1-.11,1.1.44v.36c0,.45-.47.59-.93.59-.42,0-.84-.11-.91-.18v-.6Z"/>
      </g>
      <g>
        <path class="cls-3" d="M2.58,15.09c.17.41.65.18.65.46v1.19h.49c.15,0,.16-.06.16-.18v-1.02c0-.35-1.33-.06-1.33-.58v-.37c.38.57,1.98-.07,1.98.7v1.5c0,.35-.18.46-.8.46h-1.14v-2.14Z"/>
        <path class="cls-3" d="M5.24,16.34h.42v-.1c0-.29.48-.07.65-.48v.84h-1.07v.03c0,.16.19.22.41.22.27,0,.58-.08.64-.16v.44c-.06.06-.42.13-.79.13-.44,0-.91-.11-.91-.48v-.71c0-.77,1.22-.2,1.6-.78v.37c0,.4-.95.18-.95.63v.04Z"/>
        <path class="cls-3" d="M6.42,14.47c.17.41.65.19.65.48v2.28h-.65v-2.76Z"/>
        <path class="cls-3" d="M7.2,15.76c.17.41.65.19.65.48v.99h-.65v-1.47ZM7.22,15.13c.17.41.65.19.65.48v.52c-.17-.41-.65-.19-.65-.48v-.52Z"/>
        <path class="cls-3" d="M8.68,16.63c0,.16.15.21.33.21.22,0,.48-.09.55-.18v.47c-.06.06-.41.15-.76.15-.38,0-.77-.11-.77-.46v-.75c0-.77,1.16-.2,1.53-.78v.37c0,.53-.89.18-.89.63v.33Z"/>
        <path class="cls-3" d="M10.36,16.67c0,.14.08.19.19.19.07,0,.16-.03.23-.06v-.56c0-.29.48-.07.65-.48v1.47h-.65v-.08c-.14.05-.34.1-.54.1-.28,0-.53-.1-.53-.43v-.75c0-.77,1.22-.2,1.6-.78v.37c0,.4-.95.18-.95.63v.37Z"/>
        <path class="cls-3" d="M11.59,15.93h-.12v-.32h.12v-.61h.65v.61h.62v.32h-.62v.65c0,.38.79,0,.79.5v.37c-.18-.28-.56-.24-.88-.24s-.56-.04-.56-.41v-.87Z"/>
        <path class="cls-3" d="M13.77,16.34h.42v-.1c0-.29.48-.07.65-.48v.84h-1.07v.03c0,.16.19.22.41.22.27,0,.58-.08.64-.16v.44c-.06.06-.42.13-.79.13-.44,0-.91-.11-.91-.48v-.71c0-.77,1.22-.2,1.6-.78v.37c0,.4-.95.18-.95.63v.04Z"/>
        <path class="cls-3" d="M14.99,16.65c.06.08.45.2.71.2.16,0,.27-.05.23-.17-.02-.07-.18-.06-.36-.06-.27,0-.59,0-.59-.28v-.3c0-.77,1.22-.17,1.6-.74v.37c0,.53-.95.18-.95.5,0,.22.95-.08.95.34v.29c0,.36-.4.46-.8.46-.36,0-.72-.09-.79-.15v-.47Z"/>
        <path class="cls-3" d="M16.77,16.65c.06.08.45.2.71.2.16,0,.27-.05.23-.17-.02-.07-.18-.06-.36-.06-.27,0-.59,0-.59-.28v-.3c0-.77,1.22-.17,1.6-.74v.37c0,.53-.95.18-.95.5,0,.22.95-.08.95.34v.29c0,.36-.4.46-.8.46-.36,0-.72-.09-.79-.15v-.47Z"/>
        <path class="cls-3" d="M19.16,16.34h.42v-.1c0-.29.48-.07.65-.48v.84h-1.07v.03c0,.16.19.22.41.22.27,0,.58-.08.64-.16v.44c-.06.06-.42.13-.79.13-.44,0-.91-.11-.91-.48v-.71c0-.77,1.22-.2,1.6-.78v.37c0,.4-.95.18-.95.63v.04Z"/>
        <path class="cls-3" d="M20.29,15.76c.17.41.65.19.65.48v.99h-.65v-1.47ZM21.36,16.3c0-.45-.95-.23-.95-.63v-.37c.38.57,1.6,0,1.6.78v1.15h-.65v-.93Z"/>
      </g>
    </g>
    <g>
      <path class="cls-1" d="M7.2,12.93c.08.36.29.65.64.89.45.3.96.46,1.54.46.49,0,.97-.16,1.42-.49.46-.33.78-.65.97-.97.19-.32.32-.59.37-.81.06-.22.09-.41.09-.56,0,0,.02-.01.06,0,.04,0,.1,0,.19.02.04,0,.09-.01.13-.04.04-.03.08-.07.1-.12.02-.06.03-.12.03-.2.11.09.2.16.27.22.07.05.13.08.17.08.04,0,.09-.04.14-.11.05-.07.11-.15.18-.24.07.07.16.14.24.22.09.07.18.11.28.11.09,0,.2,0,.33,0,.13,0,.23,0,.3-.01h.7c-.02.13-.05.27-.1.42-.05.14-.08.25-.08.34.14-.05.27-.15.39-.31.12-.16.2-.31.24-.44h.43c.1,0,.19-.01.29-.03l.08-.02c-.03.07-.04.14-.04.2,0,.11.07.16.2.14.06,0,.12-.03.18-.07.06-.04.09-.09.11-.16s.04-.11.06-.13c.02-.02.05-.03.08-.03.1,0,.31.02.63.05.33.03.71.05,1.14.05.48,0,.76-.02.84-.06.08-.04.17-.06.26-.06.09,0,.18.02.27.06.08.04.14.06.17.06.09.03.14-.03.17-.18.03-.15.04-.3.05-.45-.03-.33-.16-.63-.4-.89-.23-.26-.51-.44-.84-.52.04-.18.07-.35.11-.5.03-.15.08-.34.15-.56.07-.23.13-.39.2-.48.06-.09.14-.2.24-.3.02-.03.03-.06.03-.1,0-.03,0-.07,0-.1,0-.07-.01-.12-.04-.17-.02-.05-.06-.08-.12-.1-.05-.02-.11-.03-.16-.03-.15,0-.29.05-.43.15-.14.1-.24.22-.28.38,0,.03.01.08.05.16.04.08.06.16.06.24,0,.05-.01.15-.03.32-.02.17-.05.32-.08.46-.04.14-.1.34-.18.61-.48,0-.89.1-1.22.31-.33.21-.61.53-.84.95-.11,0-.2-.04-.26-.13-.07-.09-.13-.12-.18-.12-.06.01-.11.05-.14.12-.03.06-.05.14-.05.22,0,.03,0,.06,0,.08h-.15c-.05,0-.1,0-.15,0-.05,0-.08,0-.09,0-.02-.03-.03-.22-.05-.59-.02-.37-.04-.64-.06-.82-.02-.18-.06-.41-.12-.68-.05-.27-.08-.52-.08-.73,0-.02,0-.08.01-.17,0-.1.01-.16.01-.2,0-.14-.04-.26-.11-.37-.07-.11-.15-.17-.23-.17-.13,0-.25.06-.37.17-.12.11-.17.25-.17.4,0,.2.06.38.19.54.13.16.2.32.23.48.03.15.06.42.1.79.04.38.09.76.14,1.17,0,.05-.04.09-.11.12-.07.03-.14.05-.21.07h-.59s-.04,0-.12,0c-.08,0-.12,0-.14-.01-.07,0-.15-.04-.24-.12-.09-.08-.18-.17-.27-.28-.06,0-.14.07-.24.21s-.17.23-.21.27c-.07-.07-.14-.17-.21-.28-.07-.11-.13-.17-.18-.17-.04,0-.12.08-.25.23-.13.15-.21.25-.24.27-.08-.08-.16-.17-.24-.25-.08-.09-.17-.13-.28-.13-.13,0-.22.03-.28.08-.05.06-.08.16-.08.31,0,.16.01.27.04.33.03.06.04.13.04.22,0,.14-.02.31-.06.5-.04.19-.1.35-.18.47-.08.12-.2.29-.37.49-.17.2-.4.4-.7.6-.3.19-.63.29-.98.29-.58,0-1.05-.16-1.42-.47-.17-.15-.31-.3-.4-.45l-.33.11ZM19.31,10.75c-.3.01-.62.02-.94.02-.27,0-.45,0-.56-.02-.1-.01-.21-.04-.32-.07.15-.25.34-.44.58-.58.24-.14.46-.22.68-.22-.1.16-.21.29-.33.39-.22.14-.45.28-.66.41.34,0,.62-.08.87-.23.24-.15.43-.32.56-.52.2,0,.37.08.53.23.16.15.27.32.33.5-.19.04-.44.07-.74.08Z"/>
      <path class="cls-1" d="M21.92,9.47c-.06-.44-.09-.81-.09-1.09,0-.14.02-.27.05-.39.03-.12.06-.23.1-.33.01-.07,0-.15-.05-.25-.05-.1-.13-.15-.24-.15-.15,0-.3.08-.44.24-.14.16-.2.34-.18.53.05.06.11.13.16.19.05.06.09.15.1.26l.11,1.24c0,.1.02.21.03.33,0,.12.01.22.01.3,0,.09,0,.18-.01.27,0,.09-.03.21-.06.34-.03.13-.08.27-.16.41-.08.14-.21.33-.4.56.35-.1.64-.32.85-.67.21-.34.32-.61.32-.79,0-.23-.03-.57-.09-1.01Z"/>
      <path class="cls-1" d="M21.28,7.22c.27-.12.45-.2.53-.25,0-.08,0-.15-.02-.2-.01-.05-.05-.08-.1-.09-.02,0-.08.01-.17.05-.09.04-.15.06-.17.06-.04,0-.09-.01-.13-.04-.04-.03-.07-.06-.08-.1-.02-.07,0-.13.09-.17.02-.02.05-.03.08-.03.02,0,.05,0,.11.02.06.02.11.01.15-.02.04-.03.06-.08.06-.14,0-.05-.03-.09-.1-.12-.07-.03-.15-.05-.24-.05-.04,0-.1.01-.17.03-.07.02-.14.07-.2.16-.07.08-.1.18-.1.28,0,.04,0,.09.03.16.02.07.07.14.16.21-.04.01-.08.03-.12.04-.04.02-.07.04-.09.08-.02.03-.02.08,0,.12.02.05.04.1.08.16.01.01.15-.04.43-.16Z"/>
      <g>
        <path class="cls-3" d="M3.77,7.96c.07,0,.13-.03.18-.08.05-.05.07-.11.07-.18s-.03-.14-.07-.19c-.05-.05-.11-.08-.18-.08s-.13.03-.18.08c-.05.05-.08.11-.08.18s.03.13.08.18c.05.05.11.08.18.08Z"/>
        <path class="cls-3" d="M3.56,10.43c.34,0,.61-.12.79-.35,0,0,0,0,0,0,.1-.15.17-.34.22-.56,0,0,0,0,0,0h.24c.1,0,.19-.04.26-.11.02-.02.04-.05.06-.07.11.12.23.18.37.18.13,0,.3-.04.42-.22.03.04.06.07.09.1.09.08.19.12.31.12.16,0,.28-.04.38-.13.08.09.18.12.26.13,0,0,0,0,.01,0h.11c.13,0,.24-.03.33-.1.09.06.2.1.34.1h.14c.25,0,.55-.11.55-.62v-.62c0-.17-.09-.26-.24-.26-.08,0-.15.03-.18.08,0,.01-.02.03-.02.05v.85s0,.01,0,.02v.02h0s0,.02,0,.02h0c-.01.06-.02.08-.03.09,0,0,0,0,0,0-.01.02-.03.02-.04.02h-.22s-.04,0-.06-.04c0-.02-.01-.04-.02-.07,0-.03,0-.06,0-.08v-.7c0-.17-.09-.26-.24-.26-.08,0-.15.03-.18.08,0,.01-.02.03-.02.05v.85s0,.01,0,.02v.02h0s0,.02,0,.02h0c-.01.06-.02.08-.03.09,0,0,0,0,0,0-.01.02-.03.02-.04.02h-.13s-.06-.01-.08-.04c-.02-.03-.03-.06-.03-.11v-.75c0-.17-.09-.26-.24-.26-.08,0-.15.03-.18.08,0,.01-.02.03-.02.05v.84c0,.25-.1.25-.15.25-.02,0-.07,0-.13-.08-.06-.09-.09-.22-.09-.4v-.47c0-.17-.09-.26-.24-.26-.09,0-.15.03-.18.08,0,.01-.02.03-.02.05v.62c0,.18-.02.48-.16.48-.03,0-.11,0-.16-.16,0,0,0,0,0,0-.02-.04-.03-.1-.04-.17,0,0,0,0,0,0,0-.04,0-.1,0-.16v-.1s0,0,0,0v-.05s0-.04,0-.05c0,0,0,0,0,0v-.09s0-.05,0-.07v-.04c0-.05,0-.08,0-.09-.02-.19-.15-.21-.21-.21-.08,0-.25.03-.25.32v.81s0,.02-.01.03c0,0-.02.01-.03.01h-.16s0,0,0,0c0,0,0,0,0,0v-1.08c0-.17-.09-.26-.24-.26-.08,0-.14.02-.18.07-.01.02-.02.03-.02.05v1.29l-.02.22s0,0,0,0c0,.1-.05.24-.15.4-.11.18-.25.27-.45.27-.17,0-.31-.08-.41-.25-.11-.17-.16-.39-.16-.67,0-.21.04-.38.12-.51.09-.15.23-.22.41-.22,0,0,0,0,.01,0,.02,0,.09-.02.09-.13,0-.04-.01-.09-.07-.14-.04-.03-.08-.04-.13-.04-.21,0-.4.08-.57.25-.2.19-.3.46-.3.79s.08.62.23.83c.18.25.45.37.78.37Z"/>
        <path class="cls-3" d="M7.5,7.84s.11.07.18.07.13-.03.18-.07c0,0,0,0,0,0,.03-.03.05-.07.07-.12.01.04.03.08.07.11,0,0,0,0,0,0,.05.05.11.07.18.07s.13-.03.18-.07c0,0,0,0,0,0,.05-.05.07-.11.07-.18s-.03-.14-.07-.19c0,0,0,0,0,0-.05-.05-.11-.07-.18-.07s-.13.03-.18.07c0,0,0,0,0,0-.03.03-.05.08-.07.12-.01-.04-.03-.08-.06-.12,0,0,0,0,0,0-.05-.05-.11-.07-.18-.07s-.13.03-.18.07c0,0,0,0,0,0-.05.05-.08.12-.08.19s.03.13.08.18c0,0,0,0,0,0Z"/>
        <path class="cls-3" d="M7.23,10.09s.05-.07.07-.12c.01.04.03.08.07.11,0,0,0,0,0,0,.05.05.11.07.18.07s.13-.03.18-.07c0,0,0,0,0,0,.05-.05.07-.11.07-.18s-.03-.14-.07-.19c0,0,0,0,0,0-.05-.05-.11-.07-.18-.07s-.13.03-.18.07c0,0,0,0,0,0-.03.03-.05.08-.07.12-.01-.04-.03-.08-.06-.12,0,0,0,0,0,0-.05-.05-.11-.07-.18-.07s-.13.03-.18.07c0,0,0,0,0,0-.05.05-.08.12-.08.19s.03.13.08.18c0,0,0,0,0,0,.05.05.11.07.18.07s.13-.03.18-.07c0,0,0,0,0,0Z"/>
        <path class="cls-3" d="M11.68,9.64c-.07,0-.13.03-.18.07,0,0,0,0,0,0-.03.03-.05.08-.07.12-.01-.04-.03-.08-.06-.12,0,0,0,0,0,0-.05-.05-.11-.07-.18-.07s-.13.03-.18.07c0,0,0,0,0,0-.05.05-.08.12-.08.19s.03.13.08.18c0,0,0,0,0,0,.05.05.11.07.18.07s.13-.03.18-.07c0,0,0,0,0,0,.03-.03.05-.07.07-.12.01.04.03.08.07.11,0,0,0,0,0,0,.05.05.11.07.18.07s.13-.03.18-.07c0,0,0,0,0,0,.05-.05.07-.11.07-.18s-.03-.14-.07-.19c0,0,0,0,0,0-.05-.05-.11-.07-.18-.07Z"/>
        <path class="cls-3" d="M13.19,9.64c-.07,0-.13.03-.18.07,0,0,0,0,0,0-.03.03-.05.08-.07.12-.01-.04-.03-.08-.06-.12,0,0,0,0,0,0-.05-.05-.11-.07-.18-.07s-.13.03-.18.07c0,0,0,0,0,0-.05.05-.08.12-.08.19s.03.13.08.18c0,0,0,0,0,0,.05.05.11.07.18.07s.13-.03.18-.07c0,0,0,0,0,0,.03-.03.05-.07.07-.12.01.04.03.08.07.11,0,0,0,0,0,0,.05.05.11.07.18.07s.13-.03.18-.07c0,0,0,0,0,0,.05-.05.07-.11.07-.18s-.03-.14-.07-.19c0,0,0,0,0,0-.05-.05-.11-.07-.18-.07Z"/>
        <path class="cls-3" d="M8.94,9.51h2.42c.13,0,.24-.03.33-.1.09.06.2.1.34.1h.87c.25,0,.55-.11.55-.62v-.62c0-.17-.09-.26-.24-.26-.08,0-.14.03-.18.08,0,.01-.02.03-.02.05v.85s0,.01,0,.02v.02h0s0,.02,0,.02h0c-.01.06-.02.09-.03.1-.01.02-.03.02-.04.02h-.36s0,0,0,0c0,0,0,0,0,0v-2.74c0-.17-.09-.26-.24-.26-.08,0-.14.02-.18.07-.01.02-.02.03-.02.05v2.86s0,0,0,.02c0,0,0,0-.01,0h-.13s-.04,0-.06-.04c0-.02-.01-.04-.02-.07,0-.03,0-.06,0-.08v-.7c0-.17-.09-.26-.24-.26-.08,0-.15.03-.18.08,0,.01-.02.03-.02.05v.85s0,.01,0,.02v.02h0s0,.02,0,.02h0c-.01.06-.02.08-.03.09,0,0,0,0,0,0-.01.02-.03.02-.04.02h-.01v-.08c0-.35-.12-.64-.35-.87-.23-.23-.52-.35-.87-.35h-.34l1.06-.69c.22-.14.33-.31.33-.49,0-.1-.04-.21-.11-.32-.08-.13-.21-.2-.37-.21h0s-.04,0-.05,0c-.13,0-.26.04-.39.12l-.03.02s0,0,0,0l-.03.03c-.05.04-.08.08-.08.13,0,0,0,.02,0,.03,0,0,0,.02,0,.02h0s0,.02,0,.02c.03.04.07.06.1.06h0s.03,0,.05-.01c.14-.09.27-.14.37-.14h.02s.08.02.12.04c.03.02.04.05.04.1,0,.07-.08.14-.15.19-.12.08-.27.17-.44.29l-.3.2c-.28.18-.52.33-.7.45-.1.06-.15.16-.15.27,0,.09.03.17.09.23.07.07.14.1.23.1h0c.19,0,.44,0,.74,0,.22,0,.39.07.53.21.14.14.21.32.21.53v.11h-1.96s0,0,0,0v-2.74c0-.17-.09-.26-.24-.26-.08,0-.14.02-.18.07-.01.02-.02.03-.02.05v2.84c0,.11.04.2.11.28.07.07.17.11.28.11Z"/>
        <path class="cls-3" d="M13.62,9.47s.07.04.11.04h.53c.25,0,.55-.11.55-.62v-.29c0-.23-.06-.4-.17-.5-.11-.1-.27-.14-.5-.14-.13,0-.23.04-.31.11-.09.07-.13.18-.13.31,0,.06.02.12.06.16.05.05.1.08.17.08.11,0,.15-.05.17-.09,0-.02,0-.04,0-.06,0-.03-.01-.06-.01-.08,0-.04.01-.08.03-.11.02-.03.05-.04.07-.04.1,0,.12.04.13.05.02.04.06.15.06.45v.22s0,.05,0,.08c0,.04-.01.06-.02.07,0,0,0,0,0,0-.01.04-.03.04-.06.04h-.57s-.08.02-.12.05c0,0,0,0,0,0-.03.03-.05.07-.05.12,0,.04.01.08.04.11,0,0,.01.01.02.02Z"/>
      </g>
    </g>
  </g>
  <path class="cls-2" d="M12.48,13.12c-.21.03-.48-.23-.65-.23-.13,0-.21.18-.37.14-.36-.09-.67-1.1-1.2-.91-.02.02.29.49.08.53-.04-.21-.2-.46-.34-.61-.17-.18-.1.05-.23.15l-.23-.38-.35.84-.11-.54-.7.45-.22-.15c-.48.41-.39.39.04.76l-.73-.31-.22.16-.84-.69v.31s-.54-.54-.54-.54l-.04.15-.19-.23-.19.15-.12-.3-.61.84.08-.69-.92.77-.08-.38c-.09.13-.5.25-.56.32-.01.02.04.11.01.14-.08.11-.48.28-.64.31.19-.18,1.15-1.09,1.33-1.05.09.02.17.18.31.13l1.05-.88h.15s.56.5.56.5c.16-.02.59-.51.75-.57.12-.05.25.06.29.03.06-.04.39-.62.6-.68.16-.03.7.82.95.95.14.07.36.03.5.17.74-.88.64-.15,1.13.04.17.07.31-.05.44.01.16.08.62.89.88.89.1,0,.18-.14.27-.12.13.03.57.37.68.5ZM7.43,11.44c-.15-.56-.33.35-.69.03l-.46.39c-.02.06.83.86.89.87.09.01.16-.11.22-.12.09,0,.25.18.34.12.03-.02.22-.42.39-.5.15-.07.21.12.33.11.09-.01.35-.26.43-.33.04-.22-.13-.04-.23-.08s-.2-.26-.31-.31c-.09-.04-.21.04-.22.04-.02-.02-.07-.33-.2-.38l-.19.15v-.23c-.22-.07-.14.18-.31.23Z"/>
</svg>