<?xml version="1.0" encoding="UTF-8"?>
<svg id="Layer_1" data-name="Layer 1" xmlns="http://www.w3.org/2000/svg" viewBox="0 0 24.56 23.59">
  <defs>
    <style>
      .cls-1 {
        fill: #e81e25;
      }

      .cls-2 {
        fill: #414042;
      }
    </style>
  </defs>
  <circle class="cls-1" cx="12.41" cy="11.8" r="6.36"/>
  <g>
    <polygon class="cls-2" points="3.61 10.62 3.22 12.08 8.03 12.08 9.28 14.41 11.6 14.41 10.36 12.08 16.47 12.08 17.71 14.4 20.04 14.4 18.02 10.62 3.61 10.62"/>
    <path class="cls-2" d="M5.2,8.01l-.63,2.33h2.33l.24-.87h3.02s-.07.49-.29.87c.87,0,2.33,0,2.33,0,.05,0,.75-1.42.59-2.33-6.96-.01-7.57,0-7.57,0Z"/>
    <polygon class="cls-2" points="4.01 12.37 6.34 12.37 5.78 14.41 3.46 14.41 4.01 12.37"/>
    <path class="cls-2" d="M13.77,8.02l-.63,2.33h2.33l.24-.87h3.18c-.02.47-.19.86-.57,1.16l.94,1.75c.63-.07,2.14-2.04,2.08-4.36-6.96-.01-7.57,0-7.57,0Z"/>
    <polygon class="cls-2" points="12.58 12.38 14.91 12.38 14.36 14.42 12.03 14.42 12.58 12.38"/>
  </g>
</svg>