<?xml version="1.0" encoding="UTF-8"?>
<svg id="Layer_1" data-name="Layer 1" xmlns="http://www.w3.org/2000/svg" xmlns:xlink="http://www.w3.org/1999/xlink" viewBox="0 0 24.56 23.59">
  <defs>
    <style>
      .cls-1 {
        fill: #59c5c9;
      }

      .cls-2 {
        fill: none;
      }

      .cls-3 {
        fill: url(#linear-gradient);
      }

      .cls-4 {
        clip-path: url(#clippath);
      }
    </style>
    <linearGradient id="linear-gradient" x1="6.83" y1="20.44" x2="16.91" y2="2.99" gradientUnits="userSpaceOnUse">
      <stop offset="0" stop-color="#ee2a7b"/>
      <stop offset="1" stop-color="#9e1f63"/>
    </linearGradient>
    <clipPath id="clippath">
      <path class="cls-2" d="M4.01.7v22.2h16.86V.7H4.01ZM7.31,19.32l-.25.03-.92-.53-.05-.08c.19-.17.3-.4.3-.65V7.75s0,0,0,0l.77.66-.66-.75c.06-.05.12-.1.19-.16l.13-.08.58.3v10.37c0,.27.13.51.35.69l-.43.55ZM18.17,19.59h-1.01l-2.5-3.54,1.02-.16-.42.92.54-.84.14.1c.07.04.39.24.45.27.06.04.12.07.17.1l.33.16c.06.03.18.1.18.1.09.03.17.07.22.1l.87.36v2.43Z"/>
    </clipPath>
  </defs>
  <path class="cls-1" d="M7.54,9.86c-.1.13-.19.25-.29.38-.1.14-.21.27-.3.41-.05.07-.1.15-.15.23-.06.1-.13.19-.19.29-.03.05-.06.09-.09.14-.06.11-.12.22-.19.32,0,0-.01.02-.02.03,0-.02-.02-.04-.02-.06-.09-.26-.17-.52-.22-.78-.04-.2-.06-.4-.05-.6.01-.2.06-.39.14-.59.13-.33.34-.62.59-.88.31-.31.66-.57,1.04-.79.22-.13.44-.27.65-.42.14-.1.28-.21.4-.34.04-.04.07-.09.1-.14,0,0-.01,0-.02.01-.18.18-.4.32-.63.44-.09.05-.19.09-.29.13-.06.02-.11.05-.17.07-.03.01-.05.02-.08.02-.03-.04-.04-.08-.04-.11-.02-.1-.06-.19-.1-.28-.04-.09-.08-.17-.13-.25-.05-.07-.1-.14-.14-.2-.08-.12-.17-.23-.25-.35-.08-.11-.13-.23-.16-.36-.03-.15-.02-.3.03-.44.04-.11.08-.22.13-.32.02-.04.02-.08.01-.13-.03-.11-.07-.23-.1-.34,0-.03-.02-.06-.03-.1-.1.03-.19.07-.28.11-.09.05-.18.11-.26.17-.05.04-.09.08-.13.13-.03.03-.06.05-.1.06-.04,0-.06,0-.07-.04-.02-.05,0-.1.03-.14.03-.05.07-.1.11-.14.1-.08.21-.16.31-.24.05-.03.11-.06.16-.08.05-.02.1-.05.15-.07,0-.04-.02-.07-.02-.11,0-.03-.02-.06-.02-.08-.02-.05-.01-.06.03-.09.07-.04.14-.08.23-.08.07,0,.12.02.15.07.03.04.06.08.08.13.02.03.03.03.06.02.16-.04.31-.08.47-.12.13-.03.25-.09.35-.16.04-.03.08-.06.11-.09.11-.1.24-.18.39-.2,0,0,.02,0,.03,0,0-.02,0-.03,0-.05,0-.12,0-.25-.02-.37,0-.08.03-.14.09-.19.06-.06.12-.12.16-.19.04-.07.04-.14-.01-.2-.01-.02-.04-.02-.06-.03-.03-.01-.06-.02-.09-.02-.1-.01-.17.05-.16.14,0,.02,0,.03,0,.05,0,.03-.03.06-.06.06-.04,0-.07,0-.08-.04-.01-.02-.02-.05-.02-.07,0-.11.08-.18.19-.23.17-.08.36,0,.44.13.04.06.03.12.01.18-.04.1-.09.2-.18.27-.06.05-.09.1-.07.18.02.11,0,.21.01.32,0,.01,0,.02,0,.04.06,0,.12.02.18.02.02,0,.04,0,.06.02.08.04.16.08.24.13.06.04.11.09.18.13.08.05.15.11.25.14.01,0,.02,0,.03.01.13.07.27.11.41.15.04.01.08.03.13.04.02-.05.05-.1.07-.14.02-.05.05-.08.11-.08.06,0,.11,0,.17,0,.03,0,.06,0,.09.02.05.02.07.05.06.09,0,.05-.02.1-.03.15,0,.02,0,.05-.01.07.06.02.12.04.18.06.11.04.21.1.31.16.1.07.17.15.24.24.04.05.04.11.02.16-.01.05-.06.06-.1.02-.05-.05-.1-.1-.15-.14-.09-.06-.18-.12-.28-.16-.08-.03-.17-.06-.25-.1,0,0-.02,0-.04,0-.04.08-.05.17-.06.26-.01.11,0,.21,0,.32,0,.15,0,.29-.01.44,0,.03,0,.07-.02.1-.03.12-.06.25-.1.37-.03.09-.07.17-.11.25-.05.13-.11.26-.14.4-.01.04-.02.09-.01.14,0,.13.02.25.03.38,0,.06,0,.12,0,.18.01.21.03.41.04.62.01.13.02.25.04.38.02.12.03.24.05.36.03.14.06.28.08.42.02.11.05.22.07.34.02.09.05.18.07.26.02.09.05.17.07.26.02.08.05.17.07.25.04.12.08.24.12.35,0,.02,0,.05.02.07.02.07.05.13.07.2.04.11.08.22.13.32.04.1.08.19.13.29.06.14.12.27.18.41.03.07.07.14.1.21.05.1.1.21.16.31.05.09.1.18.15.27.05.08.09.17.14.25.03.06.07.12.11.18.04.07.08.13.12.2.02.03.04.06.06.09.05.07.1.14.14.22.01.03.04.06.07.09.02.03.04.06.06.09,0,0,0,.01.01.02.06.08.12.16.18.24.04.05.09.1.12.16.03.07.09.12.13.17.06.08.13.16.2.24.06.07.13.15.2.22.06.06.11.12.17.19.06.06.11.13.17.18.05.04.09.09.13.14.01.01.02.02.03.03.07.04.12.1.17.15.01.01.03.03.04.04.08.05.14.13.21.19.07.06.13.13.22.19.04.03.08.07.12.1,0,0,0,0,.01,0,.1.05.17.14.26.2,0,0,.02.01.02.02.09.06.18.12.28.18.01,0,.02.01.03.02.07.07.17.11.25.16.1.07.21.12.31.19.08.05.17.1.26.15.11.06.23.11.34.16.07.03.13.07.19.1.01,0,.02.02.03.02.09.02.16.07.25.11.04.02.07.03.11.04.09.04.19.08.28.12.08.03.15.06.23.08.02,0,.04,0,.06.02.04.03.1.04.15.05.06.02.13.03.19.07.01,0,.03.01.04.02.07.01.13.03.2.04.06.01.12.02.18.05.05.02.1.02.16.03.05.01.11.02.16.04.05.01.11.02.17.04-.06.03-.12.05-.18.08-.2.09-.41.16-.61.22-.25.08-.51.14-.77.19-.11.02-.21.02-.32.04-.03,0-.05,0-.08.01-.06,0-.13,0-.19.01-.07,0-.13,0-.2,0-.09,0-.18-.01-.27-.02-.01,0-.02,0-.03,0-.21,0-.41-.03-.61-.07-.13-.02-.26-.05-.38-.08-.1-.02-.2-.06-.3-.09-.18-.06-.36-.13-.53-.21-.09-.05-.2-.08-.29-.13-.09-.04-.17-.09-.26-.13-.07-.03-.13-.08-.2-.11-.07-.03-.13-.09-.2-.12-.02,0-.03-.03-.05-.04-.03-.02-.05-.03-.08-.05-.06-.04-.12-.07-.17-.12-.03-.04-.09-.06-.12-.09-.04-.03-.07-.07-.12-.09,0,0-.01-.02-.02-.03,0,0,0,0,0,0,0,0,.02.01.03.02.04.04.07.09.11.13.06.06.12.12.18.18.07.07.14.14.22.2.07.06.14.12.21.17.1.08.2.15.31.23.07.05.15.1.22.15.11.08.22.14.33.2.14.08.28.16.43.23.13.06.25.12.38.17.17.07.34.13.51.2.22.08.45.16.68.21.19.05.38.08.58.1.09,0,.17.03.26.03.15.01.31.03.47.04,0,0-.02.02-.03.03-.09.06-.18.11-.28.15-.06.02-.11.06-.16.08-.05.03-.11.05-.16.08-.07.03-.14.06-.21.1-.04.02-.09.04-.14.05-.13.05-.27.1-.4.14-.12.04-.24.06-.36.08-.02,0-.04,0-.06.01-.12.03-.25.05-.37.05-.03,0-.06,0-.09.01-.04,0-.08,0-.12.01-.03,0-.05,0-.08.01-.01,0-.03,0-.04,0-.07,0-.15,0-.22,0-.08,0-.16,0-.24-.01,0,0-.02,0-.02,0-.11.01-.22-.02-.34-.03,0,0-.02,0-.02,0-.11,0-.22-.02-.32-.03-.12-.02-.24-.04-.36-.09-.05-.02-.1-.03-.15-.05-.11-.04-.23-.08-.34-.13-.08-.03-.16-.06-.24-.1-.14-.06-.27-.13-.4-.2-.09-.05-.18-.1-.26-.15-.1-.06-.2-.12-.29-.18-.17-.12-.34-.23-.5-.37-.11-.09-.22-.19-.32-.29-.13-.12-.25-.25-.37-.38-.09-.09-.17-.19-.25-.29-.09-.11-.17-.22-.25-.33,0,0-.01,0-.02-.02,0,.02,0,.04.01.06.05.12.1.24.16.35.05.1.1.19.15.28.09.17.19.34.3.5.07.11.15.22.23.34.05.07.1.14.15.21.07.08.12.16.19.24.09.1.17.2.27.29.14.14.29.29.44.43.08.08.17.15.26.22.01.01.02.02.05.04-.03,0-.04,0-.05,0-.33-.02-.67-.05-.99-.12-.36-.08-.7-.18-1.04-.32-.26-.11-.52-.24-.76-.39-.23-.14-.44-.31-.64-.48-.22-.19-.42-.4-.6-.62-.18-.23-.34-.48-.47-.73-.14-.26-.25-.52-.35-.8-.11-.31-.2-.63-.26-.96-.02-.09-.02-.17-.03-.26-.01-.12-.02-.25-.03-.37,0-.14,0-.28,0-.42,0-.05,0-.11,0-.17-.03.03-.04.06-.04.09-.02.11-.05.22-.06.33-.03.18-.06.35-.09.53-.02.11-.03.21-.05.32,0,.06-.01.11-.02.17-.02.23-.04.46-.04.69,0,.18,0,.35,0,.53,0,.13.01.26.02.39,0,.02,0,.04,0,.07-.04.01-.06-.01-.08-.04-.03-.04-.05-.09-.07-.13-.06-.1-.12-.21-.18-.31-.03-.06-.06-.12-.1-.18-.03-.07-.07-.13-.1-.2,0-.01-.01-.03-.02-.04-.08-.19-.16-.37-.22-.56-.08-.25-.15-.51-.19-.77-.04-.25-.08-.49-.09-.74,0-.17,0-.35,0-.52,0-.19,0-.37.02-.56.03-.44.09-.88.2-1.32.1-.41.23-.82.38-1.22.05-.15.11-.29.18-.44.08-.18.16-.36.25-.53.07-.12.13-.24.19-.36.03-.05.06-.1.09-.15.08-.14.16-.28.25-.41,0-.01,0-.03,0-.04l-.03.03ZM7.43,4.7c.02.06.04.11.06.16.03.09.07.17.1.26.01.03.03.06.07.08.06.02.11.05.17.07.11.04.21.08.32.11.07.02.15.04.22.05.04,0,.08.02.12.02.08.01.17.02.25.03.08,0,.17.02.25.02.11,0,.21-.03.32-.04.22-.02.43-.08.62-.17.11-.05.19-.12.25-.22.05-.1.08-.21.11-.31,0-.01,0-.03,0-.05-.03,0-.06-.02-.1-.03-.04-.01-.09-.02-.13-.03-.2-.06-.4-.11-.59-.18-.13-.05-.27-.1-.41-.15-.04-.01-.08-.03-.12-.03-.06,0-.13,0-.19,0-.03,0-.07,0-.09.02-.09.04-.18.09-.29.12-.1.02-.19.06-.28.09-.08.02-.17.04-.26.06-.13.03-.26.07-.4.1Z"/>
  <path class="cls-3" d="M7.39,5.73v12.35c0,.33.18.62.51.8l.56.31c.21.12.12.41-.13.41h-2.88c-.25,0-.35-.29-.13-.41l.56-.31c.33-.18.51-.46.51-.8V5.82c0-.33-.18-.62-.51-.8l-.56-.31c-.21-.12-.12-.41.13-.41h5.27l6.45,9.14v-7.63c0-.33-.18-.62-.51-.8l-.56-.31c-.22-.12-.12-.41.13-.41h2.88c.25,0,.35.29.13.41l-.56.31c-.33.18-.51.46-.51.8v13.78h-1.01L7.39,5.73h0Z"/>
  <g class="cls-4">
    <path class="cls-1" d="M7.54,9.86c-.1.13-.19.25-.29.38-.1.14-.21.27-.3.41-.05.07-.1.15-.15.23-.06.1-.13.19-.19.29-.03.05-.06.09-.09.14-.06.11-.12.22-.19.32,0,0-.01.02-.02.03,0-.02-.02-.04-.02-.06-.09-.26-.17-.52-.22-.78-.04-.2-.06-.4-.05-.6.01-.2.06-.39.14-.59.13-.33.34-.62.59-.88.31-.31.66-.57,1.04-.79.22-.13.44-.27.65-.42.14-.1.28-.21.4-.34.04-.04.07-.09.1-.14,0,0-.01,0-.02.01-.18.18-.4.32-.63.44-.09.05-.19.09-.29.13-.06.02-.11.05-.17.07-.03.01-.05.02-.08.02-.03-.04-.04-.08-.04-.11-.02-.1-.06-.19-.1-.28-.04-.09-.08-.17-.13-.25-.05-.07-.1-.14-.14-.2-.08-.12-.17-.23-.25-.35-.08-.11-.13-.23-.16-.36-.03-.15-.02-.3.03-.44.04-.11.08-.22.13-.32.02-.04.02-.08.01-.13-.03-.11-.07-.23-.1-.34,0-.03-.02-.06-.03-.1-.1.03-.19.07-.28.11-.09.05-.18.11-.26.17-.05.04-.09.08-.13.13-.03.03-.06.05-.1.06-.04,0-.06,0-.07-.04-.02-.05,0-.1.03-.14.03-.05.07-.1.11-.14.1-.08.21-.16.31-.24.05-.03.11-.06.16-.08.05-.02.1-.05.15-.07,0-.04-.02-.07-.02-.11,0-.03-.02-.06-.02-.08-.02-.05-.01-.06.03-.09.07-.04.14-.08.23-.08.07,0,.12.02.15.07.03.04.06.08.08.13.02.03.03.03.06.02.16-.04.31-.08.47-.12.13-.03.25-.09.35-.16.04-.03.08-.06.11-.09.11-.1.24-.18.39-.2,0,0,.02,0,.03,0,0-.02,0-.03,0-.05,0-.12,0-.25-.02-.37,0-.08.03-.14.09-.19.06-.06.12-.12.16-.19.04-.07.04-.14-.01-.2-.01-.02-.04-.02-.06-.03-.03-.01-.06-.02-.09-.02-.1-.01-.17.05-.16.14,0,.02,0,.03,0,.05,0,.03-.03.06-.06.06-.04,0-.07,0-.08-.04-.01-.02-.02-.05-.02-.07,0-.11.08-.18.19-.23.17-.08.36,0,.44.13.04.06.03.12.01.18-.04.1-.09.2-.18.27-.06.05-.09.1-.07.18.02.11,0,.21.01.32,0,.01,0,.02,0,.04.06,0,.12.02.18.02.02,0,.04,0,.06.02.08.04.16.08.24.13.06.04.11.09.18.13.08.05.15.11.25.14.01,0,.02,0,.03.01.13.07.27.11.41.15.04.01.08.03.13.04.02-.05.05-.1.07-.14.02-.05.05-.08.11-.08.06,0,.11,0,.17,0,.03,0,.06,0,.09.02.05.02.07.05.06.09,0,.05-.02.1-.03.15,0,.02,0,.05-.01.07.06.02.12.04.18.06.11.04.21.1.31.16.1.07.17.15.24.24.04.05.04.11.02.16-.01.05-.06.06-.1.02-.05-.05-.1-.1-.15-.14-.09-.06-.18-.12-.28-.16-.08-.03-.17-.06-.25-.1,0,0-.02,0-.04,0-.04.08-.05.17-.06.26-.01.11,0,.21,0,.32,0,.15,0,.29-.01.44,0,.03,0,.07-.02.1-.03.12-.06.25-.1.37-.03.09-.07.17-.11.25-.05.13-.11.26-.14.4-.01.04-.02.09-.01.14,0,.13.02.25.03.38,0,.06,0,.12,0,.18.01.21.03.41.04.62.01.13.02.25.04.38.02.12.03.24.05.36.03.14.06.28.08.42.02.11.05.22.07.34.02.09.05.18.07.26.02.09.05.17.07.26.02.08.05.17.07.25.04.12.08.24.12.35,0,.02,0,.05.02.07.02.07.05.13.07.2.04.11.08.22.13.32.04.1.08.19.13.29.06.14.12.27.18.41.03.07.07.14.1.21.05.1.1.21.16.31.05.09.1.18.15.27.05.08.09.17.14.25.03.06.07.12.11.18.04.07.08.13.12.2.02.03.04.06.06.09.05.07.1.14.14.22.01.03.04.06.07.09.02.03.04.06.06.09,0,0,0,.01.01.02.06.08.12.16.18.24.04.05.09.1.12.16.03.07.09.12.13.17.06.08.13.16.2.24.06.07.13.15.2.22.06.06.11.12.17.19.06.06.11.13.17.18.05.04.09.09.13.14.01.01.02.02.03.03.07.04.12.1.17.15.01.01.03.03.04.04.08.05.14.13.21.19.07.06.13.13.22.19.04.03.08.07.12.1,0,0,0,0,.01,0,.1.05.17.14.26.2,0,0,.02.01.02.02.09.06.18.12.28.18.01,0,.02.01.03.02.07.07.17.11.25.16.1.07.21.12.31.19.08.05.17.1.26.15.11.06.23.11.34.16.07.03.13.07.19.1.01,0,.02.02.03.02.09.02.16.07.25.11.04.02.07.03.11.04.09.04.19.08.28.12.08.03.15.06.23.08.02,0,.04,0,.06.02.04.03.1.04.15.05.06.02.13.03.19.07.01,0,.03.01.04.02.07.01.13.03.2.04.06.01.12.02.18.05.05.02.1.02.16.03.05.01.11.02.16.04.05.01.11.02.17.04-.06.03-.12.05-.18.08-.2.09-.41.16-.61.22-.25.08-.51.14-.77.19-.11.02-.21.02-.32.04-.03,0-.05,0-.08.01-.06,0-.13,0-.19.01-.07,0-.13,0-.2,0-.09,0-.18-.01-.27-.02-.01,0-.02,0-.03,0-.21,0-.41-.03-.61-.07-.13-.02-.26-.05-.38-.08-.1-.02-.2-.06-.3-.09-.18-.06-.36-.13-.53-.21-.09-.05-.2-.08-.29-.13-.09-.04-.17-.09-.26-.13-.07-.03-.13-.08-.2-.11-.07-.03-.13-.09-.2-.12-.02,0-.03-.03-.05-.04-.03-.02-.05-.03-.08-.05-.06-.04-.12-.07-.17-.12-.03-.04-.09-.06-.12-.09-.04-.03-.07-.07-.12-.09,0,0-.01-.02-.02-.03,0,0,0,0,0,0,0,0,.02.01.03.02.04.04.07.09.11.13.06.06.12.12.18.18.07.07.14.14.22.2.07.06.14.12.21.17.1.08.2.15.31.23.07.05.15.1.22.15.11.08.22.14.33.2.14.08.28.16.43.23.13.06.25.12.38.17.17.07.34.13.51.2.22.08.45.16.68.21.19.05.38.08.58.1.09,0,.17.03.26.03.15.01.31.03.47.04,0,0-.02.02-.03.03-.09.06-.18.11-.28.15-.06.02-.11.06-.16.08-.05.03-.11.05-.16.08-.07.03-.14.06-.21.1-.04.02-.09.04-.14.05-.13.05-.27.1-.4.14-.12.04-.24.06-.36.08-.02,0-.04,0-.06.01-.12.03-.25.05-.37.05-.03,0-.06,0-.09.01-.04,0-.08,0-.12.01-.03,0-.05,0-.08.01-.01,0-.03,0-.04,0-.07,0-.15,0-.22,0-.08,0-.16,0-.24-.01,0,0-.02,0-.02,0-.11.01-.22-.02-.34-.03,0,0-.02,0-.02,0-.11,0-.22-.02-.32-.03-.12-.02-.24-.04-.36-.09-.05-.02-.1-.03-.15-.05-.11-.04-.23-.08-.34-.13-.08-.03-.16-.06-.24-.1-.14-.06-.27-.13-.4-.2-.09-.05-.18-.1-.26-.15-.1-.06-.2-.12-.29-.18-.17-.12-.34-.23-.5-.37-.11-.09-.22-.19-.32-.29-.13-.12-.25-.25-.37-.38-.09-.09-.17-.19-.25-.29-.09-.11-.17-.22-.25-.33,0,0-.01,0-.02-.02,0,.02,0,.04.01.06.05.12.1.24.16.35.05.1.1.19.15.28.09.17.19.34.3.5.07.11.15.22.23.34.05.07.1.14.15.21.07.08.12.16.19.24.09.1.17.2.27.29.14.14.29.29.44.43.08.08.17.15.26.22.01.01.02.02.05.04-.03,0-.04,0-.05,0-.33-.02-.67-.05-.99-.12-.36-.08-.7-.18-1.04-.32-.26-.11-.52-.24-.76-.39-.23-.14-.44-.31-.64-.48-.22-.19-.42-.4-.6-.62-.18-.23-.34-.48-.47-.73-.14-.26-.25-.52-.35-.8-.11-.31-.2-.63-.26-.96-.02-.09-.02-.17-.03-.26-.01-.12-.02-.25-.03-.37,0-.14,0-.28,0-.42,0-.05,0-.11,0-.17-.03.03-.04.06-.04.09-.02.11-.05.22-.06.33-.03.18-.06.35-.09.53-.02.11-.03.21-.05.32,0,.06-.01.11-.02.17-.02.23-.04.46-.04.69,0,.18,0,.35,0,.53,0,.13.01.26.02.39,0,.02,0,.04,0,.07-.04.01-.06-.01-.08-.04-.03-.04-.05-.09-.07-.13-.06-.1-.12-.21-.18-.31-.03-.06-.06-.12-.1-.18-.03-.07-.07-.13-.1-.2,0-.01-.01-.03-.02-.04-.08-.19-.16-.37-.22-.56-.08-.25-.15-.51-.19-.77-.04-.25-.08-.49-.09-.74,0-.17,0-.35,0-.52,0-.19,0-.37.02-.56.03-.44.09-.88.2-1.32.1-.41.23-.82.38-1.22.05-.15.11-.29.18-.44.08-.18.16-.36.25-.53.07-.12.13-.24.19-.36.03-.05.06-.1.09-.15.08-.14.16-.28.25-.41,0-.01,0-.03,0-.04l-.03.03ZM7.43,4.7c.02.06.04.11.06.16.03.09.07.17.1.26.01.03.03.06.07.08.06.02.11.05.17.07.11.04.21.08.32.11.07.02.15.04.22.05.04,0,.08.02.12.02.08.01.17.02.25.03.08,0,.17.02.25.02.11,0,.21-.03.32-.04.22-.02.43-.08.62-.17.11-.05.19-.12.25-.22.05-.1.08-.21.11-.31,0-.01,0-.03,0-.05-.03,0-.06-.02-.1-.03-.04-.01-.09-.02-.13-.03-.2-.06-.4-.11-.59-.18-.13-.05-.27-.1-.41-.15-.04-.01-.08-.03-.12-.03-.06,0-.13,0-.19,0-.03,0-.07,0-.09.02-.09.04-.18.09-.29.12-.1.02-.19.06-.28.09-.08.02-.17.04-.26.06-.13.03-.26.07-.4.1Z"/>
  </g>
</svg>