<?xml version="1.0" encoding="UTF-8"?>
<svg id="Layer_1" data-name="Layer 1" xmlns="http://www.w3.org/2000/svg" xmlns:xlink="http://www.w3.org/1999/xlink" viewBox="0 0 24.56 23.59">
  <defs>
    <style>
      .cls-1 {
        fill: url(#linear-gradient-2);
      }

      .cls-2 {
        fill: url(#linear-gradient-4);
      }

      .cls-3 {
        fill: url(#linear-gradient-3);
      }

      .cls-4 {
        fill: url(#linear-gradient);
      }
    </style>
    <linearGradient id="linear-gradient" x1="6.65" y1="17.43" x2="17.91" y2="6.16" gradientUnits="userSpaceOnUse">
      <stop offset="0" stop-color="#58595b"/>
      <stop offset=".24" stop-color="#606163"/>
      <stop offset=".64" stop-color="#78797c"/>
      <stop offset="1" stop-color="#939598"/>
    </linearGradient>
    <linearGradient id="linear-gradient-2" x1="9.84" y1="15.75" x2="17.31" y2="8.27" xlink:href="#linear-gradient"/>
    <linearGradient id="linear-gradient-3" x1="6.96" y1="14.54" x2="10.69" y2="10.81" xlink:href="#linear-gradient"/>
    <linearGradient id="linear-gradient-4" x1="8.02" y1="8.41" x2="8.82" y2="7.61" xlink:href="#linear-gradient"/>
  </defs>
  <path class="cls-4" d="M12.28,19.76c-1.07,0-2.12-.21-3.1-.63-.95-.4-1.8-.98-2.53-1.71-.73-.73-1.31-1.58-1.71-2.53-.42-.98-.63-2.02-.63-3.1s.21-2.12.63-3.1c.4-.95.98-1.8,1.71-2.53.73-.73,1.58-1.31,2.53-1.71.98-.42,2.03-.63,3.1-.63s2.12.21,3.1.63c.95.4,1.8.98,2.53,1.71.73.73,1.31,1.58,1.71,2.53.42.98.63,2.03.63,3.1s-.21,2.12-.63,3.1c-.4.95-.98,1.8-1.71,2.53s-1.58,1.31-2.53,1.71c-.98.42-2.02.63-3.1.63M12.28,4.42c-4.06,0-7.37,3.31-7.37,7.37s3.31,7.37,7.37,7.37,7.37-3.31,7.37-7.37-3.31-7.37-7.37-7.37"/>
  <path class="cls-1" d="M17.07,15.26c-.5.71-1.31,1.13-2.17,1.13-1.45,0-2.9,0-4.34,0-.03,0-.08.02-.09-.02-.01-.03.02-.06.04-.08.68-1.03,1.37-2.06,2.06-3.08.73-1.08,1.45-2.16,2.17-3.25.24-.36.48-.72.72-1.08.04-.06.08-.12.04-.19-.04-.08-.11-.08-.19-.08-1.24,0-2.63,0-3.87,0,0,0,.14,0,.14,0h-1s.09,0,.07,0c-.08,0-.24-.02-.2-.1.11-.26.28-.49.49-.67.34-.3.74-.43,1.19-.43,2.19,0,1.7,0,3.89,0,.47,0,.92.35,1.02.8.06.25.02.5-.13.72-.69,1.03-1.38,2.07-2.08,3.1-.63.93-1.26,1.86-1.88,2.8-.03.05-.07.1-.08.16,0,.1.04.16.14.16.03,0,.07,0,.11,0,1.3,0,2.61,0,3.91,0,.05,0,.09.06.05.11"/>
  <path class="cls-3" d="M9.15,11.83c0,.8,0,1.61,0,2.41,0,.57.38.95.94.95.08,0,.16,0,.25,0,.07,0,.08.02.04.08-.21.32-.43.63-.63.96-.09.16-.2.17-.36.16-.78-.05-1.44-.68-1.6-1.43-.04-.19-.07-.38-.07-.57,0-1.66,0-3.32,0-4.99,0-.03,0-.06,0-.1,0-.05.02-.07.07-.07.43,0,.85,0,1.28,0,.05,0,.08.02.07.07,0,.05,0,.1,0,.15v2.37Z"/>
  <path class="cls-2" d="M9.37,8.82h-.27c-.9,0-1.63-.73-1.63-1.63h.27c.9,0,1.63.73,1.63,1.63"/>
</svg>