<?xml version="1.0" encoding="UTF-8"?>
<svg id="Layer_1" data-name="Layer 1" xmlns="http://www.w3.org/2000/svg" xmlns:xlink="http://www.w3.org/1999/xlink" viewBox="0 0 24.56 23.59">
  <defs>
    <style>
      .cls-1 {
        fill: url(#linear-gradient-2);
      }

      .cls-2 {
        fill: url(#linear-gradient-3);
      }

      .cls-3 {
        fill: url(#linear-gradient);
      }
    </style>
    <linearGradient id="linear-gradient" x1="9.03" y1="12.93" x2="9.03" y2="16.66" gradientUnits="userSpaceOnUse">
      <stop offset="0" stop-color="#010101"/>
      <stop offset=".18" stop-color="#020204"/>
      <stop offset=".35" stop-color="#060610"/>
      <stop offset=".53" stop-color="#0c0d24"/>
      <stop offset=".7" stop-color="#15173f"/>
      <stop offset=".87" stop-color="#202362"/>
      <stop offset="1" stop-color="#2b2f84"/>
    </linearGradient>
    <linearGradient id="linear-gradient-2" x1="5.79" y1="12.93" x2="5.79" y2="16.64" xlink:href="#linear-gradient"/>
    <linearGradient id="linear-gradient-3" x1="12.17" y1="12.95" x2="12.17" y2="16.7" xlink:href="#linear-gradient"/>
  </defs>
  <path d="M8.71,16.15c.13,0,.2,0,.26,0q.35-.02.44.32c.02.08.05.17.08.27.34-.07.68-.12,1.01-.2.11-.02.18,0,.27.06.71.52,1.45,1,2.28,1.32.84.32,1.7.48,2.6.31.9-.18,1.59-.68,2.15-1.35.89-1.06,1.29-2.27,1.24-3.62,0-.24-.07-.29-.33-.27-.16.01-.32.05-.48.03-.43-.04-.64-.53-.41-.92.07-.13.16-.19.33-.19.41,0,.83-.03,1.24-.05.21-.01.4.06.56.18.22.17.29.43.09.62-.23.22-.26.49-.31.76-.28,1.34-.73,2.62-1.53,3.77-.59.84-1.34,1.5-2.38,1.82-.94.29-1.87.22-2.79-.06-1.62-.49-3.02-1.32-4.22-2.45-.07-.06-.06-.19-.09-.33Z"/>
  <path d="M15.57,8.29c-.11.48-.22.96-.32,1.43-.05.24-.1.49-.13.73-.03.19-.03.38.2.47.23.09.45.05.64-.1.16-.14.22-.31.19-.52-.09-.71-.17-1.42-.26-2.15.39.02.77.04,1.15.06.03.25.06.49.08.73.05.57.1,1.14.15,1.72.03.39-.15.67-.51.84-.62.28-1.28.37-1.95.3-.51-.05-.84-.44-.82-.94.01-.38.09-.76.15-1.14.07-.45.16-.89.23-1.34.02-.11.05-.16.18-.15.34.03.67.05,1.03.08Z"/>
  <path d="M17.44,11.8c.01-.21.03-.36.03-.51-.02-.68-.06-1.35-.09-2.03-.01-.25-.03-.5-.03-.75,0-.05.04-.13.08-.15.65-.19,1.3-.24,1.94,0,.24.09.44.24.53.49.11.32-.05.56-.27.78-.04.04-.09.08-.15.14.1.03.19.05.26.07.36.12.59.35.66.71.04.2-.03.38-.16.53-.31.38-.74.59-1.23.65-.5.06-1.02.05-1.56.08ZM18.37,10.95c.26.03.5.03.7-.1.09-.06.17-.18.16-.27,0-.08-.11-.21-.2-.23-.18-.04-.37-.04-.55-.04-.04,0-.1.08-.1.13-.01.16,0,.33,0,.51ZM18.3,9.55c.27-.06.52-.09.64-.35.06-.15,0-.27-.16-.29-.15-.02-.31,0-.46,0-.03,0-.08.05-.08.08.01.18.04.36.06.56Z"/>
  <path d="M12.21,11.81c-.63,0-1.07-.3-1.35-.81-.42-.76-.25-1.77.37-2.39.65-.65,1.93-.7,2.51.4.39.74.28,1.47-.22,2.15-.32.43-.76.66-1.32.66ZM11.68,10.17s0,.1,0,.16c.03.27.25.48.52.51.3.03.56-.11.65-.38.13-.38.09-.75-.09-1.1s-.55-.38-.8-.07c-.2.25-.27.54-.29.88Z"/>
  <path class="cls-3" d="M8.53,16.66c-.41-.08-.8-.15-1.15-.22.3-1.1.61-2.2.92-3.32.45-.06.96-.12,1.43-.18.33,1.15.65,2.28.98,3.43-.33.07-.67.14-1.02.2-.04,0-.11-.05-.13-.09-.05-.13-.08-.26-.11-.39-.02-.09-.06-.11-.14-.1-.21.02-.42.05-.64.07-.04.2-.09.39-.14.61ZM9,14.15h-.03c-.07.39-.14.78-.21,1.17h.52c-.09-.4-.18-.79-.27-1.17Z"/>
  <path d="M6.42,11.76c-.06-.21-.11-.4-.17-.6-.23.02-.45.03-.67.06-.05,0-.1.09-.11.15-.04.15-.07.31-.1.47-.41-.08-.8-.15-1.2-.23.13-.39.26-.75.36-1.13.18-.67.35-1.35.52-2.03.03-.13.07-.18.29-.17.32,0,.65-.03.96-.12.22-.06.31-.06.34.09.21,1.11.56,2.19.94,3.28-.38.08-.77.15-1.16.23ZM6.1,10.51c-.09-.42-.18-.82-.27-1.21h-.04c-.07.4-.14.81-.22,1.21h.52Z"/>
  <path class="cls-1" d="M4.64,16.53c.13-.32.24-.59.35-.88.38.17.76.13,1.12-.03.09-.04.23-.15.23-.2-.02-.13-.17-.14-.3-.13-.35.03-.71.07-1.06.1-.11,0-.23,0-.34-.02-.41-.09-.56-.34-.44-.74.14-.45.46-.78.81-1.08.24-.19.5-.38.78-.5.73-.31,1.23-.04,1.36.71.01.07.02.14.04.23-.33.09-.66.18-1,.28-.06-.17-.17-.24-.35-.21-.2.04-.37.12-.46.31-.05.12-.01.22.13.22.22,0,.43-.02.65-.02.25,0,.5-.02.74.01.44.07.65.41.47.8-.1.22-.25.44-.43.6-.46.41-1,.69-1.66.64-.2-.02-.4-.07-.63-.11Z"/>
  <path d="M5.35,8.11s-.07.03-.1.03c-.23-.02-.3.08-.33.29-.05.34-.15.67-.22,1.01,0,.02-.02.05-.07.07-.05-.32-.12-.65-.16-.97-.08-.71-.07-1.41.13-2.1.3-1,.91-1.73,2.03-1.95.65-.13,1.3-.04,1.93.13,1.05.29,1.96.84,2.81,1.47,1.03.76,1.92,1.66,2.7,2.65.03.04.05.09.08.14-.01,0-.03.02-.04.03-.16-.17-.31-.34-.47-.51-1.03-1.12-2.2-2.08-3.59-2.77-.72-.36-1.48-.61-2.31-.61-1.16,0-1.96.56-2.24,1.63-.1.39-.1.8-.15,1.2,0,.09,0,.17,0,.26Z"/>
  <path d="M9.03,9.34c.16-.39.32-.78.49-1.18.39.04.77.09,1.17.13-.03.07-.06.12-.09.17-.56,1.03-1.05,2.08-1.44,3.18-.03.07-.04.13-.15.12-.33-.02-.65-.03-1.01-.05.13-.29.23-.57.37-.83.11-.2.1-.36-.02-.56-.32-.55-.6-1.12-.9-1.68-.02-.03-.03-.06-.05-.11.41-.15.82-.29,1.22-.44.11.42.22.82.33,1.23h.06Z"/>
  <path class="cls-2" d="M12.81,16.49c-.42.07-.81.14-1.24.22v-2.69c-.33.03-.63.06-.95.09.02-.32.05-.62.07-.94.94-.07,1.87-.15,2.83-.22.06.3.13.6.2.92-.35.02-.7.05-1.06.07-.06.85.07,1.69.14,2.55Z"/>
  <path d="M12.96,8.09c-.16-.02-.32-.04-.48-.08-.05-.01-.09-.06-.13-.09-.86-.77-1.78-1.47-2.88-1.92-.57-.23-1.16-.37-1.79-.33-.88.06-1.5.54-1.72,1.37-.08.3-.11.61-.17.95,0-.25-.01-.47,0-.7.04-.47.17-.92.47-1.3.33-.43.79-.66,1.35-.71.89-.07,1.7.2,2.47.6,1.09.57,2.03,1.32,2.89,2.17,0,0,0,.02.01.03Z"/>
  <path d="M6.86,14.22c.12-.04.22-.08.32-.1.09-.02.13-.06.11-.15-.05-.2-.07-.41-.15-.6-.18-.45-.61-.63-1.17-.51-.15-.3-.34-.6-.46-.92-.05-.13.03-.3.05-.45,0-.05.03-.1.05-.16.15-.02.29-.03.43-.05.08,0,.12.01.14.1.04.17.09.33.14.51.1-.02.19-.03.28-.04.26.4.51.81.78,1.2.16.24.33.46.5.69.03.04.07.09.06.13-.11.43-.22.85-.36,1.29-.05-.34-.3-.54-.55-.72-.07-.05-.11-.14-.16-.22Z"/>
  <path d="M15.48,17.69c.16-.17.35-.33.5-.52.32-.39.44-.85.46-1.33.04-1.23-.29-2.39-.82-3.5-.07-.14-.13-.28-.2-.42.23-.09.27-.08.37.13.46.93.77,1.9.88,2.93.06.6.03,1.2-.23,1.77-.17.37-.42.66-.79.87-.06.03-.12.06-.16.08Z"/>
</svg>