<?xml version="1.0" encoding="UTF-8"?>
<svg id="Layer_1" data-name="Layer 1" xmlns="http://www.w3.org/2000/svg" viewBox="0 0 24.56 23.59">
  <defs>
    <style>
      .cls-1 {
        fill: #fff;
      }

      .cls-2 {
        fill: #010101;
      }

      .cls-3 {
        fill: #ebf7f7;
      }
    </style>
  </defs>
  <g>
    <path class="cls-2" d="M17.14,11.32c.05.1.18.13.27.17.14.06.26.11.4.15.12.03.25.05.38.08.26.07.4.28.36.55-.11.65-.31.69-.02,1.38.19.55.29,1.16.12,1.72-.43,1.52-2.32,2.25-3.7,1.6-.16-.07-.31-.15-.45-.25-.12-.07-.26-.17-.36-.05-.16.24-.2.4-.56.45-.73.04-1.46,0-2.19.02-.19,0-.41,0-.57-.1-.31-.18-.23-.63-.67-.31-.74.5-1.73.64-2.55.31-.54-.21-1.05-.56-1.37-1.05-.62-.97-.41-2.09.11-3.06.27-.53.62-1.01,1.01-1.46.11-.14.12-.29.05-.45-.34-.62-.48-1.31-.38-2.02.09-.63.28-1.25.55-1.83.05-.12.14-.25.15-.38.03-.38-.65-.37-.81-1.24-.16-.87.44-1.76,1.24-2.07.53-.21,1.18-.14,1.59.27.07.07.14.15.19.24.08.13.17.29.32.31.09.01.2-.02.3-.06.14-.05.29-.1.43-.14.74-.2,1.54-.23,2.3-.09.29.05.57.13.84.23.14.05.31.11.42,0,.07-.07.11-.16.17-.24.1-.16.22-.29.37-.4.53-.38,1.3-.26,1.81.08.91.56,1.26,2.09.29,2.76-.21.14-.32.26-.21.51.62,1.27,1.04,2.78.27,4.08-.05.09-.1.22-.07.29h0ZM12.16,12.08c-.1.19-.25.06-.4,0-.09-.04-.19-.04-.28-.01-.41.12-.77.34-1.03.67-.05.07-.15.19-.06.27.06.04.18.05.26.05.5,0,1.01,0,1.51,0,.65,0,1.29,0,1.94,0,.25-.01.23-.15.1-.31-.23-.3-.54-.5-.91-.62-.09-.03-.2-.05-.29-.02-.1.02-.19.09-.28.1-.2,0-.23-.28-.12-.4.12-.15.37-.13.52-.23.15-.1.04-.21-.13-.21-.09,0-.18.02-.27.04-.24.04-.48.09-.52.37-.02.1,0,.24-.05.33h0ZM17.84,13.26c.09-.28.18-.55.27-.83.03-.09.07-.23,0-.3-.08-.1-.25-.06-.33.02-.11.1-.13.26-.18.4-.09.32-.2.65-.27.98-.02.19.15.19.29.09.12-.08.17-.21.22-.35h0ZM15.51,12.69c.01-.37.03-.75.01-1.13,0-.15-.13-.25-.26-.16-.09.05-.12.17-.12.27-.01.47,0,.94,0,1.41,0,.13,0,.29.09.38.07.07.18.04.22-.04.04-.07.05-.19.05-.3,0-.14,0-.28,0-.42h0ZM16.56,13.63c-.05.32.21.38.35.11.06-.12.08-.25.11-.37.02-.09.05-.18.07-.28.07-.32.15-.64.21-.96.07-.36-.33-.45-.42-.1-.03.12-.05.24-.08.36-.09.41-.18.82-.25,1.24h0ZM13.44,13.38c-.99,0-1.99,0-2.98,0-.11,0-.28,0-.32.13-.02.11.07.21.18.27.08.04.18.07.27.08,1.02.05,2.05,0,3.07.02.23,0,.49,0,.69-.11.16-.09.24-.3.04-.36-.07-.02-.15-.03-.22-.03-.24,0-.48,0-.72,0h0ZM10.86,16.49c.12.25.43.22.67.22.58,0,1.15,0,1.72,0,.32.01.55-.08.59-.43.03-.24-.07-.47-.11-.71-.04-.28,0-.57.07-.84.1-.29.12-.44-.24-.44-.87,0-1.74,0-2.61,0-.06,0-.11.02-.15.04-.1.07-.05.21-.02.31.04.14.08.27.1.42.02.13.02.27,0,.41-.03.34-.18.69-.03,1.02h0ZM16.51,7.05c-1.29-2.77-4.67-3.7-7.09-1.76-.7.56-1.18,1.34-1.52,2.16-.25.61-.45,1.27-.47,1.93-.03.76.3,1.49.74,2.09.1.14.21.28.36.37.17.1.39.14.57.26.09.06.17.12.26.17.14.08.3.13.45.18.26.08.4.02.59-.16.31-.29.7-.48,1.1-.6.15-.05.27-.15.37-.27.04-.05.08-.1.13-.14.21-.18.55-.19.82-.25.14-.02.28-.05.42-.03.2.03.36.2.38.4.02.16-.06.35.08.47.07.07.2.13.3.2.12.08.23.18.34.29.08.08.15.18.22.25.11.12.15.05.16-.08,0-.3,0-.6.01-.9,0-.21.02-.48.25-.57.09-.04.18-.05.28-.05.13,0,.26,0,.37.03.43.11.2.65.48.69.12,0,.27-.15.34-.26.16-.24.31-.48.44-.74.3-.61.36-1.29.22-1.95-.12-.6-.32-1.18-.59-1.72h0ZM8.1,13.67c.04-.33-.12-.69-.42-.85-.34-.2-.78-.03-.92.33-.13.32,0,.48.31.55.23.06.45.14.68.19.18.04.33-.02.36-.21h0ZM14.3,14.29s.19-.04.25-.06c.53-.22,1.12-.09,1.64.15.53.25.63.39,1.22.13.1-.04.2-.08.3-.12.13-.05.27-.09.38-.18.2-.16.07-.36-.16-.32-.18.03-.37.12-.55.17-.24.08-.47.18-.72.14-.17-.02-.33-.09-.48-.15-.4-.15-.82-.24-1.24-.18-.2.03-.42.11-.56.26-.06.06-.09.11-.07.13h0ZM7.72,14.65c.13,0,.26-.07.38-.13.6-.32,1.32-.56,1.98-.28.14.05.27.05.1-.12-.09-.09-.21-.15-.34-.18-.48-.13-1-.01-1.47.15-.21.07-.41.17-.63.16-.17,0-.34-.08-.51-.13-.16-.05-.33-.11-.49-.16-.12-.04-.27-.09-.37-.02-.09.06-.06.17.02.24.06.07.16.11.25.14.23.08.45.17.68.25.13.05.26.09.4.08h0ZM9.79,13.02c.12-.05.07-.18-.03-.24-.49-.23-1.15.09-1.25.65-.03.25.19.24.37.21.09-.01.17-.02.26-.02.16-.01.34.02.47-.05.11-.05.14-.17.08-.28-.02-.06-.08-.14-.06-.19.03-.05.09-.05.16-.08h0ZM16.35,12.25c-.06-.14-.26-.15-.35-.03-.04.05-.06.12-.07.19-.04.27-.05.54-.08.81,0,.09-.02.21,0,.29.04.15.22.2.32.07.07-.1.07-.23.1-.36.03-.19.05-.37.08-.56.02-.14.05-.3,0-.4h0ZM7.85,12.48c0,.09.09.16.16.22.06.05.12.11.18.14.29.17.11-.23.45-.29.09-.03.22-.03.28-.11.03-.04.01-.08-.02-.11-.21-.17-.61-.16-.86-.04-.11.05-.18.11-.18.19h0Z"/>
    <path class="cls-2" d="M14.69,10.23c-.48,0-.92-.26-1.21-.63-.24-.31-.47-.64-.58-1.02-.04-.14-.01-.37.18-.32.09.02.19.09.3.12.17.06.36-.03.51-.13.26-.16.5-.33.77-.49.16-.09.33-.18.51-.21.46-.1.87.28,1.01.71.34,1.01-.44,1.97-1.48,1.97h0ZM13.75,8.88s.02.06.07.09c.16.09.39.07.55-.04.07-.05.13-.11.17-.19.08-.14.12-.4-.09-.36-.19.06-.29.29-.47.37-.1.06-.19.07-.23.13h0Z"/>
    <path class="cls-2" d="M8.33,8.76c0-.33.09-.65.31-.9.14-.16.33-.29.54-.32.26-.04.51.08.74.22.25.15.49.3.73.46.09.06.18.11.27.15.2.08.34,0,.52-.08.11-.06.23-.05.25.1.02.14-.04.29-.09.42-.2.45-.48.86-.88,1.15-.94.68-2.38-.01-2.39-1.19h0ZM10.03,8.36c-.08.05-.06.17-.04.25.06.24.29.43.54.42.08,0,.3-.06.24-.16-.05-.06-.15-.09-.22-.14-.15-.08-.34-.43-.51-.36h0Z"/>
    <path class="cls-2" d="M12.31,9.72c.15,0,.3,0,.45.02.18.03.32.17.24.36-.05.14-.2.27-.31.38-.11.1-.24.24-.4.24-.16,0-.28-.13-.39-.23-.11-.11-.25-.24-.31-.38-.05-.12,0-.27.13-.32.18-.08.39-.05.59-.06h0Z"/>
    <path class="cls-2" d="M11.92,12.68c-.14,0-.18-.2-.06-.26.07-.04.18,0,.2.08.04.09-.04.19-.14.19h0Z"/>
    <path class="cls-2" d="M12.9,12.42c.17-.07.27.18.1.25-.18.06-.28-.17-.11-.25h0Z"/>
    <path class="cls-2" d="M11.39,12.72c-.02.17-.28.16-.28-.02,0-.19.28-.17.28.01h0Z"/>
    <path class="cls-2" d="M7.26,13.05c.16,0,.17.23.01.26-.17.02-.19-.24-.02-.26h0Z"/>
    <path class="cls-2" d="M13.59,12.84c-.15,0-.19-.23-.04-.28.08-.03.18.03.2.11.02.09-.07.17-.16.17h0Z"/>
    <path class="cls-2" d="M9.16,13.34c-.17,0-.17-.24,0-.25.16,0,.16.24,0,.25h0Z"/>
  </g>
  <g>
    <g>
      <g>
        <g>
          <path class="cls-1" d="M3.34,18.9s-.03-.01-.03-.03l-.46-3.22s0-.02,0-.02c0,0,.01-.01.02-.01l.98-.14s0,0,0,0c.02,0,.03.01.03.03l.2,1.19.56-.12-.18-1.22s0-.03.03-.04l1.06-.19s0,0,0,0c0,0,.01,0,.02,0,0,0,.01.01.01.02l.22,1.53.29,1.88s0,.03-.03.04l-1.07.18s0,0,0,0c0,0-.01,0-.02,0,0,0-.01-.01-.01-.02l-.18-1.24-.58.11.16,1.11s0,.02,0,.02c0,0-.01.01-.02.01l-1,.14s0,0,0,0Z"/>
          <path class="cls-1" d="M5.57,15.16l.22,1.53.29,1.88-1.07.18-.19-1.28-.65.12.17,1.14-1,.14-.46-3.22.98-.14.2,1.23.63-.14-.18-1.25,1.06-.19M5.57,15.09s0,0-.01,0l-1.06.19s-.06.04-.05.07l.17,1.19-.5.11-.19-1.16s-.03-.06-.06-.06c0,0,0,0,0,0l-.98.14s-.03.01-.04.03c-.01.01-.01.03-.01.05l.46,3.22s.03.06.06.06c0,0,0,0,0,0l1-.14s.03-.01.04-.03.01-.03.01-.05l-.16-1.07.52-.1.18,1.21s.01.03.03.04c.01,0,.02.01.04.01,0,0,0,0,.01,0l1.07-.18s.06-.04.05-.07l-.29-1.88-.22-1.53s-.01-.03-.03-.04c-.01,0-.02-.01-.04-.01h0Z"/>
        </g>
        <g>
          <path class="cls-2" d="M3.3,18.68s-.03-.01-.03-.03l-.46-3.22s0-.02,0-.02c0,0,.01-.01.02-.01l.98-.14s0,0,0,0c.02,0,.03.01.03.03l.2,1.19.56-.12-.18-1.22s0-.03.03-.04l1.06-.19s0,0,0,0c0,0,.01,0,.02,0,0,0,.01.01.01.02l.22,1.53.29,1.88s0,.03-.03.04l-1.07.18s0,0,0,0c0,0-.01,0-.02,0,0,0-.01-.01-.01-.02l-.18-1.24-.58.11.16,1.11s0,.02,0,.02c0,0-.01.01-.02.01l-1,.14s0,0,0,0Z"/>
          <path class="cls-1" d="M5.52,14.94l.22,1.53.29,1.88-1.07.18-.19-1.28-.65.12.17,1.14-1,.14-.46-3.22.98-.14.2,1.23.63-.14-.18-1.25,1.06-.19M5.52,14.87s0,0-.01,0l-1.06.19s-.06.04-.05.07l.17,1.19-.5.11-.19-1.16s-.03-.06-.06-.06c0,0,0,0,0,0l-.98.14s-.03.01-.04.03c-.01.01-.01.03-.01.05l.46,3.22s.03.06.06.06c0,0,0,0,0,0l1-.14s.03-.01.04-.03.01-.03.01-.05l-.16-1.07.52-.1.18,1.21s.01.03.03.04c.01,0,.02.01.04.01,0,0,0,0,.01,0l1.07-.18s.06-.04.05-.07l-.29-1.88-.22-1.53s-.01-.03-.03-.04c-.01,0-.02-.01-.04-.01h0Z"/>
        </g>
      </g>
      <g>
        <g>
          <path class="cls-1" d="M6.45,18.72s-.02,0-.02-.01l-.19-.2s0-.02,0-.02l.2-3.09s.02-.03.03-.03c0,0,.96.04.96.04.02,0,.03.02.03.03l-.09,2.22.59-.04.09-2.2s0-.02.01-.02c0,0,.01,0,.02,0,0,0,.94.04.94.04.02,0,.03.02.03.03l-.02,2.93s0,.02-.01.03l-.44.34s-.01,0-.02,0c0,0-2.11-.05-2.11-.05Z"/>
          <path class="cls-1" d="M6.46,15.41l.95.04-.09,2.26.66-.05.09-2.23.94.04-.02,2.93-.44.34-2.1-.05-.19-.2.2-3.09M6.46,15.34s-.06.03-.07.06l-.2,3.09s0,.04.02.05l.19.2s.03.02.05.02l2.1.05s0,0,0,0c.01,0,.03,0,.04-.01l.44-.34s.03-.03.03-.05l.02-2.93s-.03-.06-.06-.07l-.94-.04s0,0,0,0c-.02,0-.03,0-.04.02-.01.01-.02.03-.02.05l-.09,2.17-.53.04.09-2.19s-.03-.07-.06-.07l-.95-.04s0,0,0,0h0Z"/>
        </g>
        <g>
          <path class="cls-2" d="M6.45,18.51s-.02,0-.02-.01l-.19-.2s0-.02,0-.02l.2-3.09s.02-.03.03-.03c0,0,.96.04.96.04.02,0,.03.02.03.03l-.09,2.22.59-.04.09-2.2s0-.02.01-.02c0,0,.01,0,.02,0,0,0,.94.04.94.04.02,0,.03.02.03.03l-.02,2.93s0,.02-.01.03l-.44.34s-.01,0-.02,0c0,0-2.11-.05-2.11-.05Z"/>
          <path class="cls-1" d="M6.46,15.19l.95.04-.09,2.26.66-.05.09-2.23.94.04-.02,2.93-.44.34-2.1-.05-.19-.2.2-3.09M6.46,15.13s-.06.03-.07.06l-.2,3.09s0,.04.02.05l.19.2s.03.02.05.02l2.1.05s0,0,0,0c.01,0,.03,0,.04-.01l.44-.34s.03-.03.03-.05l.02-2.93s-.03-.06-.06-.07l-.94-.04s0,0,0,0c-.02,0-.03,0-.04.02-.01.01-.02.03-.02.05l-.09,2.17-.53.04.09-2.19s-.03-.07-.06-.07l-.95-.04s0,0,0,0h0Z"/>
        </g>
      </g>
      <g>
        <g>
          <path class="cls-1" d="M9.66,18.82s-.03-.01-.03-.03l-.28-3.2s.01-.03.03-.04l.93-.17s0,0,0,0c0,0,.02,0,.02.01l.82.95-.08-.97s.01-.03.03-.04l1.03-.09s0,0,0,0c0,0,.02,0,.02,0,0,0,.01.01.01.02l.24,3.31s-.01.03-.03.04l-.99.1s0,0,0,0c0,0-.01,0-.02,0,0,0-.01-.01-.01-.02l-.1-1-.72-.77.12,1.81s0,.02,0,.02c0,0-.01.01-.02.01,0,0-.96.06-.96.06Z"/>
          <path class="cls-1" d="M12.13,15.28l.24,3.31-.99.1-.1-1.01-.79-.85.13,1.9-.96.06-.28-3.2.93-.17.88,1.02-.09-1.07,1.03-.09M12.13,15.21s0,0,0,0l-1.03.09s-.06.04-.06.07l.07.87-.75-.87s-.03-.02-.05-.02c0,0,0,0-.01,0l-.93.17s-.06.04-.05.07l.28,3.2s.03.06.07.06c0,0,0,0,0,0l.96-.06s.03,0,.05-.02c.01-.01.02-.03.02-.05l-.12-1.71.65.69.1.99s.01.03.02.04c.01,0,.03.01.04.01,0,0,0,0,0,0l.99-.1s.06-.03.06-.07l-.24-3.31s0-.03-.02-.05c-.01-.01-.03-.02-.04-.02h0Z"/>
        </g>
        <g>
          <path class="cls-2" d="M9.64,18.6s-.03-.01-.03-.03l-.28-3.2s.01-.03.03-.04l.93-.17s0,0,0,0c0,0,.02,0,.02.01l.82.95-.08-.97s.01-.03.03-.04l1.03-.09s0,0,0,0c0,0,.02,0,.02,0,0,0,.01.01.01.02l.24,3.31s-.01.03-.03.04l-.99.1s0,0,0,0c0,0-.01,0-.02,0,0,0-.01-.01-.01-.02l-.1-1-.72-.77.12,1.81s0,.02,0,.02c0,0-.01.01-.02.01,0,0-.96.06-.96.06Z"/>
          <path class="cls-1" d="M12.11,15.06l.24,3.31-.99.1-.1-1.01-.79-.85.13,1.9-.96.06-.28-3.2.93-.17.88,1.02-.09-1.07,1.03-.09M12.11,14.99s0,0,0,0l-1.03.09s-.06.04-.06.07l.07.87-.75-.87s-.03-.02-.05-.02c0,0,0,0-.01,0l-.93.17s-.06.04-.05.07l.28,3.2s.03.06.07.06c0,0,0,0,0,0l.96-.06s.03,0,.05-.02c.01-.01.02-.03.02-.05l-.12-1.71.65.69.1.99s.01.03.02.04c.01,0,.03.01.04.01,0,0,0,0,0,0l.99-.1s.06-.03.06-.07l-.24-3.31s0-.03-.02-.05c-.01-.01-.03-.02-.04-.02h0Z"/>
        </g>
      </g>
      <g>
        <g>
          <path class="cls-1" d="M12.7,18.73s-.03-.02-.03-.03l.1-2.78s0-.02,0-.02l.57-.58s.01,0,.02,0c0,0,1.88.11,1.88.11,0,0,.02,0,.02.01,0,0,0,.02,0,.02l-.07.94s-.02.03-.03.03c0,0-1.26-.08-1.26-.08l-.1,1.38h.45s.04-.81.04-.81c0-.02.02-.03.03-.03,0,0,.98.05.98.05,0,0,.02,0,.02.01,0,0,0,.02,0,.03l-.24,1.86s-.02.03-.03.03c0,0-2.36-.12-2.36-.12Z"/>
          <path class="cls-1" d="M13.36,15.34l1.87.11-.07.94-1.29-.08-.11,1.45h.52s.04-.84.04-.84l.98.05-.24,1.86-2.36-.12.1-2.78.57-.58M13.36,15.27s-.03,0-.05.02l-.57.58s-.02.03-.02.04l-.1,2.78s.03.07.06.07l2.36.12s0,0,0,0c.03,0,.06-.02.07-.06l.24-1.86s0-.04-.01-.05c-.01-.01-.03-.02-.05-.02l-.98-.05s0,0,0,0c-.03,0-.06.03-.07.06l-.04.79h-.39s.1-1.32.1-1.32l1.22.08s0,0,0,0c.03,0,.06-.03.07-.06l.07-.94s0-.03-.02-.05c-.01-.01-.03-.02-.05-.02l-1.87-.11s0,0,0,0h0Z"/>
        </g>
        <g>
          <path class="cls-2" d="M12.72,18.51s-.03-.02-.03-.03l.1-2.78s0-.02,0-.02l.57-.58s.01,0,.02,0c0,0,1.88.11,1.88.11,0,0,.02,0,.02.01,0,0,0,.02,0,.02l-.07.94s-.02.03-.03.03c0,0-1.26-.08-1.26-.08l-.1,1.38h.45s.04-.81.04-.81c0-.02.02-.03.03-.03,0,0,.98.05.98.05,0,0,.02,0,.02.01,0,0,0,.02,0,.03l-.24,1.86s-.02.03-.03.03c0,0-2.36-.12-2.36-.12Z"/>
          <path class="cls-1" d="M13.38,15.12l1.87.11-.07.94-1.29-.08-.11,1.45h.52s.04-.84.04-.84l.98.05-.24,1.86-2.36-.12.1-2.78.57-.58M13.38,15.05s-.03,0-.05.02l-.57.58s-.02.03-.02.04l-.1,2.78s.03.07.06.07l2.36.12s0,0,0,0c.03,0,.06-.02.07-.06l.24-1.86s0-.04-.01-.05c-.01-.01-.03-.02-.05-.02l-.98-.05s0,0,0,0c-.03,0-.06.03-.07.06l-.04.79h-.39s.1-1.32.1-1.32l1.22.08s0,0,0,0c.03,0,.06-.03.07-.06l.07-.94s0-.03-.02-.05c-.01-.01-.03-.02-.05-.02l-1.87-.11s0,0,0,0h0Z"/>
        </g>
      </g>
      <g>
        <g>
          <path class="cls-1" d="M15.95,18.94s-.01,0-.02,0c0,0-.01-.01-.01-.02l-.34-3.32s.01-.03.03-.04l1.61-.24s0,0,0,0c0,0,0,0,0,0l.83.06s.03.01.03.03l.24,1.8s0,.03-.02.03l-.31.2.73.86s0,.02,0,.03,0,.02-.02.02l-.93.52s-.01,0-.02,0c-.01,0-.02,0-.03-.01l-.73-1.11-.12.04.14,1.01s0,.02,0,.02c0,0-.01.01-.02.01l-1.05.11s0,0,0,0ZM16.74,16.95l.48-.08-.05-.64-.5.05.07.67Z"/>
          <path class="cls-1" d="M17.23,15.34l.83.06.24,1.8-.35.22.75.89-.93.52-.74-1.13-.17.05.14,1.04-1.05.11-.34-3.32,1.61-.24M16.71,16.99l.55-.09-.06-.71-.57.06.08.74M17.23,15.27s0,0,0,0l-1.61.24s-.06.04-.06.07l.34,3.32s.01.03.02.04c.01,0,.03.01.04.01,0,0,0,0,0,0l1.05-.11s.03-.01.04-.02.02-.03.01-.05l-.14-.98.07-.02.71,1.08s.03.03.05.03c.01,0,.02,0,.03,0l.93-.52s.03-.03.03-.05c0-.02,0-.04-.01-.05l-.7-.83.28-.18s.03-.04.03-.06l-.24-1.8s-.03-.05-.06-.06l-.83-.06s0,0,0,0h0ZM16.7,16.31l.43-.05.05.58-.42.07-.06-.6h0Z"/>
        </g>
        <g>
          <path class="cls-2" d="M15.93,18.72s-.01,0-.02,0c0,0-.01-.01-.01-.02l-.34-3.32s.01-.03.03-.04l1.61-.24s0,0,0,0c0,0,0,0,0,0l.83.06s.03.01.03.03l.24,1.8s0,.03-.02.03l-.31.2.73.86s0,.02,0,.03,0,.02-.02.02l-.93.52s-.01,0-.02,0c-.01,0-.02,0-.03-.01l-.73-1.11-.12.04.14,1.01s0,.02,0,.02c0,0-.01.01-.02.01l-1.05.11s0,0,0,0ZM16.71,16.74l.48-.08-.05-.64-.5.05.07.67Z"/>
          <path class="cls-1" d="M17.21,15.12l.83.06.24,1.8-.35.22.75.89-.93.52-.74-1.13-.17.05.14,1.04-1.05.11-.34-3.32,1.61-.24M16.69,16.77l.55-.09-.06-.71-.57.06.08.74M17.21,15.05s0,0,0,0l-1.61.24s-.06.04-.06.07l.34,3.32s.01.03.02.04c.01,0,.03.01.04.01,0,0,0,0,0,0l1.05-.11s.03-.01.04-.02.02-.03.01-.05l-.14-.98.07-.02.71,1.08s.03.03.05.03c.01,0,.02,0,.03,0l.93-.52s.03-.03.03-.05c0-.02,0-.04-.01-.05l-.7-.83.28-.18s.03-.04.03-.06l-.24-1.8s-.03-.05-.06-.06l-.83-.06s0,0,0,0h0ZM16.68,16.09l.43-.05.05.58-.42.07-.06-.6h0Z"/>
        </g>
      </g>
      <g>
        <g>
          <path class="cls-1" d="M20.29,18.88l-.97-.1s-.02,0-.02-.01c0,0,0-.02,0-.02l.15-1.25-.67-.58s-.01-.02-.01-.03v-1.6s.02-.02.02-.02c0,0,.01,0,.02,0,0,0,1.09.07,1.09.07.02,0,.03.02.03.03l-.06,1.09.25.22.29-.15.18-1.06s.02-.03.03-.03c0,0,0,0,0,0l1.08.17s.02,0,.02.01c0,0,0,.02,0,.03l-.36,1.57s0,.02-.02.02l-.88.45-.15,1.19s-.02.03-.03.03c0,0,0,0,0,0Z"/>
          <path class="cls-1" d="M18.81,15.28l1.08.07-.06,1.11.28.24.33-.16.19-1.08,1.08.17-.36,1.57-.89.46-.15,1.21-.97-.1.15-1.27-.68-.59v-1.6M18.81,15.21s-.03,0-.04.02c-.01.01-.02.03-.02.05v1.6s0,.04,0,.05l.65.57-.15,1.24s0,.04.01.05.03.02.04.02l.97.1s0,0,0,0c.03,0,.06-.02.07-.06l.14-1.17.86-.44s.03-.02.03-.04l.36-1.57s0-.04,0-.05-.03-.03-.04-.03l-1.08-.17s0,0-.01,0c-.03,0-.06.02-.06.05l-.18,1.04-.26.13-.22-.19.06-1.07s-.03-.07-.06-.07l-1.08-.07s0,0,0,0h0Z"/>
        </g>
        <g>
          <path class="cls-2" d="M20.31,18.66l-.97-.1s-.02,0-.02-.01c0,0,0-.02,0-.02l.15-1.25-.67-.58s-.01-.02-.01-.03v-1.6s.02-.02.02-.02c0,0,.01,0,.02,0,0,0,1.09.07,1.09.07.02,0,.03.02.03.03l-.06,1.09.25.22.29-.15.18-1.06s.02-.03.03-.03c0,0,0,0,0,0l1.08.17s.02,0,.02.01c0,0,0,.02,0,.03l-.36,1.57s0,.02-.02.02l-.88.45-.15,1.19s-.02.03-.03.03c0,0,0,0,0,0Z"/>
          <path class="cls-1" d="M18.83,15.06l1.08.07-.06,1.11.28.24.33-.16.19-1.08,1.08.17-.36,1.57-.89.46-.15,1.21-.97-.1.15-1.27-.68-.59v-1.6M18.83,14.99s-.03,0-.04.02c-.01.01-.02.03-.02.05v1.6s0,.04,0,.05l.65.57-.15,1.24s0,.04.01.05.03.02.04.02l.97.1s0,0,0,0c.03,0,.06-.02.07-.06l.14-1.17.86-.44s.03-.02.03-.04l.36-1.57s0-.04,0-.05-.03-.03-.04-.03l-1.08-.17s0,0-.01,0c-.03,0-.06.02-.06.05l-.18,1.04-.26.13-.22-.19.06-1.07s-.03-.07-.06-.07l-1.08-.07s0,0,0,0h0Z"/>
        </g>
      </g>
    </g>
    <g>
      <g>
        <path class="cls-2" d="M14.42,20.12s-.1-.01-.15-.04c-.4-.21-.44-.68-.44-1.11-.03.08-.09.29-.13.42-.04.17-.06.24-.08.26-.06.13-.16.2-.29.2-.18,0-.37-.14-.44-.32-.02.03-.04.08-.05.13-.01.05-.03.1-.05.14-.04.12-.13.19-.24.19s-.25-.08-.32-.19c-.2-.36-.13-.78-.07-1.18.02-.12.04-.24.05-.35,0,0,0-.02,0-.04,0-.02.01-.07.01-.11,0,0,0,0,0,0-.25.52-.37,1.07-.48,1.6,0,0,0,0,0,0-.02.07-.08.11-.16.11-.09,0-.18-.05-.22-.12-.05-.1-.07-.22-.09-.33,0-.04-.01-.08-.02-.12,0-.04,0-.06-.01-.08,0,0,0,.01,0,.02,0,0,0,0,0,0-.03.07-.05.17-.08.28-.05.25-.12.53-.31.58,0,0,0,0,0,0h0c-.32,0-.55-.3-.59-.58-.02-.05-.01-.12-.01-.18,0-.06,0-.11,0-.16-.01.02-.03.04-.04.06-.02.03-.03.07-.06.09-.05.07-.14.1-.24.1-.13,0-.27-.06-.34-.15-.25-.35-.07-1.06.24-1.29.1-.07.19-.11.29-.11.13,0,.24.06.37.13.04.02.08.04.12.06.26.04.32.31.29.54,0,.02,0,.1,0,.26,0,.26-.03.78,0,.9,0,0,0-.01,0-.03.04-.15.09-.3.14-.45.07-.24.15-.48.2-.73,0-.05,0-.11,0-.17,0-.13,0-.27.11-.36,0,0,0,0,0,0,.04-.02.08-.03.12-.03.1,0,.22.06.28.14.09.11.09.25.09.39,0,.03,0,.06,0,.09.03-.07.09-.23.13-.34.07-.2.1-.29.13-.32.1-.17.2-.21.27-.21s.13.03.18.09c.1.11.15.29.13.46,0,.2,0,.41,0,.6,0,.22,0,.45,0,.67,0,0,0,.01,0,.01,0,0,0,0,0,0,.08-.15.13-.38.19-.62.11-.5.24-1.06.71-1.06.07,0,.15.01.24.04,0,0,0,0,0,0,.02.01.04.02.05.02.04,0,.05-.07.05-.14h0c.03-.28.08-.54.13-.78.03-.19.11-.22.17-.22.02,0,.03,0,.05,0,.21.04.33.15.32.29,0,.02,0,.08-.02.2-.13,1.55-.15,2.39-.05,2.5,0,0,0,0,0,0,0,0,.02,0,.06-.07.13-.22.22-.49.28-.82,0-.04,0-.09.01-.13.02-.17.04-.35.11-.51.1-.24.32-.41.55-.41.13,0,.25.05.36.15.04.02.08.03.12.05.09.03.18.06.23.16.07.15.06.32.04.49,0,.07-.01.15-.01.21,0,.07,0,.14,0,.21,0,.21,0,.42,0,.62,0,0,0,0,0,0,0,0,0,0,0-.01.06-.18.12-.38.17-.56.07-.27.15-.55.26-.8,0,0,0,0,.01-.01.02,0,.03-.01.04-.01.02,0,.04,0,.05.02.07.09-.04.48-.2.97-.06.19-.11.36-.11.41,0,0,0,0,0,0-.05.26-.19.29-.28.29-.23,0-.51-.28-.54-.54-.02-.05-.02-.15-.02-.23,0-.05,0-.11,0-.13-.01,0-.03.04-.08.12,0,0,0,0,0,0-.08.08-.16.13-.25.13h0c-.09,0-.17-.04-.24-.08-.04-.02-.08-.04-.1-.04,0,0-.02,0-.03.05,0,0,0,0,0,0-.02.05-.04.1-.06.16-.09.25-.21.59-.47.59ZM13.77,18.17s-.03,0-.04.02c-.06.05-.11.14-.13.26,0,.04-.02.08-.02.12-.06.27-.12.55-.1.83,0,.01,0,.02,0,.04,0,.02,0,.05,0,.07,0,0,0,0,0,0,0,0,0-.02.01-.03.14-.39.23-.8.29-1.23,0-.02,0-.06,0-.07,0,0,0,0,0,0,0,0,0,0,0,0ZM15.47,18.9s0,.03,0,.05c0,.03,0,.11,0,.15,0,0,0-.01.01-.02.14-.28.21-.58.26-.86,0-.02,0-.04,0-.04-.04,0-.1.1-.12.15-.08.23-.13.42-.15.59ZM10.32,18.17s-.02,0-.02.01c-.04.03-.07.08-.09.14-.05.16-.1.32-.13.48-.01.06-.02.13-.02.21h0s0,.07,0,.09c0,0,0-.01.01-.02.11-.23.19-.5.26-.86,0-.02,0-.04,0-.04Z"/>
        <path class="cls-2" d="M14.19,16.84s.03,0,.04,0c.14.03.32.1.31.27,0,.11-.26,2.73-.04,2.73.02,0,.05-.03.08-.08.15-.25.23-.54.29-.83.03-.21.03-.44.13-.64.09-.24.31-.39.53-.39.12,0,.24.04.34.14.11.07.27.07.34.2.1.21.02.47.03.69,0,.28-.02.56,0,.84,0,.02.01.03.02.03,0,0,.02-.02.03-.04.16-.44.24-.93.43-1.36.01,0,.02,0,.03,0,.19,0-.29,1.24-.29,1.38-.04.2-.14.28-.26.28-.22,0-.49-.27-.52-.52-.04-.1,0-.38-.04-.38-.02,0-.05.04-.1.14-.08.09-.16.12-.23.12-.15,0-.27-.12-.34-.12-.03,0-.04.02-.05.07-.1.24-.21.74-.51.74-.04,0-.09-.01-.15-.04-.41-.21-.43-.7-.43-1.1,0-.03,0-.04-.01-.04-.05,0-.2.67-.23.71-.06.14-.16.19-.27.19-.18,0-.38-.15-.44-.33-.08.06-.08.21-.13.3-.04.13-.13.18-.22.18-.11,0-.23-.07-.3-.18-.25-.46-.07-1.03-.02-1.52,0-.04.03-.2.01-.2,0,0-.02.02-.04.06-.24.51-.37,1.05-.48,1.6-.02.07-.08.1-.14.1-.08,0-.16-.04-.2-.11-.07-.14-.08-.3-.1-.45,0-.06-.02-.11-.03-.11,0,0-.02.02-.03.06-.1.23-.11.77-.37.85,0,0,0,0,0,0-.3,0-.53-.28-.57-.56-.04-.11.02-.27-.03-.37h0c-.05.04-.07.13-.12.18-.05.07-.14.1-.22.1-.12,0-.25-.06-.32-.14-.23-.33-.08-1.02.24-1.26.1-.08.19-.1.27-.1.16,0,.31.11.48.19.25.04.31.3.28.52,0,.05-.06,1.19,0,1.19,0,0,.02-.02.03-.06.11-.39.26-.78.34-1.18.03-.17-.04-.4.11-.52.03-.02.07-.03.11-.03.1,0,.21.06.26.13.11.13.08.32.08.48,0,.03,0,.04,0,.04.04,0,.24-.66.28-.7.08-.14.17-.2.25-.2.18,0,.32.28.29.53,0,.42,0,.85,0,1.27,0,.03.01.04.02.04,0,0,.02,0,.03-.03.26-.47.2-1.67.88-1.67.07,0,.14.01.23.04.03.02.05.02.06.02.07,0,.07-.1.08-.17.03-.26.08-.52.13-.77.01-.09.05-.21.15-.21M10.04,19.13s.02-.01.04-.05c.13-.27.21-.56.26-.87,0-.02,0-.05,0-.07h0s0,0,0,0c-.01,0-.03.01-.04.02-.05.04-.08.09-.1.14-.05.16-.1.32-.14.48-.01.07-.02.14-.02.21,0,.04,0,.12.01.12M15.45,19.13s.02-.01.04-.05c.13-.27.2-.56.26-.87,0-.02.01-.06,0-.07h0s0,0-.01,0c-.05,0-.12.12-.14.16-.07.19-.13.39-.15.59,0,.04-.03.23,0,.23M13.46,19.55s.03-.04.04-.06c.14-.4.24-.81.29-1.23,0-.03,0-.07,0-.09h0s-.01-.01-.02-.01c-.02,0-.04.01-.05.02-.08.07-.12.18-.14.27-.06.31-.14.63-.13.95,0,.04,0,.07,0,.11,0,.02,0,.03.01.04,0,0,0,0,0,0M14.19,16.79c-.06,0-.17.03-.2.24-.05.24-.1.51-.13.77,0,0,0,0,0,0h0s0,.13-.03.13c0,0-.02,0-.04-.02,0,0,0,0,0,0-.09-.03-.17-.04-.24-.04-.49,0-.62.57-.73,1.08-.05.21-.09.4-.15.55,0-.2,0-.4,0-.6,0-.2,0-.4,0-.6.02-.17-.04-.36-.14-.47-.06-.07-.13-.1-.2-.1s-.18.04-.28.22c-.02.03-.05.1-.13.32-.02.07-.06.16-.08.23,0-.13,0-.27-.09-.38-.07-.09-.19-.15-.3-.15-.05,0-.09.01-.13.03,0,0,0,0,0,0-.12.09-.12.24-.12.38,0,.06,0,.12,0,.16-.05.24-.13.49-.2.72-.04.12-.08.25-.11.37,0-.2,0-.59.01-.78,0-.16,0-.23,0-.26.03-.24-.03-.51-.31-.56-.04-.02-.08-.04-.12-.06-.13-.07-.24-.13-.38-.13-.1,0-.2.04-.3.11-.16.12-.29.35-.34.62-.06.28-.02.54.09.7,0,0,0,0,0,0,.08.09.22.16.36.16.11,0,.2-.04.26-.11.03-.03.04-.06.06-.09,0,0,0,0,0-.01,0,.03,0,.06,0,.09,0,.06,0,.13.01.18.04.29.28.6.61.6h0s0,0,.01,0c.2-.06.27-.35.32-.6.02-.08.04-.16.06-.22,0,.04.01.07.02.11.02.11.03.23.09.34.04.08.14.13.24.13.09,0,.15-.05.18-.13,0,0,0,0,0,0,.1-.49.21-1,.42-1.48,0,0,0,0,0,0-.01.11-.03.23-.05.35-.06.41-.13.82.07,1.19,0,0,0,0,0,0,.08.12.21.2.34.2s.22-.07.26-.2c.03-.04.04-.09.05-.14,0-.03.02-.06.03-.09.09.17.27.29.45.29.14,0,.25-.08.31-.22.01-.02.03-.08.08-.26.02-.09.06-.21.08-.3.01.4.08.81.45,1.01,0,0,0,0,0,0,.06.03.11.04.16.04.27,0,.4-.35.49-.61.02-.06.04-.12.06-.16,0,0,0,0,0-.01,0-.02,0-.03,0-.03,0,0,0,0,0,0,.02,0,.05.02.09.04.07.04.15.08.25.08s.19-.05.27-.13c0,0,0,0,0,0,.02-.03.03-.06.04-.08,0,.02,0,.05,0,.08,0,.09,0,.17.02.23.03.27.32.56.56.56.09,0,.25-.04.3-.31,0,0,0,0,0,0,0-.04.06-.22.11-.4.16-.52.27-.89.2-.99-.02-.02-.04-.03-.06-.03-.02,0-.03,0-.05.01,0,0-.02.01-.02.02-.11.25-.19.53-.26.8-.04.15-.08.31-.13.47,0-.17,0-.34,0-.51,0-.07,0-.14,0-.21,0-.07,0-.14.01-.21.02-.17.03-.34-.04-.5,0,0,0,0,0,0-.05-.1-.15-.14-.24-.17-.04-.01-.08-.03-.11-.04-.11-.1-.24-.15-.37-.15-.24,0-.48.17-.57.42-.08.17-.1.35-.11.52,0,.04,0,.09-.01.13-.06.33-.15.59-.28.81-.02.04-.03.05-.04.06-.01-.02-.04-.09-.05-.33,0-.18,0-.42,0-.71.02-.54.07-1.12.1-1.44.01-.12.02-.18.02-.2.01-.15-.11-.27-.34-.32-.02,0-.04,0-.05,0h0ZM13.49,19.4c-.01-.28.05-.55.1-.82,0-.04.02-.08.02-.12.03-.12.07-.2.13-.25,0,0,0,0,.01,0,0,.02,0,.04,0,.05-.05.4-.14.79-.26,1.15h0ZM15.49,18.9c.02-.17.07-.35.15-.58.01-.04.05-.08.07-.11-.05.26-.11.53-.23.79,0-.02,0-.04,0-.05,0-.02,0-.04,0-.05h0ZM10.23,18.32s.04-.08.07-.11c-.06.32-.13.57-.22.78,0-.08.01-.14.02-.2.03-.16.08-.32.13-.48h0Z"/>
        <path class="cls-2" d="M8.15,20.21c-.15,0-.3-.11-.34-.25-.21-.77-.18-1.57-.13-2.24.02-.21.05-.42.11-.64.02-.08.09-.13.18-.13.11,0,.23.06.29.11.08.06.11.16.09.28-.08.57-.13,1.06-.11,1.55,0-.02,0-.03,0-.05.08-.52.17-1.07.39-1.56v-.02c.09-.17.21-.42.41-.46.02,0,.04,0,.06,0,.08,0,.16.03.22.07.12.08.16.23.18.37.07.44-.06,1.11-.42,1.45-.08.07-.19.11-.29.11-.06,0-.12-.01-.17-.04-.03-.01-.05-.03-.08-.05,0,0-.02-.01-.03-.02-.01,0-.02,0-.02,0,0,0-.01.03-.01.04,0,0,0,0,0,.01-.06.38-.09.74-.11,1.12v.11c-.01.07-.02.15-.08.19-.04.03-.09.04-.15.04ZM8.56,18.38s0,0,0,0c.07,0,.16-.13.2-.18.19-.26.31-.59.35-.94v-.04s.01-.06.02-.09c0-.02,0-.04,0-.04h0s-.1.08-.13.11c0,0-.01.02-.02.02-.15.17-.22.39-.28.63-.03.1-.06.2-.08.3l-.02.09s0,.03-.01.04c0,.03-.02.08-.01.09Z"/>
        <path class="cls-2" d="M9.13,16.83c.07,0,.15.03.21.07.11.08.15.22.17.35.08.46-.07,1.1-.42,1.43-.08.07-.18.1-.27.1-.06,0-.11-.01-.16-.04-.04-.02-.07-.04-.1-.07-.01,0-.02-.01-.03-.01,0,0,0,0,0,0h0s-.03.05-.03.07c-.07.41-.09.82-.12,1.23,0,.06-.01.13-.06.18-.04.03-.09.04-.13.04-.14,0-.28-.1-.32-.23-.2-.73-.19-1.49-.13-2.24.02-.21.05-.42.11-.63.02-.08.09-.11.16-.11.1,0,.22.05.28.11.08.06.1.16.09.26-.08.55-.14,1.11-.1,1.67,0,.02,0,.03,0,.03,0,0,0-.02.01-.04.09-.58.18-1.16.41-1.7.08-.16.2-.42.39-.46.02,0,.04,0,.06,0M8.57,18.4c.08,0,.18-.14.22-.19.2-.28.31-.61.35-.95,0-.04.01-.08.02-.12,0-.02,0-.05,0-.06h0s-.01,0-.02,0c-.05,0-.14.11-.16.14-.16.18-.23.41-.29.64-.04.13-.07.26-.11.39,0,.04-.05.13-.01.16,0,0,.01,0,.02,0M9.13,16.79s-.05,0-.07,0c-.21.04-.33.3-.41.47v.02s0,0,0,0c-.19.44-.28.91-.36,1.37,0-.41.05-.82.11-1.3.02-.13-.01-.23-.1-.3-.06-.06-.19-.12-.31-.12-.11,0-.18.05-.2.14-.06.21-.09.43-.11.64,0,0,0,0,0,0-.05.68-.08,1.48.13,2.25,0,0,0,0,0,0,.04.14.21.26.36.26.06,0,.11-.02.16-.05,0,0,0,0,0,0,.07-.06.08-.15.08-.21,0-.04,0-.08,0-.11.02-.38.05-.74.11-1.12,0,0,0,0,0-.01,0,0,0-.01,0-.02,0,0,.02.01.03.02.03.02.05.04.08.05.06.03.12.04.18.04.11,0,.22-.04.3-.11,0,0,0,0,0,0,.37-.35.51-1.02.43-1.47-.02-.14-.06-.29-.19-.38-.06-.05-.15-.08-.23-.08h0ZM8.99,17.24s.01-.01.02-.02c.04-.05.08-.08.1-.09,0,0,0,0,0,0,0,.03,0,.06-.01.09,0,.01,0,.02,0,.04-.04.34-.16.66-.34.93h0c-.07.1-.13.16-.17.17,0-.02.01-.05.01-.06,0-.02,0-.03.01-.04l.02-.09c.03-.1.05-.2.08-.3.07-.24.13-.46.28-.62h0Z"/>
      </g>
      <g>
        <g>
          <path class="cls-3" d="M14.46,19.96s-.1-.01-.15-.04c-.4-.21-.44-.68-.44-1.11-.03.08-.09.29-.13.42-.04.17-.06.24-.08.26-.06.13-.16.2-.29.2-.18,0-.37-.14-.44-.32-.02.03-.04.08-.05.13-.01.05-.03.1-.05.14-.04.12-.13.19-.24.19s-.25-.08-.32-.19c-.2-.36-.13-.78-.07-1.18.02-.12.04-.24.05-.35,0,0,0-.02,0-.04,0-.02.01-.07.01-.11,0,0,0,0,0,0-.25.52-.37,1.07-.48,1.6,0,0,0,0,0,0-.02.07-.08.11-.16.11-.09,0-.18-.05-.22-.12-.05-.1-.07-.22-.09-.33,0-.04-.01-.08-.02-.12,0-.04,0-.06-.01-.08,0,0,0,.01,0,.02,0,0,0,0,0,0-.03.07-.05.17-.08.28-.05.25-.12.53-.31.58,0,0,0,0,0,0h0c-.32,0-.55-.3-.59-.58-.02-.05-.01-.12-.01-.18,0-.06,0-.11,0-.16-.01.02-.03.04-.04.06-.02.03-.03.07-.06.09-.05.07-.14.1-.24.1-.13,0-.27-.06-.34-.15-.25-.35-.07-1.06.24-1.29.1-.07.19-.11.29-.11.13,0,.24.06.37.13.04.02.08.04.12.06.26.04.32.31.29.54,0,.02,0,.1,0,.26,0,.26-.03.78,0,.9,0,0,0-.01,0-.03.04-.15.09-.3.14-.45.07-.24.15-.48.2-.73,0-.05,0-.11,0-.17,0-.13,0-.27.11-.36,0,0,0,0,0,0,.04-.02.08-.03.12-.03.1,0,.22.06.28.14.09.11.09.25.09.39,0,.03,0,.06,0,.09.03-.07.09-.23.13-.34.07-.2.1-.29.13-.32.1-.17.2-.21.27-.21s.13.03.18.09c.1.11.15.29.13.46,0,.2,0,.41,0,.6,0,.22,0,.45,0,.67,0,0,0,.01,0,.01,0,0,0,0,0,0,.08-.15.13-.38.19-.62.11-.5.24-1.06.71-1.06.07,0,.15.01.24.04,0,0,0,0,0,0,.02.01.04.02.05.02.04,0,.05-.07.05-.14h0c.03-.28.08-.54.13-.78.03-.19.11-.22.17-.22.02,0,.03,0,.05,0,.21.04.33.15.32.29,0,.02,0,.08-.02.2-.13,1.55-.15,2.39-.05,2.5,0,0,0,0,0,0,0,0,.02,0,.06-.07.13-.22.22-.49.28-.82,0-.04,0-.09.01-.13.02-.17.04-.35.11-.51.1-.24.32-.41.55-.41.13,0,.25.05.36.15.04.02.08.03.12.05.09.03.18.06.23.16.07.15.06.32.04.49,0,.07-.01.15-.01.21,0,.07,0,.14,0,.21,0,.21,0,.42,0,.62,0,0,0,0,0,0,0,0,0,0,0-.01.06-.18.12-.38.17-.56.07-.27.15-.55.26-.8,0,0,0,0,.01-.01.02,0,.03-.01.04-.01.02,0,.04,0,.05.02.07.09-.04.48-.2.97-.06.19-.11.36-.11.41,0,0,0,0,0,0-.05.26-.19.29-.28.29-.23,0-.51-.28-.54-.54-.02-.05-.02-.15-.02-.23,0-.05,0-.11,0-.13-.01,0-.03.04-.08.12,0,0,0,0,0,0-.08.08-.16.13-.25.13h0c-.09,0-.17-.04-.24-.08-.04-.02-.08-.04-.1-.04,0,0-.02,0-.03.05,0,0,0,0,0,0-.02.05-.04.1-.06.16-.09.25-.21.59-.47.59ZM13.81,18.02s-.03,0-.04.02c-.06.05-.11.14-.13.26,0,.04-.02.08-.02.12-.06.27-.12.55-.1.83,0,.01,0,.02,0,.04,0,.02,0,.05,0,.07,0,0,0,0,0,0,0,0,0-.02.01-.03.14-.39.23-.8.29-1.23,0-.02,0-.06,0-.07,0,0,0,0,0,0,0,0,0,0,0,0ZM15.51,18.75s0,.03,0,.05c0,.03,0,.11,0,.15,0,0,0-.01.01-.02.14-.28.21-.58.26-.86,0-.02,0-.04,0-.04-.04,0-.1.1-.12.15-.08.23-.13.42-.15.59ZM10.37,18.01s-.02,0-.02.01c-.04.03-.07.08-.09.14-.05.16-.1.32-.13.48-.01.06-.02.13-.02.21h0s0,.07,0,.09c0,0,0-.01.01-.02.11-.23.19-.5.26-.86,0-.02,0-.04,0-.04Z"/>
          <path class="cls-2" d="M14.24,16.68s.03,0,.04,0c.14.03.32.1.31.27,0,.11-.26,2.73-.04,2.73.02,0,.05-.03.08-.08.15-.25.23-.54.29-.83.03-.21.03-.44.13-.64.09-.24.31-.39.53-.39.12,0,.24.04.34.14.11.07.27.07.34.2.1.21.02.47.03.69,0,.28-.02.56,0,.84,0,.02.01.03.02.03,0,0,.02-.02.03-.04.16-.44.24-.93.43-1.36.01,0,.02,0,.03,0,.19,0-.29,1.24-.29,1.38-.04.2-.14.28-.26.28-.22,0-.49-.27-.52-.52-.04-.1,0-.38-.04-.38-.02,0-.05.04-.1.14-.08.09-.16.12-.23.12-.15,0-.27-.12-.34-.12-.03,0-.04.02-.05.07-.1.24-.21.74-.51.74-.04,0-.09-.01-.15-.04-.41-.21-.43-.7-.43-1.1,0-.03,0-.04-.01-.04-.05,0-.2.67-.23.71-.06.14-.16.19-.27.19-.18,0-.38-.15-.44-.33-.08.06-.08.21-.13.3-.04.13-.13.18-.22.18-.11,0-.23-.07-.3-.18-.25-.46-.07-1.03-.02-1.52,0-.04.03-.2.01-.2,0,0-.02.02-.04.06-.24.51-.37,1.05-.48,1.6-.02.07-.08.1-.14.1-.08,0-.16-.04-.2-.11-.07-.14-.08-.3-.1-.45,0-.06-.02-.11-.03-.11,0,0-.02.02-.03.06-.1.23-.11.77-.37.85,0,0,0,0,0,0-.3,0-.53-.28-.57-.56-.04-.11.02-.27-.03-.37h0c-.05.04-.07.13-.12.18-.05.07-.14.1-.22.1-.12,0-.25-.06-.32-.14-.23-.33-.08-1.02.24-1.26.1-.08.19-.1.27-.1.16,0,.31.11.48.19.25.04.31.3.28.52,0,.05-.06,1.19,0,1.19,0,0,.02-.02.03-.06.11-.39.26-.78.34-1.18.03-.17-.04-.4.11-.52.03-.02.07-.03.11-.03.1,0,.21.06.26.13.11.13.08.32.08.48,0,.03,0,.04,0,.04.04,0,.24-.66.28-.7.08-.14.17-.2.25-.2.18,0,.32.28.29.53,0,.42,0,.85,0,1.27,0,.03.01.04.02.04,0,0,.02,0,.03-.03.26-.47.2-1.67.88-1.67.07,0,.14.01.23.04.03.02.05.02.06.02.07,0,.07-.1.08-.17.03-.26.08-.52.13-.77.01-.09.05-.21.15-.21M10.09,18.98s.02-.01.04-.05c.13-.27.21-.56.26-.87,0-.02,0-.05,0-.07h0s0,0,0,0c-.01,0-.03.01-.04.02-.05.04-.08.09-.1.14-.05.16-.1.32-.14.48-.01.07-.02.14-.02.21,0,.04,0,.12.01.12M15.5,18.98s.02-.01.04-.05c.13-.27.2-.56.26-.87,0-.02.01-.06,0-.07h0s0,0-.01,0c-.05,0-.12.12-.14.16-.07.19-.13.39-.15.59,0,.04-.03.23,0,.23M13.51,19.39s.03-.04.04-.06c.14-.4.24-.81.29-1.23,0-.03,0-.07,0-.09h0s-.01-.01-.02-.01c-.02,0-.04.01-.05.02-.08.07-.12.18-.14.27-.06.31-.14.63-.13.95,0,.04,0,.07,0,.11,0,.02,0,.03.01.04,0,0,0,0,0,0M14.24,16.64c-.06,0-.17.03-.2.24-.05.24-.1.51-.13.77,0,0,0,0,0,0h0s0,.13-.03.13c0,0-.02,0-.04-.02,0,0,0,0,0,0-.09-.03-.17-.04-.24-.04-.49,0-.62.57-.73,1.08-.05.21-.09.4-.15.55,0-.2,0-.4,0-.6,0-.2,0-.4,0-.6.02-.17-.04-.36-.14-.47-.06-.07-.13-.1-.2-.1s-.18.04-.28.22c-.02.03-.05.1-.13.32-.02.07-.06.16-.08.23,0-.13,0-.27-.09-.38-.07-.09-.19-.15-.3-.15-.05,0-.09.01-.13.03,0,0,0,0,0,0-.12.09-.12.24-.12.38,0,.06,0,.12,0,.16-.05.24-.13.49-.2.72-.04.12-.08.25-.11.37,0-.2,0-.59.01-.78,0-.16,0-.23,0-.26.03-.24-.03-.51-.31-.56-.04-.02-.08-.04-.12-.06-.13-.07-.24-.13-.38-.13-.1,0-.2.04-.3.11-.16.12-.29.35-.34.62-.06.28-.02.54.09.7,0,0,0,0,0,0,.08.09.22.16.36.16.11,0,.2-.04.26-.11.03-.03.04-.06.06-.09,0,0,0,0,0-.01,0,.03,0,.06,0,.09,0,.06,0,.13.01.18.04.29.28.6.61.6h0s0,0,.01,0c.2-.06.27-.35.32-.6.02-.08.04-.16.06-.22,0,.04.01.07.02.11.02.11.03.23.09.34.04.08.14.13.24.13.09,0,.15-.05.18-.13,0,0,0,0,0,0,.1-.49.21-1,.42-1.48,0,0,0,0,0,0-.01.11-.03.23-.05.35-.06.41-.13.82.07,1.19,0,0,0,0,0,0,.08.12.21.2.34.2s.22-.07.26-.2c.03-.04.04-.09.05-.14,0-.03.02-.06.03-.09.09.17.27.29.45.29.14,0,.25-.08.31-.22.01-.02.03-.08.08-.26.02-.09.06-.21.08-.3.01.4.08.81.45,1.01,0,0,0,0,0,0,.06.03.11.04.16.04.27,0,.4-.35.49-.61.02-.06.04-.12.06-.16,0,0,0,0,0-.01,0-.02,0-.03,0-.03,0,0,0,0,0,0,.02,0,.05.02.09.04.07.04.15.08.25.08s.19-.05.27-.13c0,0,0,0,0,0,.02-.03.03-.06.04-.08,0,.02,0,.05,0,.08,0,.09,0,.17.02.23.03.27.32.56.56.56.09,0,.25-.04.3-.31,0,0,0,0,0,0,0-.04.06-.22.11-.4.16-.52.27-.89.2-.99-.02-.02-.04-.03-.06-.03-.02,0-.03,0-.05.01,0,0-.02.01-.02.02-.11.25-.19.53-.26.8-.04.15-.08.31-.13.47,0-.17,0-.34,0-.51,0-.07,0-.14,0-.21,0-.07,0-.14.01-.21.02-.17.03-.34-.04-.5,0,0,0,0,0,0-.05-.1-.15-.14-.24-.17-.04-.01-.08-.03-.11-.04-.11-.1-.24-.15-.37-.15-.24,0-.48.17-.57.42-.08.17-.1.35-.11.52,0,.04,0,.09-.01.13-.06.33-.15.59-.28.81-.02.04-.03.05-.04.06-.01-.02-.04-.09-.05-.33,0-.18,0-.42,0-.71.02-.54.07-1.12.1-1.44.01-.12.02-.18.02-.2.01-.15-.11-.27-.34-.32-.02,0-.04,0-.05,0h0ZM13.53,19.25c-.01-.28.05-.55.1-.82,0-.04.02-.08.02-.12.03-.12.07-.2.13-.25,0,0,0,0,.01,0,0,.02,0,.04,0,.05-.05.4-.14.79-.26,1.15h0ZM15.54,18.75c.02-.17.07-.35.15-.58.01-.04.05-.08.07-.11-.05.26-.11.53-.23.79,0-.02,0-.04,0-.05,0-.02,0-.04,0-.05h0ZM10.27,18.17s.04-.08.07-.11c-.06.32-.13.57-.22.78,0-.08.01-.14.02-.2.03-.16.08-.32.13-.48h0Z"/>
        </g>
        <g>
          <path class="cls-3" d="M8.2,20.06c-.15,0-.3-.11-.34-.25-.21-.77-.18-1.57-.13-2.24.02-.21.05-.42.11-.64.02-.08.09-.13.18-.13.11,0,.23.06.29.11.08.06.11.16.09.28-.08.57-.13,1.06-.11,1.55,0-.02,0-.03,0-.05.08-.52.17-1.07.39-1.56v-.02c.09-.17.21-.42.41-.46.02,0,.04,0,.06,0,.08,0,.16.03.22.07.12.08.16.23.18.37.07.44-.06,1.11-.42,1.45-.08.07-.19.11-.29.11-.06,0-.12-.01-.17-.04-.03-.01-.05-.03-.08-.05,0,0-.02-.01-.03-.02-.01,0-.02,0-.02,0,0,0-.01.03-.01.04,0,0,0,0,0,.01-.06.38-.09.74-.11,1.12v.11c-.01.07-.02.15-.08.19-.04.03-.09.04-.15.04ZM8.61,18.23s0,0,0,0c.07,0,.16-.13.2-.18.19-.26.31-.59.35-.94v-.04s.01-.06.02-.09c0-.02,0-.04,0-.04h0s-.1.08-.13.11c0,0-.01.02-.02.02-.15.17-.22.39-.28.63-.03.1-.06.2-.08.3l-.02.09s0,.03-.01.04c0,.03-.02.08-.01.09Z"/>
          <path class="cls-2" d="M9.17,16.68c.07,0,.15.03.21.07.11.08.15.22.17.35.08.46-.07,1.1-.42,1.43-.08.07-.18.1-.27.1-.06,0-.11-.01-.16-.04-.04-.02-.07-.04-.1-.07-.01,0-.02-.01-.03-.01,0,0,0,0,0,0h0s-.03.05-.03.07c-.07.41-.09.82-.12,1.23,0,.06-.01.13-.06.18-.04.03-.09.04-.13.04-.14,0-.28-.1-.32-.23-.2-.73-.19-1.49-.13-2.24.02-.21.05-.42.11-.63.02-.08.09-.11.16-.11.1,0,.22.05.28.11.08.06.1.16.09.26-.08.55-.14,1.11-.1,1.67,0,.02,0,.03,0,.03,0,0,0-.02.01-.04.09-.58.18-1.16.41-1.7.08-.16.2-.42.39-.46.02,0,.04,0,.06,0M8.61,18.25c.08,0,.18-.14.22-.19.2-.28.31-.61.35-.95,0-.04.01-.08.02-.12,0-.02,0-.05,0-.06h0s-.01,0-.02,0c-.05,0-.14.11-.16.14-.16.18-.23.41-.29.64-.04.13-.07.26-.11.39,0,.04-.05.13-.01.16,0,0,.01,0,.02,0M9.17,16.63s-.05,0-.07,0c-.21.04-.33.3-.41.47v.02s0,0,0,0c-.19.44-.28.91-.36,1.37,0-.41.05-.82.11-1.3.02-.13-.01-.23-.1-.3-.06-.06-.19-.12-.31-.12-.11,0-.18.05-.2.14-.06.21-.09.43-.11.64,0,0,0,0,0,0-.05.68-.08,1.48.13,2.25,0,0,0,0,0,0,.04.14.21.26.36.26.06,0,.11-.02.16-.05,0,0,0,0,0,0,.07-.06.08-.15.08-.21,0-.04,0-.08,0-.11.02-.38.05-.74.11-1.12,0,0,0,0,0-.01,0,0,0-.01,0-.02,0,0,.02.01.03.02.03.02.05.04.08.05.06.03.12.04.18.04.11,0,.22-.04.3-.11,0,0,0,0,0,0,.37-.35.51-1.02.43-1.47-.02-.14-.06-.29-.19-.38-.06-.05-.15-.08-.23-.08h0ZM9.04,17.08s.01-.01.02-.02c.04-.05.08-.08.1-.09,0,0,0,0,0,0,0,.03,0,.06-.01.09,0,.01,0,.02,0,.04-.04.34-.16.66-.34.93h0c-.07.1-.13.16-.17.17,0-.02.01-.05.01-.06,0-.02,0-.03.01-.04l.02-.09c.03-.1.05-.2.08-.3.07-.24.13-.46.28-.62h0Z"/>
        </g>
      </g>
    </g>
  </g>
</svg>