<?xml version="1.0" encoding="UTF-8"?>
<svg id="Layer_1" data-name="Layer 1" xmlns="http://www.w3.org/2000/svg" xmlns:xlink="http://www.w3.org/1999/xlink" viewBox="0 0 24.56 23.59">
  <defs>
    <style>
      .cls-1 {
        clip-path: url(#clippath-21);
      }

      .cls-2 {
        clip-path: url(#clippath-6);
      }

      .cls-3 {
        clip-path: url(#clippath-7);
      }

      .cls-4 {
        clip-path: url(#clippath-17);
      }

      .cls-5 {
        clip-path: url(#clippath-15);
      }

      .cls-6 {
        clip-path: url(#clippath-18);
      }

      .cls-7 {
        clip-path: url(#clippath-4);
      }

      .cls-8 {
        clip-path: url(#clippath-22);
      }

      .cls-9 {
        clip-path: url(#clippath-9);
      }

      .cls-10 {
        clip-path: url(#clippath-10);
      }

      .cls-11 {
        clip-path: url(#clippath-11);
      }

      .cls-12 {
        clip-path: url(#clippath-1);
      }

      .cls-13 {
        clip-path: url(#clippath-5);
      }

      .cls-14 {
        clip-path: url(#clippath-20);
      }

      .cls-15 {
        clip-path: url(#clippath-8);
      }

      .cls-16 {
        clip-path: url(#clippath-3);
      }

      .cls-17 {
        clip-path: url(#clippath-12);
      }

      .cls-18 {
        clip-path: url(#clippath-14);
      }

      .cls-19 {
        clip-path: url(#clippath-19);
      }

      .cls-20 {
        clip-path: url(#clippath-16);
      }

      .cls-21 {
        clip-path: url(#clippath-2);
      }

      .cls-22 {
        clip-path: url(#clippath-13);
      }

      .cls-23 {
        clip-path: url(#clippath);
      }

      .cls-24 {
        fill: #414042;
      }
    </style>
    <clipPath id="clippath">
      <path class="cls-24" d="M17.24,11.19s-.02.08-.03.13c0,.03,0,.07-.02.1-.12.2-.41.31-.57.47-.03.03-.05.04-.05,0,0-.08.08-.16.14-.24.08-.11.14-.22.07-.35-.02-.04-.05-.09-.09-.1-.03,0-.06.02-.08.03-.22.2-.12.43-.1.69h0s-.02.07-.05.08c-.08.05-.2.11-.29.17-.07.04-.14.08-.2.11-.06.04-.11.06-.14.08,0,0-.01,0,0-.01.05-.16.22-.25.26-.41.05-.21.02-.46-.11-.41-.05.02-.1.08-.14.19-.07.19-.06.41-.04.63,0,.03-.01.05-.04.07-.79.47-2.13.99-3.09,1.18.58.03,1.2-.23,1.74-.44.04-.02.08-.01.12,0,.17.09.3.24.5.29.11.02.32.04.37-.03.02-.03,0-.08-.02-.11-.14-.26-1.08-.12-.72-.29.06-.03.13-.06.19-.09.3-.15.3-.16.55,0,.04.03.09.06.13.08.07.04.12.08.19.1.24.08.42-.06.13-.24-.08-.05-.16-.08-.26-.09-.03,0-.06,0-.09,0-.05,0-.11,0-.15-.02-.02,0-.06-.03-.03-.05.02-.01.06-.03.1-.05.06-.03.14-.07.2-.11.06-.03.11-.06.14-.08.04-.03.05-.02.09,0,.19.15.45.34.68.21.04-.02.06-.07.04-.12-.07-.15-.29-.14-.45-.13-.06,0-.12,0-.15,0-.03,0-.04-.03-.03-.05.02-.03.09-.05.12-.07.11-.06.26-.14.37-.19.04-.03.07,0,.1.01.09.05.16.1.26.12.07.02.16.02.23,0,.07-.02.23-.07.18-.17h0c-.08-.12-.28-.09-.41-.07-.08,0-.17.04-.23.02-.01,0-.02-.01,0-.02.09-.08.67-.52.92-.72.08-.07.14-.16.17-.27.02-.07.02-.13-.01-.16-.01-.02-.03-.03-.06-.03-.1,0-.25.14-.31.34"/>
    </clipPath>
    <clipPath id="clippath-1">
      <path class="cls-24" d="M14.65,12.02c-.28.24-.23.57-.17.9,0,.03.02.03.03,0,.15-.3.39-.57.21-.89,0-.01-.02-.02-.03-.03h0s0,0,0,0c-.01,0-.02,0-.03.01"/>
    </clipPath>
    <clipPath id="clippath-2">
      <path class="cls-24" d="M15.27,11.77c-.3.2-.13.52-.16.82,0,.01,0,.04,0,.04h0s0,0,.02-.01c.2-.23.42-.57.24-.85-.01-.02-.03-.02-.05-.02-.02,0-.04,0-.06.02"/>
    </clipPath>
    <clipPath id="clippath-3">
      <path class="cls-24" d="M11.66,12.93s-.08-.03-.08-.06c0-.03.06-.03.09-.04.34-.07.72-.1,1.11-.08.03,0,.05,0,.05.02h0s-.14.12-.17.13c-.17.09-.34.13-.52.13-.16,0-.32-.03-.47-.1M10.5,13.23h0s.03-.13.04-.16c.17-.36.41-.65.83-.84.1-.03.11.02.1.11,0,.12-.03.26-.09.38-.03.07-.08.11-.15.14-.07.04-.16.09-.23.12-.14.07-.27.13-.4.21-.02.01-.07.04-.09.04,0,0,0,0,0,0M11.32,12.17c-.48.22-.73.54-.9.96-.05.13-.03.15-.15.24-.26.18-.52.4-.74.63-.06.06-.11.12-.17.18-.29.33-.56.76-.58.81,0,0,0,0,0,0,0,.01.02.02.04.03.01,0,.03,0,.03,0,.03-.05.28-.48.58-.8.14-.16.27-.29.43-.43h0c.24-.21.53-.43.83-.58.16-.08.32-.17.5-.23.08-.03.16-.07.24-.07.04,0,.08,0,.12.02.02,0,.05.02.08.03.31.17.65.16.86.09.16-.05.34-.16.46-.28.14-.12-.07-.11-.15-.12-.42-.02-.82.01-1.21.11-.03,0-.11.03-.11-.02,0-.04.02-.09.03-.13.05-.16.05-.34.05-.42,0-.03,0-.06-.03-.07-.01,0-.02,0-.04,0-.05,0-.12.03-.17.05"/>
    </clipPath>
    <clipPath id="clippath-4">
      <path class="cls-24" d="M10.05,14.14s-.13-.05-.12-.09c0-.02.05-.04.09-.06.17-.08.37-.15.56-.18.4-.07.79-.01,1.15.17.03.02.04.03.05.04,0,.02-.03.03-.05.04-.11.05-.33.13-.48.16h0c-.16.04-.32.05-.48.05-.24,0-.49-.04-.71-.14M10.13,13.85c-.1.04-.26.12-.31.15-.07.04-.06.07,0,.12.59.33,1.19.28,1.72.1.11-.04.28-.11.33-.14.02-.02.07-.03.06-.07h0s-.03-.04-.06-.06c-.33-.18-.65-.26-.96-.26-.27,0-.53.06-.77.16"/>
    </clipPath>
    <clipPath id="clippath-5">
      <path class="cls-24" d="M9.62,13.22c0-.09.03-.19.05-.28.06-.26.17-.5.37-.67h0c.06-.05.14-.1.21-.13.09-.04.12-.03.08.05-.04.1-.09.25-.13.43-.02.07-.03.15-.06.22-.08.27-.32.51-.49.59,0,0,0,0,0,0-.06,0-.03-.16-.03-.21M10.42,12.01c-.6.1-.86.64-.9,1.34,0,.06-.02.13.02.18h0s.05.01.07,0c.17-.07.41-.25.52-.46.04-.07.07-.14.1-.21.04-.13.06-.26.1-.39.03-.1.1-.3.13-.37,0-.02.02-.04.02-.05,0-.02-.02-.05-.05-.05,0,0,0,0,0,0"/>
    </clipPath>
    <clipPath id="clippath-6">
      <path class="cls-24" d="M9.15,14.04c-.15-.29-.19-.62-.1-.9h0c.02-.06.06-.17.09-.2.03-.03.04.03.05.06.02.12.05.23.1.33.07.18.03.38-.05.65-.01.04-.03.08-.06.08,0,0-.02,0-.03-.02M9.15,12.79c-.28.33-.29.78-.12,1.18.02.06.05.12.08.18.02.04.06.13.11.06.04-.07.08-.2.11-.29.06-.21.11-.43.03-.62h0c-.04-.08-.08-.22-.09-.32,0-.05-.01-.09-.01-.14,0-.08,0-.11-.03-.11-.02,0-.04.02-.08.06"/>
    </clipPath>
    <clipPath id="clippath-7">
      <path class="cls-24" d="M8.94,14.79h0c.42-.13.95-.26,1.33-.02.02.01.06.04.06.06.01.04-.05.06-.08.08-.22.08-.47.14-.69.09-.04,0-.09-.03-.13-.04-.02,0-.02,0-.02,0,.07.05.17.08.26.09.23.03.48-.02.7-.11.07-.03.12-.07.05-.14-.17-.16-.4-.22-.63-.22-.29,0-.59.09-.84.21"/>
    </clipPath>
    <clipPath id="clippath-8">
      <path class="cls-24" d="M10.84,11.52c-.55.03-1.14.3-1.51.71.44-.34.96-.59,1.52-.67.08-.01.16-.02.24-.03-.05,0-.1,0-.16,0-.03,0-.06,0-.09,0"/>
    </clipPath>
    <clipPath id="clippath-9">
      <path class="cls-24" d="M8.99,7.65h0s0,.02,0,.02h0c.09.56.3,1.09.63,1.57.31.46.73.86,1.22,1.21.48.34,1.01.6,1.59.78.58.18,1.16.28,1.73.28.32,0,.63-.03.93-.09.31-.06.6-.15.87-.27.58-.26,1.06-.65,1.43-1.15v-.02s0-.02,0-.02l-.02-.02-.02.02c-.84.81-2,1.26-3.26,1.26-2.03,0-4.42-1.22-5.06-3.55h0s0,0,0,0c0,0-.01-.01-.02-.01h-.02Z"/>
    </clipPath>
    <clipPath id="clippath-10">
      <path class="cls-24" d="M17.73,7.49h0s-.01,0-.01,0h0c.01.72-.22,1.35-.69,1.83-.56.57-1.4.89-2.32.89-.61,0-1.19-.14-1.7-.41h0s0,0,0,0c-.02-.01-.04-.02-.06-.02-.02,0-.04.01-.04.04,0,.04.06.09.06.09h0s0,0,0,0c.23.18.5.32.8.41.28.09.59.13.91.13.51,0,1.04-.11,1.52-.32.49-.21.9-.52,1.19-.88.41-.52.55-1.12.4-1.75v-.04s-.04.02-.04.02Z"/>
    </clipPath>
    <clipPath id="clippath-11">
      <path class="cls-24" d="M8.89,5.82c-.08.02-.17.04-.25.06-.24.07-.48.17-.72.29l-.09.05c-.64.34-1.19.84-1.58,1.44-.2.3-.36.62-.47.96-.12.34-.19.7-.22,1.07,0,.02,0,.03,0,.05-.05.87.16,1.72.61,2.47.22.36.48.68.79.97.31.28.66.52,1.03.7,0,0,.01,0,.02,0,0,0,.01,0,.02,0,.01,0,.02-.02.02-.03.18-.63.58-1.18,1.14-1.53,0,0,.02-.02.02-.03.08-.36.05-.81-.09-1.15-.12-.3-.32-.49-.56-.53,0,0,0,0,0,0-.03,0-.06,0-.1,0-.13,0-.28.03-.42.07-.13.03-.26.06-.36.06-.07,0-.11-.01-.13-.04-.02-.03-.04-.09-.01-.23h0s0,0,0,0h0s0-.02,0-.03c0-.04.01-.07,0-.12,0-.06-.04-.1-.06-.13-.02-.03-.04-.05-.04-.07,0,0,0,0,0,0,0-.02,0-.04,0-.06,0-.05.02-.13-.04-.19-.06-.07-.05-.1-.03-.19,0-.02.01-.04.02-.07h0s0,0,0,0h0c0-.1-.07-.16-.13-.22-.06-.05-.11-.09-.12-.15h0s0,0,0,0h0s.02-.03.04-.05c0,0,0,0,0,0,.16-.11.29-.25.38-.41.08.04.16.05.24.04.07,0,.14-.04.2-.09-.07.02-.13.04-.2.03-.07,0-.14-.02-.21-.05,0-.01.01-.03.02-.04.08-.19.11-.38.15-.58.06-.35.12-.72.45-1.07h0s0,0,0,0h0s.02-.02.03-.03c-.05.46-.01.93.11,1.41.12.48.32.93.6,1.35.28.42.61.79,1,1.07.4.3.84.51,1.3.62.03.01.04.02.05.02.02,0,.03,0,.04-.02,0-.01,0-.03,0-.04,0-.02-.02-.02-.04-.03,0,0-.02-.01-.04-.02-.16-.07-.63-.28-1.04-.56-.02-.01-.42-.29-.78-.7-.11-.12-.38-.46-.62-.96-.18-.37-.3-.77-.36-1.18l-.07-.47c-.02-.15,0-.3.06-.44.11-.25.33-.41.67-.49.22-.05.44-.07.63-.07,1.1,0,1.64.74,2.22,1.52.54.74,1.09,1.5,2.15,1.69.17.04.35.05.53.05.47,0,.97-.12,1.4-.32.42-.19.77-.49.98-.84.24-.4.3-.83.16-1.27h0s0,0,0,0h0c-.07-.19-.2-.34-.38-.46-.17-.11-.37-.17-.56-.17s-.38.06-.53.17c-.15.11-.27.28-.32.47-.05.18-.05.37,0,.53.04.12.1.22.19.29.09.07.2.1.32.1h0s0,0,0,0h0c.16-.01.3-.09.37-.22.02-.04.06-.11.04-.2,0,0,0,0,0,0-.02-.07-.06-.09-.09-.09h0s0,0,0,0h0c-.06,0-.09.07-.1.1,0,0,0,.01,0,.02h0s0,0,0,0h0c-.03.08-.09.16-.2.16-.09,0-.18-.05-.25-.13-.07-.09-.11-.2-.09-.31h0s0,0,0,0h0c.02-.42.37-.61.69-.61.23,0,.45.1.57.28.19.41.18.8-.04,1.15-.41.65-1.43,1.01-2.17,1.01-.09,0-.18,0-.26-.02h0s0,0,0,0h0c-.28-.02-.78-.23-1.2-.5-.22-.14-.41-.29-.53-.44-.16-.18-.21-.3-.19-.4.02-.09.08-.13.11-.16.07-.08.06-.29-.22-.77-.33-.57-.86-1-1.48-1.2-.01,0-.03,0-.04-.01-.49-.15-.91-.17-1.11-.17-.28,0-.56.03-.83.09"/>
    </clipPath>
    <clipPath id="clippath-12">
      <path class="cls-24" d="M3.15,11.8c0,1.24.26,2.42.73,3.48l.65-.11c-.04-.08-.08-.17-.11-.25-.42-.99-.63-2.04-.63-3.12s.21-2.13.63-3.12c.4-.95.98-1.81,1.72-2.55.74-.74,1.59-1.31,2.55-1.72.99-.42,2.04-.63,3.12-.63s2.13.21,3.12.63c.95.4,1.81.98,2.55,1.72s1.31,1.59,1.72,2.55c.42.99.63,2.04.63,3.12,0,.27-.01.54-.04.81l.65-.11c.02-.23.03-.46.03-.7,0-4.78-3.88-8.66-8.66-8.66S3.15,7.01,3.15,11.8"/>
    </clipPath>
    <clipPath id="clippath-13">
      <path class="cls-24" d="M16.93,17.96c-.6.5-1.28.91-2.01,1.22-.99.42-2.04.63-3.12.63-.89,0-1.75-.14-2.57-.42-.42.05-.85.1-1.29.15,1.16.58,2.48.91,3.86.91,2.57,0,4.88-1.12,6.46-2.9-.4.13-.85.27-1.34.4"/>
    </clipPath>
    <clipPath id="clippath-14">
      <path class="cls-24" d="M12.41,15.25s-.09.04-.13.09c-.09.11-.07.28.04.37.11.09.28.07.37-.04.09-.11.07-.28-.04-.37-.05-.04-.11-.06-.16-.06-.03,0-.05,0-.08.01"/>
    </clipPath>
    <clipPath id="clippath-15">
      <path class="cls-24" d="M10.44,16.98s0,0,0-.01c0,0,0,0,0,0,0,0,0,0,0,.01"/>
    </clipPath>
    <clipPath id="clippath-16">
      <path class="cls-24" d="M10.42,17.03s0,.02,0,.03c.01-.04.02-.06.02-.07,0,0-.01.03-.02.05"/>
    </clipPath>
    <clipPath id="clippath-17">
      <path class="cls-24" d="M9.25,15.18s-.02,0-.02.01c-.01,0-.02,0-.03.02.02.05.04.11.05.17.01.06.03.12.04.18.01.05.02.11.03.16.01.05.02.09.04.13,0,.01.03.03.06.04s.07.03.1.04c.04.01.08.02.12.02.04,0,.08,0,.1,0-.01-.06-.02-.11-.02-.16,0-.05,0-.1,0-.16,0-.06,0-.11,0-.17,0-.06,0-.11-.01-.14,0-.01-.03-.03-.07-.05-.04-.02-.09-.04-.15-.05-.05-.01-.11-.02-.16-.03-.01,0-.02,0-.03,0-.02,0-.04,0-.05,0"/>
    </clipPath>
    <clipPath id="clippath-18">
      <path class="cls-24" d="M2.93,20.22c-.07,0-.14-.02-.2-.04-.06-.02-.12-.06-.18-.11-.05-.05-.1-.11-.12-.17-.03-.1,0-.22.08-.35.08-.12.19-.24.34-.36.15-.12.33-.24.5-.33.18-.09.38-.18.58-.24.05-.01.09-.02.13-.03.04-.01.09-.02.13-.03.13-.03.26-.05.37-.07.12-.02.23-.03.35-.04-.1.21-.21.41-.33.61-.12.19-.26.37-.41.53-.14.15-.31.29-.49.41-.11.07-.25.14-.39.18-.05.02-.11.03-.16.04-.05,0-.09.01-.14.01-.02,0-.03,0-.05,0M7.1,18.35s0,0,0,0c0,0,0,0,0,0,0,0,0,0,0,0M11.16,15.34s-.05,0-.08,0c-.03,0-.04,0-.06.02,0,.02-.02.05-.04.09-.03.04-.06.08-.09.13-.03.05-.07.09-.11.14-.04.05-.08.09-.11.12-.03.03-.06.06-.08.08-.02.02-.03.01-.03,0,.02-.11.03-.17.04-.28,0-.04-.01-.08-.03-.1-.03-.05-.08-.08-.15-.08-.07,0-.15,0-.22,0,0,.04,0,.07,0,.1,0,.03,0,.07,0,.1,0,.04,0,.08-.01.12,0,.04,0,.08,0,.12,0,.04,0,.08,0,.11,0,.04.01.07.03.09.02.04.06.06.1.07,0,.05-.01.1-.02.14,0,.05-.01.09-.02.13,0,.04,0,.08-.01.12,0,.04,0,.08-.01.12,0,0,0,.01,0,.01,0,.01,0,.02,0,.04-.02.08-.04.17-.06.26-.02.09-.05.18-.08.27-.03.09-.07.17-.11.25-.04.08-.1.14-.15.19-.01,0-.02,0-.03.01-.03.01-.05,0-.07-.03-.02-.03-.03-.08-.03-.14,0-.06,0-.13,0-.22,0-.08,0-.17.01-.26,0-.09.01-.18.02-.26,0-.09.02-.17.02-.24,0-.11.01-.16.02-.27-.01-.04-.04-.07-.08-.09-.04-.02-.09-.04-.14-.04-.05,0-.1,0-.15,0-.05,0-.08.02-.1.05,0,0-.01,0-.02,0,0,.08,0,.17,0,.27,0,.1,0,.21,0,.32,0,.08,0,.16,0,.25,0,.05,0,.09,0,.14-.01.07-.02.13-.04.21-.02.09-.04.18-.07.26-.03.09-.06.17-.1.24-.04.07-.09.13-.15.18-.01,0-.02,0-.03.01-.01,0-.03-.03-.05-.07-.01-.03-.03-.07-.03-.11,0-.04-.01-.09-.02-.14,0-.05,0-.1,0-.15,0-.05,0-.1,0-.15,0-.02,0-.04,0-.06,0-.02,0-.04,0-.05,0-.04-.03-.08-.08-.1-.05-.03-.1-.04-.15-.06s-.11-.01-.17,0c-.05,0-.09.02-.12.05-.01,0-.02,0-.03.01.02.05.03.11.04.18,0,.07.02.15.01.21,0,.05-.03.13-.06.21-.03.08-.05.16-.09.23-.03.08-.07.14-.1.2-.04.06-.07.1-.11.12-.04.03-.08.04-.11.04-.03,0-.06,0-.09-.02-.03-.01-.05-.03-.07-.06-.02-.03-.03-.05-.05-.08-.02-.04-.03-.07-.03-.11,0-.04-.01-.07-.02-.1,0-.06,0-.13,0-.21,0-.08.01-.15.03-.23.01-.08.03-.16.06-.24.02-.08.06-.15.09-.22.04-.07.08-.13.13-.18.05-.05.11-.09.17-.11.04-.01.07-.01.1,0,.03,0,.06.02.08.04s.04.04.06.07c.02.03.03.05.05.08,0,0,0,.02.01.02,0,0,.01.01.01.02,0,.02.02.03.05.03.02,0,.05,0,.07-.02.02-.01.04-.03.06-.04.02-.02.02-.03.01-.05-.02-.05-.04-.09-.07-.13-.03-.04-.06-.08-.1-.11-.04-.03-.08-.06-.13-.07-.05-.02-.1-.02-.16-.01-.06,0-.13.03-.2.05-.11.04-.2.1-.28.17-.08.07-.16.16-.23.25-.07.09-.12.19-.17.3-.05.11-.08.21-.11.32-.03.1-.04.21-.05.3,0,.07,0,.14,0,.2-.09,0-.19,0-.28-.02-.1,0-.19-.02-.29-.03.02-.2.04-.4.07-.6.03-.2.06-.41.1-.61.04-.19.08-.38.13-.57.04-.17.1-.34.16-.51,0-.05-.03-.09-.07-.12-.05-.03-.1-.05-.17-.06-.06-.01-.12-.02-.17-.01-.05,0-.08.02-.09.04-.04.14-.08.3-.12.48-.04.2-.08.39-.11.59-.04.22-.07.43-.1.65-.03.22-.05.44-.07.65-.2-.03-.39-.06-.59-.07.06-.16.12-.32.16-.48.04-.16.08-.31.1-.45.02-.14.03-.27.04-.39,0-.12,0-.23-.03-.31-.02-.07-.07-.14-.13-.2-.06-.05-.13-.1-.2-.13-.08-.03-.16-.05-.25-.05-.09,0-.19.01-.28.04,0,0,0,0-.01,0-.16.05-.33.14-.46.24-.14.11-.29.24-.4.38-.11.14-.23.3-.31.46-.08.16-.15.32-.19.47-.01.05-.02.09-.03.12,0,.03-.01.06-.02.09,0,.03,0,.05,0,.08,0,.02,0,.05,0,.09,0,.02,0,.03,0,.06,0,.02.03.02.07,0,.04-.01.09-.04.14-.06.05-.03.1-.06.14-.09.04-.03.06-.06.07-.08,0,0,0,0,0,0,0-.16.04-.33.09-.5.05-.17.12-.33.21-.48.09-.15.2-.28.33-.39.13-.11.28-.19.44-.24.09-.03.18-.02.25.02.07.04.14.11.16.21.02.06.02.15,0,.26,0,.11-.03.23-.05.37-.03.14-.07.29-.11.44-.05.16-.1.32-.17.49-.14,0-.3.01-.45.03-.16.02-.32.05-.5.09-.04,0-.08.02-.12.03-.04.01-.08.02-.12.03-.24.07-.47.15-.68.26-.21.1-.39.23-.58.38-.15.12-.29.3-.37.47-.07.14-.1.37-.06.52.05.2.19.39.39.45.27.09.59.06.86,0,.21-.04.41-.13.58-.24.2-.12.37-.28.54-.45.17-.18.33-.39.47-.6.14-.22.27-.44.37-.68.11,0,.22,0,.34.01.11,0,.23.01.35.02,0,.2-.02.41-.01.61,0,.18.03.34.06.46,0,.02.03.04.08.07.05.03.1.05.15.07.05.02.1.04.14.04.04,0,.06,0,.06-.02-.03-.14-.05-.31-.06-.52,0-.23,0-.46.02-.69.05,0,.07,0,.11,0,.14,0,.21.01.35.02.02,0,.04-.02.06-.05.02-.02.04-.04.06-.07,0,0,.01-.02.02-.03,0,0,0,0,0,0,0,.01,0,.03.01.05,0,.02.01.04.02.05.02.04.04.09.08.13.04.04.08.08.13.11.05.03.12.05.2.05.08,0,.17,0,.26-.03.06-.02.11-.05.16-.09.05-.04.1-.09.14-.14.04-.05.08-.11.12-.17.04-.06.07-.12.1-.18,0,.02.01.03.02.05.04.08.1.13.18.17.08.03.19.03.32-.01.05-.02.1-.04.14-.07.04-.03.07-.06.1-.09.03-.03.05-.06.07-.09.02-.03.04-.05.05-.07.05-.08.09-.17.12-.26,0,.03.02.05.03.07.03.07.08.11.15.14.07.03.15.02.24-.02.05-.02.09-.05.13-.07.04-.03.07-.06.1-.09.03-.03.06-.06.08-.09.02-.03.04-.06.05-.08.09-.16.17-.34.22-.52.05-.17.09-.35.11-.52,0,0,0,0,0,0,0-.07.02-.15.03-.23.01-.09.03-.18.04-.27.02,0,.03-.01.04-.02.05-.02.08-.04.1-.06.02-.02.05-.04.07-.06.02-.02.04-.03.06-.05.02-.02.04-.03.07-.05,0,.01-.02.05-.03.1-.01.06-.03.12-.04.19-.01.06-.02.08-.03.14,0,.02-.01.04-.01.06,0,.02,0,.04,0,.06-.01.06-.02.13-.04.2-.01.07-.02.13-.02.19,0,.06,0,.13,0,.19,0,.06.02.12.05.17.04.07.1.12.18.15.08.03.18.02.29-.03.1-.05.19-.11.26-.19.07-.08.13-.16.17-.26.05-.09.08-.19.11-.29.03-.1.04-.19.06-.28,0-.04,0-.08.01-.12,0-.04,0-.09,0-.13,0-.03,0-.06,0-.09,0-.03,0-.06,0-.09,0-.02,0-.03-.03-.03-.02,0-.04,0-.06,0-.02,0-.04.01-.06.02-.02.01-.03.03-.03.04,0,.05,0,.12,0,.2,0,.08-.01.16-.02.24,0,.07-.03.14-.05.21-.02.07-.05.13-.07.18-.03.06-.05.1-.08.14-.03.04-.06.07-.09.08-.05.02-.09,0-.12-.04-.02-.03-.03-.07-.03-.12,0-.05,0-.1,0-.15,0-.05,0-.1.02-.15,0-.05.02-.09.02-.13.01-.05.02-.1.03-.15.01-.05.02-.1.03-.15.02-.08.03-.17.05-.25.01-.08.02-.15.03-.21,0-.06,0-.12-.01-.16s-.03-.07-.06-.08c0,0-.02,0-.04,0-.01,0-.03,0-.04,0,0,0-.02,0-.03,0"/>
    </clipPath>
    <clipPath id="clippath-19">
      <path class="cls-24" d="M21.11,12.46c-.06,0-.12.03-.18.05-.1.04-.18.1-.26.17-.08.07-.14.16-.2.25-.06.09-.11.19-.15.3-.04.11-.07.21-.09.32-.02.1-.03.21-.04.3,0,.01,0,.03,0,.04,0,.02-.01.04-.02.07-.04.17-.1.31-.16.42-.06.11-.12.19-.18.24-.02.02-.04.02-.06.01-.01,0-.02-.02-.02-.03-.02-.06-.03-.12-.04-.18,0-.05-.01-.11-.01-.16,0-.05,0-.11,0-.17,0-.06,0-.12.01-.19,0-.07.01-.17.02-.27,0-.1,0-.22.01-.33,0-.03-.02-.05-.04-.08-.03-.03-.06-.05-.1-.07-.04-.02-.08-.03-.11-.04-.04,0-.07,0-.1,0-.1.04-.2.11-.27.2-.08.09-.15.19-.21.29,0,0,0,0,0-.01,0,0,0,0,0,0,0-.04-.02-.08-.06-.11-.04-.03-.09-.05-.14-.06-.05-.01-.11-.02-.16-.01-.05,0-.11.02-.12.04-.02.06,0,.21,0,.3,0,.09-.01.19-.02.27,0,.08-.01.17-.01.26,0,.01,0,.03-.01.05-.02.08-.05.16-.07.25-.03.09-.06.17-.1.25-.04.08-.08.15-.13.22-.05.07-.1.12-.16.16-.01,0-.02,0-.03,0,0,0-.02-.03-.04-.08,0-.03-.02-.07-.02-.12,0-.05,0-.09,0-.14,0-.05,0-.1.01-.15,0-.05.01-.1.02-.15,0-.02,0-.04,0-.06,0-.02,0-.04,0-.05,0-.04-.02-.08-.06-.11-.04-.03-.08-.06-.14-.08-.05-.02-.1-.03-.16-.03-.05,0-.09,0-.12.03-.01,0-.02,0-.03,0,.01.05.01.12.01.18,0,.07,0,.15-.01.21-.01.05-.04.12-.08.2-.03.07-.07.15-.11.22-.04.07-.08.13-.12.19-.04.06-.08.09-.11.11-.04.02-.08.03-.11.03-.03,0-.06-.01-.08-.03-.02-.02-.04-.04-.06-.07-.01-.03-.03-.06-.03-.09,0-.04-.02-.07-.02-.11,0-.04,0-.07,0-.1,0-.06.01-.13.02-.2.01-.07.03-.15.05-.23.02-.08.05-.15.08-.23.03-.07.07-.14.11-.2.04-.06.09-.11.14-.16.05-.04.11-.07.17-.09.04,0,.07,0,.1,0,.03.01.05.03.07.05.02.02.04.05.05.08.01.03.03.06.04.08,0,0,0,.02.01.02,0,0,0,.02.01.02,0,.02.02.03.04.03.02,0,.05,0,.07,0,.02,0,.05-.02.06-.03.02-.01.02-.03.02-.05-.01-.05-.03-.1-.05-.14-.02-.05-.05-.09-.08-.12-.03-.04-.07-.07-.11-.09-.04-.02-.1-.03-.15-.03-.06,0-.12.01-.19.03-.1.03-.2.07-.29.13-.09.06-.17.13-.24.22-.07.08-.14.18-.2.27-.06.1-.11.2-.14.3-.04.1-.07.2-.08.29,0,0,0,.01,0,.02-.01.03-.02.06-.03.09-.07.16-.15.29-.23.39-.08.1-.15.17-.22.21-.03.02-.04.02-.06,0-.01-.01-.02-.02-.02-.04,0-.06-.01-.12-.01-.18,0-.06,0-.11.01-.17,0-.05.02-.11.03-.16.01-.06.03-.12.04-.18.02-.07.04-.16.06-.26.02-.1.04-.21.06-.33,0-.03,0-.06-.03-.09-.02-.03-.05-.06-.09-.08-.03-.02-.07-.04-.11-.06-.04-.01-.07-.02-.1-.01-.12.03-.22.08-.32.16s-.19.17-.27.27c0,0,0-.01,0-.02,0,0,0-.01,0-.02,0-.03,0-.06-.02-.09-.02-.03-.05-.06-.08-.08-.04-.02-.07-.04-.11-.06-.04-.01-.07-.02-.1-.01-.11.02-.22.07-.31.14-.1.07-.18.15-.27.25,0,0,0,0,0-.01,0,0,0,0,0,0,0-.04,0-.08-.04-.12-.04-.04-.08-.07-.13-.09-.05-.02-.11-.04-.16-.04-.05,0-.11,0-.12.02-.03.05-.04.21-.06.3-.02.09-.05.18-.07.27-.05.18-.09.37-.13.55-.04.17-.06.36-.04.54,0,.02.03.05.08.07.04.02.09.04.14.05.05.01.09.02.13.02.04,0,.06,0,.06-.03-.01-.16,0-.31.02-.46.02-.15.05-.33.11-.45.04-.09.13-.19.19-.27.06-.08.13-.17.21-.25.1-.1.16-.16.19-.17.01,0,.02.05.01.11,0,.06-.02.14-.05.23-.04.18-.08.36-.11.53-.03.17-.03.34-.01.51,0,.02.03.05.08.07.04.02.09.04.14.05.05.01.1.02.14.02.04,0,.06-.01.05-.04-.01-.11-.02-.22,0-.32,0-.11.02-.21.03-.31.02-.1.04-.2.07-.28.04-.09.12-.19.18-.28.06-.08.13-.18.2-.26.06-.07.11-.11.14-.13.03-.02.05-.01.05,0,0,.03,0,.07,0,.12,0,.04-.02.09-.03.14-.03.11-.05.2-.07.29-.02.09-.03.16-.05.23-.01.07-.02.14-.02.2,0,.06,0,.12,0,.18.01.06.03.11.06.15.03.04.07.07.11.09.04.02.09.04.14.04.05,0,.1,0,.16,0,.09-.02.17-.06.25-.12.08-.07.15-.14.21-.23.05-.07.09-.14.13-.21.01.03.03.07.05.1.03.05.07.09.11.12.05.04.11.06.18.08.07.02.16.02.25,0,.06-.01.11-.04.16-.07.05-.03.1-.07.15-.12.05-.05.09-.09.13-.15.04-.05.08-.11.11-.17,0,.02,0,.03.01.05.02.08.07.15.15.19.07.05.18.06.3.03.05-.01.1-.03.14-.05.04-.02.08-.05.11-.07.03-.03.06-.05.08-.08.02-.03.04-.05.05-.07.08-.11.15-.23.2-.36,0,.09.03.18.05.27.01.02.04.04.08.05.05.01.09.02.14.03.05,0,.09,0,.13,0,.04,0,.06-.02.05-.04-.04-.15-.06-.3-.06-.46,0-.15-.01-.33.02-.46.03-.1.09-.21.14-.3.04-.09.1-.19.15-.29.05-.08.08-.13.11-.15.03-.02.04-.02.05,0,.01.03.02.07.02.11,0,.04,0,.09,0,.14,0,.11-.02.21-.02.29,0,.09,0,.17,0,.24,0,.07,0,.14,0,.2,0,.06.02.12.04.18.02.06.05.11.08.14.04.04.08.06.12.08.04.02.09.02.14.02.05,0,.1-.01.15-.03.08-.03.16-.08.22-.16.06-.08.12-.16.16-.25.04-.07.07-.15.09-.22.02.03.03.06.06.09.03.04.08.08.13.1.05.03.11.05.19.05.07,0,.16,0,.24-.03.05-.02.1-.05.15-.09.04-.04.09-.09.12-.14.04-.05.07-.11.1-.17.03-.06.06-.12.08-.18,0,.02.01.03.02.05.04.08.09.13.17.17.08.03.18.03.3-.01.05-.02.1-.04.13-.07.04-.03.07-.06.09-.09.03-.03.05-.06.06-.09.02-.03.03-.05.04-.07.07-.14.12-.29.15-.44.03-.15.05-.29.07-.44,0-.03,0-.05,0-.08,0-.03,0-.05,0-.08,0-.02,0-.03-.02-.04-.02,0-.04,0-.06,0-.02,0-.04,0-.06.02-.02.01-.03.02-.03.04,0,.02,0,.04,0,.06,0,.02,0,.04,0,.06,0,.08-.02.17-.03.26-.01.09-.03.18-.05.26-.02.09-.05.16-.09.24-.04.07-.08.13-.13.18-.01,0-.02,0-.03.01-.01,0-.03-.03-.05-.07-.01-.03-.03-.07-.03-.11,0-.04-.02-.09-.02-.14,0-.05,0-.1-.01-.15,0-.05,0-.1,0-.15,0-.02,0-.04,0-.06,0-.02,0-.04,0-.05,0-.04-.03-.08-.07-.1-.04-.03-.09-.04-.14-.05-.05-.01-.1-.01-.16,0-.05,0-.09.02-.11.05,0,0-.01,0-.02.01.02.05.03.11.04.18,0,.07.02.15.02.21,0,.05-.02.13-.05.21-.02.08-.05.16-.07.23-.03.08-.06.14-.09.2-.03.06-.06.1-.09.12-.04.03-.07.04-.1.04-.03,0-.06,0-.08-.02-.03-.01-.05-.03-.06-.06-.02-.02-.03-.05-.05-.08-.02-.03-.03-.07-.03-.11,0-.04-.01-.07-.02-.1,0-.06,0-.13,0-.21,0-.08,0-.15.02-.23.01-.08.03-.16.05-.24.02-.08.05-.15.08-.22.03-.07.07-.13.11-.18.04-.05.1-.09.15-.11.03-.01.07-.01.1,0,.03,0,.06.02.08.04.02.02.04.04.06.07.02.03.03.05.05.07,0,0,0,.02.01.02,0,0,.01.01.01.02,0,.02.02.03.05.03.02,0,.04,0,.07-.02.02-.01.04-.03.06-.04.02-.02.02-.03.01-.05-.02-.05-.04-.09-.07-.13-.03-.04-.06-.08-.09-.11-.04-.03-.08-.06-.12-.07-.02,0-.03,0-.05-.01-.01,0-.03,0-.04,0-.02,0-.04,0-.06,0"/>
    </clipPath>
    <clipPath id="clippath-20">
      <path class="cls-24" d="M12.73,16.58c-.06.02-.12.09-.19.2-.07.11-.14.27-.22.46-.08.2-.15.43-.23.71-.08.28-.16.59-.24.93-.12.05-.22.09-.28.13-.07.04-.12.09-.14.13-.03.04-.05.1-.07.17-.02.07-.03.14-.05.21,0,.03,0,.06,0,.08.01.04.04.05.09.03.03-.01.08-.05.14-.1.06-.06.11-.1.15-.13.04-.03.09-.05.14-.07.1-.04.22-.07.36-.09.13-.02.28-.04.44-.05.16-.01.27-.03.34-.04.07-.01.12-.03.15-.06.02-.02.04-.05.06-.11.02-.06.07-.17.13-.32-.09.02-.24.04-.44.06-.2.01-.35.03-.46.04-.1.01-.23.04-.39.08.03-.15.1-.41.21-.78.09-.33.18-.58.25-.77.08-.19.13-.29.16-.3.02,0,.03,0,.04.02,0,.02-.01.17-.07.44-.07.31-.08.52-.04.64.02.05.04.07.07.06.03-.01.07-.06.12-.13.05-.08.1-.19.15-.34l-.07-.03c.08-.51.1-.83.05-.97-.01-.04-.04-.07-.07-.08-.02,0-.03-.01-.05-.01s-.04,0-.06.01"/>
    </clipPath>
    <clipPath id="clippath-21">
      <path class="cls-24" d="M14.36,17.11s-.05.03-.07.07c-.02.04-.06.12-.11.23-.02.05-.05.13-.08.22-.03.1-.06.17-.09.23-.04.07-.09.15-.14.25-.05.09-.09.16-.11.19-.02.03-.04.05-.06.06-.04.01-.06,0-.08-.05-.01-.03-.02-.09-.02-.16.07-.11.13-.21.17-.32.05-.1.08-.19.09-.25.01-.06.02-.11.01-.13,0-.01-.02-.01-.06-.01-.04,0-.07,0-.11.02-.05.02-.08.04-.1.05-.02.02-.03.04-.05.08-.01.04-.03.08-.05.13-.03.08-.06.16-.08.22-.02.06-.03.12-.04.17,0,.05,0,.1,0,.14,0,.04.02.08.03.13.02.07.06.13.1.18.04.05.09.09.14.11.05.02.09.03.14.01.05-.02.11-.09.16-.21.05-.12.12-.32.21-.6-.01.16-.02.28-.02.36,0,.08,0,.15.02.19.04.11.11.15.2.12.04-.02.08-.05.12-.09.04-.04.08-.11.12-.18.04-.08.11-.2.2-.37l-.04-.11c-.07.12-.13.21-.17.25-.04.05-.08.08-.12.1-.05.02-.08,0-.1-.06,0-.03-.01-.07,0-.13,0-.06.01-.12.03-.18.03-.11.05-.2.07-.27.02-.08.03-.13.04-.16,0-.03,0-.05,0-.07,0-.02,0-.04-.01-.06-.02-.05-.04-.08-.05-.1,0,0-.02-.01-.03-.01,0,0-.02,0-.03,0"/>
    </clipPath>
    <clipPath id="clippath-22">
      <path class="cls-24" d="M16.01,17.07c.02-.07.04-.13.07-.19.03-.06.07-.11.1-.15.04-.04.06-.07.08-.07.02,0,.04,0,.05.03,0,.02,0,.07,0,.14-.02.07-.05.14-.1.23-.05.08-.12.16-.21.24-.01-.07-.01-.14,0-.21M16.3,16.43c-.07.02-.14.07-.21.14-.07.07-.14.15-.2.26-.09.15-.14.29-.16.4-.01.08-.01.15,0,.23v-.03c-.08.13-.13.22-.16.27-.03.05-.07.08-.1.09-.04.01-.08,0-.11-.04-.03-.04-.07-.11-.11-.21l.12-.35s.04,0,.07-.01c.02,0,.05-.06.08-.16.03-.1.04-.17.03-.2,0-.02-.01-.03-.03-.04-.01,0-.03,0-.04,0-.05.02-.15.2-.3.56-.02-.08-.04-.13-.06-.17-.01-.04-.02-.07-.03-.1,0-.02-.02-.05-.03-.08-.02-.04-.04-.07-.06-.09-.02-.02-.05-.02-.07-.02-.04.01-.08.07-.14.17-.06.1-.1.2-.14.31-.04.11-.05.18-.04.21.01.03.02.05.04.04.01,0,.03-.03.06-.09.03-.05.06-.1.09-.14.03-.04.06-.07.1-.1l.14.4-.11.29s-.03,0-.03,0c-.02,0-.04.06-.06.16-.02.1-.02.17,0,.21,0,.03.02.04.04.03.02,0,.03-.02.04-.04.01-.02.03-.05.04-.08.02-.03.04-.09.07-.16.03-.08.06-.14.09-.2.06.13.11.22.15.27.05.05.1.07.16.05.09-.03.2-.25.31-.64,0,0,0,.01,0,.02.05.14.12.23.2.29.09.06.18.07.28.03.11-.04.21-.12.3-.25.08-.12.16-.28.23-.48l-.04-.1c-.06.1-.11.19-.15.25-.04.06-.09.12-.14.17-.05.05-.1.08-.16.1-.05.02-.1.02-.15,0-.05-.03-.08-.07-.11-.14l-.02-.04c.14-.12.25-.24.33-.35.08-.11.14-.21.17-.3.03-.09.03-.17,0-.24-.02-.05-.05-.08-.09-.09-.02,0-.03,0-.05,0-.03,0-.06,0-.09.02"/>
    </clipPath>
  </defs>
  <g>
    <path class="cls-24" d="M17.24,11.19s-.02.08-.03.13c0,.03,0,.07-.02.1-.12.2-.41.31-.57.47-.03.03-.05.04-.05,0,0-.08.08-.16.14-.24.08-.11.14-.22.07-.35-.02-.04-.05-.09-.09-.1-.03,0-.06.02-.08.03-.22.2-.12.43-.1.69h0s-.02.07-.05.08c-.08.05-.2.11-.29.17-.07.04-.14.08-.2.11-.06.04-.11.06-.14.08,0,0-.01,0,0-.01.05-.16.22-.25.26-.41.05-.21.02-.46-.11-.41-.05.02-.1.08-.14.19-.07.19-.06.41-.04.63,0,.03-.01.05-.04.07-.79.47-2.13.99-3.09,1.18.58.03,1.2-.23,1.74-.44.04-.02.08-.01.12,0,.17.09.3.24.5.29.11.02.32.04.37-.03.02-.03,0-.08-.02-.11-.14-.26-1.08-.12-.72-.29.06-.03.13-.06.19-.09.3-.15.3-.16.55,0,.04.03.09.06.13.08.07.04.12.08.19.1.24.08.42-.06.13-.24-.08-.05-.16-.08-.26-.09-.03,0-.06,0-.09,0-.05,0-.11,0-.15-.02-.02,0-.06-.03-.03-.05.02-.01.06-.03.1-.05.06-.03.14-.07.2-.11.06-.03.11-.06.14-.08.04-.03.05-.02.09,0,.19.15.45.34.68.21.04-.02.06-.07.04-.12-.07-.15-.29-.14-.45-.13-.06,0-.12,0-.15,0-.03,0-.04-.03-.03-.05.02-.03.09-.05.12-.07.11-.06.26-.14.37-.19.04-.03.07,0,.1.01.09.05.16.1.26.12.07.02.16.02.23,0,.07-.02.23-.07.18-.17h0c-.08-.12-.28-.09-.41-.07-.08,0-.17.04-.23.02-.01,0-.02-.01,0-.02.09-.08.67-.52.92-.72.08-.07.14-.16.17-.27.02-.07.02-.13-.01-.16-.01-.02-.03-.03-.06-.03-.1,0-.25.14-.31.34"/>
    <g class="cls-23">
      <rect class="cls-24" x="12.65" y="10.85" width="4.99" height="2.76"/>
    </g>
  </g>
  <g>
    <path class="cls-24" d="M14.65,12.02c-.28.24-.23.57-.17.9,0,.03.02.03.03,0,.15-.3.39-.57.21-.89,0-.01-.02-.02-.03-.03h0s0,0,0,0c-.01,0-.02,0-.03.01"/>
    <g class="cls-12">
      <rect class="cls-24" x="14.37" y="12" width=".53" height=".95"/>
    </g>
  </g>
  <g>
    <path class="cls-24" d="M15.27,11.77c-.3.2-.13.52-.16.82,0,.01,0,.04,0,.04h0s0,0,.02-.01c.2-.23.42-.57.24-.85-.01-.02-.03-.02-.05-.02-.02,0-.04,0-.06.02"/>
    <g class="cls-21">
      <rect class="cls-24" x="14.97" y="11.75" width=".59" height=".88"/>
    </g>
  </g>
  <g>
    <path class="cls-24" d="M11.66,12.93s-.08-.03-.08-.06c0-.03.06-.03.09-.04.34-.07.72-.1,1.11-.08.03,0,.05,0,.05.02h0s-.14.12-.17.13c-.17.09-.34.13-.52.13-.16,0-.32-.03-.47-.1M10.5,13.23h0s.03-.13.04-.16c.17-.36.41-.65.83-.84.1-.03.11.02.1.11,0,.12-.03.26-.09.38-.03.07-.08.11-.15.14-.07.04-.16.09-.23.12-.14.07-.27.13-.4.21-.02.01-.07.04-.09.04,0,0,0,0,0,0M11.32,12.17c-.48.22-.73.54-.9.96-.05.13-.03.15-.15.24-.26.18-.52.4-.74.63-.06.06-.11.12-.17.18-.29.33-.56.76-.58.81,0,0,0,0,0,0,0,.01.02.02.04.03.01,0,.03,0,.03,0,.03-.05.28-.48.58-.8.14-.16.27-.29.43-.43h0c.24-.21.53-.43.83-.58.16-.08.32-.17.5-.23.08-.03.16-.07.24-.07.04,0,.08,0,.12.02.02,0,.05.02.08.03.31.17.65.16.86.09.16-.05.34-.16.46-.28.14-.12-.07-.11-.15-.12-.42-.02-.82.01-1.21.11-.03,0-.11.03-.11-.02,0-.04.02-.09.03-.13.05-.16.05-.34.05-.42,0-.03,0-.06-.03-.07-.01,0-.02,0-.04,0-.05,0-.12.03-.17.05"/>
    <g class="cls-16">
      <rect class="cls-24" x="8.78" y="12.12" width="4.3" height="2.91"/>
    </g>
  </g>
  <g>
    <path class="cls-24" d="M10.05,14.14s-.13-.05-.12-.09c0-.02.05-.04.09-.06.17-.08.37-.15.56-.18.4-.07.79-.01,1.15.17.03.02.04.03.05.04,0,.02-.03.03-.05.04-.11.05-.33.13-.48.16h0c-.16.04-.32.05-.48.05-.24,0-.49-.04-.71-.14M10.13,13.85c-.1.04-.26.12-.31.15-.07.04-.06.07,0,.12.59.33,1.19.28,1.72.1.11-.04.28-.11.33-.14.02-.02.07-.03.06-.07h0s-.03-.04-.06-.06c-.33-.18-.65-.26-.96-.26-.27,0-.53.06-.77.16"/>
    <g class="cls-7">
      <rect class="cls-24" x="9.76" y="13.69" width="2.19" height=".75"/>
    </g>
  </g>
  <g>
    <path class="cls-24" d="M9.62,13.22c0-.09.03-.19.05-.28.06-.26.17-.5.37-.67h0c.06-.05.14-.1.21-.13.09-.04.12-.03.08.05-.04.1-.09.25-.13.43-.02.07-.03.15-.06.22-.08.27-.32.51-.49.59,0,0,0,0,0,0-.06,0-.03-.16-.03-.21M10.42,12.01c-.6.1-.86.64-.9,1.34,0,.06-.02.13.02.18h0s.05.01.07,0c.17-.07.41-.25.52-.46.04-.07.07-.14.1-.21.04-.13.06-.26.1-.39.03-.1.1-.3.13-.37,0-.02.02-.04.02-.05,0-.02-.02-.05-.05-.05,0,0,0,0,0,0"/>
    <g class="cls-13">
      <rect class="cls-24" x="9.5" y="12.01" width=".97" height="1.55"/>
    </g>
  </g>
  <g>
    <path class="cls-24" d="M9.15,14.04c-.15-.29-.19-.62-.1-.9h0c.02-.06.06-.17.09-.2.03-.03.04.03.05.06.02.12.05.23.1.33.07.18.03.38-.05.65-.01.04-.03.08-.06.08,0,0-.02,0-.03-.02M9.15,12.79c-.28.33-.29.78-.12,1.18.02.06.05.12.08.18.02.04.06.13.11.06.04-.07.08-.2.11-.29.06-.21.11-.43.03-.62h0c-.04-.08-.08-.22-.09-.32,0-.05-.01-.09-.01-.14,0-.08,0-.11-.03-.11-.02,0-.04.02-.08.06"/>
    <g class="cls-2">
      <rect class="cls-24" x="8.87" y="12.73" width=".58" height="1.56"/>
    </g>
  </g>
  <g>
    <path class="cls-24" d="M8.94,14.79h0c.42-.13.95-.26,1.33-.02.02.01.06.04.06.06.01.04-.05.06-.08.08-.22.08-.47.14-.69.09-.04,0-.09-.03-.13-.04-.02,0-.02,0-.02,0,.07.05.17.08.26.09.23.03.48-.02.7-.11.07-.03.12-.07.05-.14-.17-.16-.4-.22-.63-.22-.29,0-.59.09-.84.21"/>
    <g class="cls-3">
      <rect class="cls-24" x="8.94" y="14.53" width="1.55" height=".54"/>
    </g>
  </g>
  <g>
    <path class="cls-24" d="M10.84,11.52c-.55.03-1.14.3-1.51.71.44-.34.96-.59,1.52-.67.08-.01.16-.02.24-.03-.05,0-.1,0-.16,0-.03,0-.06,0-.09,0"/>
    <g class="cls-15">
      <rect class="cls-24" x="9.33" y="11.52" width="1.76" height=".71"/>
    </g>
  </g>
  <g>
    <path class="cls-24" d="M8.99,7.65h0s0,.02,0,.02h0c.09.56.3,1.09.63,1.57.31.46.73.86,1.22,1.21.48.34,1.01.6,1.59.78.58.18,1.16.28,1.73.28.32,0,.63-.03.93-.09.31-.06.6-.15.87-.27.58-.26,1.06-.65,1.43-1.15v-.02s0-.02,0-.02l-.02-.02-.02.02c-.84.81-2,1.26-3.26,1.26-2.03,0-4.42-1.22-5.06-3.55h0s0,0,0,0c0,0-.01-.01-.02-.01h-.02Z"/>
    <g class="cls-9">
      <rect class="cls-24" x="8.98" y="7.65" width="8.43" height="3.87"/>
    </g>
  </g>
  <g>
    <path class="cls-24" d="M17.73,7.49h0s-.01,0-.01,0h0c.01.72-.22,1.35-.69,1.83-.56.57-1.4.89-2.32.89-.61,0-1.19-.14-1.7-.41h0s0,0,0,0c-.02-.01-.04-.02-.06-.02-.02,0-.04.01-.04.04,0,.04.06.09.06.09h0s0,0,0,0c.23.18.5.32.8.41.28.09.59.13.91.13.51,0,1.04-.11,1.52-.32.49-.21.9-.52,1.19-.88.41-.52.55-1.12.4-1.75v-.04s-.04.02-.04.02Z"/>
    <g class="cls-10">
      <rect class="cls-24" x="12.9" y="7.47" width="5.02" height="2.98"/>
    </g>
  </g>
  <g>
    <path class="cls-24" d="M8.89,5.82c-.08.02-.17.04-.25.06-.24.07-.48.17-.72.29l-.09.05c-.64.34-1.19.84-1.58,1.44-.2.3-.36.62-.47.96-.12.34-.19.7-.22,1.07,0,.02,0,.03,0,.05-.05.87.16,1.72.61,2.47.22.36.48.68.79.97.31.28.66.52,1.03.7,0,0,.01,0,.02,0,0,0,.01,0,.02,0,.01,0,.02-.02.02-.03.18-.63.58-1.18,1.14-1.53,0,0,.02-.02.02-.03.08-.36.05-.81-.09-1.15-.12-.3-.32-.49-.56-.53,0,0,0,0,0,0-.03,0-.06,0-.1,0-.13,0-.28.03-.42.07-.13.03-.26.06-.36.06-.07,0-.11-.01-.13-.04-.02-.03-.04-.09-.01-.23h0s0,0,0,0h0s0-.02,0-.03c0-.04.01-.07,0-.12,0-.06-.04-.1-.06-.13-.02-.03-.04-.05-.04-.07,0,0,0,0,0,0,0-.02,0-.04,0-.06,0-.05.02-.13-.04-.19-.06-.07-.05-.1-.03-.19,0-.02.01-.04.02-.07h0s0,0,0,0h0c0-.1-.07-.16-.13-.22-.06-.05-.11-.09-.12-.15h0s0,0,0,0h0s.02-.03.04-.05c0,0,0,0,0,0,.16-.11.29-.25.38-.41.08.04.16.05.24.04.07,0,.14-.04.2-.09-.07.02-.13.04-.2.03-.07,0-.14-.02-.21-.05,0-.01.01-.03.02-.04.08-.19.11-.38.15-.58.06-.35.12-.72.45-1.07h0s0,0,0,0h0s.02-.02.03-.03c-.05.46-.01.93.11,1.41.12.48.32.93.6,1.35.28.42.61.79,1,1.07.4.3.84.51,1.3.62.03.01.04.02.05.02.02,0,.03,0,.04-.02,0-.01,0-.03,0-.04,0-.02-.02-.02-.04-.03,0,0-.02-.01-.04-.02-.16-.07-.63-.28-1.04-.56-.02-.01-.42-.29-.78-.7-.11-.12-.38-.46-.62-.96-.18-.37-.3-.77-.36-1.18l-.07-.47c-.02-.15,0-.3.06-.44.11-.25.33-.41.67-.49.22-.05.44-.07.63-.07,1.1,0,1.64.74,2.22,1.52.54.74,1.09,1.5,2.15,1.69.17.04.35.05.53.05.47,0,.97-.12,1.4-.32.42-.19.77-.49.98-.84.24-.4.3-.83.16-1.27h0s0,0,0,0h0c-.07-.19-.2-.34-.38-.46-.17-.11-.37-.17-.56-.17s-.38.06-.53.17c-.15.11-.27.28-.32.47-.05.18-.05.37,0,.53.04.12.1.22.19.29.09.07.2.1.32.1h0s0,0,0,0h0c.16-.01.3-.09.37-.22.02-.04.06-.11.04-.2,0,0,0,0,0,0-.02-.07-.06-.09-.09-.09h0s0,0,0,0h0c-.06,0-.09.07-.1.1,0,0,0,.01,0,.02h0s0,0,0,0h0c-.03.08-.09.16-.2.16-.09,0-.18-.05-.25-.13-.07-.09-.11-.2-.09-.31h0s0,0,0,0h0c.02-.42.37-.61.69-.61.23,0,.45.1.57.28.19.41.18.8-.04,1.15-.41.65-1.43,1.01-2.17,1.01-.09,0-.18,0-.26-.02h0s0,0,0,0h0c-.28-.02-.78-.23-1.2-.5-.22-.14-.41-.29-.53-.44-.16-.18-.21-.3-.19-.4.02-.09.08-.13.11-.16.07-.08.06-.29-.22-.77-.33-.57-.86-1-1.48-1.2-.01,0-.03,0-.04-.01-.49-.15-.91-.17-1.11-.17-.28,0-.56.03-.83.09"/>
    <g class="cls-11">
      <rect class="cls-24" x="5.51" y="5.73" width="11.85" height="8.17"/>
    </g>
  </g>
  <g>
    <path class="cls-24" d="M3.15,11.8c0,1.24.26,2.42.73,3.48l.65-.11c-.04-.08-.08-.17-.11-.25-.42-.99-.63-2.04-.63-3.12s.21-2.13.63-3.12c.4-.95.98-1.81,1.72-2.55.74-.74,1.59-1.31,2.55-1.72.99-.42,2.04-.63,3.12-.63s2.13.21,3.12.63c.95.4,1.81.98,2.55,1.72s1.31,1.59,1.72,2.55c.42.99.63,2.04.63,3.12,0,.27-.01.54-.04.81l.65-.11c.02-.23.03-.46.03-.7,0-4.78-3.88-8.66-8.66-8.66S3.15,7.01,3.15,11.8"/>
    <g class="cls-17">
      <rect class="cls-24" x="3.15" y="3.14" width="17.31" height="12.14"/>
    </g>
  </g>
  <g>
    <path class="cls-24" d="M16.93,17.96c-.6.5-1.28.91-2.01,1.22-.99.42-2.04.63-3.12.63-.89,0-1.75-.14-2.57-.42-.42.05-.85.1-1.29.15,1.16.58,2.48.91,3.86.91,2.57,0,4.88-1.12,6.46-2.9-.4.13-.85.27-1.34.4"/>
    <g class="cls-22">
      <rect class="cls-24" x="7.94" y="17.56" width="10.32" height="2.9"/>
    </g>
  </g>
  <g>
    <path class="cls-24" d="M12.41,15.25s-.09.04-.13.09c-.09.11-.07.28.04.37.11.09.28.07.37-.04.09-.11.07-.28-.04-.37-.05-.04-.11-.06-.16-.06-.03,0-.05,0-.08.01"/>
    <g class="cls-18">
      <rect class="cls-24" x="12.15" y="15.17" width=".68" height=".7" transform="translate(-5.42 24.24) rotate(-77.15)"/>
    </g>
  </g>
  <g>
    <path class="cls-24" d="M10.44,16.98s0,0,0-.01c0,0,0,0,0,0,0,0,0,0,0,.01"/>
    <g class="cls-5">
      <rect class="cls-24" x="10.43" y="16.97" width=".01" height="0" transform="translate(-9.48 17.53) rotate(-60.01)"/>
    </g>
  </g>
  <g>
    <path class="cls-24" d="M10.42,17.03s0,.02,0,.03c.01-.04.02-.06.02-.07,0,0-.01.03-.02.05"/>
    <g class="cls-20">
      <rect class="cls-24" x="10.39" y="16.99" width=".07" height=".06" transform="translate(-9.53 17.54) rotate(-60)"/>
    </g>
  </g>
  <g>
    <path class="cls-24" d="M9.25,15.18s-.02,0-.02.01c-.01,0-.02,0-.03.02.02.05.04.11.05.17.01.06.03.12.04.18.01.05.02.11.03.16.01.05.02.09.04.13,0,.01.03.03.06.04s.07.03.1.04c.04.01.08.02.12.02.04,0,.08,0,.1,0-.01-.06-.02-.11-.02-.16,0-.05,0-.1,0-.16,0-.06,0-.11,0-.17,0-.06,0-.11-.01-.14,0-.01-.03-.03-.07-.05-.04-.02-.09-.04-.15-.05-.05-.01-.11-.02-.16-.03-.01,0-.02,0-.03,0-.02,0-.04,0-.05,0"/>
    <g class="cls-4">
      <rect class="cls-24" x="9.03" y="15.21" width=".87" height=".7" transform="translate(-7.81 21.33) rotate(-77.15)"/>
    </g>
  </g>
  <g>
    <path class="cls-24" d="M2.93,20.22c-.07,0-.14-.02-.2-.04-.06-.02-.12-.06-.18-.11-.05-.05-.1-.11-.12-.17-.03-.1,0-.22.08-.35.08-.12.19-.24.34-.36.15-.12.33-.24.5-.33.18-.09.38-.18.58-.24.05-.01.09-.02.13-.03.04-.01.09-.02.13-.03.13-.03.26-.05.37-.07.12-.02.23-.03.35-.04-.1.21-.21.41-.33.61-.12.19-.26.37-.41.53-.14.15-.31.29-.49.41-.11.07-.25.14-.39.18-.05.02-.11.03-.16.04-.05,0-.09.01-.14.01-.02,0-.03,0-.05,0M7.1,18.35s0,0,0,0c0,0,0,0,0,0,0,0,0,0,0,0M11.16,15.34s-.05,0-.08,0c-.03,0-.04,0-.06.02,0,.02-.02.05-.04.09-.03.04-.06.08-.09.13-.03.05-.07.09-.11.14-.04.05-.08.09-.11.12-.03.03-.06.06-.08.08-.02.02-.03.01-.03,0,.02-.11.03-.17.04-.28,0-.04-.01-.08-.03-.1-.03-.05-.08-.08-.15-.08-.07,0-.15,0-.22,0,0,.04,0,.07,0,.1,0,.03,0,.07,0,.1,0,.04,0,.08-.01.12,0,.04,0,.08,0,.12,0,.04,0,.08,0,.11,0,.04.01.07.03.09.02.04.06.06.1.07,0,.05-.01.1-.02.14,0,.05-.01.09-.02.13,0,.04,0,.08-.01.12,0,.04,0,.08-.01.12,0,0,0,.01,0,.01,0,.01,0,.02,0,.04-.02.08-.04.17-.06.26-.02.09-.05.18-.08.27-.03.09-.07.17-.11.25-.04.08-.1.14-.15.19-.01,0-.02,0-.03.01-.03.01-.05,0-.07-.03-.02-.03-.03-.08-.03-.14,0-.06,0-.13,0-.22,0-.08,0-.17.01-.26,0-.09.01-.18.02-.26,0-.09.02-.17.02-.24,0-.11.01-.16.02-.27-.01-.04-.04-.07-.08-.09-.04-.02-.09-.04-.14-.04-.05,0-.1,0-.15,0-.05,0-.08.02-.1.05,0,0-.01,0-.02,0,0,.08,0,.17,0,.27,0,.1,0,.21,0,.32,0,.08,0,.16,0,.25,0,.05,0,.09,0,.14-.01.07-.02.13-.04.21-.02.09-.04.18-.07.26-.03.09-.06.17-.1.24-.04.07-.09.13-.15.18-.01,0-.02,0-.03.01-.01,0-.03-.03-.05-.07-.01-.03-.03-.07-.03-.11,0-.04-.01-.09-.02-.14,0-.05,0-.1,0-.15,0-.05,0-.1,0-.15,0-.02,0-.04,0-.06,0-.02,0-.04,0-.05,0-.04-.03-.08-.08-.1-.05-.03-.1-.04-.15-.06s-.11-.01-.17,0c-.05,0-.09.02-.12.05-.01,0-.02,0-.03.01.02.05.03.11.04.18,0,.07.02.15.01.21,0,.05-.03.13-.06.21-.03.08-.05.16-.09.23-.03.08-.07.14-.1.2-.04.06-.07.1-.11.12-.04.03-.08.04-.11.04-.03,0-.06,0-.09-.02-.03-.01-.05-.03-.07-.06-.02-.03-.03-.05-.05-.08-.02-.04-.03-.07-.03-.11,0-.04-.01-.07-.02-.1,0-.06,0-.13,0-.21,0-.08.01-.15.03-.23.01-.08.03-.16.06-.24.02-.08.06-.15.09-.22.04-.07.08-.13.13-.18.05-.05.11-.09.17-.11.04-.01.07-.01.1,0,.03,0,.06.02.08.04s.04.04.06.07c.02.03.03.05.05.08,0,0,0,.02.01.02,0,0,.01.01.01.02,0,.02.02.03.05.03.02,0,.05,0,.07-.02.02-.01.04-.03.06-.04.02-.02.02-.03.01-.05-.02-.05-.04-.09-.07-.13-.03-.04-.06-.08-.1-.11-.04-.03-.08-.06-.13-.07-.05-.02-.1-.02-.16-.01-.06,0-.13.03-.2.05-.11.04-.2.1-.28.17-.08.07-.16.16-.23.25-.07.09-.12.19-.17.3-.05.11-.08.21-.11.32-.03.1-.04.21-.05.3,0,.07,0,.14,0,.2-.09,0-.19,0-.28-.02-.1,0-.19-.02-.29-.03.02-.2.04-.4.07-.6.03-.2.06-.41.1-.61.04-.19.08-.38.13-.57.04-.17.1-.34.16-.51,0-.05-.03-.09-.07-.12-.05-.03-.1-.05-.17-.06-.06-.01-.12-.02-.17-.01-.05,0-.08.02-.09.04-.04.14-.08.3-.12.48-.04.2-.08.39-.11.59-.04.22-.07.43-.1.65-.03.22-.05.44-.07.65-.2-.03-.39-.06-.59-.07.06-.16.12-.32.16-.48.04-.16.08-.31.1-.45.02-.14.03-.27.04-.39,0-.12,0-.23-.03-.31-.02-.07-.07-.14-.13-.2-.06-.05-.13-.1-.2-.13-.08-.03-.16-.05-.25-.05-.09,0-.19.01-.28.04,0,0,0,0-.01,0-.16.05-.33.14-.46.24-.14.11-.29.24-.4.38-.11.14-.23.3-.31.46-.08.16-.15.32-.19.47-.01.05-.02.09-.03.12,0,.03-.01.06-.02.09,0,.03,0,.05,0,.08,0,.02,0,.05,0,.09,0,.02,0,.03,0,.06,0,.02.03.02.07,0,.04-.01.09-.04.14-.06.05-.03.1-.06.14-.09.04-.03.06-.06.07-.08,0,0,0,0,0,0,0-.16.04-.33.09-.5.05-.17.12-.33.21-.48.09-.15.2-.28.33-.39.13-.11.28-.19.44-.24.09-.03.18-.02.25.02.07.04.14.11.16.21.02.06.02.15,0,.26,0,.11-.03.23-.05.37-.03.14-.07.29-.11.44-.05.16-.1.32-.17.49-.14,0-.3.01-.45.03-.16.02-.32.05-.5.09-.04,0-.08.02-.12.03-.04.01-.08.02-.12.03-.24.07-.47.15-.68.26-.21.1-.39.23-.58.38-.15.12-.29.3-.37.47-.07.14-.1.37-.06.52.05.2.19.39.39.45.27.09.59.06.86,0,.21-.04.41-.13.58-.24.2-.12.37-.28.54-.45.17-.18.33-.39.47-.6.14-.22.27-.44.37-.68.11,0,.22,0,.34.01.11,0,.23.01.35.02,0,.2-.02.41-.01.61,0,.18.03.34.06.46,0,.02.03.04.08.07.05.03.1.05.15.07.05.02.1.04.14.04.04,0,.06,0,.06-.02-.03-.14-.05-.31-.06-.52,0-.23,0-.46.02-.69.05,0,.07,0,.11,0,.14,0,.21.01.35.02.02,0,.04-.02.06-.05.02-.02.04-.04.06-.07,0,0,.01-.02.02-.03,0,0,0,0,0,0,0,.01,0,.03.01.05,0,.02.01.04.02.05.02.04.04.09.08.13.04.04.08.08.13.11.05.03.12.05.2.05.08,0,.17,0,.26-.03.06-.02.11-.05.16-.09.05-.04.1-.09.14-.14.04-.05.08-.11.12-.17.04-.06.07-.12.1-.18,0,.02.01.03.02.05.04.08.1.13.18.17.08.03.19.03.32-.01.05-.02.1-.04.14-.07.04-.03.07-.06.1-.09.03-.03.05-.06.07-.09.02-.03.04-.05.05-.07.05-.08.09-.17.12-.26,0,.03.02.05.03.07.03.07.08.11.15.14.07.03.15.02.24-.02.05-.02.09-.05.13-.07.04-.03.07-.06.1-.09.03-.03.06-.06.08-.09.02-.03.04-.06.05-.08.09-.16.17-.34.22-.52.05-.17.09-.35.11-.52,0,0,0,0,0,0,0-.07.02-.15.03-.23.01-.09.03-.18.04-.27.02,0,.03-.01.04-.02.05-.02.08-.04.1-.06.02-.02.05-.04.07-.06.02-.02.04-.03.06-.05.02-.02.04-.03.07-.05,0,.01-.02.05-.03.1-.01.06-.03.12-.04.19-.01.06-.02.08-.03.14,0,.02-.01.04-.01.06,0,.02,0,.04,0,.06-.01.06-.02.13-.04.2-.01.07-.02.13-.02.19,0,.06,0,.13,0,.19,0,.06.02.12.05.17.04.07.1.12.18.15.08.03.18.02.29-.03.1-.05.19-.11.26-.19.07-.08.13-.16.17-.26.05-.09.08-.19.11-.29.03-.1.04-.19.06-.28,0-.04,0-.08.01-.12,0-.04,0-.09,0-.13,0-.03,0-.06,0-.09,0-.03,0-.06,0-.09,0-.02,0-.03-.03-.03-.02,0-.04,0-.06,0-.02,0-.04.01-.06.02-.02.01-.03.03-.03.04,0,.05,0,.12,0,.2,0,.08-.01.16-.02.24,0,.07-.03.14-.05.21-.02.07-.05.13-.07.18-.03.06-.05.1-.08.14-.03.04-.06.07-.09.08-.05.02-.09,0-.12-.04-.02-.03-.03-.07-.03-.12,0-.05,0-.1,0-.15,0-.05,0-.1.02-.15,0-.05.02-.09.02-.13.01-.05.02-.1.03-.15.01-.05.02-.1.03-.15.02-.08.03-.17.05-.25.01-.08.02-.15.03-.21,0-.06,0-.12-.01-.16s-.03-.07-.06-.08c0,0-.02,0-.04,0-.01,0-.03,0-.04,0,0,0-.02,0-.03,0"/>
    <g class="cls-6">
      <rect class="cls-24" x="3.39" y="12.62" width="7.17" height="10.59" transform="translate(-12.04 20.73) rotate(-77.15)"/>
    </g>
  </g>
  <g>
    <path class="cls-24" d="M21.11,12.46c-.06,0-.12.03-.18.05-.1.04-.18.1-.26.17-.08.07-.14.16-.2.25-.06.09-.11.19-.15.3-.04.11-.07.21-.09.32-.02.1-.03.21-.04.3,0,.01,0,.03,0,.04,0,.02-.01.04-.02.07-.04.17-.1.31-.16.42-.06.11-.12.19-.18.24-.02.02-.04.02-.06.01-.01,0-.02-.02-.02-.03-.02-.06-.03-.12-.04-.18,0-.05-.01-.11-.01-.16,0-.05,0-.11,0-.17,0-.06,0-.12.01-.19,0-.07.01-.17.02-.27,0-.1,0-.22.01-.33,0-.03-.02-.05-.04-.08-.03-.03-.06-.05-.1-.07-.04-.02-.08-.03-.11-.04-.04,0-.07,0-.1,0-.1.04-.2.11-.27.2-.08.09-.15.19-.21.29,0,0,0,0,0-.01,0,0,0,0,0,0,0-.04-.02-.08-.06-.11-.04-.03-.09-.05-.14-.06-.05-.01-.11-.02-.16-.01-.05,0-.11.02-.12.04-.02.06,0,.21,0,.3,0,.09-.01.19-.02.27,0,.08-.01.17-.01.26,0,.01,0,.03-.01.05-.02.08-.05.16-.07.25-.03.09-.06.17-.1.25-.04.08-.08.15-.13.22-.05.07-.1.12-.16.16-.01,0-.02,0-.03,0,0,0-.02-.03-.04-.08,0-.03-.02-.07-.02-.12,0-.05,0-.09,0-.14,0-.05,0-.1.01-.15,0-.05.01-.1.02-.15,0-.02,0-.04,0-.06,0-.02,0-.04,0-.05,0-.04-.02-.08-.06-.11-.04-.03-.08-.06-.14-.08-.05-.02-.1-.03-.16-.03-.05,0-.09,0-.12.03-.01,0-.02,0-.03,0,.01.05.01.12.01.18,0,.07,0,.15-.01.21-.01.05-.04.12-.08.2-.03.07-.07.15-.11.22-.04.07-.08.13-.12.19-.04.06-.08.09-.11.11-.04.02-.08.03-.11.03-.03,0-.06-.01-.08-.03-.02-.02-.04-.04-.06-.07-.01-.03-.03-.06-.03-.09,0-.04-.02-.07-.02-.11,0-.04,0-.07,0-.1,0-.06.01-.13.02-.2.01-.07.03-.15.05-.23.02-.08.05-.15.08-.23.03-.07.07-.14.11-.2.04-.06.09-.11.14-.16.05-.04.11-.07.17-.09.04,0,.07,0,.1,0,.03.01.05.03.07.05.02.02.04.05.05.08.01.03.03.06.04.08,0,0,0,.02.01.02,0,0,0,.02.01.02,0,.02.02.03.04.03.02,0,.05,0,.07,0,.02,0,.05-.02.06-.03.02-.01.02-.03.02-.05-.01-.05-.03-.1-.05-.14-.02-.05-.05-.09-.08-.12-.03-.04-.07-.07-.11-.09-.04-.02-.1-.03-.15-.03-.06,0-.12.01-.19.03-.1.03-.2.07-.29.13-.09.06-.17.13-.24.22-.07.08-.14.18-.2.27-.06.1-.11.2-.14.3-.04.1-.07.2-.08.29,0,0,0,.01,0,.02-.01.03-.02.06-.03.09-.07.16-.15.29-.23.39-.08.1-.15.17-.22.21-.03.02-.04.02-.06,0-.01-.01-.02-.02-.02-.04,0-.06-.01-.12-.01-.18,0-.06,0-.11.01-.17,0-.05.02-.11.03-.16.01-.06.03-.12.04-.18.02-.07.04-.16.06-.26.02-.1.04-.21.06-.33,0-.03,0-.06-.03-.09-.02-.03-.05-.06-.09-.08-.03-.02-.07-.04-.11-.06-.04-.01-.07-.02-.1-.01-.12.03-.22.08-.32.16s-.19.17-.27.27c0,0,0-.01,0-.02,0,0,0-.01,0-.02,0-.03,0-.06-.02-.09-.02-.03-.05-.06-.08-.08-.04-.02-.07-.04-.11-.06-.04-.01-.07-.02-.1-.01-.11.02-.22.07-.31.14-.1.07-.18.15-.27.25,0,0,0,0,0-.01,0,0,0,0,0,0,0-.04,0-.08-.04-.12-.04-.04-.08-.07-.13-.09-.05-.02-.11-.04-.16-.04-.05,0-.11,0-.12.02-.03.05-.04.21-.06.3-.02.09-.05.18-.07.27-.05.18-.09.37-.13.55-.04.17-.06.36-.04.54,0,.02.03.05.08.07.04.02.09.04.14.05.05.01.09.02.13.02.04,0,.06,0,.06-.03-.01-.16,0-.31.02-.46.02-.15.05-.33.11-.45.04-.09.13-.19.19-.27.06-.08.13-.17.21-.25.1-.1.16-.16.19-.17.01,0,.02.05.01.11,0,.06-.02.14-.05.23-.04.18-.08.36-.11.53-.03.17-.03.34-.01.51,0,.02.03.05.08.07.04.02.09.04.14.05.05.01.1.02.14.02.04,0,.06-.01.05-.04-.01-.11-.02-.22,0-.32,0-.11.02-.21.03-.31.02-.1.04-.2.07-.28.04-.09.12-.19.18-.28.06-.08.13-.18.2-.26.06-.07.11-.11.14-.13.03-.02.05-.01.05,0,0,.03,0,.07,0,.12,0,.04-.02.09-.03.14-.03.11-.05.2-.07.29-.02.09-.03.16-.05.23-.01.07-.02.14-.02.2,0,.06,0,.12,0,.18.01.06.03.11.06.15.03.04.07.07.11.09.04.02.09.04.14.04.05,0,.1,0,.16,0,.09-.02.17-.06.25-.12.08-.07.15-.14.21-.23.05-.07.09-.14.13-.21.01.03.03.07.05.1.03.05.07.09.11.12.05.04.11.06.18.08.07.02.16.02.25,0,.06-.01.11-.04.16-.07.05-.03.1-.07.15-.12.05-.05.09-.09.13-.15.04-.05.08-.11.11-.17,0,.02,0,.03.01.05.02.08.07.15.15.19.07.05.18.06.3.03.05-.01.1-.03.14-.05.04-.02.08-.05.11-.07.03-.03.06-.05.08-.08.02-.03.04-.05.05-.07.08-.11.15-.23.2-.36,0,.09.03.18.05.27.01.02.04.04.08.05.05.01.09.02.14.03.05,0,.09,0,.13,0,.04,0,.06-.02.05-.04-.04-.15-.06-.3-.06-.46,0-.15-.01-.33.02-.46.03-.1.09-.21.14-.3.04-.09.1-.19.15-.29.05-.08.08-.13.11-.15.03-.02.04-.02.05,0,.01.03.02.07.02.11,0,.04,0,.09,0,.14,0,.11-.02.21-.02.29,0,.09,0,.17,0,.24,0,.07,0,.14,0,.2,0,.06.02.12.04.18.02.06.05.11.08.14.04.04.08.06.12.08.04.02.09.02.14.02.05,0,.1-.01.15-.03.08-.03.16-.08.22-.16.06-.08.12-.16.16-.25.04-.07.07-.15.09-.22.02.03.03.06.06.09.03.04.08.08.13.1.05.03.11.05.19.05.07,0,.16,0,.24-.03.05-.02.1-.05.15-.09.04-.04.09-.09.12-.14.04-.05.07-.11.1-.17.03-.06.06-.12.08-.18,0,.02.01.03.02.05.04.08.09.13.17.17.08.03.18.03.3-.01.05-.02.1-.04.13-.07.04-.03.07-.06.09-.09.03-.03.05-.06.06-.09.02-.03.03-.05.04-.07.07-.14.12-.29.15-.44.03-.15.05-.29.07-.44,0-.03,0-.05,0-.08,0-.03,0-.05,0-.08,0-.02,0-.03-.02-.04-.02,0-.04,0-.06,0-.02,0-.04,0-.06.02-.02.01-.03.02-.03.04,0,.02,0,.04,0,.06,0,.02,0,.04,0,.06,0,.08-.02.17-.03.26-.01.09-.03.18-.05.26-.02.09-.05.16-.09.24-.04.07-.08.13-.13.18-.01,0-.02,0-.03.01-.01,0-.03-.03-.05-.07-.01-.03-.03-.07-.03-.11,0-.04-.02-.09-.02-.14,0-.05,0-.1-.01-.15,0-.05,0-.1,0-.15,0-.02,0-.04,0-.06,0-.02,0-.04,0-.05,0-.04-.03-.08-.07-.1-.04-.03-.09-.04-.14-.05-.05-.01-.1-.01-.16,0-.05,0-.09.02-.11.05,0,0-.01,0-.02.01.02.05.03.11.04.18,0,.07.02.15.02.21,0,.05-.02.13-.05.21-.02.08-.05.16-.07.23-.03.08-.06.14-.09.2-.03.06-.06.1-.09.12-.04.03-.07.04-.1.04-.03,0-.06,0-.08-.02-.03-.01-.05-.03-.06-.06-.02-.02-.03-.05-.05-.08-.02-.03-.03-.07-.03-.11,0-.04-.01-.07-.02-.1,0-.06,0-.13,0-.21,0-.08,0-.15.02-.23.01-.08.03-.16.05-.24.02-.08.05-.15.08-.22.03-.07.07-.13.11-.18.04-.05.1-.09.15-.11.03-.01.07-.01.1,0,.03,0,.06.02.08.04.02.02.04.04.06.07.02.03.03.05.05.07,0,0,0,.02.01.02,0,0,.01.01.01.02,0,.02.02.03.05.03.02,0,.04,0,.07-.02.02-.01.04-.03.06-.04.02-.02.02-.03.01-.05-.02-.05-.04-.09-.07-.13-.03-.04-.06-.08-.09-.11-.04-.03-.08-.06-.12-.07-.02,0-.03,0-.05-.01-.01,0-.03,0-.04,0-.02,0-.04,0-.06,0"/>
    <g class="cls-19">
      <rect class="cls-24" x="13.49" y="9.58" width="8.66" height="9.56" transform="translate(-4.48 19.48) rotate(-51.79)"/>
    </g>
  </g>
  <g>
    <path class="cls-24" d="M12.73,16.58c-.06.02-.12.09-.19.2-.07.11-.14.27-.22.46-.08.2-.15.43-.23.71-.08.28-.16.59-.24.93-.12.05-.22.09-.28.13-.07.04-.12.09-.14.13-.03.04-.05.1-.07.17-.02.07-.03.14-.05.21,0,.03,0,.06,0,.08.01.04.04.05.09.03.03-.01.08-.05.14-.1.06-.06.11-.1.15-.13.04-.03.09-.05.14-.07.1-.04.22-.07.36-.09.13-.02.28-.04.44-.05.16-.01.27-.03.34-.04.07-.01.12-.03.15-.06.02-.02.04-.05.06-.11.02-.06.07-.17.13-.32-.09.02-.24.04-.44.06-.2.01-.35.03-.46.04-.1.01-.23.04-.39.08.03-.15.1-.41.21-.78.09-.33.18-.58.25-.77.08-.19.13-.29.16-.3.02,0,.03,0,.04.02,0,.02-.01.17-.07.44-.07.31-.08.52-.04.64.02.05.04.07.07.06.03-.01.07-.06.12-.13.05-.08.1-.19.15-.34l-.07-.03c.08-.51.1-.83.05-.97-.01-.04-.04-.07-.07-.08-.02,0-.03-.01-.05-.01s-.04,0-.06.01"/>
    <g class="cls-14">
      <rect class="cls-24" x="10.47" y="16.47" width="3.68" height="3.28" transform="translate(-9.53 19.72) rotate(-60)"/>
    </g>
  </g>
  <g>
    <path class="cls-24" d="M14.36,17.11s-.05.03-.07.07c-.02.04-.06.12-.11.23-.02.05-.05.13-.08.22-.03.1-.06.17-.09.23-.04.07-.09.15-.14.25-.05.09-.09.16-.11.19-.02.03-.04.05-.06.06-.04.01-.06,0-.08-.05-.01-.03-.02-.09-.02-.16.07-.11.13-.21.17-.32.05-.1.08-.19.09-.25.01-.06.02-.11.01-.13,0-.01-.02-.01-.06-.01-.04,0-.07,0-.11.02-.05.02-.08.04-.1.05-.02.02-.03.04-.05.08-.01.04-.03.08-.05.13-.03.08-.06.16-.08.22-.02.06-.03.12-.04.17,0,.05,0,.1,0,.14,0,.04.02.08.03.13.02.07.06.13.1.18.04.05.09.09.14.11.05.02.09.03.14.01.05-.02.11-.09.16-.21.05-.12.12-.32.21-.6-.01.16-.02.28-.02.36,0,.08,0,.15.02.19.04.11.11.15.2.12.04-.02.08-.05.12-.09.04-.04.08-.11.12-.18.04-.08.11-.2.2-.37l-.04-.11c-.07.12-.13.21-.17.25-.04.05-.08.08-.12.1-.05.02-.08,0-.1-.06,0-.03-.01-.07,0-.13,0-.06.01-.12.03-.18.03-.11.05-.2.07-.27.02-.08.03-.13.04-.16,0-.03,0-.05,0-.07,0-.02,0-.04-.01-.06-.02-.05-.04-.08-.05-.1,0,0-.02-.01-.03-.01,0,0-.02,0-.03,0"/>
    <g class="cls-1">
      <rect class="cls-24" x="13.03" y="16.89" width="2.09" height="2.02" transform="translate(-8.47 21.14) rotate(-60)"/>
    </g>
  </g>
  <g>
    <path class="cls-24" d="M16.01,17.07c.02-.07.04-.13.07-.19.03-.06.07-.11.1-.15.04-.04.06-.07.08-.07.02,0,.04,0,.05.03,0,.02,0,.07,0,.14-.02.07-.05.14-.1.23-.05.08-.12.16-.21.24-.01-.07-.01-.14,0-.21M16.3,16.43c-.07.02-.14.07-.21.14-.07.07-.14.15-.2.26-.09.15-.14.29-.16.4-.01.08-.01.15,0,.23v-.03c-.08.13-.13.22-.16.27-.03.05-.07.08-.1.09-.04.01-.08,0-.11-.04-.03-.04-.07-.11-.11-.21l.12-.35s.04,0,.07-.01c.02,0,.05-.06.08-.16.03-.1.04-.17.03-.2,0-.02-.01-.03-.03-.04-.01,0-.03,0-.04,0-.05.02-.15.2-.3.56-.02-.08-.04-.13-.06-.17-.01-.04-.02-.07-.03-.1,0-.02-.02-.05-.03-.08-.02-.04-.04-.07-.06-.09-.02-.02-.05-.02-.07-.02-.04.01-.08.07-.14.17-.06.1-.1.2-.14.31-.04.11-.05.18-.04.21.01.03.02.05.04.04.01,0,.03-.03.06-.09.03-.05.06-.1.09-.14.03-.04.06-.07.1-.1l.14.4-.11.29s-.03,0-.03,0c-.02,0-.04.06-.06.16-.02.1-.02.17,0,.21,0,.03.02.04.04.03.02,0,.03-.02.04-.04.01-.02.03-.05.04-.08.02-.03.04-.09.07-.16.03-.08.06-.14.09-.2.06.13.11.22.15.27.05.05.1.07.16.05.09-.03.2-.25.31-.64,0,0,0,.01,0,.02.05.14.12.23.2.29.09.06.18.07.28.03.11-.04.21-.12.3-.25.08-.12.16-.28.23-.48l-.04-.1c-.06.1-.11.19-.15.25-.04.06-.09.12-.14.17-.05.05-.1.08-.16.1-.05.02-.1.02-.15,0-.05-.03-.08-.07-.11-.14l-.02-.04c.14-.12.25-.24.33-.35.08-.11.14-.21.17-.3.03-.09.03-.17,0-.24-.02-.05-.05-.08-.09-.09-.02,0-.03,0-.05,0-.03,0-.06,0-.09.02"/>
    <g class="cls-8">
      <rect class="cls-24" x="14.31" y="15.97" width="2.78" height="2.85" transform="translate(-7.22 22.3) rotate(-60)"/>
    </g>
  </g>
</svg>