<?xml version="1.0" encoding="UTF-8"?>
<svg id="Layer_1" data-name="Layer 1" xmlns="http://www.w3.org/2000/svg" viewBox="0 0 24.56 23.59">
  <defs>
    <style>
      .cls-1 {
        fill: #010101;
      }
    </style>
  </defs>
  <path class="cls-1" d="M7.7,11.21c-.04.2-.02.38.05.56.08.17.21.32.41.42.13.07.41.18.86.34.45.15.71.26.78.32.15.12.11.28-.11.5-.24.23-.58.44-1.03.6-.54.2-.96.25-1.27.13-.06-.02-.09-.05-.11-.09-.04-.1.04-.23.25-.38.28-.22.62-.37,1.02-.45.01,0,.02,0,.03.03.01.02.02.03.03.03.12-.07.24-.12.37-.14.01-.02.02-.04.02-.05s0-.03,0-.03c0,0-.01,0-.02,0-.27-.03-.53-.02-.79.03-.26.05-.49.16-.69.31-.2.16-.3.35-.31.59,0,.15.05.27.16.36.11.09.26.13.45.14.34.01.69-.07,1.06-.24.37-.17.68-.4.94-.67.18-.2.25-.39.2-.56-.04-.17-.18-.3-.41-.4-.09-.04-.25-.11-.46-.2-.21-.09-.41-.17-.57-.25-.17-.08-.31-.15-.42-.22-.13-.08-.22-.17-.29-.25-.06-.08-.09-.18-.07-.28.03-.18.14-.37.34-.55.2-.18.43-.34.7-.47.27-.13.55-.23.84-.3.29-.07.54-.1.75-.09.14,0,.24.04.31.08.06.05.08.13.06.24-.03.11-.11.26-.25.45-.33.39-.83.67-1.53.84-.02.01-.03.03-.02.05,0,.02.02.03.05.03.16,0,.34-.02.52-.07.19-.05.37-.11.56-.2.19-.09.35-.21.5-.37.15-.16.25-.33.3-.53.06-.22.01-.4-.14-.54-.16-.14-.36-.21-.61-.21-.32,0-.66.06-1.01.18-.35.12-.66.29-.94.53-.28.24-.45.5-.51.79Z"/>
  <path class="cls-1" d="M10.6,13.01c-.06.06-.09.09-.11.1-.02-.07,0-.18.04-.34.04-.16.11-.34.21-.53.03-.06.02-.13-.03-.22-.05-.09-.09-.12-.14-.1-.04.04-.1.19-.18.46-.08.27-.11.49-.09.65,0,.09.02.17.05.24.03.07.07.1.13.09.03,0,.07-.02.12-.07.09-.1.25-.37.49-.79-.07.31-.08.53-.05.64.05.21.13.31.22.3.08,0,.19-.11.32-.31.13-.2.25-.44.36-.72.17.07.32.1.45.1-.04.11-.08.23-.1.35-.02.11,0,.23.04.35.05.12.11.21.18.25.1.06.28-.01.54-.2.15-.11.28-.23.4-.36-.01.1,0,.2.05.31.05.12.11.21.18.25.1.06.28-.01.54-.2.11-.08.22-.17.32-.28-.09.24-.16.42-.18.55-.03.13-.05.24-.06.33,0,.09,0,.17.02.23.02.07.04.11.05.14.01.03.05.07.1.13.05.06.09.1.11.13,0,0,0,0,.01,0,0,0,.01,0,.02,0,0,0,0-.01,0-.03-.04-.12-.06-.25-.07-.39,0-.14.01-.3.04-.47.03-.17.07-.33.12-.49.05-.16.11-.34.19-.53.08-.19.15-.37.22-.53.07-.16.15-.33.24-.53.36-.04.64-.06.81-.04.31.02.4.12.25.3,0,0-.01.02-.02.02,0,0,.01,0,.04,0,.04,0,.07-.04.1-.09.03-.05.04-.09.04-.1-.03-.14-.15-.23-.34-.27-.19-.04-.45-.05-.78-.04l.08-.16s.07-.02.07-.03c.07-.22.11-.35.13-.39,0-.02-.01-.05-.05-.08-.04-.03-.06-.04-.07-.03-.17.35-.29.59-.34.71-.1,0-.24.02-.42.05-.19.02-.32.04-.41.04-.09,0-.21.02-.37.03-.16,0-.26,0-.3,0-.17-.02-.27-.09-.32-.21,0-.03-.02-.04-.03,0-.02.07-.01.13.01.21.02.07.06.13.11.17.05.04.12.07.2.08.09.02.2.02.33.01.13,0,.25-.02.34-.03.1-.01.23-.03.4-.06.17-.03.29-.04.35-.05-.21.45-.39.83-.52,1.15-.06.05-.14.1-.22.16-.21.14-.38.23-.53.28-.09.05-.16.05-.21.02-.05-.03-.06-.12-.03-.28.15,0,.29-.07.42-.18.13-.11.22-.25.25-.41.02-.1,0-.18-.05-.25-.06-.07-.12-.11-.19-.13-.12-.03-.24.06-.38.27-.1.16-.18.33-.23.51-.07.05-.14.11-.23.17-.21.14-.38.23-.53.28-.09.05-.16.05-.21.02-.05-.03-.06-.12-.03-.28.15,0,.29-.07.42-.18.13-.11.22-.25.25-.41.02-.1,0-.18-.05-.25-.06-.07-.12-.11-.19-.13-.12-.03-.24.06-.38.27-.04.06-.07.11-.1.17-.02,0-.05,0-.08,0-.14,0-.26-.06-.36-.16.02-.16,0-.26-.09-.29-.08-.03-.15,0-.2.08-.03.12.01.24.13.37-.12.21-.24.39-.36.54-.12.15-.21.23-.28.23h-.01c-.07,0-.04-.18.08-.53.03-.07.04-.11.04-.12,0-.04,0-.1-.03-.17-.02-.07-.05-.12-.09-.15-.04-.03-.06-.03-.08,0-.1.19-.19.36-.3.51-.1.15-.18.26-.24.32ZM13.91,12.38c.11-.17.2-.26.27-.26.02,0,.03.01.03.04-.02.12-.08.25-.19.37-.1.13-.2.21-.3.25.04-.14.11-.27.19-.4ZM13.01,12.11s.03.01.03.04c-.02.12-.08.25-.19.37-.1.13-.2.21-.3.25.04-.14.11-.27.19-.4.11-.17.2-.26.27-.26Z"/>
  <path class="cls-1" d="M16.67,10.41c.06.07.16.12.29.14.18.04.51,0,.99-.09-.01.21-.1.45-.26.71-.01.02,0,.04.02.06h.01c.23-.3.36-.57.36-.8.17-.04.45-.1.86-.2.78-.19,1.27-.28,1.49-.27.33.01.35.19.07.52-.02.02-.02.04-.02.06,0,.01,0,.01.01,0,.11-.06.19-.13.23-.22.06-.09.08-.18.08-.29,0-.1-.04-.19-.1-.25-.05-.04-.12-.08-.21-.1-.09-.02-.19-.03-.31-.02-.12,0-.24.02-.36.04-.11.02-.26.05-.43.09-.17.05-.32.08-.44.1l-.2.04c-.1.02-.19.04-.25.05l-.49.09c-.04-.11-.11-.2-.26-.31-.14-.1-.31-.17-.5-.19-.18-.03-.29-.02-.38,0-.1.03-.16.07-.21.12-.07.08-.12.16-.13.25,0,.05,0,.11,0,.16.02.1.06.19.13.26ZM16.71,9.87c.03-.11.12-.17.29-.19.17-.03.36,0,.55.09.19.09.32.2.37.35-.33.04-.59.05-.79.04-.12,0-.22-.03-.29-.07-.11-.06-.15-.13-.13-.22Z"/>
  <path class="cls-1" d="M18.75,12.06c.61-.02.83-.04.98-.08.07-.02.1-.03.11-.03.01,0,0-.03-.03-.06-.21.02-.48.02-1.12,0-.34,0-.45,0-.53,0,.12-.26.27-.56.46-.9,0,0,.01,0,.03,0,.01,0,.02.01.03.02,0,0,.02,0,.02,0,.05-.22.11-.37.18-.45,0-.03-.02-.05-.03-.07-.01-.02-.03-.03-.04-.03-.01,0-.02,0-.03,0-.27.46-.54.94-.8,1.44-.48.02-.62.01-.91-.04.03.03.05.07.07.13.02.05.04.09.05.11.01.02.05.04.11.06.06.02.15.02.26.02.05,0,.07,0,.1-.02.05-.02.09-.02.19-.04-.37.73-.58,1.27-.62,1.6-.03.28.06.55.27.83.01.01.03.02.05.02.02,0,.03-.01.02-.03-.2-.46-.04-1.28.49-2.45.12-.02.27-.02.68-.04Z"/>
  <path class="cls-1" d="M22.81,12.98c-.12.12-.29.24-.52.38-.23.13-.42.22-.59.27-.1.04-.18.05-.23.02-.05-.03-.06-.12-.03-.27.16,0,.32-.07.46-.17.15-.11.24-.24.28-.4.02-.09,0-.17-.06-.24-.06-.07-.13-.11-.21-.12-.13-.02-.27.06-.41.26-.12.17-.21.35-.26.54-.13.09-.29.19-.46.28-.3.16-.49.2-.56.13-.06-.07-.02-.24.1-.5.12-.26.25-.42.38-.48,0,0,.01,0,.01,0,.03,0,0,.11-.09.34-.03.07-.05.12-.05.14,0,.02,0,.03,0,.02.07-.05.13-.11.18-.17.12-.16.14-.31.06-.44-.06-.11-.14-.15-.23-.12-.08.03-.17.1-.26.22-.09.12-.16.25-.22.4,0,.02-.01.04-.02.06-.15.12-.32.24-.51.35-.27.16-.42.2-.46.12-.04-.09.05-.31.26-.68.02-.03.01-.07-.02-.12-.03-.05-.08-.08-.14-.09,0-.11-.04-.18-.09-.21-.1-.07-.24-.03-.42.13-.21.19-.35.44-.42.75-.02.1,0,.22.04.35.04.13.09.19.16.19.07,0,.16-.08.28-.23.12-.15.21-.3.27-.44-.05.23-.06.41-.03.52.06.26.28.23.66-.08.15-.12.28-.24.4-.37-.01.07-.02.15-.02.22,0,.16.04.29.11.39.1.13.31.09.64-.12.17-.11.31-.22.43-.33,0,.08.02.16.05.24.05.12.12.2.2.25.11.05.3-.01.6-.2.29-.18.54-.42.75-.7.01-.05.01-.07,0-.05ZM18.91,13.12c-.1.17-.21.3-.31.41-.1.11-.16.14-.18.09-.01-.03.02-.11.08-.26.07-.14.16-.29.27-.43.12-.14.23-.22.33-.23-.03.11-.09.25-.2.42ZM21.69,12.87c.12-.16.22-.25.29-.25.02,0,.03,0,.03.04-.02.12-.09.24-.2.36-.11.12-.22.2-.33.24.05-.14.12-.26.21-.38Z"/>
  <path class="cls-1" d="M21.45,14.98H6.65l-.09-.09s-.07-.06-.11-.1l-.4-.37c-.06-.05-.1-.1-.14-.14-.04-.04-.08-.09-.12-.13-.1-.12-.18-.23-.24-.34-.06-.11-.09-.22-.11-.33-.02-.11-.02-.22,0-.34,0-.03.02-.07.03-.1.01-.03.03-.07.05-.11.02-.04.05-.1.09-.16.09-.16.18-.29.27-.38.06-.06.11-.11.18-.16.06-.05.13-.1.21-.16.09-.06.21-.14.36-.23l.23-.15.08-.06c.17-.11.3-.22.41-.32.11-.1.19-.21.25-.32.06-.11.11-.23.13-.36.02-.09.01-.18,0-.26-.02-.08-.06-.16-.12-.24-.05-.07-.12-.14-.21-.21.1-.28.16-.56.18-.84.02-.26-.01-.49-.08-.7-.06-.19-.16-.32-.29-.38-.15-.08-.3-.1-.43-.06-.12.03-.22.11-.3.22-.1.14-.16.31-.2.53-.03.22-.02.4.04.53.03.06.07.13.12.18.04.05.1.11.18.17.08.06.19.14.33.23l.16.11s.07.04.1.07c-.09.24-.21.45-.35.64-.15.2-.31.36-.49.48-.07.05-.13.09-.17.12-.04.03-.08.05-.11.07-.03.02-.07.04-.11.05-.14.07-.28.1-.42.09-.18,0-.31-.04-.39-.09-.03-.02-.05-.04-.07-.06-.02-.02-.04-.05-.06-.08-.02-.03-.04-.06-.06-.1.01,0,.03-.01.04-.02.03-.01.06-.03.1-.05.04-.02.09-.05.15-.09h.01s.11-.08.2-.14c.04-.03.07-.05.1-.07.03-.02.05-.04.06-.05.02-.02.03-.04.03-.06,0-.03,0-.05-.03-.07-.01,0-.03-.02-.04-.02h-.03s.13-.06.13-.06l.03-.02s.03-.04.03-.06c0-.02,0-.03-.02-.05-.01-.01-.03-.03-.06-.03-.02,0-.04-.01-.07-.01-.05,0-.13,0-.24,0h-.02s-.16,0-.16,0c-.14,0-.25.01-.34.02-.08,0-.16.02-.22.04-.07.02-.13.04-.19.07h0c-.06-.06-.11-.14-.15-.24h0c.17-.15.22-.29.14-.43-.03-.07-.1-.09-.18-.08-.08,0-.13.04-.17.1-.03.04-.04.09-.05.15,0,.06,0,.11.02.17l.02.04c-.08.04-.16.08-.24.1-.08.02-.15.03-.2.02-.06-.01-.1-.05-.12-.11-.01-.03-.03-.07-.04-.14l-.02-.08-.05-.19c-.03-.11-.06-.2-.08-.27-.02-.07-.04-.12-.06-.17-.01-.03-.03-.07-.04-.1.46-.11.86-.31,1.23-.6.16-.12.3-.25.44-.39.13-.12.26-.27.41-.44.16-.18.36-.42.6-.72.18-.22.32-.4.44-.54.11-.13.2-.24.29-.33.09-.1.19-.2.29-.3.27-.26.55-.48.83-.65.28-.17.55-.29.8-.34.02,0,.04-.02.05-.03.01-.02.02-.04.01-.06,0-.01,0-.03-.02-.04h-.02s-.04-.03-.07-.03c-.27.06-.55.18-.85.36-.3.18-.58.41-.86.68-.1.1-.2.2-.3.31-.09.1-.19.21-.29.34l-.44.54c-.24.3-.44.54-.6.72-.15.17-.28.31-.41.44-.13.13-.28.26-.43.38-.35.28-.75.47-1.2.58v-.02c-.11-.14-.24-.23-.41-.26-.17-.03-.34,0-.52.08,0,0-.03.01-.06.03l-.3.18s-.03.02-.04.03c-.01.02-.01.04,0,.06,0,.02.02.04.04.05.05.03.1.05.16.07.05.01.12.02.19.03.08,0,.18,0,.3,0h.07c.16,0,.33-.03.49-.06.02.04.04.08.05.12.02.05.04.1.06.17.02.07.05.16.08.27l.08.27c.02.07.03.13.05.16.05.11.13.17.24.2.08.02.17,0,.28-.02.1-.02.18-.06.27-.11.04.08.08.15.13.21-.01,0-.03.01-.04.02-.03.01-.05.03-.07.05-.02.02-.03.04-.03.07,0,.05.02.1.07.16.02.02.05.05.09.08l.05.04s.03.03.05.06v.02s.08.08.11.1c.09.06.2.08.32.06.03.06.06.11.09.14.03.04.05.07.08.1.03.03.06.06.1.08.1.07.26.1.47.12.1,0,.2,0,.29-.02.08-.02.17-.05.27-.1.1-.05.22-.13.37-.23.38-.26.67-.64.88-1.14.06.05.1.1.14.15.04.06.07.12.09.18.02.06.02.13,0,.2-.02.11-.06.22-.11.31-.05.09-.13.19-.22.28-.1.1-.23.2-.38.3l-.08.06-.23.15c-.15.1-.27.18-.37.24-.09.06-.16.11-.22.17-.07.05-.13.11-.19.17-.1.1-.2.24-.29.41-.04.07-.07.12-.09.17-.02.05-.04.09-.05.13-.01.04-.03.08-.03.13-.02.13-.03.26,0,.39.02.12.06.25.12.37.06.12.15.25.26.37.04.05.08.09.13.14.04.04.09.09.15.14l.4.37s.07.07.1.1l.09.08h0s.03.03.04.03h.01s.01,0,.01,0h14.86s.03,0,.04-.02c.01-.01.02-.03.02-.05s0-.04-.02-.05c-.01-.01-.03-.02-.04-.02ZM2.5,9.12h-.08c-.1,0-.18,0-.24,0-.06,0-.11,0-.15-.02h-.02s.09-.06.09-.06c.07-.04.11-.06.12-.07.14-.07.27-.09.4-.06.11.02.21.08.27.16-.13.02-.26.04-.4.04ZM4.18,10.03s-.02-.08-.02-.11c0-.02.01-.04.02-.06,0-.01.02-.02.04-.02,0,0,.01,0,.01,0,.01.02.02.05.01.07,0,.02,0,.03-.02.05-.01.02-.03.04-.05.07ZM4.68,10.85s-.03.08-.02.12h-.06s-.03-.03-.04-.03c-.02-.01-.04-.03-.06-.06h0c-.03-.05-.05-.08-.07-.1l-.05-.04s-.06-.05-.08-.07c0,0-.01-.01-.01-.02h.02s.04-.02.05-.03l.03.02c.11.09.24.14.38.14-.03.02-.06.05-.07.08ZM4.59,10.58l-.05-.03s.07-.02.1-.03c.05-.01.12-.02.2-.03.08,0,.19-.02.32-.02h.09s-.06.02-.09.04c-.06.03-.11.05-.15.06-.03.01-.07.02-.09.03-.03,0-.06.01-.09.02-.08.01-.16,0-.24-.03ZM4.84,10.95h0s-.01-.02-.01-.02c0-.04,0-.08.02-.11.01-.02.03-.03.08-.05.08-.04.17-.04.27-.01l-.05.03h-.02c-.05.04-.1.07-.13.09-.03.02-.06.03-.09.05-.03.01-.05.02-.08.03ZM7.24,9.81l-.22-.15c-.13-.09-.23-.16-.31-.22-.07-.05-.12-.1-.16-.14-.04-.05-.07-.09-.09-.15-.05-.11-.06-.26-.03-.45.03-.19.09-.34.17-.46.06-.08.13-.13.21-.16.09-.02.19,0,.3.05.09.05.16.14.21.29.06.18.08.4.07.64-.01.24-.06.49-.14.74Z"/>
  <path class="cls-1" d="M7.7,15.97h-.04s-.02,0-.02,0c0,0,0,.01,0,.02v.39l-.29-.41s0,0-.01,0c0,0,0,0-.01,0h-.03s-.02,0-.02,0c0,0,0,.01,0,.02v.56s0,.02,0,.02c0,0,.01,0,.02,0h.04s.02,0,.02,0c0,0,0-.01,0-.02v-.39l.29.41s0,0,.01,0c0,0,0,0,.01,0h.03s.02,0,.02,0,0-.01,0-.02v-.56s0-.02,0-.02c0,0-.01,0-.02,0Z"/>
  <path class="cls-1" d="M8.51,16.26s-.05-.02-.09-.03c-.03,0-.06-.02-.08-.02-.01,0-.03-.01-.04-.03,0,0-.01-.02-.01-.04,0-.01,0-.02,0-.03,0,0,0-.02.02-.02.02-.02.05-.02.09-.02.02,0,.04,0,.06.01.02,0,.04.02.06.03,0,0,.02,0,.03,0,0,0,.02,0,.02-.02v-.03s.02-.01.02-.02c0,0,0-.01-.01-.02-.02-.02-.05-.03-.08-.04-.03,0-.06-.01-.09-.01-.04,0-.08,0-.11.02-.03.02-.06.04-.07.07-.02.03-.02.06-.02.09,0,.04.01.08.03.1.02.02.04.04.07.05.02.01.06.02.09.03.03,0,.06.02.07.02.01,0,.03.02.04.03,0,0,.01.02.01.04,0,.01,0,.02,0,.03,0,0-.01.02-.02.02-.02.02-.05.02-.09.02-.03,0-.06,0-.08-.02-.03-.01-.05-.03-.06-.04,0,0,0,0-.02,0,0,0-.01,0-.02,0,0,0-.01,0-.01.01l-.02.03s0,.01,0,.02c0,0,0,.01,0,.02.02.03.05.05.09.06.04.02.08.02.12.02.04,0,.08,0,.11-.02.03-.02.06-.04.07-.07.02-.03.02-.06.02-.09,0-.04-.01-.08-.03-.1-.02-.02-.04-.04-.07-.05Z"/>
  <path class="cls-1" d="M9.4,15.97h-.4s-.02,0-.02,0c0,0,0,.01,0,.02v.04s0,.02,0,.02c0,0,.01,0,.02,0h.15v.49s0,.02,0,.02c0,0,.01,0,.02,0h.04s.02,0,.02,0c0,0,0-.01,0-.02v-.49s.15,0,.15,0c0,0,.02,0,.02,0,0,0,0-.01,0-.02v-.04s0-.02,0-.02c0,0-.01,0-.02,0Z"/>
  <path class="cls-1" d="M20.81,16.49h-.28v-.16h.24s.02,0,.02,0c0,0,0-.01,0-.02v-.04s0-.02,0-.02c0,0-.01,0-.02,0h-.24s0-.15,0-.15h.27s.02,0,.02,0c0,0,0-.01,0-.02v-.04s0-.02,0-.02c0,0-.01,0-.02,0h-.14s.1-.08.1-.08c0,0,0,0,.01-.02,0,0,0-.01,0-.02,0,0,0-.01-.01-.02,0,0-.01,0-.02,0h-.05s0,0-.01,0c0,0,0,0,0,0l-.1.09s0,.01,0,.02c0,0,0,.01,0,.02,0,0,0,0,0,0h-.1s-.02,0-.02,0c0,0,0,.01,0,.02v.56s0,.02,0,.02c0,0,.01,0,.02,0h.35s.02,0,.02,0c0,0,0-.01,0-.02v-.04s0-.02,0-.02c0,0-.01,0-.02,0Z"/>
  <path class="cls-1" d="M6.72,15.97h-.04s-.02,0-.02,0c0,0,0,.01,0,.02v.56s0,.02,0,.02c0,0,.01,0,.02,0h.04s.02,0,.02,0c0,0,0-.01,0-.02v-.56s0-.02,0-.02c0,0-.01,0-.02,0Z"/>
  <path class="cls-1" d="M13.95,16.01s-.1-.04-.15-.04h-.2s-.02,0-.02,0c0,0,0,.01,0,.02v.56s0,.02,0,.02c0,0,.01,0,.02,0h.2c.06,0,.11-.01.15-.04.05-.03.08-.06.11-.11.03-.05.04-.1.04-.16s-.01-.11-.04-.16c-.03-.05-.06-.09-.11-.11ZM13.97,16.39s-.04.06-.07.07c-.03.02-.07.03-.11.03h-.13s0-.42,0-.42h.13s.08,0,.11.03c.03.02.05.04.07.07.02.03.02.07.02.11s0,.08-.02.11Z"/>
  <path class="cls-1" d="M14.93,16.49h-.28v-.16h.24s.02,0,.02,0c0,0,0-.01,0-.02v-.04s0-.02,0-.02c0,0-.01,0-.02,0h-.24s0-.15,0-.15h.27s.02,0,.02,0c0,0,0-.01,0-.02v-.04s0-.02,0-.02c0,0-.01,0-.02,0h-.34s-.02,0-.02,0c0,0,0,.01,0,.02v.56s0,.02,0,.02c0,0,.01,0,.02,0h.35s.02,0,.02,0c0,0,0-.01,0-.02v-.04s0-.02,0-.02c0,0-.01,0-.02,0Z"/>
  <path class="cls-1" d="M19.12,15.97h-.04s-.02,0-.02,0c0,0,0,.01,0,.02v.32c0,.06-.01.1-.03.13-.02.03-.06.04-.1.04-.05,0-.08-.01-.1-.04-.02-.03-.03-.07-.03-.13v-.32s0-.02,0-.02c0,0-.01,0-.02,0h-.04s-.02,0-.02,0c0,0,0,.01,0,.02v.32c0,.09.02.16.06.2.04.05.1.07.17.07s.13-.02.17-.07c.04-.05.06-.12.06-.2v-.32s0-.02,0-.02c0,0-.01,0-.02,0Z"/>
  <path class="cls-1" d="M16.39,16.26s.01-.01.02-.02c.02-.03.03-.06.03-.1,0-.03,0-.06-.02-.08,0-.02-.02-.04-.04-.05-.04-.03-.08-.04-.15-.04h-.21s-.02,0-.02,0c0,0,0,.01,0,.02v.56s0,.02,0,.02c0,0,.01,0,.02,0h.22c.07,0,.12-.01.16-.04.02-.02.03-.03.04-.06.01-.02.02-.05.02-.08,0-.05-.01-.08-.04-.12-.01-.01-.02-.02-.04-.03ZM16.09,16.07h.14s.07,0,.08.02c0,0,.01.01.02.02,0,0,0,.02,0,.03,0,.01,0,.03,0,.04,0,0,0,.01-.02.02-.02.01-.05.02-.08.02h-.14s0-.16,0-.16ZM16.36,16.45s0,.01-.02.02c-.02.02-.05.02-.09.02h-.16s0-.16,0-.16h.16s.07,0,.09.02c0,0,.01.01.02.02,0,.01,0,.02,0,.04,0,.02,0,.03,0,.04Z"/>
  <path class="cls-1" d="M17.31,16.49h-.28v-.16h.24s.02,0,.02,0c0,0,0-.01,0-.02v-.04s0-.02,0-.02c0,0-.01,0-.02,0h-.24v-.15h.27s.02,0,.02,0c0,0,0-.01,0-.02v-.04s0-.02,0-.02c0,0-.01,0-.02,0h-.34s-.02,0-.02,0c0,0,0,.01,0,.02v.56s0,.02,0,.02c0,0,.01,0,.02,0h.35s.02,0,.02,0c0,0,0-.01,0-.02v-.04s0-.02,0-.02c0,0-.01,0-.02,0Z"/>
  <path class="cls-1" d="M18.04,15.99s0-.01-.01-.01c0,0-.01,0-.02,0h-.04s-.01,0-.02,0c0,0,0,0-.01.01l-.23.56s0,.01,0,.02c0,0,0,.01.01.02,0,0,.01,0,.02,0h.04s.01,0,.02,0c0,0,0,0,.01-.01l.06-.14h.25l.06.14s0,.01.01.01c0,0,.01,0,.02,0h.04s.01,0,.02,0c0,0,0-.01.01-.02,0,0,0-.01,0-.02l-.23-.56ZM17.91,16.34l.09-.21.09.21h-.17Z"/>
  <path class="cls-1" d="M9.92,15.97h-.04s-.02,0-.02,0c0,0,0,.01,0,.02v.56s0,.02,0,.02c0,0,.01,0,.02,0h.04s.02,0,.02,0c0,0,0-.01,0-.02v-.56s0-.02,0-.02c0,0-.01,0-.02,0Z"/>
  <path class="cls-1" d="M11.67,15.97h-.04s-.02,0-.02,0c0,0,0,.01,0,.02v.32c0,.06-.01.1-.03.13-.02.03-.06.04-.1.04s-.08-.01-.1-.04c-.02-.03-.03-.07-.03-.13v-.32s0-.02,0-.02c0,0-.01,0-.02,0h-.04s-.02,0-.02,0c0,0,0,.01,0,.02v.32c0,.09.02.16.06.2.04.05.1.07.17.07s.13-.02.17-.07c.04-.05.06-.12.06-.2v-.32s0-.02,0-.02c0,0-.01,0-.02,0Z"/>
  <path class="cls-1" d="M10.8,15.97h-.4s-.02,0-.02,0c0,0,0,.01,0,.02v.04s0,.02,0,.02c0,0,.01,0,.02,0h.15v.49s0,.02,0,.02c0,0,.01,0,.02,0h.04s.02,0,.02,0c0,0,0-.01,0-.02v-.49s.15,0,.15,0c0,0,.02,0,.02,0,0,0,0-.01,0-.02v-.04s0-.02,0-.02c0,0-.01,0-.02,0Z"/>
  <path class="cls-1" d="M19.98,15.97h-.4s-.02,0-.02,0c0,0,0,.01,0,.02v.04s0,.02,0,.02c0,0,.01,0,.02,0h.15v.49s0,.02,0,.02c0,0,.01,0,.02,0h.04s.02,0,.02,0c0,0,0-.01,0-.02v-.49h.15s.02,0,.02,0c0,0,0-.01,0-.02v-.04s0-.02,0-.02c0,0-.01,0-.02,0Z"/>
  <path class="cls-1" d="M12.54,15.97h-.4s-.02,0-.02,0c0,0,0,.01,0,.02v.04s0,.02,0,.02c0,0,.01,0,.02,0h.15v.49s0,.02,0,.02c0,0,.01,0,.02,0h.04s.02,0,.02,0c0,0,0-.01,0-.02v-.49h.15s.02,0,.02,0c0,0,0-.01,0-.02v-.04s0-.02,0-.02c0,0-.01,0-.02,0Z"/>
</svg>