<?xml version="1.0" encoding="UTF-8"?>
<svg id="Layer_1" data-name="Layer 1" xmlns="http://www.w3.org/2000/svg" viewBox="0 0 24.56 23.59">
  <defs>
    <style>
      .cls-1 {
        fill: #38282b;
      }

      .cls-2 {
        fill: #414042;
      }
    </style>
  </defs>
  <g>
    <path class="cls-2" d="M5.34,14.23c.03-.06.06-.11.09-.15.02-.02.04-.04.05-.06.01-.02.03-.03.05-.05.05-.05.06-.06.06-.07,0,0,0-.04-.05-.04,0,0,0,0,0,0h-.05s-.05.02-.07.02c-.03,0-.09,0-.19-.02-.05,0-.1-.01-.13-.01-.04,0-.07,0-.09,0-.19,0-.34.04-.46.11-.12.07-.21.17-.26.27-.05.1-.08.2-.08.29,0,.06.01.12.03.17.02.06.06.11.1.15.05.04.11.06.17.06.03,0,.1,0,.1-.05,0,0,0,0,0,0,0-.04-.06-.04-.09-.04-.06,0-.1-.02-.15-.08-.04-.05-.06-.12-.06-.21,0-.08.03-.16.07-.24.05-.08.12-.14.22-.18.05-.02.1-.04.16-.05.06-.01.12-.02.18-.02.18,0,.32-.01.43-.03-.05.05-.09.1-.13.15-.05.07-.11.16-.17.25-.03.05-.06.09-.08.14-.03.05-.06.11-.09.16l-.1.19c-.04.06-.08.12-.11.17-.03.05-.07.1-.13.15-.05.05-.11.1-.18.14-.07.04-.15.06-.23.06-.05,0-.1,0-.13-.02-.04-.01-.07-.03-.09-.04-.02-.02-.04-.04-.05-.05l-.04-.05s0,0,0,0c0,0-.02-.02-.04-.02,0,0,0,0,0,0-.01,0-.02.01-.03.02,0,0,0,0,0,0h0s0,.03,0,.03v.02s.07.1.14.15c.06.05.14.08.23.08.17,0,.33-.04.46-.12.13-.08.23-.18.32-.3.08-.12.16-.26.22-.4l.21-.47Z"/>
    <path class="cls-2" d="M6.06,14.75s-.1-.05-.16-.05c-.05,0-.11.02-.17.05-.02.01-.05.02-.07.03,0,0,0,0,0,0,0-.04-.03-.06-.05-.06h-.01s0,0-.01,0l-.14.05c-.06.02-.11.04-.15.06-.03,0-.05.03-.06.05,0,0,0,.02,0,.02,0,0,.01.01.02.02,0,0,0,0,0,0,0,0,0,0,0,0,0,0,0,0,.01,0,0,0,0,0,0,0,0,0,0,0,0,0l.07-.02s-.02.04-.04.07c-.02.04-.04.07-.05.11-.06.11-.09.19-.11.22-.04.07-.06.09-.07.1,0,0,0,0,0,0-.01.01-.03.02-.04.02-.08,0-.08.05-.08.07,0,0,0,.04.06.04,0,0,0,0,0,0,.07,0,.12-.01.14-.01h.04s.02.01.03.01c0,0,.02,0,.03,0,0,0,0,0,0,0,0,0,0,0,.01,0,.01,0,.03-.01.06-.01.03,0,.05-.01.07-.02.02-.01.04-.03.05-.06,0,0,0,0,0-.01,0-.03-.02-.05-.05-.05-.01,0-.03,0-.05.03-.01.01-.02.02-.02.02,0,0,0,0,0,0,0,0,0,0,0,0,0-.02,0-.04.02-.07,0-.02.02-.04.03-.06l.06-.1c.06-.11.13-.2.19-.26.06-.06.12-.09.19-.09.04,0,.08.01.08.1,0,.04-.01.09-.04.15-.02.06-.06.12-.09.17-.04.05-.07.1-.1.13-.06.06-.07.08-.07.09,0,0,0,.02,0,.02h0s0,.01,0,.02h.02s.01.02.02.02c0,0,0,0,0,0h.06s.02-.01.02,0c0,0,.02,0,.03,0,0,0,.02,0,.03,0,0,0,0,0,0,0h.04s.06,0,.09-.02c.05-.02.06-.06.06-.08,0,0,0,0,0,0,0-.04-.03-.05-.04-.05-.01,0-.03,0-.05.01-.02,0-.03,0-.04,0-.03,0-.04,0-.04,0,0,0,.02-.02.05-.05,0,0,0,0,0,0l.11-.12s.07-.09.1-.14c.03-.06.04-.11.04-.17,0-.07-.02-.12-.07-.16Z"/>
    <path class="cls-2" d="M6.91,14.88s-.02-.1-.1-.14c-.06-.03-.11-.04-.17-.04-.07,0-.13.02-.17.06-.04.04-.06.09-.06.15,0,.02,0,.04,0,.05,0,.02.01.03.02.05,0,.01.02.03.03.05.01.02.02.04.04.06.03.04.05.07.06.1,0,0,0,0,0,0,0,.01.01.02.01.04,0,.01,0,.03,0,.04,0,.04-.02.08-.05.09-.04.02-.07.03-.12.03-.03,0-.06,0-.08-.01-.01,0-.03-.01-.04-.02v-.04s.01,0,.01,0c0-.04,0-.07-.03-.09-.03-.03-.05-.04-.07-.04-.02,0-.08.01-.08.11,0,.02,0,.05.02.08.02.03.05.06.1.09.05.03.11.04.19.04.06,0,.12-.01.16-.03.05-.02.09-.05.12-.09.03-.04.04-.08.04-.13,0-.02,0-.05,0-.07,0-.02-.01-.04-.03-.06-.02-.04-.06-.1-.1-.16-.06-.09-.07-.11-.07-.12,0-.03.01-.04.02-.04.02-.01.03-.02.05-.02.03,0,.04,0,.05,0l.02.06s.02.04.03.06c.02.02.04.03.07.04,0,0,0,0,0,0,.05,0,.08-.03.09-.08,0,0,0,0,0,0Z"/>
    <path class="cls-2" d="M7.52,14.82h.05s0,0,0,0c.03-.01.04-.04.04-.05,0-.03-.04-.04-.06-.04-.02,0-.04,0-.06,0,.09-.25.17-.43.23-.52h0s0,0,0,0c0,0,0-.01.01-.02,0,0,0,0,0,0,0-.03-.02-.04-.04-.04-.01,0-.03,0-.04.02-.04.03-.09.09-.14.18l-.15.23c-.04.06-.09.11-.13.14l-.04.02s0,0,0,0l-.03.02s0,0,0,0c0,0-.01.02-.01.04,0,.04.06.04.08.04,0,0,0,0,.01,0-.05.13-.11.24-.16.35-.06.11-.1.19-.14.25-.03.03-.04.05-.04.08,0,0,0,0,0,.01,0,0,0,.01.02.02,0,0,.01,0,.02,0,0,0,0,0,.01,0h.02s.02-.02.03-.02c.02,0,.04,0,.07.01,0,0,0,0,0,0,.03,0,.06.01.07.01.04,0,.08-.01.12-.03.04-.02.06-.05.06-.09,0,0,0,0,0,0,0-.03-.02-.04-.04-.04,0,0,0,0,0,0h-.03s0,0,0,0c-.01,0-.02,0-.03,0-.02,0-.04,0-.06,0,0,0,0,0,0,0h-.01c.07-.07.13-.15.17-.23.03-.05.06-.1.08-.16.02-.05.04-.1.06-.15h.06s0,0,0,0Z"/>
    <path class="cls-2" d="M7.96,15.41s-.02,0-.03,0c0,0-.01,0-.04,0-.02,0-.03,0-.04,0h-.02s0,0,0,0c0,0,0-.01,0-.02,0,0,0,0,0,0l.33-.6s0,0,0-.01v-.02s-.02-.05-.04-.05c0,0,0,0,0,0h-.01s0,0,0,0c0,0,0,0,0,0l-.34.14s-.05.04-.06.05c0,0,0,.01,0,.02.01.02.03.03.05.03,0,0,0,0,.01,0,0,0,0,0,.01,0,0,0,0,0,0,0l.06-.02-.24.44s-.04.04-.04.04c-.08,0-.1.03-.1.06,0,0,0,0,0,0,0,.02.01.04.07.04h.29s.08,0,.1-.02c.04-.02.05-.05.05-.07,0,0,0-.01,0-.02,0,0,0,0,0,0Z"/>
    <path class="cls-2" d="M8.27,14.49s.06-.01.08-.04c.02-.03.04-.05.04-.08,0-.03-.01-.06-.04-.08-.02-.02-.05-.03-.08-.03s-.06.01-.08.04c-.02.02-.04.05-.04.08,0,.03.01.06.04.08.02.03.05.04.08.04Z"/>
    <path class="cls-2" d="M8.79,14.73s-.04,0-.06,0c.09-.25.17-.43.23-.52h0s0,0,0,0c0,0,0-.01.01-.02,0,0,0,0,0,0,0-.03-.02-.04-.04-.04-.01,0-.03,0-.04.02-.04.03-.09.09-.14.18l-.15.23c-.04.06-.09.11-.13.14l-.04.02s0,0,0,0l-.03.02s0,0,0,0c0,0-.01.02-.01.04,0,.04.06.04.08.04,0,0,0,0,.01,0-.05.13-.11.24-.16.35-.06.11-.1.19-.14.25-.03.03-.04.05-.04.08,0,0,0,0,0,.01,0,0,0,.01.02.02,0,0,.01,0,.02,0,0,0,0,0,.01,0h.02s.02-.02.03-.02c.02,0,.04,0,.07.01,0,0,0,0,0,0,.03,0,.06.01.07.01.04,0,.08-.01.12-.03.04-.02.06-.05.06-.09,0,0,0,0,0,0,0-.03-.02-.04-.04-.04,0,0,0,0,0,0h-.03s0,0,0,0c-.01,0-.02,0-.03,0-.02,0-.04,0-.06,0,0,0,0,0,0,0h-.01c.07-.07.13-.15.17-.23.03-.05.06-.1.08-.16.02-.05.04-.1.06-.15h.06s0,0,0,0h.05s0,0,0,0c.03-.01.04-.04.04-.05,0-.03-.04-.04-.06-.04Z"/>
    <path class="cls-2" d="M9.85,14.78h0s-.02-.06-.04-.06c-.06,0-.15.03-.28.11-.02,0-.03.02-.04.04,0,0,0,.02,0,.03,0,0,.01.01.02.02,0,0,0,0,0,0,0,0,0,0,0,0,0,0,.01,0,.02,0,0,0,0,0,.03,0l-.12.23c-.04.07-.08.13-.11.17-.03.04-.06.07-.1.08-.04.02-.08.03-.13.03-.02,0-.07,0-.07-.12,0-.02,0-.05.04-.12.03-.06.07-.14.12-.21.03-.05.05-.08.06-.11.01-.02.02-.04.03-.05,0-.01,0-.02,0-.04,0-.03-.02-.05-.04-.05h-.02s0,0,0,0l-.09.03-.12.04s0,0,0,0l-.09.04s-.03.01-.04.04c0,0,0,.02,0,.02.01.02.02.03.04.03,0,0,0,0,0,0h.02s.05-.02.05-.02c-.01.02-.03.05-.05.07,0,0,0,0,0,0-.04.06-.07.12-.09.17-.02.05-.04.1-.04.16,0,.07.02.12.07.16.04.04.1.06.18.06.06,0,.11,0,.14-.02.02,0,.03-.01.05-.03,0,0,0,.01,0,.02,0,0,0,.01.02.01,0,0,0,0,.01,0,0,0,0,0,0,0,0,0,0,0,0,0h.03s0,0,0,0c0,0,.02,0,.03,0h.07s.07.02.1.02c.02,0,.05,0,.07-.01.01,0,.04-.02.04-.05,0,0,0,0,0,0,0-.01,0-.04-.06-.04h-.05s-.02,0-.02,0c0,0,0,0,0-.02,0,0,0,0,.01-.03,0-.02.02-.04.03-.07l.11-.21.1-.2c.04-.07.04-.08.05-.09,0,0,0,0,0,0Z"/>
    <path class="cls-2" d="M10.65,14.12s-.03,0-.04.02c-.04.03-.09.09-.14.18l-.15.23c-.04.06-.09.11-.13.14l-.04.02s0,0,0,0l-.03.02s0,0,0,0c0,0-.01.02-.01.04,0,.04.06.04.08.04,0,0,0,0,.01,0-.05.13-.11.24-.16.35-.06.11-.1.19-.14.25-.03.03-.04.05-.04.08,0,0,0,0,0,.01,0,0,0,.01.02.02,0,0,.01,0,.02,0,0,0,0,0,.01,0h.02s.02-.02.03-.02c.02,0,.04,0,.07.01,0,0,0,0,0,0,.03,0,.06.01.07.01.04,0,.08-.01.12-.03.04-.02.06-.05.06-.09,0,0,0,0,0,0,0-.03-.02-.04-.04-.04,0,0,0,0,0,0h-.03s0,0,0,0c-.01,0-.02,0-.03,0-.02,0-.04,0-.06,0,0,0,0,0,0,0h-.01c.07-.07.13-.15.17-.23.03-.05.06-.1.08-.16.02-.05.04-.1.06-.15h.06s0,0,0,0h.05s0,0,0,0c.03-.01.04-.04.04-.05,0-.03-.04-.04-.06-.04-.02,0-.04,0-.06,0,.09-.25.17-.43.23-.52h0s0,0,0,0c0,0,0-.01.01-.02,0,0,0,0,0,0,0-.03-.02-.04-.04-.04Z"/>
    <path class="cls-2" d="M12.21,14.14c.02-.06.05-.1.08-.14.03-.04.06-.05.1-.05,0,0,.01,0,.05.02.02.01.03.02.03.02,0,0,0,.01.01.02,0,0,.01,0,.02,0,0,0,0,0,0,0,0,0,.04-.01.04-.04,0-.03-.02-.07-.06-.09-.04-.03-.07-.04-.11-.04-.11,0-.2.06-.27.18-.04.06-.08.12-.11.19-.04.07-.07.14-.1.21,0,0,0,0,0,0l-.1.22-.05.11s-.05-.04-.08-.05c-.04-.02-.09-.03-.13-.03-.09,0-.18.02-.27.07-.09.05-.16.12-.22.2-.06.08-.09.18-.09.27,0,.11.04.19.11.24.07.05.16.08.27.08.05,0,.09,0,.13-.02.04-.01.08-.03.11-.06.07-.05.12-.11.17-.19.02-.04.05-.09.07-.13.02-.05.04-.1.06-.14l.13-.32s.05-.13.09-.25c.04-.12.07-.21.09-.27ZM11.7,14.86s0,.04-.03.11c-.02.06-.05.13-.09.2-.03.07-.07.13-.12.18-.04.05-.08.07-.12.07-.1,0-.15-.05-.15-.15,0-.07.02-.15.06-.22.04-.08.09-.14.16-.19.06-.05.12-.07.19-.07.03,0,.05,0,.08.02.01,0,.03.02.03.06Z"/>
    <path class="cls-2" d="M12.9,14.7s-.08-.04-.13-.04c-.1,0-.21.02-.32.07-.11.05-.2.11-.28.19-.08.08-.12.18-.12.28,0,.05.01.1.04.15.03.05.07.09.12.12.06.03.13.05.22.05.15,0,.29-.05.39-.16,0,0,0,0,0,0,0,0,0-.02,0-.03,0-.03-.02-.04-.04-.04h-.01s-.01,0-.02,0c-.04.03-.08.06-.12.08-.04.02-.08.03-.14.03-.06,0-.11-.02-.15-.06-.04-.03-.06-.07-.06-.11h.03s.07,0,.07,0c0,0,0,0,0,0,.06,0,.11,0,.16-.02.05-.01.09-.03.14-.04.08-.04.15-.09.2-.15.05-.06.07-.13.07-.19,0-.05-.02-.09-.06-.11ZM12.72,14.85s-.02.07-.05.12c-.03.04-.08.08-.14.11-.03.02-.06.03-.09.03-.03,0-.06.01-.09.01h-.07c0-.05.02-.09.06-.14.04-.05.09-.1.15-.13.06-.03.11-.05.16-.05.08,0,.09.04.09.05Z"/>
    <path class="cls-2" d="M15.6,13.91s-.07-.06-.12-.06c-.03,0-.06,0-.11.03-.01,0-.03,0-.05.02-.01,0-.03.01-.06.02-.03,0-.07.01-.11.01-.04,0-.08,0-.12,0l-.2-.03s-.05,0-.09-.02c0,0,0,0,0,0-.01,0-.05,0-.1-.01-.06,0-.1,0-.14,0-.11,0-.22.02-.32.07-.1.05-.19.11-.25.2-.07.09-.1.19-.1.3,0,.02,0,.05,0,.09,0,.02,0,.03,0,.05,0,.01,0,.02.01.03,0,.02.01.04.03.04,0,0,0,0,.01,0,0,0,0,0,.01,0,.03-.01.04-.03.04-.05,0,0,0,0,0,0v-.06s-.02-.07-.02-.1c0-.1.02-.18.07-.24.05-.06.11-.1.19-.13.08-.03.16-.04.24-.04.05,0,.14.01.28.03.14.02.25.03.31.03.03,0,.07,0,.1,0,.03,0,.06,0,.07-.02.02,0,.04-.01.07-.03.03-.01.06-.02.08-.03.06-.03.11-.04.14-.04.01,0,.02,0,.02.03,0,.04-.01.1-.04.15-.03.06-.07.11-.12.16-.05.05-.09.08-.14.1,0,0,0,0,0,0l-.05.02s0,0,0,0l-.04.02s0,0,0,0c-.01,0-.02.02-.04.03-.01.02-.02.03-.02.05,0,.02,0,.03.05.08.03.03.05.05.07.08,0,0,0,0,0,0,0,.01.02.02.03.04,0,.02.02.04.03.06.02.05.03.1.03.16,0,.07-.02.15-.06.22-.04.08-.09.14-.16.19-.06.05-.13.07-.2.07-.08,0-.14-.02-.18-.05-.04-.04-.08-.08-.12-.13,0,0,0,0,0,0,0,0,0,0,0,0,0,0-.02,0-.03,0,0,0,0,0,0,0-.03,0-.04.02-.04.04,0,0,0,.01,0,.02h0c.09.17.23.25.42.25.11,0,.21-.03.3-.08.09-.05.15-.12.2-.21.05-.09.07-.18.07-.28,0-.06-.02-.12-.05-.18-.03-.05-.06-.1-.1-.13,0,0,0,0,0,0-.02-.02-.04-.04-.06-.05,0,0,0,0,0,0,0,0-.02-.01-.05-.04,0,0,0,0,0,0-.02-.02-.03-.03-.04-.03h.01s.02-.01.02-.01c.13-.02.24-.06.33-.12.09-.06.14-.16.14-.3,0-.07-.01-.13-.04-.17Z"/>
    <path class="cls-2" d="M14.7,14.74c.04-.08.07-.13.09-.17.03-.06.06-.11.08-.14.07-.13.14-.21.19-.24.03-.01.03-.03.03-.04,0,0,0-.01,0-.02-.01-.01-.03-.01-.04-.01,0,0,0,0,0,0-.02,0-.04.01-.06.03-.02.01-.05.03-.08.05-.06.05-.13.12-.2.21-.04.05-.07.1-.11.15-.03.05-.07.11-.1.18l-.13.25c-.04.07-.09.14-.14.21-.05.07-.11.12-.18.16-.06.04-.13.06-.2.06-.17,0-.27-.07-.31-.2,0,0,0,0,0,0-.01-.03-.03-.04-.04-.04,0,0,0,0-.01,0,0,0-.01,0-.01.01,0,0,0,.01-.01.02,0,0,0,.02,0,.03.01.07.05.13.12.19.07.06.18.09.32.09s.28-.06.4-.16c.13-.11.23-.25.31-.42.03-.07.07-.13.1-.2Z"/>
    <path class="cls-2" d="M16.42,14.7s-.08-.04-.13-.04c-.1,0-.21.02-.32.07-.11.05-.2.11-.28.19-.08.08-.12.18-.12.28,0,.05.01.1.04.15.03.05.07.09.12.12.06.03.13.05.22.05.15,0,.29-.05.39-.16,0,0,0,0,0,0,0,0,0-.02,0-.03,0-.03-.02-.04-.04-.04h-.01s-.01,0-.02,0c-.04.03-.08.06-.12.08-.04.02-.08.03-.14.03-.06,0-.11-.02-.15-.06-.04-.03-.06-.07-.06-.11h.03s.07,0,.07,0c0,0,0,0,0,0,.06,0,.11,0,.16-.02.05-.01.09-.03.14-.04.08-.04.15-.09.2-.15.05-.06.07-.13.07-.19,0-.05-.02-.09-.06-.11ZM16.25,14.85s-.02.07-.05.12c-.03.04-.08.08-.14.11-.03.02-.06.03-.09.03-.03,0-.06.01-.09.01h-.07c0-.05.02-.09.06-.14.04-.05.09-.1.15-.13.06-.03.11-.05.16-.05.08,0,.09.04.09.05Z"/>
    <path class="cls-2" d="M17.41,14.74s-.11-.02-.18-.02c-.05,0-.11,0-.16.02-.05.01-.11.03-.17.06-.12.05-.22.12-.29.2-.08.09-.12.17-.12.26,0,.07.02.13.06.18.04.05.12.08.24.08.06,0,.11-.01.17-.03,0,0,0,0,0,.01.01.01.03.02.04.02h.25c.06,0,.1-.01.13-.04.03-.03.05-.07.06-.13,0,0,0,0,0,0,0-.03-.02-.05-.04-.05-.03,0-.04.02-.04.03,0,.03-.02.05-.03.07,0,0-.01.02-.05.02-.02,0-.03,0-.03-.02.02-.05.03-.1.06-.14l.11-.21c.03-.06.05-.09.05-.09,0,0,0,0,0,0,.02-.04.04-.08.05-.11,0,0,0,0,0-.01h0s-.03-.07-.09-.09ZM17.29,14.82c-.05.08-.09.15-.13.23l-.1.19s-.04.06-.06.08c0,0,0,0,0,0-.02.02-.04.04-.07.05-.03.01-.06.02-.09.02-.04,0-.07-.02-.09-.04-.02-.03-.04-.06-.04-.11,0-.09.03-.16.1-.23.07-.07.15-.12.25-.16.09-.04.17-.05.23-.05,0,0,0,0,0,0Z"/>
    <path class="cls-2" d="M18.59,14.78h0s-.02-.06-.04-.06c-.06,0-.15.03-.28.11-.02,0-.03.02-.04.04,0,0,0,.02,0,.03,0,0,.01.01.02.02,0,0,0,0,0,0,0,0,0,0,0,0,0,0,.01,0,.02,0,0,0,0,0,.03,0l-.12.23c-.04.07-.08.13-.11.17-.03.04-.06.07-.1.08-.04.02-.08.03-.13.03-.02,0-.07,0-.07-.12,0-.02,0-.05.04-.12.03-.06.07-.14.12-.21.03-.05.05-.08.06-.11.01-.02.02-.04.03-.05,0-.01,0-.02,0-.04,0-.03-.02-.05-.04-.05h-.02s0,0,0,0l-.09.03-.12.04s0,0,0,0l-.09.04s-.03.01-.04.04c0,0,0,.02,0,.02.01.02.02.03.04.03,0,0,0,0,0,0h.02s.05-.02.05-.02c-.01.02-.03.05-.05.07,0,0,0,0,0,0-.04.06-.07.12-.09.17-.02.05-.04.1-.04.16,0,.07.02.12.07.16.04.04.1.06.18.06.06,0,.11,0,.14-.02.02,0,.03-.01.05-.03,0,0,0,.01,0,.02,0,0,0,.01.02.01,0,0,0,0,.01,0,0,0,0,0,0,0,0,0,0,0,0,0h.03s0,0,0,0c0,0,.02,0,.03,0h.07s.07.02.1.02c.02,0,.05,0,.07-.01.01,0,.04-.02.04-.05,0,0,0,0,0,0,0-.01,0-.04-.06-.04h-.05s-.02,0-.02,0c0,0,0,0,0-.02,0,0,0,0,.01-.03,0-.02.02-.04.03-.07l.11-.21.1-.2c.04-.07.04-.08.05-.09,0,0,0,0,0,0Z"/>
    <path class="cls-2" d="M18.93,15.49s.06-.05.06-.09c0,0,0,0,0,0,0-.03-.02-.04-.04-.04,0,0,0,0,0,0h-.03s0,0,0,0c-.01,0-.02,0-.03,0-.02,0-.04,0-.06,0,0,0,0,0,0,0h-.01c.07-.07.13-.15.17-.23.03-.05.06-.1.08-.16.02-.05.04-.1.06-.15h.06s0,0,0,0h.05s0,0,0,0c.03-.01.04-.04.04-.05,0-.03-.04-.04-.06-.04-.02,0-.04,0-.06,0,.09-.25.17-.43.23-.52h0s0,0,0,0c0,0,0-.01.01-.02,0,0,0,0,0,0,0-.03-.02-.04-.04-.04-.01,0-.03,0-.04.02-.04.03-.09.09-.14.18l-.15.23c-.04.06-.09.11-.13.14l-.04.02s0,0,0,0l-.03.02s0,0,0,0c0,0-.01.02-.01.04,0,.04.06.04.08.04,0,0,0,0,.01,0-.05.13-.11.24-.16.35-.06.11-.1.19-.14.25-.03.03-.04.05-.04.08,0,0,0,0,0,.01,0,0,0,.01.02.02,0,0,.01,0,.02,0,0,0,0,0,.01,0h.02s.02-.02.03-.02c.02,0,.04,0,.07.01,0,0,0,0,0,0,.03,0,.06.01.07.01.04,0,.08-.01.12-.03Z"/>
    <path class="cls-2" d="M20.34,14.74s-.03-.05-.04-.05c0,0,0,0,0,0-.01,0-.02,0-.03.02,0,0,0,0,0,0l-.2.23c-.12.14-.23.25-.33.35-.12.11-.18.13-.22.13-.01,0-.02,0-.03-.02,0-.01-.01-.03-.01-.04,0-.02.01-.07.06-.16.04-.08.09-.16.16-.25.1-.15.11-.16.11-.17,0,0,0,0,0-.01h0s-.02-.06-.04-.06c0,0,0,0,0,0h-.03s0,0,0,0c-.15.07-.25.1-.28.12,0,0,0,0,0,0-.03.02-.05.03-.05.06,0,0,0,.01,0,.02.01.02.03.03.05.03,0,0,0,0,.01,0,.01,0,.03-.01.04-.02l-.03.04s0,0,0,0l-.09.14s0,0,0,0c-.01.02-.02.04-.03.05,0,.01-.01.03-.03.06-.02.04-.02.09-.02.13,0,.1.06.16.18.16.05,0,.1-.01.15-.03.04-.02.09-.05.13-.08l.02-.02-.07.12c-.09.15-.17.28-.24.36-.07.09-.14.18-.21.24-.07.06-.14.09-.2.09-.08,0-.13-.03-.16-.1,0,0,0,0,0-.01,0,0,0,0,0,0,0,0,0,0,0,0h0s0,0-.01,0,0,0-.01,0c-.02,0-.03.03-.03.05,0,0,0,0,0,0,.01.05.04.09.1.13.05.03.1.05.15.05.11,0,.22-.04.33-.11.1-.07.2-.16.29-.26.09-.11.16-.22.23-.33.03-.06.07-.12.1-.18.03-.06.06-.12.08-.17.05-.1.09-.18.12-.23,0,0,0,0,0,0,.04-.06.08-.12.12-.17l.06-.09s0-.01,0-.02h0s0-.02,0-.02Z"/>
  </g>
  <g>
    <path class="cls-1" d="M8.5,8.47c0-.33-.09-.61-.36-.84-.28-.24-.61-.32-.97-.34-.06,0-.11,0-.17,0-.62,0-1.2.18-1.76.45-.49.23-.92.56-1.34.9-.04.02-.06.07-.11.07-.04-.01-.03-.05-.04-.08-.07-.33-.29-.52-.6-.52-.06,0-.12,0-.17.01-.3.05-.55.19-.81.33-.06.03-.11.08-.14.15-.01.04-.02.07-.02.11,0,.07.02.12.07.15.03.02.06.03.09.03.05,0,.1-.02.15-.07.01,0,.02-.02.03-.03.22-.17.46-.28.73-.32.02,0,.04,0,.05,0,.12,0,.2.07.22.2,0,.06,0,.12,0,.17,0,.09,0,.17-.02.25-.01.05-.04.09-.07.13-.16.15-.3.33-.44.49-.44.54-.81,1.15-1.06,1.8-.04.12-.08.24-.08.36v.06c0,.15.09.24.21.24.04,0,.1-.01.15-.04.07-.04.14-.1.2-.16.18-.21.36-.43.51-.67.38-.6.7-1.23.9-1.92.02-.06.05-.12.1-.16.4-.33.8-.65,1.26-.91.55-.3,1.12-.55,1.76-.61.07,0,.15-.01.22-.01.17,0,.35.03.52.08.34.1.49.36.49.69v.07c-.01.22-.08.42-.18.61-.11.2-.23.4-.37.58-.31.38-.64.74-1,1.07-.67.62-1.39,1.17-2.18,1.62-.36.2-.74.4-1.15.53-.16.05-.32.08-.49.08-.05,0-.09,0-.15,0-.1,0-.14-.04-.14-.12v-.05c.01-.09.04-.17.08-.25.14-.33.33-.62.57-.89.32-.38.7-.71,1.18-.87.04-.01.07-.03.11-.05.03-.02.05-.06.05-.09,0,0,0-.02,0-.03-.01-.05-.04-.08-.09-.09h-.04s-.05,0-.08,0c-.2.07-.41.14-.59.25-.46.31-.84.71-1.13,1.19-.15.25-.29.49-.35.78,0,.04-.01.08-.01.12,0,.06,0,.11.04.16.07.17.21.25.38.28.08.02.17.03.25.03.12,0,.23-.01.34-.04.44-.09.83-.25,1.23-.46.76-.41,1.47-.91,2.14-1.46.26-.21.5-.44.75-.68.34-.33.66-.7.91-1.11.21-.33.38-.69.41-1.09v-.07ZM2.07,11.66c.21-.59.52-1.08.89-1.57-.04.21-.64,1.27-.89,1.57Z"/>
    <path class="cls-1" d="M22.85,10.93c0-.07-.06-.12-.13-.12-.03,0-.06,0-.09,0-.04,0-.08,0-.12.01-.25.06-.49.12-.72.2-.04,0-.07.03-.11.03-.01,0-.02,0-.04,0-.13-.05-.26-.1-.38-.16-.02,0-.04-.02-.04-.04,0,0,0-.02.02-.04.03-.03.07-.05.09-.07.2-.15.39-.28.57-.44.08-.07.15-.14.2-.23.04-.06.05-.12.05-.18s-.01-.12-.05-.17c-.07-.09-.17-.14-.28-.14h-.05c-.1,0-.2.04-.28.09-.2.09-.38.21-.55.36-.15.12-.28.25-.36.43-.04.08-.07.16-.07.24,0,.05,0,.1.03.15-.3.27-.59.53-.89.8-.04.04-.09.07-.13.11,0-.09.04-.15.07-.23.17-.39.36-.78.53-1.18.05-.11.09-.21.11-.33,0-.02,0-.05,0-.07,0-.09-.04-.17-.12-.23-.06-.04-.11-.07-.17-.07-.05,0-.1.01-.15.04-.04.02-.09.05-.13.08-.34.26-.66.54-.95.86-.03.04-.05.08-.12.12.04-.09.06-.15.09-.2.05-.13.11-.25.12-.39,0-.02,0-.04,0-.07,0-.09-.04-.17-.12-.22-.04-.02-.08-.03-.12-.03-.07,0-.12.02-.18.07-.1.08-.2.17-.28.27-.04.05-.08.1-.16.15.03-.09.06-.15.07-.22,0-.03,0-.05,0-.08,0-.1-.05-.19-.14-.24-.04-.02-.08-.03-.12-.03-.07,0-.15.03-.21.09-.06.05-.1.12-.14.2-.07.12-.13.25-.2.38-.06.14-.12.27-.18.41-.03.02-.06.04-.09.06-.21.15-.39.33-.59.49-.14.12-.28.24-.43.34l-.02-.02c.08-.16.15-.31.23-.47.18-.38.37-.75.59-1.1.05-.08.1-.16.1-.26v-.02c0-.13-.09-.23-.22-.23-.03,0-.06,0-.09.01-.05.02-.1.06-.15.1-.09.09-.18.2-.28.29-.04.04-.07.07-.09.07-.02,0-.04-.02-.08-.06-.13-.12-.28-.18-.44-.18-.07,0-.13,0-.2.03-.15.04-.28.1-.39.2-.24.22-.41.49-.5.79-.02.02-.04.03-.06.05l-.96.87s-.08.09-.17.12c.04-.12.07-.2.12-.29.32-.68.64-1.36.96-2.03.17-.38.38-.73.54-1.11.01-.04.04-.08.05-.12,0-.03.01-.05.01-.08,0-.09-.05-.18-.13-.23-.04-.03-.09-.04-.14-.04-.07,0-.13.03-.19.09-.06.05-.09.12-.12.19-.35.75-.7,1.52-1.02,2.29-.03.09-.07.17-.1.26-.03.02-.05.05-.08.07-.3.34-.65.63-.97.94-.03.02-.05.06-.11.06.02-.06.04-.11.05-.15l.28-.65c.12-.28.24-.56.35-.84.05-.12.09-.23.09-.36h0c0-.19-.12-.3-.27-.3-.04,0-.08,0-.12.02-.09.03-.16.08-.23.13-.35.26-.67.56-.96.87.27-.62.54-1.25.83-1.87.06-.12.11-.24.15-.37.01-.04.02-.07.02-.11,0-.11-.06-.2-.16-.24-.03-.01-.07-.02-.09-.02-.09,0-.17.06-.24.17-.04.09-.09.17-.12.26-.34.79-.7,1.57-1.01,2.36-.05.02-.09.04-.13.06-.47.25-.98.42-1.5.55-.1.03-.21.05-.32.05-.15,0-.23-.06-.23-.17,0-.03,0-.07.01-.1.03-.12.09-.22.15-.32.04-.05.06-.09.09-.09s.06.01.1.04c.15.08.3.13.45.13.12,0,.25-.04.37-.1.23-.12.34-.3.34-.53,0-.06,0-.12-.02-.17-.07-.27-.3-.46-.57-.46-.04,0-.08,0-.12.01-.19.04-.34.14-.48.26-.31.28-.52.64-.64,1.04-.02.08-.04.16-.04.23,0,.32.19.52.49.54.04,0,.09,0,.13,0,.62-.12,1.21-.3,1.76-.59,0,.03-.02.06-.02.08,0,.04,0,.07,0,.09,0,.04,0,.09.02.13.04.09.1.13.17.13.04,0,.09-.01.13-.05.05-.04.1-.09.15-.15.38-.45.81-.86,1.28-1.23.03-.03.06-.07.12-.07-.04.15-.09.28-.15.41-.15.38-.3.76-.41,1.16-.03.1-.05.2-.05.3v.04c0,.17.09.26.21.26.04,0,.09-.01.15-.04.04-.02.07-.04.11-.07.09-.07.17-.15.26-.23.19-.17.39-.34.57-.52-.03.1-.06.2-.08.3-.01.09-.04.18-.04.28,0,.02,0,.04,0,.07.01.14.09.22.2.22.03,0,.06,0,.09-.01.1-.02.19-.09.27-.15.31-.27.62-.55.92-.84,0,.03.02.05.03.08.06.15.18.23.33.23.03,0,.06,0,.09,0,.1-.02.19-.07.27-.12.26-.17.48-.38.71-.59.03-.03.05-.07.11-.08-.01.04-.01.05-.02.07-.12.29-.24.58-.33.88-.02.09-.04.17-.04.25,0,.14.08.22.19.22.04,0,.07,0,.12-.03.07-.04.12-.08.19-.12.31-.22.59-.48.88-.73,0,.03-.02.06-.02.1,0,.02,0,.04,0,.05,0,.09.04.17.14.21.02,0,.05.01.07.01.06,0,.11-.03.16-.07.07-.07.14-.15.2-.23.21-.25.41-.49.65-.72.03-.03.05-.07.11-.07,0,0,0,.02,0,.03,0,.03-.01.06-.02.09-.05.15-.1.28-.15.43-.02.07-.04.15-.06.23v.04c0,.07.04.14.09.16.03.01.05.01.07.01.05,0,.09-.02.13-.06.04-.04.09-.09.13-.14.33-.36.68-.7,1.05-1.01.02-.02.05-.05.08-.05h.02s0,.02,0,.04c0,.04-.02.06-.03.09-.12.28-.2.55-.3.83-.07.2-.12.39-.16.6,0,.02,0,.04,0,.07,0,.04,0,.07.02.11.04.1.1.15.19.15.03,0,.06,0,.09-.01.08-.02.15-.07.21-.12.15-.12.29-.23.43-.35.24-.21.48-.42.7-.65.01-.01.02-.02.03-.03.05.03.1.06.16.09.07.03.15.05.23.09-.04.05-.08.06-.12.07-.28.12-.54.28-.77.48-.22.19-.41.41-.52.68-.04.1-.07.21-.07.32,0,.17.12.28.25.28.04,0,.09-.01.14-.05.07-.04.15-.08.22-.13.49-.34.94-.72,1.34-1.16.07-.07.13-.14.17-.23.04-.09.1-.13.19-.15.24-.07.49-.15.73-.21.04-.01.08-.02.12-.04.05-.03.09-.07.09-.12,0-.01,0-.02,0-.04ZM9,10.43c.09-.09.2-.17.33-.19.1,0,.17.06.22.13,0,.01.01.02.01.04,0,.02-.01.04-.04.07-.07.07-.15.1-.24.1-.09,0-.17-.03-.25-.07-.03-.01-.05-.03-.05-.05,0,0,0-.02.02-.03ZM15.6,10.54c-.21.23-.4.46-.65.63-.01.01-.04.03-.06.04-.02.01-.04.01-.06.01-.03,0-.04-.03-.04-.09,0-.02.01-.05.02-.07.12-.26.29-.46.54-.6.05-.03.1-.04.15-.04.02,0,.04,0,.07,0,.04,0,.06.04.06.06,0,.01,0,.04-.02.05ZM20.23,12.39c.19-.37.5-.6.88-.75-.27.28-.56.53-.88.75Z"/>
  </g>
</svg>