<?xml version="1.0" encoding="UTF-8"?>
<svg id="Layer_1" data-name="Layer 1" xmlns="http://www.w3.org/2000/svg" viewBox="0 0 24.56 23.59">
  <defs>
    <style>
      .cls-1 {
        fill-rule: evenodd;
      }

      .cls-1, .cls-2 {
        fill: #715d9e;
      }
    </style>
  </defs>
  <g>
    <path class="cls-2" d="M3.91,19.35h.05c.06-.05.1-.12.14-.21s.06-.19.09-.31c.02-.11.04-.24.04-.37,0-.13.01-.26.01-.39-.11,0-.21,0-.3-.05-.11-.05-.2-.12-.26-.22-.05-.08-.09-.18-.1-.29s0-.24.04-.39c.01-.05.03-.09.05-.12s.04-.05.06-.06c.04-.01.07-.01.09,0,.03,0,.05.03.06.06.03.05.02.11-.01.19,0,.02-.02.04-.03.06s-.02.04-.03.05c-.03.03-.05.07-.07.12-.02.04-.01.1,0,.18.01.05.03.09.05.12.05.08.11.13.19.17.06.03.14.05.23.04v-.17c0-.06,0-.12,0-.18,0-.23,0-.46,0-.68,0-.22.03-.42.07-.59s.11-.31.2-.41c.09-.1.23-.16.4-.16.08,0,.15.02.19.06.08.05.13.14.17.26.03.11.05.23.05.36,0,.11,0,.22-.03.33-.02.12-.04.23-.07.34s-.07.22-.12.32c-.05.1-.1.19-.15.27-.03.04-.06.08-.1.11-.03.03-.07.07-.11.1,0,.14,0,.29-.01.44s-.03.29-.07.43c-.03.13-.08.26-.14.37-.06.11-.14.21-.23.28.08.02.16.04.25.07s.18.06.27.09c.12.04.24.08.37.11.12.04.23.06.33.08.1.02.18.02.26,0s.12-.05.14-.1c0-.04.02-.07.04-.08.02-.02.04-.02.06-.02s.03.02.04.04c.01.02.01.05,0,.09-.01.06-.03.12-.06.17s-.07.11-.12.16c-.05.05-.1.08-.17.11-.07.02-.15.03-.24.03-.09,0-.18-.04-.29-.09-.1-.05-.22-.11-.33-.18-.12-.07-.25-.14-.38-.2-.13-.07-.26-.11-.39-.14-.04.02-.09.03-.13.05-.05.01-.1.02-.15.03-.08.02-.14.02-.17,0-.04-.01-.07-.04-.07-.08,0-.03,0-.06.04-.09.03-.03.11-.06.22-.08.02,0,.04,0,.06,0,.02,0,.04,0,.06,0ZM4.89,15.88c-.07.03-.12.09-.15.18-.03.08-.05.18-.06.3s-.01.25,0,.4.01.3.03.45c0,.08.01.15.02.23s0,.16.01.24c.03-.03.06-.06.09-.1.05-.07.1-.15.14-.25s.08-.19.11-.3c.03-.1.05-.21.07-.32s.02-.21.02-.31c0-.13-.01-.24-.04-.32-.02-.08-.06-.14-.11-.18-.03-.02-.07-.03-.11-.03h0Z"/>
    <path class="cls-2" d="M6.44,16.63c-.06,0-.11.04-.16.12-.05.08-.1.18-.15.3-.04.11-.07.23-.1.37-.03.13-.05.27-.06.41-.01.14-.02.28-.02.42s.01.27.03.39c.03.16.06.3.11.41.05.11.11.17.19.18.11.02.22,0,.32-.04s.2-.11.3-.21c.12-.12.23-.26.32-.44.1-.18.19-.38.26-.61.01-.03.03-.05.05-.06.03,0,.05,0,.07,0,.02,0,.04.02.06.04.02.02.02.05,0,.08-.08.24-.18.46-.28.65-.11.19-.23.35-.36.48-.13.13-.27.22-.42.28s-.3.06-.45.02c-.23-.06-.41-.18-.54-.37-.13-.18-.22-.39-.26-.63s-.04-.48,0-.73c.04-.25.11-.48.22-.68.1-.18.22-.32.36-.42s.31-.15.49-.13c.06,0,.12.02.19.04.14.06.24.16.31.3l.02.08c.04.1.05.21.04.34-.01.11-.03.21-.07.3-.03.08-.06.14-.1.18-.03.04-.06.06-.1.08-.06.02-.1.01-.14,0-.04-.02-.06-.05-.08-.1-.01-.04-.01-.08-.01-.12s.02-.09.06-.15c.01-.02.02-.03.03-.04.01-.01.02-.03.04-.05.04-.05.08-.1.11-.16s.04-.13.02-.22c0-.01,0-.03-.02-.05-.04-.1-.11-.16-.2-.19-.02-.01-.03-.02-.05-.02s-.04,0-.07-.01Z"/>
    <path class="cls-2" d="M9.77,17.55c.05,0,.1,0,.15,0s.1-.01.15-.02c.13-.03.25-.11.36-.23s.19-.25.25-.4c.03-.08.05-.15.07-.23.02-.08.02-.15.02-.23s0-.14-.03-.21c-.02-.07-.05-.13-.09-.18-.07-.11-.18-.19-.34-.24-.05,0-.11-.02-.17-.02-.06,0-.12-.01-.18-.02-.2,0-.38.02-.54.08s-.3.14-.41.24c-.13.11-.22.24-.27.38-.05.12-.06.25-.04.37.02.07.05.12.1.15s.09.05.14.07c.05.02.09.04.12.06.03.02.05.04.07.07s.02.05.03.07c0,.03,0,.05-.02.07s-.03.04-.06.05c-.04.02-.09,0-.16-.03-.1-.05-.18-.12-.23-.2-.06-.08-.1-.16-.12-.25-.04-.15-.02-.31.04-.49.06-.16.16-.3.31-.44.13-.11.28-.2.46-.27.18-.07.38-.1.6-.08.03,0,.05,0,.07,0,.02,0,.05,0,.07,0h0s.08,0,.12.01c.04,0,.08.02.12.02.2.05.37.11.49.2.13.09.22.19.28.3.08.13.11.28.1.43-.01.14-.06.29-.15.43-.08.12-.18.23-.31.33s-.28.18-.45.23h.03s.06.02.08.03.05.02.07.02c.22.08.4.19.53.33.12.13.2.27.23.43.02.08.03.15.02.23,0,.08-.02.15-.04.22-.04.12-.1.22-.19.32-.09.09-.19.16-.33.21-.07.03-.15.05-.25.08s-.21.05-.33.06c-.03,0-.06,0-.08,0-.04,0-.09,0-.16,0-.07,0-.14,0-.21-.02s-.14-.03-.21-.05c-.06-.02-.11-.05-.14-.09-.03-.03-.04-.07-.05-.12s-.02-.1-.02-.16v-.03c-.01-.06-.02-.15-.02-.26,0-.11,0-.24,0-.37,0-.14,0-.29.01-.45,0-.16.01-.32.03-.49.02-.24.04-.47.07-.7.03-.23.06-.42.1-.59,0-.07.03-.12.1-.15.03-.01.07-.02.11-.02.05,0,.08.02.11.04.03.02.06.05.08.08.02.04.03.08.01.13-.03.13-.06.31-.08.53-.02.23-.04.47-.05.74ZM9.79,19.37c.06,0,.11.01.17.01.06,0,.11,0,.17,0,0,0,.01,0,.02,0,0,0,0,0,.01,0,.13-.02.25-.07.34-.14s.17-.16.22-.27c.03-.06.05-.12.07-.19.02-.07.03-.13.04-.2.01-.14,0-.27-.04-.39-.03-.09-.07-.17-.12-.23-.05-.07-.12-.12-.21-.15-.1-.03-.2-.05-.32-.07-.12-.02-.24-.02-.38-.02,0,.04,0,.08,0,.12,0,.04,0,.08,0,.12,0,.02,0,.07,0,.14,0,.08,0,.17,0,.27,0,.1,0,.22,0,.33s0,.22,0,.32,0,.18.02.25c0,.07.02.1.04.1Z"/>
    <path class="cls-2" d="M12,18.59s0,.08,0,.12c0,.04,0,.08.02.11.02.12.05.22.08.3s.08.13.15.14c.08.01.15,0,.22-.03s.14-.08.2-.15c.08-.09.16-.2.23-.33s.13-.29.19-.46c0-.03.02-.04.04-.05s.04,0,.05,0,.03.02.04.04c.01.02.01.04,0,.07-.06.18-.13.35-.2.49s-.16.26-.25.36c-.09.1-.18.16-.29.2s-.21.04-.33.01c-.17-.05-.31-.14-.4-.27s-.16-.3-.19-.47c-.02-.09-.03-.18-.03-.27,0-.09.01-.19.03-.28.02-.09.04-.18.06-.27.03-.09.06-.17.1-.24.07-.13.16-.24.27-.32s.23-.11.37-.1c.09,0,.16.05.21.13.03.04.04.08.05.13,0,.05.01.1.01.17,0,.05-.01.11-.02.17-.01.06-.03.12-.05.18-.05.13-.13.26-.22.38s-.21.2-.35.26ZM12.37,17.33s-.08.03-.13.09-.08.13-.11.23c-.03.08-.06.18-.07.27-.02.1-.03.2-.05.3,0,.03,0,.07,0,.1,0,.03,0,.07,0,.11.1-.05.19-.13.26-.22s.13-.2.17-.3c.04-.11.06-.21.07-.31,0-.09-.01-.16-.04-.21-.02-.03-.05-.05-.09-.06Z"/>
    <path class="cls-2" d="M14.79,19.22c.06-.03.12-.1.18-.18.07-.1.14-.21.2-.35.06-.13.11-.26.16-.4.01-.03.03-.06.05-.07s.04-.01.05,0,.03.02.04.04.01.05,0,.08c-.05.14-.1.28-.17.42-.07.14-.14.27-.21.37-.06.1-.14.17-.21.22-.08.05-.15.06-.23.05h-.01s0,0-.01,0c-.12-.04-.22-.13-.28-.26s-.11-.3-.13-.5c-.03.09-.06.18-.1.27s-.08.17-.12.25c-.04.07-.09.13-.14.18s-.11.07-.16.08c-.14.01-.25-.02-.34-.11s-.16-.19-.2-.33c-.06-.17-.08-.36-.07-.57,0-.1.02-.21.04-.31.02-.1.05-.2.08-.3.04-.1.08-.19.14-.28s.11-.16.18-.22c.07-.06.15-.1.23-.13s.18-.04.28-.03c.03,0,.05,0,.07.01s.05.02.07.04c.06.04.1.11.14.21,0,0,0,.01,0,.02l.05-.18.02-.06s.03-.07.05-.09.06-.03.1-.04h.05s.03,0,.05.01c.03.02.06.03.09.05.04.03.07.06.09.1s.02.09,0,.14c-.02.07-.04.16-.07.25s-.04.19-.05.29c-.01.1-.03.2-.04.31s-.02.21-.02.31c-.01.22-.01.4,0,.54,0,.06.02.11.04.15s.05.05.1.02ZM13.99,17.32c-.06.03-.12.09-.17.17-.05.08-.1.18-.14.29-.08.22-.12.45-.14.69-.01.12-.02.23-.01.33,0,.1.01.2.03.27.03.12.07.18.12.18.05,0,.09-.03.13-.08.04-.05.08-.12.12-.2s.07-.17.1-.26.06-.19.09-.28.05-.18.07-.26.03-.14.04-.18c0-.02,0-.04,0-.05,0-.01,0-.03,0-.05,0-.08-.01-.16-.02-.24,0-.08-.02-.14-.04-.2,0-.02-.02-.04-.03-.06,0-.02-.02-.03-.03-.05-.04-.05-.08-.06-.14-.03Z"/>
    <path class="cls-2" d="M15.6,17.17s.04,0,.05,0c.02,0,.03,0,.05,0,.02,0,.04,0,.05.02.02,0,.03.02.05.02.05.02.08.05.11.09.03.04.03.09.02.14-.02.1-.04.21-.06.33-.02.12-.03.25-.03.37,0,.14,0,.28,0,.41,0,.13.02.26.04.37.02.1.04.18.07.24.03.06.07.1.11.11.05-.02.09-.05.13-.11.04-.06.08-.13.11-.21.04-.08.07-.17.1-.27.03-.1.06-.2.09-.29l.03-.11v-.1s0-.07,0-.1c.01-.24.04-.47.1-.69.02-.09.08-.14.16-.15.04,0,.08,0,.11,0,.02,0,.04,0,.05.02.01,0,.03.02.05.02.04.03.07.07.09.11.02.04.03.08.01.13-.03.1-.05.2-.07.31-.02.11-.03.23-.05.34-.02.13-.02.26-.03.39,0,.13,0,.24,0,.34,0,.09.02.16.03.21s.03.09.05.09c.03,0,.07-.02.11-.06.04-.04.08-.09.11-.15.06-.1.11-.21.17-.33s.1-.26.14-.39c0-.02.02-.04.04-.05s.04,0,.05,0,.03.02.04.03.01.04,0,.06c-.05.14-.1.27-.15.4-.05.13-.11.25-.18.35-.05.09-.11.16-.17.21-.06.05-.12.08-.19.07-.02,0-.04,0-.07-.01-.08-.02-.15-.07-.21-.15s-.11-.18-.14-.3c-.02-.07-.04-.14-.05-.22-.03.1-.07.19-.11.29-.04.09-.08.17-.12.24s-.09.13-.15.17-.11.06-.18.06c-.05,0-.09,0-.12-.02-.1-.02-.19-.07-.26-.15-.07-.08-.13-.18-.18-.3-.04-.11-.07-.24-.09-.37s-.03-.28-.03-.43,0-.29.03-.43c.02-.14.04-.28.07-.4.02-.09.07-.15.17-.17Z"/>
    <path class="cls-2" d="M17.03,16.24c-.07.01-.12.04-.16.07-.05.05-.09.12-.12.21-.02.04-.04.08-.07.1-.02.02-.05.04-.08.05-.03,0-.06,0-.09-.01-.02-.02-.04-.04-.06-.07-.02-.05,0-.12.05-.2.07-.1.15-.17.24-.21.09-.05.19-.08.29-.09.1,0,.21,0,.32.01.11.02.22.04.34.07l.04-.23c0-.08.04-.13.11-.15.02,0,.04-.01.05-.01h.05s.08.02.1.04c.04.02.08.05.1.09.02.04.03.09.03.14l-.04.27c.09.03.17.05.25.07.08.02.16.03.23.04.06,0,.11-.01.16-.03s.09-.05.12-.08c.03-.03.06-.06.08-.1.02-.03.04-.06.05-.08.04-.07.09-.1.15-.09.02,0,.04,0,.06.02.03.01.04.03.05.05.03.05.02.11-.01.17-.08.14-.18.22-.3.26-.12.04-.26.05-.4.03h-.06c-.06-.02-.13-.03-.2-.05-.07-.02-.14-.04-.21-.06-.02.13-.03.27-.04.43-.01.16-.03.32-.04.5s-.02.35-.03.53,0,.34,0,.5c0,.24.03.43.06.59s.09.25.16.27c.04,0,.08-.02.13-.09.05-.06.09-.15.14-.25.05-.11.1-.22.14-.34s.08-.22.11-.31c0-.02.02-.04.04-.04s.04,0,.05,0,.03.02.04.03.01.03,0,.06c-.03.09-.07.19-.11.31s-.09.24-.14.35c-.06.12-.12.22-.18.3-.06.08-.14.12-.21.12h-.05s-.03,0-.05,0c-.11-.02-.2-.08-.27-.17-.07-.09-.13-.2-.17-.34-.04-.13-.07-.28-.09-.44s-.03-.33-.03-.51c0-.14,0-.29,0-.43,0-.15,0-.29.02-.43,0-.14.02-.28.03-.41s.03-.25.04-.35c-.11-.03-.22-.05-.32-.07-.1-.02-.2-.02-.3-.01Z"/>
    <path class="cls-2" d="M18.83,17.35c0-.05.03-.09.06-.12.03-.03.07-.04.11-.05.02,0,.04,0,.05,0,.02,0,.03,0,.05,0,.02,0,.04,0,.05.02.02,0,.03.02.05.02.05.02.08.05.11.09.02.04.03.09.03.14-.02.1-.04.21-.06.33-.02.12-.03.25-.03.37,0,.14,0,.28,0,.41,0,.13.02.26.04.37.03.15.07.25.12.31.03.03.05.04.07.04.02,0,.04-.02.07-.05.03-.03.07-.08.1-.14.03-.06.06-.13.09-.2.03-.07.06-.15.09-.24.03-.08.05-.17.08-.26,0-.02.01-.03.02-.05,0-.02,0-.04.02-.06,0-.19.02-.37.02-.54,0-.16.02-.31.05-.44,0-.05.03-.09.06-.11.03-.02.07-.04.11-.05h.05s.03,0,.05,0c.03,0,.06.01.09.03.04.02.08.05.1.08.03.04.04.08.03.12-.02.1-.03.21-.03.34,0,.13,0,.27-.02.42,0,.15-.02.31-.02.48,0,.17-.02.34-.04.51.05-.05.09-.1.14-.15.07-.1.14-.21.2-.32.06-.11.11-.24.16-.38,0-.02.02-.04.04-.05s.03,0,.05,0,.03.02.04.03c.01.02.01.03,0,.06-.05.14-.1.28-.17.4-.06.12-.14.23-.22.34-.09.12-.18.22-.28.31-.02.15-.05.3-.09.44-.03.14-.08.28-.13.41-.06.13-.12.25-.19.37-.07.11-.16.22-.27.3-.08.07-.15.12-.22.15-.09.05-.18.08-.28.09-.1.02-.19,0-.29-.03-.09-.03-.16-.09-.22-.15-.05-.06-.09-.14-.11-.23-.02-.1,0-.21.04-.32.04-.11.13-.22.25-.32.06-.05.13-.1.21-.14.08-.05.15-.09.23-.13.08-.04.16-.08.23-.11.08-.03.15-.07.21-.1.03-.01.06-.02.09-.04.03-.01.05-.02.07-.03.01-.24.02-.48.03-.74-.05.13-.09.24-.15.34s-.11.18-.19.23c-.05.04-.09.06-.14.07-.05,0-.1,0-.16-.01-.1-.02-.19-.07-.26-.15-.07-.08-.13-.18-.17-.3-.04-.11-.07-.23-.09-.37-.02-.14-.03-.28-.03-.42s0-.28.02-.43c.02-.14.04-.28.07-.4ZM19.4,20.92c.14-.1.25-.25.32-.47.07-.22.12-.47.15-.74l-.07.03c-.06.03-.13.06-.21.1-.08.03-.15.07-.23.11-.08.04-.15.08-.23.12-.07.04-.14.09-.2.13-.1.08-.17.16-.2.25-.04.09-.05.17-.03.25.01.06.04.12.08.17.04.05.09.08.16.11.07.03.15.03.23.02.08-.01.16-.04.22-.08Z"/>
  </g>
  <g>
    <path class="cls-1" d="M9.21,7.66c.19.19.48.19.77.1.29.38.48.48.57.38.57-.48.57-.96-.1-1.63.48.67.48,1.15,0,1.53l-.48-.48c-.29.1-.77.29-.77-.19,0-.45.24-.55.76-.85-.71.34-1.02.72-.86,1.04-1.15.19-2.11,0-2.68-.67.48.77,1.44.96,2.78.77Z"/>
    <path class="cls-1" d="M10.46,6.22c-.18.12-.34.22-.48.3.15-.07.31-.14.48-.2v-.1Z"/>
    <path class="cls-1" d="M11.8,5.36c0-.12,0-.21-.03-.3-.03-.1-.12-.18-.23-.18h-.41c-.08-.08-.15-.21-.32-.31-.09-.06-.21-.05-.31,0-.3.15-.5.35-.53.59-.16-.5-.55-.48-.95-.28v.67c-.29,0-.48.19-.57.48-.19-.48-.67-.77-1.44-1.05l-.11-.04-.18-.06c-.14.28-.12.57-.1.86.1.97.77,1.44,2.2,1.44-.15-.06-.29-.12-.42-.19,0,0,0,0,0,0,.04-.13.04-.35.04-.57.38.48.77.57,1.34,0-.57.29-1.05.19-1.34-.29.1-.19.29-.38.67-.38-.07-.14-.09-.45-.09-.67.19-.19.48-.19.67-.09.28.09.29,1,.73,1.14.01.04.03.07.04.11.19-.29,1.25-.38,1.34-.86ZM7.85,6.81c.07.06.15.1.24.13l.3.1s-.02.04-.03.05c-.28,0-.7-.17-.88-.25-.89-.49-.75-1.46-.65-1.66,1.02.28,1.5.92,1.44,1.74-.62-.34-1.02-.74-1.25-1.27,0,.27.25.71.84,1.16ZM10.46,4.69c.12-.07.27-.07.38,0,.11.07.2.16.2.28h.31c.2,0,.36.18.34.37l-.03.06c-.75.65-.81.24-1.19.62-.51-.6-.49-1.05,0-1.34Z"/>
    <path class="cls-1" d="M14.58,4.4c-.48.67-1.15,1.34-2.01,1.92l-.1-.1c-.48-.67-1.05-.67-1.92.1.38.77.57,1.15,1.05,1.25.19,0,.86-.1.48-.77.96-.48,1.82-1.34,2.49-2.4ZM11.8,6.7c.19.29.19.57,0,.67l.1-.1c-.48.29-.86-.1-1.25-.96.77-.67,1.25-.67,1.63,0-.1.19-.19.29-.48.38Z"/>
    <path class="cls-1" d="M15.82,3.35c-1.83-1.59-4.76-1.05-5.94,1.05,1.34-1.92,3.93-2.3,5.94-1.05Z"/>
    <path class="cls-1" d="M9.79,8.24c-.19,0-.38.1-.48.29.1-.1.29-.1.38-.1,0,.77-.38,1.15-1.25,1.34-.26-.65.23-1.35.86-1.53-.38.19-.67.57-.77.96.19-.48.67-.86,1.44-1.15-.48-.1-1.05,0-1.44.48-.38.38-.38.96-.19,1.53v-.1c1.34-.29,1.82-.86,1.44-1.72Z"/>
    <path class="cls-1" d="M17.84,8.43c.38-.29.38-.48,0-.77-.67-.48-.96-.96-.96-1.44.1-.77-.19-1.53-.77-2.3.38.57.57,1.25.57,2.01s.38,1.34,1.05,1.82c.1.1.19.1.19.19s-.38.29-.38.57c.29.38.19.57-.48.77.67-.1.77.1.29.48.38.86.1,1.25-1.05,1.15-1.44-.1-2.49,1.15-3.26,3.74-.96-.1-1.72-.48-2.3-1.05.48-1.92.96-2.2,2.2-3.83.77-.96,1.92-2.11,2.59-3.45.86,0,1.15-.1.96-.29l-.86.1c.38-.67.48-1.53.48-2.3-.1,1.15-.38,2.2-1.05,3.07-2.01,2.4-3.74,4.41-4.41,6.61-1.44-1.72-1.34-3.45.67-4.89,2.68-1.82,4.12-3.16,4.12-4.6-.19,1.72-1.71,2.56-4.2,4.29l-.3.22c-.77.57-1.44,1.34-1.53,2.4-.1.96.29,2.01,1.05,2.59l.1.1c1.37,1.57,5.3,1.63,5.37-.19,0-.29-.19-.67-.67-.77.38.38.38.77.29,1.05-.1.57-1.15,1.05-2.4.96.67-2.4,1.63-3.54,2.97-3.45,1.34,0,1.82-.48,1.34-1.34.29-.29.38-.48.19-.57.29-.1.29-.38,0-.67,0,0,0-.1.19-.19Z"/>
    <path class="cls-1" d="M16.88,6.99c-.19,0-.38-.1-.48-.29.1.29-.1.48-.67.48.19.1.48.19.77.29l-.1-.19c.29,0,.48-.1.48-.29Z"/>
  </g>
</svg>