<?xml version="1.0" encoding="UTF-8"?>
<svg id="Layer_1" data-name="Layer 1" xmlns="http://www.w3.org/2000/svg" viewBox="0 0 24.56 23.59">
  <defs>
    <style>
      .cls-1 {
        fill: #231f20;
      }

      .cls-2 {
        fill: #ed1c24;
      }

      .cls-3 {
        fill: #00aeef;
      }
    </style>
  </defs>
  <g>
    <path class="cls-3" d="M9.74,5.38c1.13.11,2.91.23,3.73,1.09.45.49.61,1.22.44,1.86-.31,1.03-1.28,1.67-2.18,2.16-.16.09-.43.2-.53.31-.2.22.38.36.53.44,1.6.69,2.62,2.02,2.86,3.76.01.22-.06.39-.27.45-.15.04-.31.04-.46.04-.4,0-.79,0-1.19,0-.27,0-.61.03-.81-.18-.16-.18-.18-.44-.22-.67-.12-.69-.3-1.37-.61-2-.45-.94-1.4-1.64-2.46-1.37-.55.12-1.06.45-1.34.94-.32.56-.34,1.28-.26,1.92.03.25.08.51.13.76.03.13.04.29,0,.39-.09.24-.41.22-.63.22-.61,0-1.23,0-1.84,0-.13,0-.27,0-.38-.05-.22-.08-.27-.29-.26-.52.19-1.81,1.21-3.23,2.83-4.04.93-.48,1.96-.66,2.91-1.06.47-.22,1.35-.57,1.32-1.18-.02-.18-.13-.34-.3-.45-1.54-.85-4.54-.14-6.08.55-.23.1-.66.35-.72-.05-.05-.77,0-1.55-.02-2.34-.01-.38.02-.76.48-.81.82-.07,1.66-.09,2.48-.17.94-.03,1.89-.04,2.83,0h0Z"/>
    <path class="cls-2" d="M14.85,10.54c0,.06.08.11.2.16,2.35.8,4.33,2.02,5.46,4.2.07.14.17.36.07.48-.04.05-.12.08-.21.1-.17.02-.35.01-.52.01-.74,0-1.48,0-2.22,0-.29,0-.64.03-.88-.17-.09-.08-.16-.19-.22-.31-.64-1.91-1.87-3.28-3.79-4.03-.49-.19-.48-.32-.03-.57.46-.26.9-.57,1.28-.95.9-.86,1.23-2.03.78-3.24-.05-.15-.12-.3-.15-.43-.03-.13-.02-.22.04-.29.11-.1.28-.1.43-.1.94,0,1.87,0,2.81,0,.54,0,.95,0,.83.68-.23,1.42-1.11,2.6-2.29,3.44-.4.29-.83.53-1.28.76-.11.06-.32.16-.32.26h0Z"/>
  </g>
  <g>
    <path class="cls-1" d="M6.19,15.97c-.06-.05-.12-.07-.19-.07-.06,0-.11.01-.16.03-.05.02-.09.06-.12.1l-.62.91-.62-.91s-.07-.08-.11-.1c-.05-.02-.1-.04-.16-.04-.06,0-.12.02-.18.07-.06.05-.1.13-.1.24v1.95s.02.05.05.05h.24c.12,0,.19-.07.19-.18v-1.26l.45.63c.06.09.15.13.25.13s.19-.04.25-.13l.45-.64v1.39s.02.05.05.05h.24c.12,0,.19-.07.19-.19v-1.82c0-.11-.03-.19-.1-.24Z"/>
    <path class="cls-1" d="M7.73,16.08s0,0,0,0c-.03-.07-.07-.12-.11-.16-.05-.04-.1-.05-.15-.05s-.11.02-.16.05c-.05.04-.08.09-.11.16-.37.99-.62,1.63-.72,1.9-.02.05-.02.1,0,.15.02.04.06.09.16.09h.25s.04-.01.05-.04l.15-.43h.74l.16.43s.03.04.05.04h.24c.11,0,.15-.05.17-.09.02-.05.02-.1,0-.15l-.72-1.9ZM7.66,17.28h-.4l.2-.57.2.57Z"/>
    <path class="cls-1" d="M10.45,17.96l-.48-.68c.11-.06.2-.14.26-.24.07-.12.1-.25.1-.4,0-.25-.08-.45-.23-.58-.15-.13-.37-.2-.66-.2-.1,0-.2,0-.29.03-.09.02-.18.04-.26.07-.08.03-.16.06-.23.09-.02,0-.03.03-.03.05v2.06s.02.05.05.05h.37s.05-.02.05-.05v-.78h.32l.58.81s.03.02.04.02h.26s.05,0,.08-.01c.03,0,.06-.03.07-.05.02-.02.03-.05.03-.09,0-.03-.01-.07-.04-.11,0,0,0,0,0,0ZM9.38,16.32c.08,0,.15,0,.21.01.06,0,.1.02.14.05.04.02.06.05.08.08.02.04.03.08.03.14,0,.06,0,.11-.03.15-.02.04-.04.07-.07.1-.03.02-.07.04-.1.05-.04.01-.08.02-.11.02h-.41v-.56s.04-.01.06-.02c.03,0,.07-.01.11-.02.04,0,.07,0,.1,0Z"/>
    <path class="cls-1" d="M12.37,17.93l-.9-.89.76-.86s.03-.04.04-.07c.01-.03.02-.06.02-.09,0-.04-.02-.07-.05-.09-.03-.02-.07-.03-.13-.03h-.22s-.03,0-.04.02l-.75.87s-.01.01-.02.02v-.85s-.02-.05-.05-.05h-.25c-.11,0-.18.07-.18.19v2.08s.02.05.05.05h.37s.05-.02.05-.05v-.89s.01.01.02.02l.89.91s.02.02.04.02h.24c.06,0,.11-.01.14-.03.04-.03.05-.07.06-.09,0-.03,0-.06-.02-.1-.02-.03-.04-.05-.06-.07Z"/>
    <path class="cls-1" d="M14.03,15.9h-1.1c-.35,0-.43.22-.43.4v1.57c0,.16.07.36.4.36h.97c.13,0,.21-.07.21-.19v-.23s-.02-.05-.05-.05h-1.05v-.49h.59s0,0,0,0c.12,0,.19-.07.19-.2v-.23s-.02-.05-.05-.05h-.74v-.39h.91c.12,0,.19-.07.19-.19v-.23s-.02-.05-.05-.05Z"/>
    <path class="cls-1" d="M15.85,15.9h-1.49c-.12,0-.19.07-.19.18v.24s.02.05.05.05h.57v1.79s.02.05.05.05h.37s.05-.02.05-.05v-1.79h.44c.12,0,.18-.07.18-.2v-.23s-.02-.05-.05-.05Z"/>
    <path class="cls-1" d="M16.46,15.9h-.24c-.12,0-.19.07-.19.19v2.08s.02.05.05.05h.37s.05-.02.05-.05v-2.21s-.02-.05-.05-.05Z"/>
    <path class="cls-1" d="M18.55,15.9h-.25c-.11,0-.17.07-.17.19v1.22l-.81-1.25c-.04-.05-.08-.09-.12-.12-.05-.03-.1-.04-.16-.04-.07,0-.13.03-.18.08-.06.05-.08.13-.08.22v1.96s.02.05.05.05h.23c.13,0,.2-.08.2-.21v-1.19l.8,1.25s0,0,0,0c.04.05.08.09.12.12.05.03.1.04.16.04.06,0,.12-.03.18-.08.06-.05.09-.13.09-.24v-1.95s-.02-.05-.05-.05Z"/>
    <path class="cls-1" d="M20.36,16.81h-.64s-.05.02-.05.05v.23c0,.13.07.2.19.2h.28v.45s-.06.01-.09.01c-.05,0-.11,0-.18,0-.2,0-.34-.06-.44-.17-.09-.12-.14-.3-.14-.53,0-.1,0-.19.03-.28.02-.09.04-.16.08-.23.04-.06.09-.11.15-.15.06-.04.14-.06.24-.06.05,0,.12,0,.2.02.08.01.19.04.31.08.04.02.08.03.12.03.03,0,.05,0,.07-.02.05-.03.07-.08.07-.16v-.21s-.01-.04-.03-.05c-.06-.03-.12-.05-.19-.07-.07-.02-.15-.04-.24-.06-.09-.02-.19-.02-.31-.02-.09,0-.2.01-.31.04-.12.03-.23.09-.32.17-.1.08-.18.21-.25.36-.06.15-.1.36-.1.61s.03.46.1.61c.06.16.15.28.25.37.1.09.21.14.32.17.11.03.22.04.31.04.13,0,.24,0,.34-.02.1-.01.19-.03.26-.05.08-.02.14-.05.2-.07.02,0,.03-.03.03-.05v-.97c0-.17-.09-.26-.26-.26Z"/>
  </g>
</svg>