<?xml version="1.0" encoding="UTF-8"?>
<svg id="Layer_1" data-name="Layer 1" xmlns="http://www.w3.org/2000/svg" viewBox="0 0 79.34 23.59">
  <defs>
    <style>
      .cls-1 {
        fill: #231f20;
      }

      .cls-2 {
        fill: #e5c042;
      }

      .cls-3 {
        fill: #fff200;
      }

      .cls-4 {
        fill: #414042;
      }
    </style>
  </defs>
  <g>
    <path class="cls-4" d="M6.94,18.22h-1.11v-1.98h.43v1.61h.68v.37Z"/>
    <path class="cls-4" d="M8.32,18.22h-1.28v-1.98h1.28v.37h-.85v.43h.68v.37h-.68v.43h.85v.37Z"/>
    <path class="cls-4" d="M10.15,18.22h-.94l-.17-.25v-.37h.34v.25h.51v-.37h-.68l-.17-.37v-.49l.17-.37h.94l.17.25v.37h-.34v-.25h-.51v.37h.68l.17.37v.49l-.17.37Z"/>
    <path class="cls-4" d="M11.8,18.22h-.42v-.49h-.51v.49h-.34v-1.61l.26-.37h.85l.17.37v1.61ZM11.37,17.35v-.62l-.09-.12h-.43v.74h.51Z"/>
    <path class="cls-4" d="M13.11,18.22h-1.11v-1.98h.43v1.61h.68v.37Z"/>
    <path class="cls-4" d="M14.24,18.22h-.85l-.17-.37v-1.24l.26-.37h.77l.25.37v1.24l-.25.37ZM14.07,17.85v-1.11l-.09-.12h-.34v1.11l.09.12h.34Z"/>
    <path class="cls-4" d="M15.97,18.22h-.34l-.59-1.02v1.02h-.34v-1.61l.34-.37.59,1.02v-1.02h.34v1.98Z"/>
    <path class="cls-4" d="M18.06,18.22h-.43l-.09-.25v-.37l-.08-.12h-.34v.74h-.43v-1.98h1.02l.26.37v.49l-.26.19.26.19v.49l.09.25ZM17.46,17.11l.08-.12v-.25l-.08-.12h-.34v.49h.34Z"/>
    <path class="cls-4" d="M19.46,18.22h-1.28v-1.98h1.28v.37h-.85v.43h.68v.37h-.68v.43h.85v.37Z"/>
    <path class="cls-4" d="M20.77,18.22h-.93l-.17-.37v-1.24l.26-.37h.85l.26.37v.37h-.43v-.25l-.09-.12h-.42v1.11l.09.12h.42v-.25h-.25v-.37h.68v.62l-.26.37Z"/>
    <path class="cls-4" d="M22.17,18.22h-.94v-.37h.26v-1.24h-.26v-.37h.94v.37h-.26v1.24h.26v.37Z"/>
    <path class="cls-4" d="M23.4,18.22h-.85l-.17-.37v-1.24l.26-.37h.77l.25.37v1.24l-.25.37ZM23.23,17.85v-1.11l-.09-.12h-.34v1.11l.09.12h.34Z"/>
    <path class="cls-4" d="M25.13,18.22h-.34l-.59-1.02v1.02h-.34v-1.61l.34-.37.59,1.02v-1.02h.34v1.98Z"/>
    <path class="cls-4" d="M26.62,18.22h-.42v-.49h-.51v.49h-.34v-1.61l.26-.37h.85l.17.37v1.61ZM26.19,17.35v-.62l-.09-.12h-.43v.74h.51Z"/>
    <path class="cls-4" d="M27.93,18.22h-1.11v-1.98h.43v1.61h.68v.37Z"/>
    <path class="cls-4" d="M29.57,18.22h-1.02v-1.98h1.02l.25.37v1.24l-.25.37ZM29.32,17.85l.09-.12v-.99l-.09-.12h-.34v1.24h.34Z"/>
    <path class="cls-4" d="M31.31,18.22h-1.28v-1.98h1.28v.37h-.85v.43h.68v.37h-.68v.43h.85v.37Z"/>
    <path class="cls-4" d="M32.62,18.22h-.94l-.17-.25v-.37h.34v.25h.51v-.37h-.68l-.17-.37v-.49l.17-.37h.94l.17.25v.37h-.34v-.25h-.51v.37h.68l.17.37v.49l-.17.37Z"/>
    <path class="cls-4" d="M34.79,18.22h-1.28v-1.98h1.28v.37h-.85v.43h.68v.37h-.68v.43h.85v.37Z"/>
    <path class="cls-4" d="M36.27,18.22h-.34l-.59-1.02v1.02h-.34v-1.61l.34-.37.59,1.02v-1.02h.34v1.98Z"/>
    <path class="cls-4" d="M37.76,18.22h-1.28v-1.98h1.28v.37h-.85v.43h.68v.37h-.68v.43h.85v.37Z"/>
    <path class="cls-4" d="M39.32,18.22h-.43l-.09-.25v-.37l-.08-.12h-.34v.74h-.43v-1.98h1.02l.26.37v.49l-.26.19.26.19v.49l.09.25ZM38.73,17.11l.08-.12v-.25l-.08-.12h-.34v.49h.34Z"/>
    <path class="cls-4" d="M40.56,18.22h-.93l-.17-.37v-1.24l.26-.37h.85l.26.37v.37h-.43v-.25l-.09-.12h-.42v1.11l.09.12h.42v-.25h-.25v-.37h.68v.62l-.26.37Z"/>
    <path class="cls-4" d="M41.95,18.22h-.94v-.37h.26v-1.24h-.26v-.37h.94v.37h-.26v1.24h.26v.37Z"/>
    <path class="cls-4" d="M43.44,18.22h-1.28v-1.98h1.28v.37h-.85v.43h.68v.37h-.68v.43h.85v.37Z"/>
    <path class="cls-4" d="M44.75,18.22h-.94l-.17-.25v-.37h.34v.25h.51v-.37h-.68l-.17-.37v-.49l.17-.37h.94l.17.25v.37h-.34v-.25h-.51v.37h.68l.17.37v.49l-.17.37Z"/>
    <path class="cls-4" d="M46.92,18.22h-1.28v-1.98h1.28v.37h-.85v.43h.68v.37h-.68v.43h.85v.37Z"/>
    <path class="cls-4" d="M48.27,18.22h-.94v-.37h.26v-1.24h-.26v.49h-.26v-.87h1.28s.17.25.17.25v.62h-.26v-.49h-.25v1.24h.25v.37Z"/>
    <path class="cls-4" d="M50.21,18.22h-1.02v-1.98h1.02l.25.37v1.24l-.25.37ZM49.96,17.85l.09-.12v-.99l-.09-.12h-.34v1.24h.34Z"/>
    <path class="cls-4" d="M51.95,18.22h-1.28v-1.98h1.28v.37h-.85v.43h.68v.37h-.68v.43h.85v.37Z"/>
    <path class="cls-4" d="M53.78,18.22h-1.11v-1.98h.43v1.61h.68v.37Z"/>
    <path class="cls-4" d="M55.16,18.22h-.42v-.49h-.51v.49h-.34v-1.61l.26-.37h.85l.17.37v1.61ZM54.74,17.35v-.62l-.09-.12h-.43v.74h.51Z"/>
    <path class="cls-4" d="M56.91,18.22h-.85l-.17-.37v-1.24l.26-.37h.77l.25.37v.37h-.42v-.25l-.09-.12h-.34v1.11l.09.12h.34v-.25h.42v.25l-.25.37Z"/>
    <path class="cls-4" d="M58.39,18.22h-.85l-.17-.37v-1.24l.26-.37h.77l.25.37v1.24l-.25.37ZM58.22,17.85v-1.11l-.09-.12h-.34v1.11l.09.12h.34Z"/>
    <path class="cls-4" d="M60.12,18.22h-.34l-.59-1.02v1.02h-.34v-1.61l.34-.37.59,1.02v-1.02h.34v1.98Z"/>
    <path class="cls-4" d="M61.44,18.22h-.94l-.17-.25v-.37h.34v.25h.51v-.37h-.68l-.17-.37v-.49l.17-.37h.94l.17.25v.37h-.34v-.25h-.51v.37h.68l.17.37v.49l-.17.37Z"/>
    <path class="cls-4" d="M62.95,18.22h-.94v-.37h.26v-1.24h-.26v.49h-.26v-.87h1.28s.17.25.17.25v.62h-.26v-.49h-.25v1.24h.25v.37Z"/>
    <path class="cls-4" d="M64.72,18.22h-.43l-.09-.25v-.37l-.08-.12h-.34v.74h-.43v-1.98h1.02l.26.37v.49l-.26.19.26.19v.49l.09.25ZM64.13,17.11l.08-.12v-.25l-.08-.12h-.34v.49h.34Z"/>
    <path class="cls-4" d="M65.87,18.22h-.85l-.17-.37v-1.61h.43v1.48l.09.12h.43v-1.61h.34v1.61l-.25.37Z"/>
    <path class="cls-4" d="M67.36,18.22h-.85l-.17-.37v-1.24l.26-.37h.77l.25.37v.37h-.42v-.25l-.09-.12h-.34v1.11l.09.12h.34v-.25h.42v.25l-.25.37Z"/>
    <path class="cls-4" d="M68.96,18.22h-.94v-.37h.26v-1.24h-.26v.49h-.26v-.87h1.28s.17.25.17.25v.62h-.26v-.49h-.25v1.24h.25v.37Z"/>
    <path class="cls-4" d="M70.3,18.22h-.94v-.37h.26v-1.24h-.26v-.37h.94v.37h-.26v1.24h.26v.37Z"/>
    <path class="cls-4" d="M71.53,18.22h-.85l-.17-.37v-1.24l.26-.37h.77l.25.37v1.24l-.25.37ZM71.36,17.85v-1.11l-.09-.12h-.34v1.11l.09.12h.34Z"/>
    <path class="cls-4" d="M73.26,18.22h-.34l-.59-1.02v1.02h-.34v-1.61l.34-.37.59,1.02v-1.02h.34v1.98Z"/>
  </g>
  <g>
    <polygon class="cls-4" points="5.8 15.37 14.49 15.37 14.49 13.1 9.04 13.1 9.04 11.57 13.4 11.57 13.4 9.29 9.04 9.29 9.04 7.76 14.49 7.76 14.49 5.49 5.8 5.49 5.8 15.37"/>
    <polygon class="cls-4" points="21.28 9.83 17.8 5.37 15.29 7.37 15.29 15.37 17.99 15.37 17.99 11.02 21.3 15.27 21.38 15.37 23.97 15.37 23.97 5.48 21.28 5.48 21.28 9.83"/>
    <polygon class="cls-4" points="24.78 15.37 33.47 15.37 33.47 13.1 28.03 13.1 28.03 11.57 32.38 11.57 32.38 9.29 28.03 9.29 28.03 7.76 33.47 7.76 33.47 5.49 24.78 5.49 24.78 15.37"/>
    <path class="cls-4" d="M42.95,11.44l-1.34-.72,1.34-.72v-2.6l-1.78-1.91h-6.9v9.89h3.24v-3.51h1.8l.4.43v1.66l.64,1.43h3.3l-.69-1.49v-2.44ZM39.71,8.19v.97l-.4.43h-1.8v-1.82h1.8l.4.43Z"/>
    <polygon class="cls-4" points="45.58 5.49 43.8 7.4 43.8 13.43 45.01 15.37 50.71 15.37 52.49 13.46 52.49 11.92 49.24 11.92 49.24 13.1 47.44 13.1 47.05 12.67 47.05 7.76 48.85 7.76 49.24 8.19 49.24 9.52 52.49 9.52 52.49 7.4 50.71 5.49 45.58 5.49"/>
    <path class="cls-4" d="M60.19,5.49h-5.12l-1.78,1.91v6.04l1.2,1.94h5.69l1.78-1.91v-6.06l-1.78-1.91ZM56.54,12.67v-4.91h1.8l.4.43v4.91h-1.8l-.4-.43Z"/>
  </g>
  <g>
    <g>
      <polyline class="cls-3" points="70.82 15.33 66.73 11.13 62.42 15.34 66.12 6.03 69.81 10.44"/>
      <polygon class="cls-1" points="73.13 11.52 72.74 7.92 72.88 7.9 73.16 10.47 73.31 5.83 73.46 5.84 73.28 11.51 73.13 11.52"/>
      <path class="cls-1" d="M73.27,11.45h-.16v.69c-.02.2-.31.26-.42.13-.09-.12-.09-.21-.09-.21,0,0-.15.33.21.42.04.01.09,0,.13,0,.19-.03.32-.2.32-.38v-.64Z"/>
      <g>
        <path class="cls-2" d="M70.83,15.33l-1.05-4.93.02-.03,3.75-4.86-2.72,9.81ZM69.92,10.43l.92,4.33,2.39-8.61-3.31,4.28Z"/>
        <path class="cls-2" d="M70.59,13.84l-.11-.08.92-1.29-1.59-1.97s-.02-.05,0-.07.03-.04.06-.04l2.12-.05-.82-1.64s0-.04,0-.06c0-.02.02-.03.04-.04l1.42-.39-.16-1.26s.01-.06.04-.07l.61-.24.05.13-.56.22.16,1.26s-.02.07-.05.07l-1.4.38.84,1.66s0,.04,0,.07c-.01.02-.03.03-.06.03l-2.09.05,1.53,1.9s.02.06,0,.08l-.95,1.34Z"/>
        <path class="cls-2" d="M71.08,13.82l-.89-1.6s-.01-.04,0-.06c0-.02.02-.03.04-.04l1.45-.65-1.13-1.98s-.01-.05,0-.07.03-.03.06-.03l1.64-.04-.47-1.48s0-.07.03-.08l1.15-.6.06.12-1.1.58.48,1.51s0,.04,0,.06c-.01.02-.03.03-.05.03l-1.62.04,1.11,1.95s.01.04,0,.06c0,.02-.02.03-.04.04l-1.46.65.86,1.54-.12.07Z"/>
      </g>
    </g>
    <rect class="cls-3" x="73.05" y="11.32" width=".29" height=".26" transform="translate(146.39 22.91) rotate(180)"/>
  </g>
</svg>