<?xml version="1.0" encoding="UTF-8"?>
<svg id="Layer_1" data-name="Layer 1" xmlns="http://www.w3.org/2000/svg" viewBox="0 0 24.56 23.59">
  <defs>
    <style>
      .cls-1 {
        fill: #231f20;
      }

      .cls-2 {
        fill: #ed1c24;
      }

      .cls-3 {
        fill: #0083ca;
      }

      .cls-4 {
        fill: #0070ad;
      }

      .cls-5 {
        fill: #003e66;
      }

      .cls-6 {
        fill: #414042;
      }
    </style>
  </defs>
  <g>
    <g>
      <path class="cls-5" d="M5.37,15.77c0-.29.11-.53.32-.74.21-.21.5-.32.86-.32h2.96l-.23.7h-2.52c-.14,0-.27.05-.37.13-.1.09-.15.2-.15.35v.81c0,.14.05.26.15.35.1.09.23.13.38.13h1.66c.14,0,.23-.03.28-.08.05-.05.08-.14.08-.26v-.22h-1.08l.21-.64h1.74v1c0,.25-.1.47-.3.64-.2.18-.44.27-.73.27h-2.09c-.36,0-.64-.11-.86-.32-.21-.21-.32-.46-.32-.74v-1.06Z"/>
      <path class="cls-5" d="M13.44,14.72h.98l-1.77,3.18h-.97l-1.77-3.18h1.01l1.26,2.35,1.26-2.35Z"/>
      <path class="cls-5" d="M15.67,17.43l-.27.47h-.98l1.9-3.18h.96l1.9,3.18h-1.01l-.27-.47h-2.23ZM17.56,16.84l-.77-1.3-.77,1.3h1.54Z"/>
    </g>
    <g>
      <g>
        <path class="cls-6" d="M5.65,18.55l.14.79.13-.73s0-.02,0-.02c0-.01,0-.03-.01-.04h.28l-.2,1h-.42l-.19-.95s0-.02,0-.02c0,0,0-.02-.02-.03h.28Z"/>
        <path class="cls-6" d="M6.97,18.55v.25h-.39v.14h.33v.25h-.33v.12h.41v.25h-.67v-.94s0-.04-.02-.06h.66Z"/>
        <path class="cls-6" d="M7.1,18.55h.39s.09,0,.14.03c.04.02.08.04.11.08.03.03.06.07.07.11s.03.09.03.14c0,.08-.02.15-.07.21v.02s0,.01,0,.01c.03.04.06.08.08.12s.03.1.03.15v.13h-.24v-.13s0-.04-.01-.06-.02-.04-.03-.05c-.01-.01-.03-.02-.05-.03-.02,0-.04-.01-.06-.01h-.1v.29h-.26v-.94s0-.04-.02-.06ZM7.38,19.02h.11s.03,0,.04,0,.02-.01.03-.02c.01-.01.02-.02.02-.04,0-.01,0-.03,0-.04s0-.03,0-.04c0-.01-.01-.03-.02-.04s-.02-.02-.03-.02c-.01,0-.03,0-.04,0h-.11v.22Z"/>
        <path class="cls-6" d="M7.98,18.55h.39s.09,0,.14.03c.04.02.08.04.11.08.03.03.06.07.07.11s.03.09.03.14c0,.08-.02.15-.07.21v.02s0,.01,0,.01c.03.04.06.08.08.12s.03.1.03.15v.13h-.24v-.13s0-.04-.01-.06-.02-.04-.03-.05c-.01-.01-.03-.02-.05-.03-.02,0-.04-.01-.06-.01h-.1v.29h-.26v-.94s0-.04-.02-.06ZM8.26,19.02h.11s.03,0,.04,0,.02-.01.03-.02c.01-.01.02-.02.02-.04,0-.01,0-.03,0-.04s0-.03,0-.04c0-.01-.01-.03-.02-.04s-.02-.02-.03-.02c-.01,0-.03,0-.04,0h-.11v.22Z"/>
        <path class="cls-6" d="M9.52,18.55v.25h-.39v.14h.33v.25h-.33v.12h.41v.25h-.67v-.94s0-.04-.02-.06h.66Z"/>
      </g>
      <path class="cls-1" d="M10.56,18.55v.25h-.39v.14h.33v.25h-.33v.12h.41v.25h-.67v-.94s0-.04-.02-.06h.66Z"/>
      <path class="cls-1" d="M11.45,18.55v.25h-.24v.75h-.26v-.75h-.24v-.19s0-.04-.02-.06h.76Z"/>
      <path class="cls-2" d="M11.94,18.61s0,0,0-.01c0,0,0,0,0-.01,0-.01,0-.03-.01-.04h.44l.2,1h-.27l-.02-.14h-.24l-.02.14h-.27l.19-.94ZM12.09,19.16h.15l-.08-.45-.08.45Z"/>
      <path class="cls-2" d="M12.96,18.55v.75h.28v.25h-.54v-.94s0-.04-.02-.06h.28Z"/>
      <path class="cls-2" d="M13.35,18.54h.28v.56s0,.04.01.06c0,.02.02.04.03.05.01.01.03.03.05.03.02,0,.04.01.06.01s.04,0,.06-.01c.02,0,.04-.02.05-.03.01-.01.03-.03.03-.05,0-.02.01-.04.01-.06v-.51s0-.04-.02-.06h.28v.59c0,.06-.01.11-.03.17s-.05.1-.09.14c-.04.04-.08.07-.13.09-.05.02-.1.03-.16.03-.04,0-.08,0-.11-.02s-.07-.02-.1-.04c-.03-.02-.06-.04-.08-.07-.02-.03-.05-.05-.06-.09-.02-.03-.03-.07-.04-.1-.01-.04-.02-.07-.02-.11v-.53s0-.02,0-.03c0,0,0-.02-.01-.03Z"/>
      <path class="cls-2" d="M14.32,18.55h.34l.18.59.16-.52s0-.02,0-.03c0,0,0-.02,0-.04h.34v1h-.26v-.65l-.16.65h-.17l-.16-.65v.65h-.26v-.94s0-.04-.02-.06Z"/>
      <path class="cls-2" d="M15.71,18.55v1h-.26v-.94s0-.04-.02-.06h.28Z"/>
      <path class="cls-2" d="M16.12,18.55l.33.57v-.51s0-.04-.02-.06h.28v1h-.27l-.33-.57v.57h-.26v-.94s0-.04-.02-.06h.29Z"/>
      <path class="cls-2" d="M17.09,18.55v1h-.26v-.94s0-.04-.02-.06h.28Z"/>
      <path class="cls-2" d="M17.21,18.54h.28v.56s0,.04.01.06c0,.02.02.04.03.05.01.01.03.03.05.03.02,0,.04.01.06.01s.04,0,.06-.01c.02,0,.04-.02.05-.03.01-.01.03-.03.03-.05,0-.02.01-.04.01-.06v-.51s0-.04-.02-.06h.28v.59c0,.06-.01.11-.03.17s-.05.1-.09.14c-.04.04-.08.07-.13.09s-.1.03-.16.03c-.04,0-.08,0-.11-.02-.04-.01-.07-.02-.1-.04-.03-.02-.06-.04-.08-.07-.02-.03-.05-.05-.06-.09-.02-.03-.03-.07-.04-.1-.01-.04-.02-.07-.02-.11v-.53s0-.02,0-.03c0,0,0-.02-.01-.03Z"/>
      <path class="cls-2" d="M18.17,18.55h.34l.18.59.16-.52s0-.02,0-.03c0,0,0-.02,0-.04h.34v1h-.26v-.65l-.16.65h-.17l-.16-.65v.65h-.26v-.94s0-.04-.02-.06Z"/>
    </g>
  </g>
  <g>
    <g>
      <polygon class="cls-6" points="11.68 11.18 15.27 13.86 11.68 13.86 8.08 11.18 11.68 11.18"/>
      <polygon class="cls-2" points="12.88 11.18 16.48 13.86 15.27 13.86 11.68 11.18 12.88 11.18"/>
      <rect class="cls-2" x="8.08" y="10.55" width="3.6" height=".63"/>
    </g>
    <g>
      <polygon class="cls-3" points="11.68 6.72 16.48 6.72 11.68 4.03 8.08 4.03 8.08 10.55 11.68 10.55 11.68 6.72"/>
      <polygon class="cls-3" points="12.88 11.18 16.48 13.86 16.48 7.61 12.88 7.61 12.88 11.18"/>
    </g>
    <g>
      <polygon class="cls-4" points="16.48 10.3 16.48 7.61 12.87 7.61 16.48 10.3"/>
      <polygon class="cls-4" points="16.48 6.72 11.68 4.03 8.08 4.03 11.68 6.72 11.68 6.72 16.48 6.72"/>
    </g>
  </g>
</svg>