<?xml version="1.0" encoding="UTF-8"?>
<svg id="Layer_1" data-name="Layer 1" xmlns="http://www.w3.org/2000/svg" viewBox="0 0 79.34 23.59">
  <defs>
    <style>
      .cls-1 {
        fill: #00a750;
      }

      .cls-2 {
        fill: #ee3025;
      }

      .cls-3 {
        fill: #414042;
      }
    </style>
  </defs>
  <g>
    <rect class="cls-3" x="20.94" y="13.34" width=".25" height=".22"/>
    <path class="cls-3" d="M21.54,13.8c-.08-.04-.18-.05-.29-.05s-.21.02-.29.05c-.08.04-.14.09-.18.17-.04.08-.06.18-.06.31v.44h1.07v-.44c0-.13-.02-.23-.06-.31-.04-.08-.1-.14-.18-.17ZM21,14.1s.04-.08.08-.1c.04-.02.1-.03.17-.03s.13.01.17.03c.04.02.07.05.08.1.02.05.02.11.02.19v.21h-.55v-.21c0-.08,0-.14.02-.19Z"/>
    <rect class="cls-3" x="21.3" y="13.34" width=".25" height=".22"/>
    <path class="cls-3" d="M22.48,13.8c-.08-.04-.19-.06-.3-.06h-.16v.23h.16c.08,0,.13.01.18.03.04.02.07.06.09.11.02.05.03.12.03.21v.17h-.53v.23h.79v-.4c0-.14-.02-.25-.07-.33-.04-.09-.11-.15-.19-.19Z"/>
    <rect class="cls-3" x="24.29" y="14.92" width=".26" height=".22"/>
    <rect class="cls-3" x="25.27" y="13.34" width=".25" height=".22"/>
    <rect class="cls-3" x="25.63" y="13.34" width=".25" height=".22"/>
    <path class="cls-3" d="M27.52,14.5h-.43v-.26c0-.12-.02-.22-.06-.29-.04-.07-.1-.13-.17-.16s-.17-.05-.29-.05c-.08,0-.15,0-.22.02s-.11.02-.15.04c0,.03-.02.07-.02.12,0,.05-.02.1-.02.16,0,.06,0,.12,0,.19s0,.12,0,.18c0,.02,0,.04,0,.05h-.47v-.75h-.26v.75h-.52v-.29c0-.1-.02-.18-.07-.25-.05-.07-.11-.12-.19-.16s-.17-.06-.28-.06c-.06,0-.11,0-.17.01-.06,0-.11.02-.17.03l.03.21c.06,0,.12-.02.17-.02.05,0,.09,0,.12,0,.11,0,.18.02.23.06.05.04.07.1.07.18v.29h-.95v-.17c0-.14-.02-.25-.07-.33-.04-.09-.11-.15-.19-.19-.08-.04-.19-.06-.3-.06h-.16v.23h.16c.08,0,.13.01.18.03.04.02.07.06.09.11s.03.12.03.21v.17h-.53v.23h4.86v-1.38h-.26v1.15ZM26.42,14.41s0-.1,0-.14c0-.05,0-.1,0-.15,0-.05.01-.09.02-.14.05,0,.09,0,.14,0,.07,0,.12,0,.16.02.04.02.07.04.08.08.02.04.02.09.02.16v.26h-.41s0-.06-.01-.09Z"/>
    <rect class="cls-3" x="28.11" y="13.35" width=".26" height="1.38"/>
    <rect class="cls-3" x="29.51" y="13.48" width=".25" height=".22"/>
    <rect class="cls-3" x="29.87" y="13.48" width=".25" height=".22"/>
    <path class="cls-3" d="M30.27,14.5h-.52c-.07,0-.12,0-.17-.01-.05,0-.09-.02-.12-.04s-.06-.05-.07-.08c-.02-.03-.02-.08-.02-.13,0-.03,0-.07,0-.1,0-.04.01-.07.02-.1,0-.03.01-.06.02-.08l-.25-.05s0,.03-.01.05c0,.02-.01.05-.02.08,0,.03-.01.06-.01.1,0,.03,0,.07,0,.1,0,.11.02.2.07.27.05.07.12.13.22.16.1.04.21.05.35.05h.8v-.98h-.26v.75Z"/>
    <path class="cls-3" d="M31.7,13.8c-.07.04-.12.09-.16.16-.03.07-.05.16-.05.27s.02.2.05.26h-.44v-1.15h-.26v1.38h1.57v-.98h-.44c-.11,0-.2.02-.27.06ZM31.83,14.48s-.06-.04-.07-.07c-.01-.04-.02-.09-.02-.17,0-.07,0-.12.02-.16.01-.04.04-.06.07-.08.03-.01.08-.02.13-.02h.18v.53h-.18c-.06,0-.1,0-.13-.02Z"/>
    <rect class="cls-3" x="31.69" y="13.34" width=".25" height=".22"/>
    <rect class="cls-3" x="32.05" y="13.34" width=".25" height=".22"/>
    <path class="cls-3" d="M34.99,14.5h-.38v-.22c0-.07,0-.14-.03-.2-.02-.06-.04-.12-.08-.17-.04-.05-.09-.09-.15-.12s-.13-.04-.22-.04c-.08,0-.15.01-.21.04-.06.02-.12.06-.17.1-.05.04-.1.09-.15.15,0,0,0,0,0,0v-.69h-.26v1.15h-.36v-1.15h-.26v1.38h2.53v-1.38h-.26v1.15ZM33.6,14.3s.05-.06.08-.1c.04-.04.08-.08.12-.11.04-.04.09-.06.14-.09.05-.02.1-.03.16-.03.05,0,.1.01.13.03.04.02.07.05.08.1s.03.1.03.18v.22h-.75v-.2Z"/>
    <rect class="cls-3" x="35.58" y="13.35" width=".26" height="1.38"/>
    <path class="cls-3" d="M36.78,13.8c-.07.04-.12.09-.16.17-.03.07-.05.16-.05.27s.02.2.05.27c.03.07.09.12.16.16s.16.05.27.05h.18v.06c0,.07-.02.12-.06.15-.04.03-.11.05-.2.05-.03,0-.07,0-.11,0-.05,0-.1,0-.17-.02l-.04.21c.06.01.12.02.17.03.05,0,.1.01.15.01.11,0,.2-.02.28-.05.08-.03.14-.08.18-.15s.07-.14.07-.23v-1.03h-.44c-.11,0-.2.02-.27.06ZM37.05,14.5c-.06,0-.1,0-.13-.02s-.06-.04-.07-.07c-.01-.04-.02-.09-.02-.17,0-.08,0-.14.02-.17.01-.04.04-.06.07-.08.03-.01.08-.02.13-.02h.18v.53h-.18Z"/>
    <path class="cls-3" d="M38.55,14.42s-.02-.07-.02-.11c0-.05.01-.09.03-.13.02-.04.05-.07.09-.09.04-.02.08-.03.13-.03.03,0,.06,0,.08.01.03,0,.05.02.08.03l.12-.19s-.08-.05-.13-.06c-.05-.01-.1-.02-.16-.02-.07,0-.13.01-.2.04-.06.02-.12.06-.16.1-.05.04-.08.09-.11.15-.03.06-.04.12-.04.19,0,.07.01.13.04.19h-.13v.23h.99v-.23h-.56s-.04-.05-.05-.08Z"/>
    <rect class="cls-3" x="40.1" y="14.92" width=".26" height=".22"/>
    <polygon class="cls-3" points="40.1 14.5 39.89 14.5 39.89 14.5 39.67 14.5 39.67 13.35 39.41 13.35 39.41 14.72 39.67 14.72 39.89 14.72 39.89 14.72 40.36 14.72 40.36 13.75 40.1 13.75 40.1 14.5"/>
    <path class="cls-3" d="M44.81,14.5h-.42v-1.15h-.26v1.15h-.42v-.19c0-.06,0-.13-.03-.19-.02-.06-.04-.11-.08-.16-.04-.05-.08-.09-.14-.11s-.13-.04-.21-.04h-.31l.05-.09s.02-.05.04-.07c.01-.02.03-.05.05-.09.02-.03.05-.08.08-.13l-.22-.12c-.04.05-.07.1-.09.14-.02.04-.04.07-.06.09-.01.03-.03.05-.04.07l-.1.19.16.23h.43s.08,0,.11.03c.03.02.05.05.07.09.01.04.02.09.02.16v.19h-1.1v-.25c0-.12-.02-.22-.06-.29s-.1-.12-.17-.16c-.08-.03-.17-.05-.29-.05-.08,0-.15,0-.22.02-.07.01-.12.02-.15.04,0,.03-.01.07-.02.12s-.02.1-.02.16,0,.12,0,.19,0,.12,0,.18c0,.02,0,.04,0,.05h-.41v-.75h-.26v1.01c0,.07-.02.13-.05.17-.03.04-.07.06-.12.06,0,0-.02,0-.04,0s-.04,0-.06,0v.22s.03,0,.05,0c.02,0,.04,0,.05,0,.08,0,.16-.02.22-.06.06-.04.11-.09.15-.16s.05-.15.05-.24v-.03h.4s0,.08,0,.12c0,.05,0,.1,0,.14,0,.05.01.09.02.12,0,.04.02.07.02.09.03,0,.08.02.15.03.07,0,.14.01.22.01.12,0,.21-.01.29-.04.08-.02.14-.06.17-.12.04-.06.06-.13.06-.22v-.14h2.73v-1.38h-.26v1.15ZM41.67,14.41s0-.1,0-.14,0-.1,0-.15c0-.05.01-.09.02-.14.05,0,.09,0,.14,0,.07,0,.12,0,.16.03.04.02.06.04.08.08.02.04.02.09.02.16v.26h-.41s0-.06-.01-.09ZM42.09,14.85s0,.07-.02.1c-.01.02-.04.04-.08.05s-.09.01-.16.01c-.05,0-.1,0-.15,0,0-.02,0-.04,0-.06,0-.04,0-.07,0-.1,0-.03,0-.06,0-.09,0-.01,0-.02,0-.04h.42v.13Z"/>
    <rect class="cls-3" x="46.64" y="15.39" width=".25" height=".22"/>
    <path class="cls-3" d="M47.44,14.5h-.37s-.05,0-.07,0c-.02,0-.04,0-.05-.01-.02,0-.03-.02-.06-.03l-.15.19s.1.06.16.07c.06.01.11.02.17.02h.09c0,.09-.02.15-.06.19-.04.04-.1.06-.19.06h-.55c-.07,0-.13-.01-.18-.03-.05-.02-.09-.05-.12-.09-.03-.04-.04-.08-.04-.13,0-.03,0-.07.01-.13,0-.06.02-.14.03-.22l-.26-.04c0,.06-.02.11-.02.16,0,.05-.01.1-.02.13,0,.04,0,.07,0,.1,0,.07.02.13.05.19.03.06.07.11.13.15.05.04.12.08.19.1.07.02.15.04.23.04h.55c.11,0,.2-.02.27-.06.08-.04.13-.1.18-.17.04-.07.06-.15.06-.25h0s.03,0,.03,0h.26v-1.38h-.26v1.15Z"/>
    <rect class="cls-3" x="46.28" y="15.39" width=".25" height=".22"/>
    <path class="cls-3" d="M48.14,13.8c-.07.04-.12.09-.16.17-.03.07-.05.16-.05.27s.02.2.05.27c.03.07.09.12.16.16.07.04.16.05.27.05h.18v.06c0,.07-.02.12-.06.15-.04.03-.11.05-.2.05-.03,0-.07,0-.11,0s-.1,0-.17-.02l-.04.21c.06.01.12.02.17.03.05,0,.1.01.15.01.11,0,.2-.02.28-.05.08-.03.14-.08.18-.15.04-.06.07-.14.07-.23v-1.03h-.44c-.11,0-.2.02-.27.06ZM48.41,14.5c-.06,0-.1,0-.13-.02-.03-.01-.06-.04-.07-.07-.01-.04-.02-.09-.02-.17,0-.08,0-.14.02-.17.01-.04.04-.06.07-.08.03-.01.08-.02.13-.02h.18v.53h-.18Z"/>
    <path class="cls-3" d="M50.29,14.5h-.42v-.17c0-.14-.02-.25-.07-.33-.04-.09-.11-.15-.19-.19s-.19-.06-.3-.06h-.16v.23h.16c.08,0,.13.01.18.03.04.02.07.06.09.11.02.05.03.12.03.21v.17h-.53v.23h1.48v-1.38h-.26v1.15Z"/>
    <rect class="cls-3" x="50.87" y="13.35" width=".26" height="1.38"/>
    <rect class="cls-3" x="52.31" y="13.45" width=".26" height=".22"/>
    <path class="cls-3" d="M52.75,14.74s-.01.09-.03.12c-.02.04-.05.06-.1.09-.04.02-.1.03-.17.03s-.13-.01-.18-.03c-.05-.02-.09-.05-.11-.09-.03-.04-.04-.08-.04-.13,0-.02,0-.06,0-.11,0-.05.01-.11.02-.18s.02-.15.04-.24l-.26-.04c0,.05-.02.11-.02.16,0,.06-.02.11-.02.16,0,.05-.01.1-.02.14s0,.08,0,.1c0,.09.03.17.08.25.05.07.12.13.21.17.09.04.19.06.3.06s.2-.02.29-.06c.08-.04.15-.09.2-.16s.07-.15.07-.25v-1h-.26v1Z"/>
    <path class="cls-3" d="M54.58,14.5h-.22s0,0,0,0c0,0,0,0,0,0h-.2v-.75h-.44c-.11,0-.2.02-.27.06-.07.04-.12.09-.16.17-.03.07-.05.16-.05.27s.02.2.05.27c.03.07.09.12.16.16.07.04.16.05.27.05h.18v.06c0,.07-.02.12-.06.15-.04.03-.11.05-.2.05-.03,0-.07,0-.11,0s-.1,0-.17-.02l-.04.21c.06.01.12.02.17.03.05,0,.1.01.15.01.11,0,.2-.02.28-.05.08-.03.14-.08.18-.15.04-.06.07-.14.07-.23v-.06h.2s0,0,0,0,0,0,0,0h.48v-1.38h-.26v1.15ZM53.71,14.5c-.06,0-.1,0-.13-.02-.03-.01-.06-.04-.07-.07-.01-.04-.02-.09-.02-.17,0-.08,0-.14.02-.17.01-.04.04-.06.07-.08.03-.01.08-.02.13-.02h.18v.53h-.18Z"/>
    <path class="cls-3" d="M57.58,14.5h-.22s0,0,0,0c0,0,0,0,0,0h-.2v-.22c0-.07,0-.14-.03-.2-.02-.06-.05-.12-.08-.17-.04-.05-.09-.09-.15-.12s-.14-.04-.22-.04c-.06,0-.12,0-.17.02-.05.01-.09.03-.13.06s-.08.06-.12.1c-.03.04-.07.08-.1.12v-.3h-.26v.75h-.47v-1.15h-.26v1.38h2.2s0,0,0,0,0,0,0,0h.48v-1.38h-.26v1.15ZM56.15,14.3s.05-.06.08-.1c.04-.04.08-.08.12-.11.04-.04.09-.06.14-.09.05-.02.1-.03.16-.03.05,0,.1.01.13.03.04.02.07.05.08.1s.03.1.03.18v.22h-.75v-.2Z"/>
    <rect class="cls-3" x="58.17" y="13.35" width=".26" height="1.38"/>
  </g>
  <rect class="cls-3" x="20.77" y="20.88" width="37.86" height=".34" rx=".11" ry=".11"/>
  <g>
    <path class="cls-3" d="M22.92,17.47h-.9v-1.28h.9v.25h-.62v.26h.53v.24h-.53v.27h.62v.25Z"/>
    <path class="cls-3" d="M23.99,17.47h-.9v-1.28h.28v1.02h.62v.25Z"/>
    <path class="cls-3" d="M25.07,17.47h-.9v-1.28h.9v.25h-.62v.26h.53v.24h-.53v.27h.62v.25Z"/>
    <path class="cls-3" d="M26.16,17.16c-.06.2-.24.32-.48.32-.32,0-.49-.2-.49-.5v-.3c0-.14.04-.26.13-.35s.21-.14.36-.14c.24,0,.41.13.48.32l-.27.1c-.02-.09-.1-.16-.21-.16-.13,0-.21.09-.21.21v.35c0,.12.07.21.21.21.11,0,.19-.06.21-.16l.27.1Z"/>
    <path class="cls-3" d="M27.2,16.45h-.35v1.02h-.28v-1.02h-.35v-.25h.98v.25Z"/>
    <path class="cls-3" d="M28.34,17.47h-.32l-.2-.49h-.18v.49h-.28v-1.28h.56c.12,0,.21.03.29.1s.12.16.12.28c0,.15-.08.28-.23.35l.24.54ZM27.88,16.45h-.24v.28h.23c.1,0,.17-.05.17-.14s-.05-.13-.16-.13Z"/>
    <path class="cls-3" d="M28.84,17.47h-.28v-1.28h.28v1.28Z"/>
    <path class="cls-3" d="M30.01,17.16c-.06.2-.24.32-.48.32-.32,0-.49-.2-.49-.5v-.3c0-.14.04-.26.13-.35s.21-.14.36-.14c.24,0,.41.13.48.32l-.27.1c-.02-.09-.1-.16-.21-.16-.13,0-.21.09-.21.21v.35c0,.12.07.21.21.21.11,0,.19-.06.21-.16l.27.1Z"/>
    <path class="cls-3" d="M30.48,17.47h-.28v-1.28h.28v1.28Z"/>
    <path class="cls-3" d="M31.59,16.45h-.35v1.02h-.28v-1.02h-.35v-.25h.98v.25Z"/>
    <path class="cls-3" d="M32.73,16.2l-.41.75v.52h-.27v-.52l-.41-.75h.3l.13.28.11.25h0l.11-.25.13-.28h.3Z"/>
    <path class="cls-3" d="M34.45,17.47h-.3l-.1-.26h-.43l-.1.26h-.3l.5-1.28h.22l.5,1.28ZM33.97,16.97l-.05-.15-.08-.25h0l-.07.25-.05.15h.25Z"/>
    <path class="cls-3" d="M35.64,17.47h-.25l-.32-.47-.19-.3h0v.77h-.28v-1.28h.25l.27.39.25.38h0v-.77h.28v1.28Z"/>
    <path class="cls-3" d="M35.89,16.2h.51c.21,0,.36.08.43.24.03.07.05.19.05.38,0,.2-.01.34-.05.41-.07.17-.23.25-.47.25h-.48v-1.28ZM36.17,16.45v.77h.19c.18,0,.24-.1.24-.27v-.23c0-.18-.07-.26-.25-.26h-.18Z"/>
    <path class="cls-3" d="M38.59,17.47h-.32l-.2-.49h-.18v.49h-.28v-1.28h.56c.12,0,.21.03.29.1s.12.16.12.28c0,.15-.08.28-.23.35l.24.54ZM38.13,16.45h-.24v.28h.23c.1,0,.17-.05.17-.14s-.05-.13-.16-.13Z"/>
    <path class="cls-3" d="M39.7,17.47h-.9v-1.28h.9v.25h-.62v.26h.53v.24h-.53v.27h.62v.25Z"/>
    <path class="cls-3" d="M40.92,17.47h-.25l-.32-.47-.19-.3h0v.77h-.28v-1.28h.25l.27.39.25.38h0v-.77h.28v1.28Z"/>
    <path class="cls-3" d="M42.08,17.47h-.9v-1.28h.9v.25h-.62v.26h.53v.24h-.53v.27h.62v.25Z"/>
    <path class="cls-3" d="M43.69,16.2l-.34,1.28h-.23l-.12-.41-.09-.35h0l-.09.35-.12.41h-.23l-.34-1.28h.3l.09.38.08.36h0l.1-.36.11-.38h.21l.11.38.1.36h0l.08-.36.09-.38h.3Z"/>
    <path class="cls-3" d="M44.82,17.47h-.3l-.1-.26h-.43l-.1.26h-.3l.5-1.28h.22l.5,1.28ZM44.34,16.97l-.05-.15-.08-.25h0l-.07.25-.05.15h.25Z"/>
    <path class="cls-3" d="M45.81,17.37c-.08.07-.17.11-.28.11h-.58v-1.28h.54c.27,0,.42.14.42.36,0,.1-.05.2-.16.25h0c.06.03.1.06.13.12.03.06.05.11.05.17,0,.11-.04.2-.12.27ZM45.45,16.45h-.22v.25h.22c.11,0,.16-.06.16-.13,0-.08-.05-.12-.16-.12ZM45.48,16.94h-.24v.28h.24c.11,0,.17-.06.17-.14s-.06-.14-.17-.14Z"/>
    <path class="cls-3" d="M47.02,17.47h-.9v-1.28h.28v1.02h.62v.25Z"/>
    <path class="cls-3" d="M48.1,17.47h-.9v-1.28h.9v.25h-.62v.26h.53v.24h-.53v.27h.62v.25Z"/>
    <path class="cls-3" d="M49.68,17.47h-.9v-1.28h.9v.25h-.62v.26h.53v.24h-.53v.27h.62v.25Z"/>
    <path class="cls-3" d="M50.9,17.47h-.25l-.32-.47-.19-.3h0v.77h-.28v-1.28h.25l.27.39.25.38h0v-.77h.28v1.28Z"/>
    <path class="cls-3" d="M52.06,17.47h-.9v-1.28h.9v.25h-.62v.26h.53v.24h-.53v.27h.62v.25Z"/>
    <path class="cls-3" d="M53.21,17.47h-.32l-.2-.49h-.18v.49h-.28v-1.28h.56c.12,0,.21.03.29.1s.12.16.12.28c0,.15-.08.28-.23.35l.24.54ZM52.75,16.45h-.24v.28h.23c.1,0,.17-.05.17-.14s-.05-.13-.16-.13Z"/>
    <path class="cls-3" d="M54.35,16.51l-.27.1c-.02-.09-.1-.16-.21-.16-.13,0-.21.09-.21.21v.35c0,.12.08.22.21.22.06,0,.11-.02.15-.06.04-.04.07-.09.07-.15h0s-.26,0-.26,0v-.23h.54v.25c0,.13-.05.24-.14.33-.1.09-.21.13-.35.13-.32,0-.49-.2-.49-.5v-.3c0-.14.04-.26.13-.35s.21-.14.36-.14c.24,0,.41.13.48.32Z"/>
    <path class="cls-3" d="M54.88,17.47h-.28v-1.28h.28v1.28Z"/>
    <path class="cls-3" d="M56.03,17.47h-.9v-1.28h.9v.25h-.62v.26h.53v.24h-.53v.27h.62v.25Z"/>
    <path class="cls-3" d="M56.94,16.53c-.09-.06-.19-.09-.31-.09s-.17.06-.17.12c0,.04.02.07.05.08.03.02.11.03.22.05.12.02.2.05.28.11.08.06.12.15.12.28s-.05.23-.15.3c-.1.07-.22.11-.35.11-.21,0-.39-.06-.52-.18l.16-.22c.1.09.22.13.37.13.12,0,.19-.06.19-.13,0-.08-.03-.13-.17-.14-.13-.01-.23-.04-.32-.09-.1-.05-.15-.15-.15-.29,0-.13.04-.22.13-.29.09-.07.19-.1.31-.1.18,0,.33.04.45.12l-.13.23Z"/>
    <path class="cls-3" d="M27.9,19.67h-.28v-1.28h.28v1.28Z"/>
    <path class="cls-3" d="M29.2,19.67h-.25l-.32-.47-.19-.3h0v.77h-.28v-1.28h.25l.27.39.25.38h0v-.77h.28v1.28Z"/>
    <path class="cls-3" d="M30.32,18.65h-.35v1.02h-.28v-1.02h-.35v-.25h.98v.25Z"/>
    <path class="cls-3" d="M31.38,19.67h-.9v-1.28h.9v.25h-.62v.26h.53v.24h-.53v.27h.62v.25Z"/>
    <path class="cls-3" d="M32.53,19.67h-.32l-.2-.49h-.18v.49h-.28v-1.28h.56c.12,0,.21.03.29.1s.12.16.12.28c0,.15-.08.28-.23.35l.24.54ZM32.07,18.65h-.24v.28h.23c.1,0,.17-.05.17-.14s-.05-.13-.16-.13Z"/>
    <path class="cls-3" d="M33.79,19.67h-.25l-.32-.47-.19-.3h0v.77h-.28v-1.28h.25l.27.39.25.38h0v-.77h.28v1.28Z"/>
    <path class="cls-3" d="M35.12,19.67h-.3l-.1-.26h-.43l-.1.26h-.3l.5-1.28h.22l.5,1.28ZM34.64,19.17l-.05-.15-.08-.25h0l-.07.25-.05.15h.25Z"/>
    <path class="cls-3" d="M36.05,18.65h-.35v1.02h-.28v-1.02h-.35v-.25h.98v.25Z"/>
    <path class="cls-3" d="M36.49,19.67h-.28v-1.28h.28v1.28Z"/>
    <path class="cls-3" d="M37.54,18.53c.09.09.14.21.14.36v.3c0,.15-.05.27-.14.36-.09.09-.21.14-.36.14s-.28-.05-.36-.14-.13-.21-.13-.36v-.3c0-.14.04-.26.13-.35s.21-.14.36-.14.27.05.36.14ZM36.97,19.2c0,.12.07.21.21.21s.21-.09.21-.21v-.35c0-.12-.08-.21-.21-.21s-.21.09-.21.21v.35Z"/>
    <path class="cls-3" d="M38.94,19.67h-.25l-.32-.47-.19-.3h0v.77h-.28v-1.28h.25l.27.39.25.38h0v-.77h.28v1.28Z"/>
    <path class="cls-3" d="M40.27,19.67h-.3l-.1-.26h-.43l-.1.26h-.3l.5-1.28h.22l.5,1.28ZM39.79,19.17l-.05-.15-.08-.25h0l-.07.25-.05.15h.25Z"/>
    <path class="cls-3" d="M41.3,19.67h-.9v-1.28h.28v1.02h.62v.25Z"/>
    <path class="cls-3" d="M42.89,19.67h-.9v-1.28h.9v.25h-.62v.26h.53v.24h-.53v.27h.62v.25Z"/>
    <path class="cls-3" d="M44.08,19.67h-.32l-.25-.41-.25.41h-.32l.43-.65-.41-.62h.32l.23.38.23-.38h.32l-.41.62.43.65Z"/>
    <path class="cls-3" d="M45.19,19.67h-.28v-.52h-.42v.52h-.28v-1.28h.28v.51h.42v-.51h.28v1.28Z"/>
    <path class="cls-3" d="M45.73,19.67h-.28v-1.28h.28v1.28Z"/>
    <path class="cls-3" d="M46.85,19.57c-.08.07-.17.11-.28.11h-.58v-1.28h.54c.27,0,.42.14.42.36,0,.1-.05.2-.16.25h0c.06.03.1.06.13.12.03.06.05.11.05.17,0,.11-.04.2-.12.27ZM46.48,18.65h-.22v.25h.22c.11,0,.16-.06.16-.13,0-.08-.05-.12-.16-.12ZM46.51,19.14h-.24v.28h.24c.11,0,.17-.06.17-.14s-.06-.14-.17-.14Z"/>
    <path class="cls-3" d="M47.44,19.67h-.28v-1.28h.28v1.28Z"/>
    <path class="cls-3" d="M48.56,18.65h-.35v1.02h-.28v-1.02h-.35v-.25h.98v.25Z"/>
    <path class="cls-3" d="M49,19.67h-.28v-1.28h.28v1.28Z"/>
    <path class="cls-3" d="M50.06,18.53c.09.09.14.21.14.36v.3c0,.15-.05.27-.14.36-.09.09-.21.14-.36.14s-.28-.05-.36-.14-.13-.21-.13-.36v-.3c0-.14.04-.26.13-.35s.21-.14.36-.14.27.05.36.14ZM49.48,19.2c0,.12.07.21.21.21s.21-.09.21-.21v-.35c0-.12-.08-.21-.21-.21s-.21.09-.21.21v.35Z"/>
    <path class="cls-3" d="M51.45,19.67h-.25l-.32-.47-.19-.3h0v.77h-.28v-1.28h.25l.27.39.25.38h0v-.77h.28v1.28Z"/>
  </g>
  <g>
    <path class="cls-1" d="M27.92,4.72c-.75-.5-1.56-.74-2.44-.74-1.13,0-1.67.5-1.67,1.25,0,.38.17.67.51.85.35.17.98.34,1.9.5.84.16,1.39.34,1.97.75.61.4.94,1.11.94,2.08,0,.92-.35,1.66-1.08,2.2-.71.54-1.59.81-2.64.81-1.59,0-2.89-.45-3.91-1.36l1.03-1.33c.79.72,1.79,1.09,2.96,1.09s1.83-.48,1.83-1.35c0-.78-.55-1.16-1.8-1.35-.81-.11-1.28-.2-1.94-.47-.92-.4-1.43-1.05-1.47-2.37,0-.92.33-1.64.98-2.14.67-.51,1.45-.77,2.37-.77,1.35,0,2.45.31,3.32.92l-.85,1.42Z"/>
    <path class="cls-1" d="M57.61,12.33h-1.93l-1.71-4.07h-1.83v4.07h-1.71V2.46h4.19c.86,0,1.57.26,2.15.78.58.51.86,1.19.86,2.05,0,1.25-.72,2.25-1.97,2.71l1.94,4.32ZM54.35,3.98h-2.21v2.75h2.15c.95,0,1.59-.52,1.59-1.43s-.58-1.32-1.53-1.32Z"/>
    <g>
      <path class="cls-2" d="M48.83,4.71l-1.15,1.05c-.75-.83-1.61-1.25-2.56-1.27-.81-.02-1.49.25-2.06.79s-.85,1.22-.87,2.03c-.01.57.1,1.07.34,1.51.24.44.58.79,1.02,1.05.44.26.94.39,1.49.4.47,0,.9-.07,1.29-.24.39-.17.82-.48,1.29-.93l1.07,1.16c-.64.6-1.24,1.01-1.8,1.24-.56.23-1.2.33-1.91.32-1.32-.03-2.38-.46-3.21-1.32-.82-.85-1.22-1.93-1.2-3.24.02-.85.22-1.59.62-2.24.39-.65.95-1.17,1.67-1.55.72-.39,1.49-.57,2.31-.56.7.01,1.37.17,2.01.48.64.31,1.19.74,1.65,1.29Z"/>
      <rect class="cls-2" x="46.3" y="5.53" width="1.36" height="3.73" transform="translate(54.37 -39.58) rotate(90)"/>
    </g>
    <g>
      <path class="cls-2" d="M38.97,4.71l-1.15,1.05c-.75-.83-1.61-1.25-2.57-1.27-.81-.02-1.5.25-2.06.79s-.86,1.22-.87,2.03c-.01.57.1,1.07.34,1.51.24.44.58.79,1.02,1.05.44.26.94.39,1.49.4.47,0,.9-.07,1.29-.24.39-.17.82-.48,1.3-.93l1.07,1.16c-.64.6-1.24,1.01-1.8,1.24-.56.23-1.2.33-1.91.32-1.32-.03-2.39-.46-3.21-1.32-.82-.85-1.22-1.93-1.2-3.24.02-.85.22-1.59.62-2.24.39-.65.95-1.17,1.67-1.55.72-.39,1.49-.57,2.31-.56.7.01,1.37.17,2.01.48.64.31,1.19.74,1.65,1.29Z"/>
      <rect class="cls-2" x="36.44" y="5.52" width="1.36" height="3.74" transform="translate(44.51 -29.73) rotate(90)"/>
    </g>
  </g>
</svg>