<?xml version="1.0" encoding="UTF-8"?>
<svg id="Layer_1" data-name="Layer 1" xmlns="http://www.w3.org/2000/svg" xmlns:xlink="http://www.w3.org/1999/xlink" viewBox="0 0 24.56 23.59">
  <defs>
    <style>
      .cls-1 {
        fill: url(#linear-gradient-2);
      }

      .cls-2 {
        fill: #213118;
      }

      .cls-3 {
        fill: #d4de25;
      }

      .cls-4 {
        fill: url(#linear-gradient);
      }
    </style>
    <linearGradient id="linear-gradient" x1="13.22" y1="3.96" x2="13.22" y2="17.26" gradientUnits="userSpaceOnUse">
      <stop offset="0" stop-color="#7c913a"/>
      <stop offset=".13" stop-color="#9bac32"/>
      <stop offset=".31" stop-color="#c4d028"/>
      <stop offset=".41" stop-color="#d4de25"/>
    </linearGradient>
    <linearGradient id="linear-gradient-2" x1="6.86" y1="7.88" x2="9.19" y2="13.64" gradientUnits="userSpaceOnUse">
      <stop offset="0" stop-color="#587434"/>
      <stop offset=".44" stop-color="#a0b12b"/>
      <stop offset=".74" stop-color="#d4de25"/>
    </linearGradient>
  </defs>
  <g>
    <g>
      <polygon class="cls-4" points="6.3 8.61 9.18 3.96 20.14 10.61 9.18 17.26 9.18 14.24 15.3 10.63 9.22 6.92 6.3 8.61"/>
      <polygon class="cls-1" points="6.3 8.61 8.27 11.71 6.3 14.81 11.63 11.38 9.22 6.92 6.3 8.61"/>
    </g>
    <g>
      <polygon class="cls-4" points="6.3 8.61 9.18 3.96 20.14 10.61 9.18 17.26 9.18 14.24 15.3 10.63 9.22 6.92 6.3 8.61"/>
      <polygon class="cls-1" points="6.3 8.61 8.27 11.71 6.3 14.81 11.63 11.38 9.22 6.92 6.3 8.61"/>
    </g>
    <path class="cls-3" d="M7.6,18.44h1.05l-1.73-1.82,1.58-1.61h-1.04l-1.42,1.47v-1.47h-.98l-1.9,1.92v.96h2.16v.55h.72v-.55h.83l-.72-.75h-.1v-.35l1.57,1.64ZM5.31,17.14h-1.42l1.42-1.34v1.34Z"/>
  </g>
  <g>
    <polygon class="cls-3" points="21.41 13.23 10.85 19.63 9.71 17.76 20.28 11.36 19.73 12.97 21.41 13.23"/>
    <path class="cls-2" d="M19.7,13.74l.34-.2-.91-.25.2-.82-.33.2-.17.75-.28-.47-.31.19-.24.98.19.31.69-.42.11.17.23-.14-.11-.17.26-.16-.38-.1-.03.02-.07-.11.82.22ZM18.72,13.77l-.45.28.19-.7.26.43Z"/>
    <g>
      <path class="cls-2" d="M11.45,18.43s-.12.01-.2-.05l-.71-.59.34-.21.59.54.03.11c.02.08,0,.16-.04.19ZM12.14,16.82l.34-.21.28,1.33-.38.23-.6-.49.16.76-.38.23-.16-.13s.05-.01.08-.03c.07-.05.11-.16.08-.28l-.02-.06-.18-.88.26-.15.75.61-.24-.92Z"/>
      <path class="cls-2" d="M13.18,16.61l.1,1.01-.34.2-.14-1.41.38-.23.17.11c-.13.03-.18.14-.17.32ZM14.37,16.96l-.34.21-.25-.17-.44.27-.03-.31.22-.13-.24-.16v-.07c-.01-.11.01-.21.1-.24.04-.02.1,0,.14.03,0,0,.56.36.86.56Z"/>
      <path class="cls-2" d="M14.74,15.24c.08.13,0,.32-.15.41l-1.02.62c-.06-.13-.01-.32.13-.4l1.03-.63ZM14.44,15.84l.47.78-.34.2-.47-.78.34-.2Z"/>
      <path class="cls-2" d="M16.07,14.44c.06.15,0,.32-.13.4l-.69.42c-.08.05-.18.14-.2.28l-.04-.07c-.09-.16-.04-.36.11-.45l.96-.58ZM16.59,15.3c.06.15,0,.32-.13.41l-.68.41c-.15.09-.36.04-.45-.11l-.14-.23c-.11-.18-.07-.34.1-.44l.07-.04v.02s.28.44.28.44c.01.02.06.09.14.04l.81-.49Z"/>
      <path class="cls-2" d="M17.43,13.61l.66,1.1-.34.2-.25-.41-.52.31.25.41-.34.2-.23-.37c-.11-.18-.07-.34.1-.44l.58-.35-.27-.45.34-.2ZM16.53,14.83l-.3-.49.34-.2.23.38-.07.04c-.08.05-.18.14-.2.28Z"/>
    </g>
  </g>
</svg>