<?xml version="1.0" encoding="UTF-8"?>
<svg id="Layer_1" data-name="Layer 1" xmlns="http://www.w3.org/2000/svg" viewBox="0 0 24.56 23.59">
  <defs>
    <style>
      .cls-1 {
        fill: #010101;
      }

      .cls-2 {
        fill: #fbb042;
      }
    </style>
  </defs>
  <g>
    <path class="cls-1" d="M9.16,14.28h-1.49c-.05,0-.1-.01-.15-.03-.05-.02-.07-.05-.07-.1v-.04c.05-.09.1-.15.18-.2.08-.05.12-.11.12-.17,0-.04-.03-.09-.09-.15l-2.8-3.01v2.98c0,.09.06.17.15.21.09.05.18.09.28.14.09.05.14.12.14.23,0,.06-.02.1-.06.12-.04.02-.09.03-.16.03h-1.41c-.06,0-.11,0-.15-.03-.04-.02-.06-.06-.06-.12,0-.1.05-.18.14-.23.09-.05.19-.09.28-.14.09-.05.14-.12.14-.21v-6.82c0-.09-.05-.17-.14-.21-.09-.05-.18-.1-.28-.15-.09-.05-.14-.12-.14-.22,0-.07.02-.11.06-.12s.09-.02.15-.02h1.41c.07,0,.12,0,.16.02s.06.05.06.12c0,.09-.05.17-.14.22-.09.05-.19.1-.28.15-.09.05-.14.12-.15.21v2.83l2.74-2.85c.06-.07.09-.12.09-.17,0-.06-.04-.11-.12-.16-.08-.05-.13-.11-.17-.2v-.04c-.01-.09.06-.13.21-.13h1.14c.06,0,.11,0,.15.02.04.01.06.05.06.11-.03.14-.12.24-.28.3-.16.06-.32.15-.46.26l-3.04,3.16,3.45,3.72c.15.12.3.21.46.27.16.06.26.15.28.28,0,.06-.02.1-.06.12-.04.02-.09.03-.15.03Z"/>
    <path class="cls-1" d="M18.07,14.35c-.68,0-1.29-.22-1.82-.65-.02,0-.03-.01-.04-.01-.08,0-.16.09-.24.26-.08.17-.18.28-.3.34h-.04c-.08.01-.11-.06-.09-.22v-2.82l.7-.93v2.25c.23.41.51.74.87.98.35.24.73.36,1.12.36.15,0,.31-.02.46-.06.46-.13.83-.4,1.1-.8.27-.4.41-.87.41-1.38,0-.23-.03-.47-.09-.71-.15-.57-.44-1.03-.85-1.38-.41-.35-.85-.52-1.32-.52-.16,0-.32.02-.48.06-.27.09-.5.22-.7.39-.2.18-.42.42-.67.74l-1.69,2.22v1.11c.02.17.07.28.16.33.09.05.18.08.26.1.09.02.13.08.13.18,0,.09-.07.13-.21.13h-.15c-.14,0-.29-.03-.46-.08-.21-.13-.33-.28-.38-.46-.05-.18-.07-.31-.07-.37-.14.22-.37.43-.7.64-.33.21-.76.32-1.29.32h-.1c-.14,0-.31-.02-.52-.05-.21-.03-.43-.09-.65-.19-.22-.1-.4-.25-.56-.46-.15-.21-.23-.5-.23-.86,0-.46.16-.84.49-1.15.28-.25.61-.44,1.01-.56.4-.12.8-.21,1.2-.25.4-.04.74-.06,1.02-.06h.31c-.04-.78-.2-1.29-.48-1.52-.17-.13-.41-.19-.72-.19h-.18c-.56.06-1.05.21-1.46.45.17.11.26.27.26.46,0,.15-.05.29-.16.39s-.23.16-.38.16c-.15,0-.29-.05-.39-.16-.11-.11-.16-.24-.16-.39,0-.18.07-.33.22-.44.11-.1.35-.26.7-.48.36-.22.79-.36,1.31-.43.12,0,.24-.01.35-.01.53,0,.93.12,1.2.37.28.28.46.64.53,1.09.07.45.1.92.1,1.4v.04l-.71.93v-1.21h-.25c-.28,0-.7.04-1.24.11-.54.07-1,.25-1.38.54-.26.22-.39.5-.39.85s.1.62.31.79c.21.16.43.26.67.3.24.04.41.06.51.06.38-.03.68-.12.9-.28.22-.16.36-.28.43-.37l.56-.68,1.73-2.26v-3.82c0-.09-.04-.14-.12-.16-.08-.02-.14-.03-.19-.03h-.04c-.06,0-.11,0-.15-.02-.04-.01-.06-.05-.06-.1v-.03c.05-.13.22-.27.52-.41.29-.15.51-.22.65-.22h.04s.06.03.06.08c0,.04.01.09.01.13v3.67c.51-.5,1.11-.76,1.82-.77h.13c.77,0,1.42.29,1.96.86.54.57.81,1.25.81,2.02s-.28,1.47-.85,2.03-1.25.85-2.05.85Z"/>
  </g>
  <g>
    <path class="cls-1" d="M4.66,18.1c-.17,0-.33-.02-.5-.06-.17-.04-.31-.09-.43-.16l.02-.61h.05l.14.29c.04.08.09.16.14.22.05.06.11.11.2.15.06.03.12.05.17.06.06.01.12.02.19.02.18,0,.33-.05.43-.15.11-.1.16-.23.16-.38,0-.15-.04-.26-.11-.34-.07-.08-.19-.16-.35-.24l-.18-.08c-.26-.11-.46-.25-.61-.39-.15-.15-.22-.35-.22-.59,0-.18.05-.33.14-.46.09-.13.22-.23.38-.3.16-.07.35-.1.57-.1.16,0,.31.02.45.06.14.04.27.1.37.17l-.03.54h-.05l-.18-.34c-.05-.11-.1-.18-.15-.22-.05-.04-.11-.07-.18-.09-.04-.01-.08-.02-.11-.02-.03,0-.08,0-.13,0-.15,0-.28.04-.39.13-.11.09-.16.21-.16.36s.04.28.12.37c.08.09.2.17.36.25l.21.09c.29.13.5.26.62.4.13.14.19.33.19.55,0,.26-.1.48-.3.65-.2.17-.48.25-.85.25Z"/>
    <path class="cls-1" d="M6.84,18.09c-.19,0-.34-.05-.45-.14-.11-.1-.16-.25-.16-.46v-1.54h-.31v-.05l.11-.02c.09-.02.17-.05.24-.09.07-.04.13-.09.2-.16l.37-.41h.05v.63s.49,0,.49,0v.09h-.51v1.62c0,.11.02.18.07.24.05.05.11.08.18.08.06,0,.12-.02.17-.05.05-.03.1-.07.14-.13l.05.05c-.06.1-.14.18-.25.24-.11.06-.23.09-.38.09Z"/>
    <path class="cls-1" d="M8.74,18.09c-.23,0-.43-.05-.59-.14-.17-.09-.3-.23-.39-.4-.09-.17-.14-.38-.14-.61s.05-.44.15-.61c.1-.17.23-.3.4-.4.17-.09.36-.14.57-.14s.4.05.57.14c.17.09.3.22.4.39.1.17.15.38.15.61s-.05.44-.14.61c-.09.17-.22.31-.39.4s-.36.14-.59.14ZM8.74,18c.11,0,.19-.03.25-.09.06-.06.11-.17.14-.32.03-.15.04-.37.04-.65s-.01-.5-.04-.65c-.03-.15-.07-.26-.14-.32-.06-.06-.15-.09-.25-.09s-.19.03-.25.09c-.06.06-.11.17-.14.32-.03.15-.04.37-.04.65s.01.5.04.65c.03.15.08.26.14.32.06.06.15.09.25.09Z"/>
    <path class="cls-1" d="M10.05,18.02v-.05l.07-.02c.06-.02.1-.05.12-.08s.03-.08.03-.14v-1.41c0-.07-.01-.11-.03-.15s-.06-.05-.12-.07l-.07-.02v-.05l.77-.26.05.05.04.39v.04c.04-.08.1-.16.16-.23.07-.07.14-.13.23-.17.08-.05.16-.07.25-.07.11,0,.2.03.26.09.06.06.09.14.09.24,0,.1-.03.18-.09.24-.06.06-.13.08-.21.08-.13,0-.24-.06-.33-.19h0c-.03-.05-.06-.07-.1-.08-.04,0-.08.01-.11.06-.03.03-.05.06-.07.1-.02.04-.04.08-.06.13v1.26c0,.12.05.2.16.23l.14.04v.05h-1.17Z"/>
    <path class="cls-1" d="M13.1,15.79c.2,0,.36.04.5.12.14.08.24.19.32.32.07.14.11.29.11.47,0,.03,0,.07,0,.1,0,.03,0,.07-.02.09h-1.34c0,.32.06.56.17.7.11.14.28.21.5.21.15,0,.27-.02.36-.07.09-.05.18-.12.26-.21l.05.04c-.09.17-.22.29-.37.39-.15.09-.34.14-.56.14s-.4-.05-.57-.14c-.17-.09-.29-.22-.39-.39-.09-.17-.14-.38-.14-.61s.05-.46.16-.63c.11-.17.25-.3.42-.39.17-.09.35-.14.53-.14ZM13.08,15.88c-.09,0-.16.03-.22.08-.06.05-.11.15-.14.28-.03.13-.05.32-.06.57h.77c.03-.33.02-.56-.04-.71-.05-.14-.16-.22-.31-.22Z"/>
  </g>
  <g>
    <path class="cls-2" d="M12.76,8.21c.06-.28.12-.55.19-.82,0-.04.01-.07-.03-.09-.04-.02-.05-.08-.04-.12.02-.04.06-.07.11-.07.05,0,.09.04.1.08.01.05-.01.1-.05.12-.01,0-.02.01-.04.02.04.18.08.35.2.48.12.13.27.14.42.09.11-.03.21-.09.3-.16.11-.09.22-.18.33-.27-.05-.07-.06-.13,0-.18.04-.03.09-.03.13,0,.04.02.06.07.05.12-.01.05-.05.08-.15.08-.02.12-.04.24-.05.37-.01.13-.01.26.02.39.04.16.13.29.3.32.08.01.17,0,.25,0,.08-.01.16-.05.24-.07.02,0,.03-.02.03-.04,0-.05.02-.1.07-.12.05-.02.1,0,.13.04.03.04.03.1,0,.13-.03.04-.09.05-.13.02-.03-.02-.04,0-.06.01-.2.2-.4.41-.6.61-.09-.26-.3-.42-.52-.56-.23-.16-.48-.28-.76-.36-.05-.01-.11-.03-.17-.03-.09-.01-.18-.02-.28.02Z"/>
    <path class="cls-2" d="M12.75,8.45c-.05-.11-.01-.18.1-.2.12-.02.23,0,.35.03.24.07.47.18.69.31.15.1.3.2.41.34.05.05.09.11.11.18.04.1,0,.17-.12.18.02-.07,0-.13-.04-.19-.07-.11-.17-.2-.28-.28-.24-.18-.51-.32-.8-.4-.08-.02-.16-.03-.25-.04-.07,0-.13,0-.18.07Z"/>
    <path class="cls-2" d="M14.36,8.34c.08-.07.16-.14.24-.21,0,0,.02-.02.02-.02.02-.02.02-.03,0-.06-.03-.04-.02-.09.02-.13.03-.03.08-.04.12-.02.05.02.07.07.06.12-.01.05-.05.09-.11.09-.03,0-.04.01-.05.04-.02.11-.03.22-.05.33,0,.01,0,.03,0,.04-.1.01-.23-.07-.26-.17Z"/>
    <path class="cls-2" d="M13.5,7.87c-.11.02-.23-.04-.28-.13.04-.03.08-.06.12-.1.06-.05.11-.11.17-.16.02-.01.02-.02,0-.05-.03-.05-.03-.1,0-.14.03-.04.08-.05.13-.03.05.02.07.07.06.12,0,.05-.05.09-.11.09-.03,0-.03.01-.04.04-.02.12-.04.23-.06.35Z"/>
  </g>
</svg>