<?xml version="1.0" encoding="UTF-8"?>
<svg id="Layer_1" data-name="Layer 1" xmlns="http://www.w3.org/2000/svg" xmlns:xlink="http://www.w3.org/1999/xlink" viewBox="0 0 24.56 23.59">
  <defs>
    <style>
      .cls-1 {
        fill: #fff;
      }

      .cls-2 {
        fill: none;
      }

      .cls-3 {
        fill: url(#radial-gradient);
      }

      .cls-4 {
        fill: #006bae;
      }

      .cls-5 {
        fill: url(#radial-gradient-3);
      }

      .cls-6 {
        fill: #0084c1;
      }

      .cls-7 {
        fill: url(#radial-gradient-2);
      }

      .cls-8 {
        fill: #fff200;
      }

      .cls-9 {
        clip-path: url(#clippath);
      }

      .cls-10 {
        fill: #0076c0;
      }
    </style>
    <clipPath id="clippath">
      <circle class="cls-2" cx="12.28" cy="11.8" r="8.83"/>
    </clipPath>
    <radialGradient id="radial-gradient" cx="-1512.68" cy="356.58" fx="-1512.68" fy="356.58" r="1.99" gradientTransform="translate(-1650.32 -222.48) rotate(175.66) scale(1.06 -1.01) skewX(-4.99)" gradientUnits="userSpaceOnUse">
      <stop offset=".12" stop-color="#14ace3"/>
      <stop offset=".46" stop-color="#0ea2dd"/>
      <stop offset=".93" stop-color="#282f69"/>
    </radialGradient>
    <radialGradient id="radial-gradient-2" cx="-1724.08" cy="480.31" fx="-1724.08" fy="480.31" r="1.8" gradientTransform="translate(-1903.99 -21.53) rotate(166.08) scale(1.04 -1.02) skewX(-5.78)" xlink:href="#radial-gradient"/>
    <radialGradient id="radial-gradient-3" cx="197.18" cy="2152.29" fx="197.18" fy="2152.29" r="2.83" gradientTransform="translate(-2420.01 906.82) rotate(-115.92) scale(1.05 1.2) skewX(-11.64)" xlink:href="#radial-gradient"/>
  </defs>
  <circle class="cls-10" cx="12.28" cy="11.8" r="8.83"/>
  <g class="cls-9">
    <path class="cls-6" d="M16.54,14.23c0,2.35-1.91,4.26-4.26,4.26s-4.26-1.91-4.26-4.26,4.26-9.14,4.26-9.14c0,0,4.26,6.78,4.26,9.14Z"/>
    <g>
      <path class="cls-4" d="M8.67,9.75v.75h-2.42v-2.43h.7v-1.32H2.55v1.32h.7v3.78c0,.45.2.85.51,1.13.27.31.68.51,1.13.51h3.77v.65h1.32v-4.39h-1.32Z"/>
      <path class="cls-4" d="M15.89,14.15v-.75h2.42v2.43h-.7v1.32h4.39v-1.32h-.7v-3.78c0-.45-.2-.85-.51-1.13-.27-.31-.68-.51-1.13-.51h-3.77v-.65h-1.32v4.39h1.32Z"/>
    </g>
  </g>
  <g>
    <path class="cls-1" d="M7.17,6.96v-1.53h1.07v.33h-.67v.27h.53v.32h-.53v.28h.67v.33h-1.07Z"/>
    <path class="cls-1" d="M8.4,6.96v-.39h.4v.39h-.4Z"/>
    <path class="cls-1" d="M9.64,6.98c-.14,0-.25-.02-.34-.05-.09-.03-.16-.08-.21-.15s-.08-.15-.1-.25c-.02-.1-.03-.21-.03-.35,0-.14.01-.26.04-.36.02-.1.06-.18.12-.25.05-.06.12-.11.21-.14.09-.03.19-.05.31-.05.06,0,.13,0,.2.01.07,0,.14.02.2.03.06.01.12.02.16.03v.31s-.1-.01-.16-.02c-.06,0-.12,0-.19-.01-.06,0-.12,0-.17,0-.07,0-.12,0-.16.02-.04.02-.07.04-.09.08-.02.04-.03.08-.04.14,0,.06-.01.13-.01.21,0,.1,0,.19.02.25.01.07.04.12.08.15.04.03.1.05.18.05.02,0,.03,0,.05,0,.02,0,.04,0,.06,0,.02,0,.04,0,.05,0v-.24h-.13v-.29s.51,0,.51,0v.82s-.08.01-.13.02c-.05,0-.1.01-.15.02-.05,0-.1.01-.15.01-.05,0-.09,0-.12,0Z"/>
    <path class="cls-1" d="M10.39,6.96v-.39h.4v.39h-.4Z"/>
    <path class="cls-1" d="M11.18,6.96v-1.2h-.37v-.33h1.13v.33h-.36v1.2h-.4Z"/>
    <path class="cls-1" d="M11.98,6.96v-.39h.4v.39h-.4Z"/>
    <path class="cls-1" d="M12.58,6.96v-1.53h.65c.1,0,.19.01.27.04.08.02.14.06.18.12.04.06.07.13.07.23,0,.06,0,.12-.02.16-.01.04-.03.08-.05.11-.02.03-.06.06-.1.09.05.02.08.04.12.07.03.03.06.06.07.11.02.04.02.1.02.18,0,.08-.01.15-.04.21-.03.06-.07.1-.12.13-.05.03-.11.06-.18.07-.07.01-.14.02-.21.02h-.66ZM12.99,6.05h.22s.08,0,.1-.02c.03-.01.05-.03.06-.06.01-.03.02-.06.02-.1,0-.06-.01-.1-.04-.13-.03-.03-.08-.04-.14-.04h-.21v.35ZM12.99,6.68h.22s.08,0,.11-.01c.03,0,.05-.03.06-.06.01-.03.02-.06.02-.11,0-.04,0-.07-.02-.09-.01-.02-.02-.04-.04-.05-.02-.01-.04-.02-.06-.03-.02,0-.05,0-.08,0h-.22v.36Z"/>
    <path class="cls-1" d="M13.95,6.96v-.39h.4v.39h-.4Z"/>
    <path class="cls-1" d="M14.55,6.96v-1.53h.59c.14,0,.25.02.34.05.09.03.16.09.21.17.05.08.07.19.07.34s-.02.26-.07.34c-.05.08-.12.15-.21.18-.09.04-.21.06-.34.06h-.19v.39h-.4ZM14.95,6.25h.17c.08,0,.14-.02.18-.06.04-.04.05-.1.05-.19s-.02-.15-.05-.19c-.03-.04-.09-.05-.18-.05h-.17v.49Z"/>
    <path class="cls-1" d="M15.83,6.96v-.39h.4v.39h-.4Z"/>
    <path class="cls-1" d="M16.44,6.96v-1.53h.4v.61h.47v-.61h.4v1.53h-.4v-.59h-.47v.59h-.4Z"/>
  </g>
  <g>
    <path class="cls-1" d="M8.23,15.53v-.85h.57v.14h-.39v.21h.32v.14h-.32v.22h.39v.14h-.57Z"/>
    <path class="cls-1" d="M9.36,15.55c-.07,0-.13,0-.18-.03s-.09-.05-.11-.09c-.02-.04-.04-.1-.04-.17v-.57h.17v.58s.01.08.04.11c.03.02.06.03.11.03s.09-.01.12-.03c.03-.02.04-.06.04-.11v-.58h.17v.57c0,.07-.01.13-.04.17-.03.04-.06.07-.11.09s-.11.03-.18.03Z"/>
    <path class="cls-1" d="M9.97,15.53v-.85h.33c.07,0,.13,0,.17.03.05.02.08.05.1.09.02.04.03.1.03.17,0,.06-.01.11-.03.16-.02.04-.06.07-.1.09l.13.32h-.18l-.11-.28h-.18v.28h-.17ZM10.14,15.11h.16s.06,0,.08-.02.03-.03.04-.05.01-.05.01-.08c0-.05-.01-.08-.03-.1-.02-.02-.06-.03-.1-.03h-.16v.28Z"/>
    <path class="cls-1" d="M10.86,15.53v-.85h.17v.7h.34v.15h-.51Z"/>
    <path class="cls-1" d="M11.98,15.53v-.85h.17v.35h.33v-.35h.17v.85h-.17v-.35h-.33v.35h-.17Z"/>
    <path class="cls-1" d="M12.94,15.53v-.85h.17v.85h-.17Z"/>
    <path class="cls-1" d="M13.39,15.53v-.85h.33c.07,0,.12,0,.17.03.05.02.08.05.11.08.03.04.05.08.06.13.01.05.02.11.02.17s0,.12-.02.18c-.01.05-.03.1-.06.14-.03.04-.06.07-.11.09s-.1.03-.17.03h-.33ZM13.56,15.39h.15s.07,0,.09-.02.04-.04.06-.06c.01-.03.02-.06.03-.09,0-.04,0-.07,0-.12s0-.08,0-.11-.01-.06-.03-.08-.03-.04-.05-.05c-.02-.01-.05-.02-.09-.02h-.15v.56Z"/>
    <path class="cls-1" d="M14.23,15.53l.22-.85h.3l.22.85h-.17l-.05-.17h-.3l-.04.17h-.17ZM14.48,15.22h.25l-.1-.4h-.05l-.1.4Z"/>
    <path class="cls-1" d="M15.26,15.53v-.32l-.26-.53h.19l.16.34.16-.34h.19l-.26.53v.32h-.17Z"/>
    <path class="cls-1" d="M15.73,15.53l.22-.85h.3l.22.85h-.17l-.05-.17h-.3l-.04.17h-.17ZM15.98,15.22h.25l-.1-.4h-.05l-.1.4Z"/>
    <path class="cls-1" d="M6.69,16.23s-.07,0-.1-.02-.05-.03-.06-.05c-.02-.02-.03-.05-.03-.08,0-.03,0-.07,0-.12s0-.09,0-.12c0-.03.02-.06.03-.08.02-.02.04-.04.06-.05.03-.01.06-.02.1-.02.02,0,.03,0,.05,0,.02,0,.04,0,.05,0,.02,0,.03,0,.04,0v.08s-.03,0-.04,0c-.02,0-.03,0-.05,0-.02,0-.03,0-.04,0-.02,0-.04,0-.06,0-.02,0-.03.02-.04.03s-.01.03-.02.06c0,.02,0,.05,0,.08s0,.06,0,.08c0,.02,0,.04.02.05,0,.01.02.02.04.03.02,0,.04,0,.06,0,.02,0,.04,0,.07,0,.02,0,.05,0,.06,0v.08s-.02,0-.04,0c-.02,0-.03,0-.05,0-.02,0-.04,0-.06,0Z"/>
    <path class="cls-1" d="M6.96,16.23l.13-.52h.18l.13.52h-.11l-.03-.11h-.18l-.03.11h-.11ZM7.11,16.03h.15l-.06-.25h-.03l-.06.25Z"/>
    <path class="cls-1" d="M7.54,16.23v-.52h.14l.17.37h.01v-.37h.11v.52h-.14l-.17-.37h-.01v.37h-.11Z"/>
    <path class="cls-1" d="M8.1,16.23l.13-.52h.18l.13.52h-.11l-.03-.11h-.18l-.03.11h-.11ZM8.25,16.03h.15l-.06-.25h-.03l-.06.25Z"/>
    <path class="cls-1" d="M8.69,16.23v-.52h.11v.43h.21v.09h-.31Z"/>
    <path class="cls-1" d="M9.13,16.23v-.52h.11v.52h-.11Z"/>
    <path class="cls-1" d="M9.58,16.23s-.04,0-.06,0-.05,0-.07,0c-.02,0-.04,0-.06,0v-.08s.04,0,.06,0c.02,0,.04,0,.06,0,.02,0,.04,0,.05,0,.02,0,.04,0,.05,0,.01,0,.02-.01.03-.02,0-.01,0-.02,0-.04,0-.01,0-.02,0-.03s-.01-.01-.03-.02-.03,0-.06-.01c-.03,0-.06-.01-.08-.02-.02,0-.04-.02-.05-.03-.01-.01-.02-.03-.03-.04,0-.02,0-.04,0-.06,0-.04,0-.07.02-.09.01-.02.04-.04.06-.05.03,0,.06-.01.1-.01.02,0,.04,0,.06,0s.04,0,.06,0,.04,0,.05,0v.08s-.04,0-.06,0c-.02,0-.04,0-.06,0-.02,0-.04,0-.05,0-.02,0-.03,0-.05,0s-.02.01-.03.02c0,0,0,.02,0,.03,0,.01,0,.03,0,.03,0,0,.02.01.03.02.01,0,.03.01.06.02.03,0,.06.01.08.02.02,0,.04.02.05.03s.02.02.03.04c0,.02,0,.04,0,.06,0,.04,0,.07-.02.1-.01.02-.04.04-.06.05-.03.01-.06.02-.1.02Z"/>
    <path class="cls-1" d="M9.87,16.23l.13-.52h.18l.13.52h-.11l-.03-.11h-.18l-.03.11h-.11ZM10.02,16.03h.15l-.06-.25h-.03l-.06.25Z"/>
    <path class="cls-1" d="M10.52,16.23v-.43h-.14v-.09h.38v.09h-.14v.43h-.11Z"/>
    <path class="cls-1" d="M10.89,16.23v-.52h.11v.52h-.11Z"/>
    <path class="cls-1" d="M11.38,16.23c-.06,0-.1,0-.13-.03-.03-.02-.06-.05-.07-.09-.01-.04-.02-.09-.02-.15s0-.11.02-.15c.01-.04.04-.07.07-.09.03-.02.08-.03.13-.03s.1.01.13.03c.03.02.06.05.07.09s.02.09.02.15,0,.11-.02.15-.04.07-.07.09c-.03.02-.08.03-.13.03ZM11.38,16.14s.06,0,.07-.02c.02-.01.03-.03.03-.06s0-.06,0-.1,0-.07,0-.1c0-.03-.02-.05-.03-.06-.02-.01-.04-.02-.07-.02s-.06,0-.07.02c-.02.01-.03.03-.03.06,0,.03,0,.06,0,.1s0,.07,0,.1c0,.03.02.05.03.06.02.01.04.02.07.02Z"/>
    <path class="cls-1" d="M11.76,16.23v-.52h.14l.17.37h.01v-.37h.11v.52h-.14l-.17-.37h-.01v.37h-.11Z"/>
    <path class="cls-1" d="M12.6,16.23v-.52h.11v.22h.2v-.22h.11v.52h-.11v-.22h-.2v.22h-.11Z"/>
    <path class="cls-1" d="M13.31,16.23v-.2l-.16-.33h.12l.1.21.1-.21h.11l-.16.33v.2h-.11Z"/>
    <path class="cls-1" d="M13.7,16.23v-.52h.2s.08,0,.1.02c.03.01.05.03.07.05.02.02.03.05.04.08,0,.03.01.07.01.11s0,.08-.01.11c0,.03-.02.06-.03.08-.02.02-.04.04-.07.06s-.06.02-.1.02h-.2ZM13.8,16.14h.09s.04,0,.06-.01.03-.02.03-.04c0-.02.01-.04.02-.06,0-.02,0-.05,0-.07s0-.05,0-.07c0-.02,0-.04-.02-.05,0-.01-.02-.03-.03-.03s-.03-.01-.06-.01h-.09v.35Z"/>
    <path class="cls-1" d="M14.27,16.23v-.52h.21s.08,0,.11.02.05.03.06.05c.01.02.02.06.02.1,0,.04,0,.07-.02.1-.01.03-.03.04-.06.06l.08.2h-.11l-.07-.18h-.11v.18h-.11ZM14.38,15.96h.1s.03,0,.05-.01.02-.02.03-.03c0-.01,0-.03,0-.05,0-.03,0-.05-.02-.06s-.03-.02-.06-.02h-.1v.18Z"/>
    <path class="cls-1" d="M14.78,16.23l.13-.52h.18l.13.52h-.11l-.03-.11h-.18l-.03.11h-.11ZM14.93,16.03h.15l-.06-.25h-.03l-.06.25Z"/>
    <path class="cls-1" d="M15.55,16.23s-.08,0-.11-.02c-.03-.01-.05-.03-.07-.06s-.02-.06-.02-.11v-.35h.11v.36s0,.05.02.06c.02.01.04.02.07.02s.06,0,.07-.02c.02-.01.02-.03.02-.06v-.36h.11v.35s0,.08-.02.11-.04.05-.07.06c-.03.01-.07.02-.11.02Z"/>
    <path class="cls-1" d="M15.92,16.23v-.52h.11v.43h.21v.09h-.31Z"/>
    <path class="cls-1" d="M16.37,16.23v-.52h.11v.52h-.11Z"/>
    <path class="cls-1" d="M16.97,16.34l-.07-.11s-.01,0-.02,0c0,0-.02,0-.03,0-.06,0-.1,0-.13-.03s-.06-.05-.07-.09c-.01-.04-.02-.09-.02-.15s0-.11.02-.15c.01-.04.04-.07.07-.09.03-.02.08-.03.13-.03s.1.01.13.03c.03.02.06.05.07.09s.02.09.02.15,0,.11-.02.15c-.01.04-.03.07-.06.09l.06.1-.09.04ZM16.86,16.14s.06,0,.07-.02c.02-.01.03-.03.03-.06s0-.06,0-.1,0-.07,0-.1-.02-.05-.03-.06c-.02-.01-.04-.02-.07-.02s-.06,0-.07.02c-.02.01-.03.03-.03.06,0,.03,0,.06,0,.1s0,.07,0,.1c0,.03.02.05.03.06.02.01.04.02.07.02Z"/>
    <path class="cls-1" d="M17.43,16.23s-.08,0-.11-.02c-.03-.01-.05-.03-.07-.06s-.02-.06-.02-.11v-.35h.11v.36s0,.05.02.06c.02.01.04.02.07.02s.06,0,.07-.02c.02-.01.02-.03.02-.06v-.36h.11v.35s0,.08-.02.11-.04.05-.07.06c-.03.01-.07.02-.11.02Z"/>
    <path class="cls-1" d="M17.81,16.23v-.52h.35v.09h-.24v.13h.2v.09h-.2v.13h.24v.09h-.35Z"/>
  </g>
  <g>
    <path class="cls-1" d="M7.44,18.33v-.69h.25l.12.42.12-.42h.26v.69h-.16v-.48h-.01l-.13.46h-.14l-.13-.46h-.01v.48h-.16Z"/>
    <path class="cls-1" d="M8.3,18.33v-.69h.47v.13h-.31v.14h.25v.13h-.25v.15h.31v.13h-.47Z"/>
    <path class="cls-1" d="M8.86,18.33v-.69h.27c.06,0,.11,0,.14.02s.07.04.09.07c.02.03.03.08.03.14,0,.05,0,.09-.03.12s-.04.06-.08.08l.1.26h-.17l-.08-.22h-.13v.22h-.16ZM9.02,17.99h.12s.04,0,.05-.01.02-.02.03-.04c0-.02,0-.03,0-.06,0-.03,0-.06-.02-.08s-.04-.03-.07-.03h-.11v.21Z"/>
    <path class="cls-1" d="M9.48,18.33v-.69h.27c.06,0,.11,0,.14.02s.07.04.09.07c.02.03.03.08.03.14,0,.05,0,.09-.03.12s-.04.06-.08.08l.1.26h-.17l-.08-.22h-.13v.22h-.16ZM9.64,17.99h.12s.04,0,.05-.01.02-.02.03-.04c0-.02,0-.03,0-.06,0-.03,0-.06-.02-.08s-.04-.03-.07-.03h-.11v.21Z"/>
    <path class="cls-1" d="M10.38,18.35c-.07,0-.13-.01-.18-.04-.04-.03-.08-.06-.1-.12-.02-.05-.03-.12-.03-.2s0-.15.03-.2c.02-.05.05-.09.1-.12.04-.03.1-.04.18-.04s.13.01.18.04c.04.03.08.07.1.12s.03.12.03.2,0,.15-.03.2c-.02.05-.05.09-.09.12-.04.02-.1.04-.18.04ZM10.38,18.21s.07,0,.09-.02c.02-.02.03-.04.04-.07,0-.03,0-.07,0-.12s0-.09,0-.12c0-.03-.02-.06-.04-.08-.02-.02-.05-.03-.09-.03s-.07,0-.09.03c-.02.02-.03.04-.04.08,0,.03-.01.07-.01.12s0,.09.01.12c0,.03.02.06.04.07.02.02.05.02.09.02Z"/>
    <path class="cls-1" d="M11.04,18.35c-.06,0-.11,0-.15-.02-.04-.01-.07-.04-.09-.08s-.03-.08-.03-.14v-.46h.16v.46s0,.06.03.08c.02.02.05.02.08.02s.07,0,.09-.02c.02-.02.03-.04.03-.08v-.46h.16v.46c0,.06-.01.11-.03.14s-.05.06-.09.08c-.04.02-.09.02-.15.02Z"/>
    <path class="cls-1" d="M11.68,18.35c-.05,0-.1,0-.13-.02-.04-.01-.06-.03-.08-.06s-.04-.07-.04-.11-.01-.1-.01-.16,0-.12.01-.16.02-.08.04-.11c.02-.03.05-.05.08-.06s.08-.02.14-.02c.02,0,.04,0,.07,0s.05,0,.07,0c.02,0,.04,0,.06.01v.13s-.03,0-.05,0c-.02,0-.04,0-.06,0-.02,0-.04,0-.06,0-.03,0-.05,0-.07.01-.02,0-.03.02-.04.04-.01.02-.02.04-.02.07,0,.03,0,.06,0,.1s0,.08,0,.1c0,.03.01.05.02.07.01.02.02.03.04.04.02,0,.04.01.07.01.03,0,.06,0,.09,0,.03,0,.06,0,.08,0v.12s-.03,0-.05.01c-.02,0-.05,0-.07,0s-.05,0-.08,0Z"/>
    <path class="cls-1" d="M11.97,18.33v-.69h.16v.28h.24v-.28h.16v.69h-.16v-.28h-.24v.28h-.16Z"/>
    <path class="cls-1" d="M12.64,18.33v-.69h.47v.13h-.31v.14h.25v.13h-.25v.15h.31v.13h-.47Z"/>
    <path class="cls-1" d="M13.65,18.35s-.06,0-.09,0c-.03,0-.06,0-.09-.01-.03,0-.05,0-.07-.01v-.12s.05,0,.08,0c.03,0,.06,0,.08,0s.05,0,.07,0c.02,0,.04,0,.06,0,.01,0,.03-.01.03-.03,0-.01,0-.03,0-.04,0-.01,0-.03,0-.04,0,0-.02-.02-.03-.02s-.04-.01-.07-.02c-.04,0-.08-.02-.11-.03s-.05-.02-.07-.04c-.02-.02-.03-.04-.04-.06s-.01-.05-.01-.09c0-.05,0-.1.03-.13.02-.03.05-.05.09-.07.04-.01.08-.02.13-.02.02,0,.05,0,.08,0,.03,0,.06,0,.09,0,.03,0,.05,0,.07.01v.13s-.05,0-.08,0c-.03,0-.05,0-.08,0-.03,0-.05,0-.07,0-.02,0-.04,0-.06,0-.01,0-.03.01-.03.02s-.01.02-.01.04c0,.02,0,.03.01.04s.02.02.04.02c.02,0,.04.01.07.02.04,0,.08.02.11.03s.05.02.07.04c.02.01.03.03.04.06,0,.02.01.05.01.09,0,.05,0,.1-.03.13s-.05.06-.08.07-.08.02-.13.02Z"/>
    <path class="cls-1" d="M14.26,18.35c-.07,0-.13-.01-.18-.04-.04-.03-.08-.06-.1-.12-.02-.05-.03-.12-.03-.2s0-.15.03-.2c.02-.05.05-.09.1-.12.04-.03.1-.04.18-.04s.13.01.18.04c.04.03.08.07.1.12s.03.12.03.2,0,.15-.03.2c-.02.05-.05.09-.09.12-.04.02-.1.04-.18.04ZM14.26,18.21s.07,0,.09-.02c.02-.02.03-.04.04-.07,0-.03,0-.07,0-.12s0-.09,0-.12c0-.03-.02-.06-.04-.08-.02-.02-.05-.03-.09-.03s-.07,0-.09.03c-.02.02-.03.04-.04.08,0,.03-.01.07-.01.12s0,.09.01.12c0,.03.02.06.04.07.02.02.05.02.09.02Z"/>
    <path class="cls-1" d="M14.66,18.33v-.69h.45v.13h-.29v.19h.24v.13h-.24v.23h-.16Z"/>
    <path class="cls-1" d="M15.18,18.33v-.69h.16v.69h-.16Z"/>
    <path class="cls-1" d="M15.41,18.33l.17-.69h.27l.17.69h-.16l-.03-.13h-.22l-.03.13h-.16ZM15.62,18.08h.18l-.07-.31h-.04l-.07.31Z"/>
    <path class="cls-1" d="M16.08,18.33v-.69h.19l.21.44h.02v-.44h.16v.69h-.19l-.21-.45h-.02v.45h-.16Z"/>
    <path class="cls-1" d="M16.77,18.33v-.69h.47v.13h-.31v.14h.25v.13h-.25v.15h.31v.13h-.47Z"/>
  </g>
  <g>
    <path class="cls-1" d="M14.7,11.92c0-.07-.04-.13-.1-.17-.05-.04-.12-.06-.19-.05h0s-.05,0-.07-.02c-.01,0-.03-.03-.02-.06,0-.07,0-.14,0-.22,0-.36-.08-.74-.24-1.13-.17-.43-.43-.85-.76-1.27-.37-.46-.84-.91-1.4-1.33-.07-.05-.14-.08-.22-.1-.04,0-.08-.02-.13-.03-.05-.02-.1-.02-.16-.02-.24,0-.45.16-.53.41-.04.13-.01.31.07.41.41.52.4.79.36.94-.06.23-.29.47-.53.73-.23.25-.5.53-.69.87-.24.43-.31.88-.23,1.37.1.58.41,1.1.89,1.49.47.38,1.06.58,1.65.58.06,0,.13,0,.19,0,.33-.03.65-.11.93-.26.28-.15.52-.35.71-.59.34-.44.5-.98.44-1.54Z"/>
    <g>
      <path class="cls-3" d="M11.42,8.05c2.1,2.54-.05,2.58.2,4.01.3,1.76,2.77,1.24,2.53-.19.16.97-.54,1.83-1.57,1.9-1.03.08-2-.65-2.17-1.62-.32-1.87,2.55-2.07,1.02-4.1Z"/>
      <path class="cls-7" d="M13.65,12.08c.35-.67.16-2.29-2.05-3.98,1.58,1.33.87,2.61.39,3.31-.58.83.92,2.08,1.66.67Z"/>
      <path class="cls-5" d="M13.65,12.08c.35-.67.16-2.29-2.05-3.98,1.58,1.33,1.11,2.58.63,3.27-.58.83.69,2.12,1.42.71Z"/>
    </g>
  </g>
  <g>
    <g>
      <polygon class="cls-8" points="5.18 10.8 5.5 11.45 6.23 11.56 5.7 12.07 5.83 12.8 5.18 12.45 4.53 12.8 4.65 12.07 4.13 11.56 4.85 11.45 5.18 10.8"/>
      <polygon class="cls-8" points="7.75 10.8 8.08 11.45 8.8 11.56 8.28 12.07 8.4 12.8 7.75 12.45 7.1 12.8 7.23 12.07 6.7 11.56 7.43 11.45 7.75 10.8"/>
    </g>
    <g>
      <polygon class="cls-8" points="16.81 10.8 17.13 11.45 17.86 11.56 17.33 12.07 17.46 12.8 16.81 12.45 16.16 12.8 16.28 12.07 15.76 11.56 16.48 11.45 16.81 10.8"/>
      <polygon class="cls-8" points="19.38 10.8 19.7 11.45 20.43 11.56 19.91 12.07 20.03 12.8 19.38 12.45 18.73 12.8 18.85 12.07 18.33 11.56 19.06 11.45 19.38 10.8"/>
    </g>
  </g>
</svg>