<?xml version="1.0" encoding="UTF-8"?>
<svg id="Layer_1" data-name="Layer 1" xmlns="http://www.w3.org/2000/svg" viewBox="0 0 24.56 23.59">
  <defs>
    <style>
      .cls-1 {
        fill: #231f20;
      }

      .cls-2 {
        fill: #f15d29;
      }
    </style>
  </defs>
  <g>
    <path class="cls-1" d="M15.2,3.18h-2.65v13.71l5.82-8.82-3.17-4.89ZM13.31,3.94h1.47l2.67,4.12-4.14,6.27V3.94Z"/>
    <polygon class="cls-1" points="6.19 8.07 7.06 9.48 7.11 8.07 9.01 5.13 9.01 12.33 9.78 13.49 9.78 3.94 9.78 3.94 11.25 3.94 11.25 15.62 12.01 16.9 12.01 3.18 9.36 3.18 6.19 8.07"/>
  </g>
  <g>
    <g>
      <path class="cls-2" d="M3.23,18.14h.89l.6.82.6-.82h.89v1.97h-.93v-.63l-.35.51h-.41l-.35-.51v.63h-.93v-1.97Z"/>
      <path class="cls-2" d="M9.11,18.71v.84c0,.39-.31.62-1.33.62s-1.33-.23-1.33-.62v-.84c0-.39.31-.62,1.33-.62s1.33.23,1.33.62ZM7.78,18.67c-.22,0-.29.02-.29.14v.63c0,.12.07.14.29.14s.29-.02.29-.14v-.63c0-.12-.07-.14-.29-.14Z"/>
      <path class="cls-2" d="M11.93,18.73v.78c0,.39-.31.59-1.33.59h-1.27v-1.97h1.27c1.02,0,1.33.2,1.33.59ZM10.61,18.7h-.23v.86h.23c.22,0,.29-.02.29-.14v-.58c0-.12-.07-.14-.29-.14Z"/>
      <path class="cls-2" d="M12.16,18.14h2.28v.56h-1.25v.19h1.2v.46h-1.2v.22h1.27v.56h-2.3v-1.97Z"/>
    </g>
    <g>
      <path class="cls-1" d="M15.49,19.12l-.94-1.28h1.5l.41.65.41-.65h1.49l-.94,1.26.94,1.32h-1.5l-.41-.68-.41.68h-1.49l.94-1.29Z"/>
      <path class="cls-1" d="M21.33,19.78v.63h-2.93v-2.57h1.31v1.94h1.62Z"/>
    </g>
  </g>
</svg>