<?xml version="1.0" encoding="UTF-8"?>
<svg id="Layer_1" data-name="Layer 1" xmlns="http://www.w3.org/2000/svg" xmlns:xlink="http://www.w3.org/1999/xlink" viewBox="0 0 24.56 23.59">
  <defs>
    <style>
      .cls-1 {
        fill: url(#linear-gradient-2);
      }

      .cls-2 {
        fill: url(#linear-gradient-3);
      }

      .cls-3 {
        fill: url(#linear-gradient);
      }
    </style>
    <linearGradient id="linear-gradient" x1="9.89" y1="7.45" x2="13.83" y2="14.27" gradientUnits="userSpaceOnUse">
      <stop offset="0" stop-color="#cf0076"/>
      <stop offset=".22" stop-color="#b20676"/>
      <stop offset=".7" stop-color="#691676"/>
      <stop offset="1" stop-color="#392276"/>
    </linearGradient>
    <linearGradient id="linear-gradient-2" x1="16.5" y1="10.65" x2="13.51" y2="5.47" gradientUnits="userSpaceOnUse">
      <stop offset="0" stop-color="#003775"/>
      <stop offset=".49" stop-color="#29aae2"/>
      <stop offset="1" stop-color="#6fccdd"/>
    </linearGradient>
    <linearGradient id="linear-gradient-3" x1="5.57" y1="5.47" x2="18.04" y2="5.47" gradientUnits="userSpaceOnUse">
      <stop offset="0" stop-color="#faed23"/>
      <stop offset=".67" stop-color="#ec2027"/>
      <stop offset="1" stop-color="#f15a26"/>
    </linearGradient>
  </defs>
  <g>
    <path d="M2.93,20.69h-.37v-2.08h.6s.06,0,.09,0c.03,0,.08,0,.14.02s.11.03.17.05c.05.02.11.05.16.09s.11.08.15.14c.04.05.07.12.1.2s.04.17.04.27-.02.2-.05.28c-.03.08-.07.15-.12.2s-.1.1-.17.14c-.06.04-.12.07-.18.09-.05.02-.11.03-.17.04-.06,0-.1.02-.12.02s-.04,0-.05,0h-.23v.55ZM2.93,19.77h.23s.06,0,.09,0c.03,0,.07-.01.12-.03s.09-.04.13-.06c.04-.03.07-.07.09-.12.03-.05.04-.11.04-.18,0-.06-.01-.12-.03-.16-.02-.05-.05-.08-.09-.11-.04-.03-.07-.05-.11-.07-.04-.02-.07-.03-.12-.04s-.07-.01-.09-.01c-.02,0-.04,0-.06,0h-.22v.79Z"/>
    <path d="M5.85,20.67c-.05.02-.1.02-.15.02-.11,0-.2-.03-.25-.1-.02-.03-.11-.14-.26-.34l-.04-.05s-.08-.06-.13-.06h-.01s-.06,0-.09,0h-.23v.55h-.37v-2.08h.6s.06,0,.09,0c.03,0,.08,0,.14.02s.11.03.17.05c.05.02.11.05.16.09s.11.08.15.14c.04.05.07.12.1.2s.04.17.04.27c0,.26-.1.46-.31.6.01,0,.03.02.03.03l.05.06c.21.27.32.43.35.46.02.03.02.05.01.08,0,.03-.03.04-.06.05ZM4.69,19.77h.23s.03,0,.05,0c.02,0,.04,0,.06,0,.02,0,.05,0,.07-.01.02,0,.05-.01.07-.02.03-.01.05-.02.07-.04.02-.01.04-.03.06-.05.02-.02.04-.04.05-.07s.03-.05.03-.09c0-.03.01-.07.01-.11,0-.06-.01-.12-.03-.16-.02-.05-.05-.08-.09-.11-.04-.03-.07-.05-.11-.07-.04-.02-.07-.03-.12-.04s-.07-.01-.09-.01c-.02,0-.04,0-.06,0h-.22v.79Z"/>
    <path d="M7.44,20.65c-.09.03-.18.04-.28.04s-.19-.01-.28-.04c-.09-.03-.18-.06-.25-.11s-.15-.1-.22-.17-.12-.14-.17-.21-.08-.16-.11-.25-.04-.18-.04-.28.01-.19.04-.28c.03-.09.06-.17.11-.25.05-.08.1-.15.17-.21.06-.06.14-.12.21-.16s.16-.08.25-.11c.09-.03.19-.04.28-.04s.19.01.28.04c.09.03.18.06.25.11.08.05.15.1.21.17s.12.14.17.22.08.16.11.25c.03.09.04.18.04.28s-.01.19-.04.28c-.03.09-.06.17-.11.25s-.1.15-.17.21-.14.12-.21.17c-.08.05-.16.08-.25.11ZM7.42,19c-.08-.03-.17-.05-.26-.05-.06,0-.12,0-.18.02-.06.02-.11.04-.16.07s-.1.07-.14.11-.08.09-.11.14c-.03.05-.05.11-.07.17-.02.06-.03.12-.03.18,0,.09.02.18.06.27.04.09.09.16.15.22.06.06.14.11.22.15.08.03.17.05.27.05.06,0,.12,0,.18-.02.06-.02.11-.04.17-.07.05-.03.1-.07.14-.11s.08-.09.11-.14c.03-.05.05-.1.07-.16.02-.06.02-.12.02-.18,0-.09-.02-.18-.05-.26-.04-.09-.09-.16-.15-.22-.06-.06-.14-.11-.22-.15Z"/>
    <path d="M9.27,20.69h-.37v-2.08h.6s.06,0,.09,0c.03,0,.08,0,.14.02s.11.03.17.05c.05.02.11.05.16.09s.11.08.15.14c.04.05.07.12.1.2s.04.17.04.27-.02.2-.05.28c-.03.08-.07.15-.12.2s-.1.1-.17.14c-.06.04-.12.07-.18.09-.05.02-.11.03-.17.04-.06,0-.1.02-.12.02s-.04,0-.05,0h-.23v.55ZM9.27,19.77h.23s.06,0,.09,0c.03,0,.07-.01.12-.03s.09-.04.13-.06c.04-.03.07-.07.09-.12.03-.05.04-.11.04-.18,0-.06-.01-.12-.03-.16-.02-.05-.05-.08-.09-.11-.04-.03-.07-.05-.11-.07-.04-.02-.07-.03-.12-.04s-.07-.01-.09-.01c-.02,0-.04,0-.06,0h-.22v.79Z"/>
    <path d="M12.12,20.45c-.08.08-.17.14-.28.18-.11.04-.22.06-.34.06-.08,0-.16-.01-.23-.03s-.14-.05-.21-.09c-.06-.04-.12-.08-.17-.14-.05-.05-.1-.11-.14-.17-.04-.07-.07-.14-.09-.21-.02-.07-.03-.15-.03-.23v-1.23h.17c.05,0,.1.02.14.06s.06.09.06.14v1.03c0,.07.01.14.04.2.03.06.06.12.1.16.04.05.1.08.16.11.06.03.13.04.2.04s.14-.01.2-.04c.06-.03.11-.06.16-.11.04-.04.08-.1.1-.16.03-.06.04-.13.04-.2v-1.03c0-.05.02-.1.06-.14s.09-.06.14-.06h.17v1.24c0,.13-.02.24-.07.35-.05.11-.11.2-.19.27Z"/>
    <path d="M13.77,20.69h-1.01v-2.08h.91c.08,0,.16.01.23.04.07.03.14.06.19.11.06.05.1.11.13.18.03.07.05.15.05.23,0,.11-.03.2-.08.28-.02.03-.04.05-.06.07.05.04.09.08.13.14.04.05.06.11.09.18.02.07.03.14.03.21,0,.09-.02.18-.05.25s-.08.14-.13.2c-.06.06-.12.1-.2.13-.04.02-.08.03-.11.04-.04,0-.08.01-.12.01ZM13.13,19.39h.54s.07,0,.1-.02c.03,0,.05-.02.07-.04.02-.02.03-.04.05-.07.01-.03.02-.05.02-.09s0-.06-.02-.08c-.01-.03-.03-.05-.06-.06-.03-.02-.06-.03-.09-.04-.04-.01-.08-.02-.13-.02h-.48v.42ZM13.79,20.32s.05,0,.08-.02c.03-.01.06-.03.08-.05.02-.02.04-.05.05-.08.01-.03.02-.07.02-.11s0-.09-.02-.12c-.02-.04-.04-.07-.06-.1-.02-.03-.05-.05-.08-.06-.03-.01-.06-.02-.09-.02h-.63v.56h.65Z"/>
    <path d="M17.16,19.35c.03.09.04.19.04.28s-.01.19-.04.28-.06.17-.11.25c-.05.08-.1.15-.17.22-.07.06-.14.12-.21.17-.08.05-.16.08-.26.11-.09.02-.18.04-.28.04s-.19-.01-.28-.04c-.09-.02-.18-.06-.25-.11s-.15-.1-.22-.16c-.06-.07-.12-.14-.16-.22-.05-.08-.08-.16-.11-.25-.02-.09-.04-.18-.04-.28s.01-.19.04-.28c.02-.09.06-.17.11-.25.05-.08.1-.15.16-.21s.14-.12.22-.17c.08-.05.16-.08.25-.11.09-.02.19-.04.28-.04s.19.01.28.04c.09.02.18.06.25.11s.15.1.22.17c.07.06.12.14.17.22.05.08.08.16.11.25ZM16.88,20.06c.04-.06.07-.13.09-.2s.03-.15.03-.23c0-.12-.02-.23-.07-.33-.04-.1-.11-.2-.19-.27-.08-.08-.17-.14-.27-.18-.1-.05-.21-.07-.33-.07-.08,0-.15.01-.23.03-.07.02-.14.05-.2.09-.06.04-.12.08-.17.14s-.1.11-.13.17c-.04.06-.07.13-.09.2-.02.07-.03.15-.03.23,0,.12.02.23.07.33s.11.19.18.27c.08.08.17.14.27.18.1.05.22.07.33.07.08,0,.16-.01.23-.03.07-.02.14-.05.2-.09.06-.04.12-.08.17-.13.05-.05.1-.11.14-.17Z"/>
    <path d="M19.03,18.61h.2v2.08h-.03c-.08,0-.14-.03-.18-.09l-1.37-1.67v.1s.03.03.03.04c.02.02.02.05.02.1v1.52h-.2v-2.08h.02c.07,0,.13.03.18.09l1.32,1.6v-1.69Z"/>
    <path d="M21.05,18.82h-1.19v.54h.93v.2h-.93v.93h1.16v.2h-1.37v-2.08h1.39v.2Z"/>
    <path d="M21.32,18.94c0-.2.15-.35.34-.35s.34.15.34.35-.15.35-.34.35-.34-.15-.34-.35ZM21.91,18.94c0-.16-.1-.26-.25-.26s-.25.1-.25.26.1.26.25.26.25-.1.25-.26ZM21.52,18.77h.15c.08,0,.14.04.14.11,0,.04-.02.07-.06.09l.07.13h-.1l-.05-.1h-.05v.1h-.1v-.34ZM21.65,18.94s.05-.02.05-.05-.02-.04-.05-.04h-.04v.09h.03Z"/>
  </g>
  <g id="ICON_P" data-name="ICON P">
    <path class="cls-3" d="M8,8.54c.54-.09,1.06-.25,1.56-.46,1.55-.62,2.95-1.56,4.39-2.4.08,1.1.06,2.22-.17,3.3-.33,1.65-.94,3.24-1.76,4.71-.56,1-1.22,1.94-1.99,2.78.21-.43.44-.86.61-1.3.66-1.71.96-3.57.84-5.41,0,0-2,.66-3.46-1.22Z"/>
    <path class="cls-1" d="M15.04,9.69c1.06-.58,2.04-1.37,2.63-2.44.19-.37.35-.78.39-1.2.05-.45-.1-.9-.43-1.21-1.14-1.09-3.5.27-3.5.27,1.18-.5,1.44.8,1.13,1.27-.15.34-.49.54-.82.67-.08,1.93-.61,3.82-1.38,5.59,0,0,1.41-1.87,1.97-2.93Z"/>
    <path class="cls-2" d="M17.64,4.84c.2.19.33.42.39.68-.05-.31-.16-.7-.42-1.11-.62-.98-1.74-1.52-2.89-1.4-.55.05-1.1.2-1.62.36-1.32.45-2.63.99-4.01,1.25-.31.06-.64.07-.93-.04-.36-.13-.59-.53-.54-.9-.02-.32.23-.55.41-.77-.62.18-1.2.52-1.64.99-.42.43-.68,1.01-.81,1.59-.07.61,0,1.28.37,1.79.21.25.47.47.77.6.79.32,1.69.14,2.46-.15,1.63-.64,3.13-1.57,4.63-2.46l.31-.16s2.36-1.36,3.5-.27Z"/>
  </g>
</svg>