<?xml version="1.0" encoding="UTF-8"?>
<svg id="Layer_1" data-name="Layer 1" xmlns="http://www.w3.org/2000/svg" viewBox="0 0 24.56 23.59">
  <defs>
    <style>
      .cls-1 {
        fill: #f7b132;
      }

      .cls-2 {
        fill: #1a2248;
      }
    </style>
  </defs>
  <g>
    <g>
      <path class="cls-1" d="M20.81,3.56c.17-.09.26-.1.35-.08.03,0,.05.03.06.06.03.32-.1.63-.23.92-.38.82-.88,1.6-1.43,2.32-.41.52-.85,1.06-1.45,1.36,0-.13,0-.26,0-.39-.26-.13-.52-.25-.77-.4.3,0,.61.01.91.02.17-.44.37-.87.67-1.24-.67-.33-1.33-.66-2-.98.09-.1.18-.21.27-.32.79.05,1.58.08,2.38.13.31-.47.63-.96,1.08-1.31.05-.04.1-.07.15-.1Z"/>
      <path class="cls-1" d="M20.39,6.31c.15.31.3.63.47.93-.14.13-.27.26-.41.4-.19-.23-.38-.46-.58-.69.18-.21.35-.43.52-.64Z"/>
    </g>
    <path class="cls-2" d="M5.82,6.65c1.16-.36,2.48-.13,3.48.57-.5.03-1-.03-1.49,0-.45.01-.9.09-1.34.18.1.3.32.54.52.78,1.14,1.37,2.62,2.57,4.41,2.92.99.15,2.02.06,2.95-.31,1.14-.46,2.15-1.21,3.05-2.05-.37.38-.69.81-1.1,1.15-.67.6-1.42,1.11-2.25,1.46-1.38.58-2.97.59-4.37.08-1.79-.65-3.29-1.91-4.49-3.37-.76.61-1.3,1.42-1.82,2.22-.09-1.58.98-3.14,2.47-3.65Z"/>
  </g>
  <g>
    <g>
      <path class="cls-2" d="M3.95,14.72v.62c0,.13.02.21.05.25.04.04.09.06.17.06.05,0,.08,0,.09.01.01,0,.02.02.02.04,0,.03-.03.04-.09.04-.03,0-.09,0-.2,0-.14,0-.24-.01-.29-.01-.06,0-.14,0-.25.01-.09,0-.15,0-.19,0-.03,0-.05-.02-.05-.05,0-.02.03-.04.09-.05.06,0,.1-.02.13-.05.02-.02.04-.06.05-.12.01-.06.02-.2.02-.45,0-.24,0-.45,0-.64v-.51c0-.07-.02-.12-.05-.17-.03-.04-.09-.06-.18-.06-.04,0-.06-.02-.06-.05,0-.04.03-.05.1-.05h.04c.06,0,.13,0,.21,0h.66c.34,0,.57.04.7.14.13.1.2.24.2.42s-.07.32-.21.43c-.14.11-.37.16-.7.16-.07,0-.16,0-.27,0ZM3.95,14.61c.06,0,.11,0,.14,0,.17,0,.3-.05.39-.16.09-.1.13-.23.13-.37,0-.14-.04-.24-.12-.31-.08-.07-.17-.1-.29-.1-.06,0-.14,0-.25.03v.9Z"/>
      <path class="cls-2" d="M6.54,14.64c.15.02.27.06.36.13.09.07.17.2.21.4.05.19.09.31.14.37.05.06.12.09.21.1.05,0,.08.02.08.05,0,.03-.04.05-.12.05l-.62-.02c-.06-.06-.11-.18-.13-.35-.03-.21-.06-.36-.09-.45-.03-.09-.08-.15-.15-.19s-.14-.06-.23-.06c-.02,0-.06,0-.1,0,0,.38,0,.62,0,.7,0,.09.02.15.05.19.03.04.09.06.18.06.05,0,.07.02.07.05s-.02.04-.06.04h-.5c-.07-.01-.15-.01-.26,0-.1,0-.16,0-.18,0-.04,0-.07-.02-.07-.05s.02-.05.06-.05c.06,0,.12-.02.17-.05.05-.03.08-.16.08-.38v-.3s0-.58,0-.58c0-.3-.01-.48-.04-.55-.03-.07-.1-.1-.21-.1-.05,0-.07-.02-.07-.05s.03-.05.09-.05c.3,0,.56,0,.78-.02.09,0,.18,0,.25,0,.25,0,.44.05.58.15.14.1.21.23.21.38,0,.11-.03.2-.1.29-.07.08-.15.15-.25.19-.1.04-.21.07-.35.08ZM6.1,14.57s.05,0,.06,0c.09,0,.19-.02.28-.05.1-.04.16-.09.2-.17.04-.08.06-.16.06-.25,0-.14-.04-.24-.12-.32-.08-.08-.18-.11-.31-.11-.05,0-.11,0-.18.03v.87Z"/>
      <path class="cls-2" d="M9.46,13.6c.03.17.07.34.1.51,0,.03-.02.05-.05.05-.02,0-.04-.02-.06-.05-.11-.16-.21-.27-.31-.32-.09-.05-.23-.08-.4-.08-.1,0-.19,0-.28.02-.02.19-.03.4-.03.63,0,.04,0,.1,0,.2h.12c.08,0,.14,0,.2-.03.06-.02.1-.07.14-.13.04-.07.06-.11.07-.13,0-.03.03-.05.05-.05.03,0,.05.01.05.04,0,0,0,.02,0,.03-.01.07-.02.27-.02.6,0,.05,0,.09.01.13,0,.01,0,.02,0,.03,0,.03-.02.05-.05.05-.02,0-.04-.03-.06-.09-.02-.1-.07-.18-.15-.23-.08-.05-.2-.08-.36-.08,0,.18,0,.3,0,.36,0,.25,0,.39.01.44,0,.05.04.08.08.11.05.03.13.04.24.04.41,0,.68-.13.81-.39.02-.04.04-.06.06-.06.03,0,.05.01.05.04,0,.02,0,.04,0,.07l-.11.47h-.59c-.17,0-.32,0-.46-.01-.14,0-.26,0-.34,0-.09,0-.23,0-.41.02-.02,0-.04,0-.05,0-.05,0-.08-.02-.08-.05,0-.03.02-.05.06-.05.1,0,.18-.03.21-.09.04-.06.05-.17.05-.35v-.83c0-.29,0-.46,0-.53,0-.07-.03-.11-.06-.13-.03-.02-.09-.04-.17-.05-.03,0-.05-.02-.05-.05,0-.03.02-.05.06-.05h.39s1.31.02,1.31.02Z"/>
      <path class="cls-2" d="M11.1,13.66s.03-.04.04-.06c.02-.03.03-.05.06-.05.03,0,.05.02.05.07l.06.44v.05s0,.04-.04.04c-.02,0-.04,0-.05-.02,0-.01-.03-.04-.06-.1-.05-.1-.12-.18-.23-.26-.11-.08-.21-.12-.32-.12s-.19.03-.26.09-.1.14-.1.23c0,.07.03.14.1.2s.19.11.37.17c.29.08.49.18.59.31.1.12.15.26.15.4s-.04.28-.11.38-.16.18-.27.24-.24.09-.4.09c-.09,0-.19-.01-.29-.04-.1-.03-.2-.07-.3-.12-.02.02-.04.06-.06.1-.02.04-.04.07-.06.07s-.04-.03-.05-.09l-.05-.59s0-.04,0-.05c0-.03.02-.05.05-.05.02,0,.05.03.07.08.07.16.16.3.27.41.11.11.24.16.39.16.13,0,.23-.04.31-.11.08-.08.12-.16.12-.26s-.04-.18-.11-.24c-.07-.07-.2-.13-.39-.19-.18-.06-.32-.12-.41-.17-.09-.05-.16-.13-.21-.22-.05-.09-.08-.19-.08-.29,0-.17.07-.31.2-.43.13-.12.31-.18.54-.18.12,0,.28.04.49.11Z"/>
      <path class="cls-2" d="M11.7,13.57c.56.02.98.02,1.25.02.2,0,.43,0,.68-.02.09,0,.16,0,.22,0,.02,0,.06,0,.11,0,0,.04.02.14.03.27l.02.26s-.02.06-.05.06c-.03,0-.05-.03-.08-.08-.04-.09-.09-.16-.16-.23-.06-.06-.14-.1-.22-.12-.08-.02-.23-.03-.42-.03-.02.17-.03.37-.03.62s0,.5.01.74c0,.24.02.38.04.43.01.05.04.08.07.11.03.02.11.04.24.05.04,0,.06.02.06.05,0,.03-.02.05-.06.05h-.05s-.34,0-.34,0c-.26,0-.42,0-.48,0h-.2s-.05,0-.1,0c-.02,0-.04-.02-.04-.04,0-.03.02-.05.06-.05.1,0,.17-.02.22-.06.05-.04.08-.1.09-.19.01-.09.02-.28.02-.57,0-.46-.01-.83-.04-1.12-.18,0-.31,0-.39.02-.08.01-.16.05-.23.12-.07.07-.13.15-.18.25-.02.04-.04.06-.06.06-.04,0-.06-.02-.06-.05,0,0,0-.08.02-.21.01-.13.03-.24.05-.33Z"/>
      <path class="cls-2" d="M14.24,13.58s.12,0,.23,0c.09,0,.16,0,.21,0h.5s.06,0,.06.03c0,.03-.02.04-.06.05-.09,0-.14.02-.17.05-.03.02-.05.08-.07.16-.02.08-.02.28-.02.57,0,.34,0,.61.02.79.01.19.03.3.07.35.03.04.09.07.16.07.05,0,.08.01.08.04,0,.04-.03.06-.09.06-.02,0-.04,0-.07,0-.2-.01-.34-.02-.42-.02-.16,0-.28,0-.36.01-.04,0-.07,0-.09,0-.04,0-.06-.02-.06-.05,0-.02.02-.04.05-.04.09-.01.15-.04.19-.08.03-.04.05-.13.06-.28,0-.15,0-.38,0-.7,0-.33,0-.56-.02-.67-.01-.11-.03-.18-.06-.21s-.08-.04-.16-.05c-.04,0-.06-.02-.06-.05,0-.03.02-.04.06-.04Z"/>
      <path class="cls-2" d="M18.53,13.75l.05.47s0,.04,0,.05c0,.03-.01.05-.04.05-.03,0-.05-.02-.07-.06-.08-.17-.2-.32-.33-.43-.14-.11-.3-.16-.48-.16-.23,0-.41.1-.54.29-.13.19-.2.42-.2.69,0,.29.07.54.22.72.14.19.31.28.51.28.08,0,.17-.02.25-.06.09-.04.14-.08.17-.12s.04-.11.04-.19c0-.18,0-.29-.02-.34-.01-.04-.04-.08-.07-.09-.03-.02-.1-.03-.21-.04-.04,0-.06-.02-.06-.05,0-.03.02-.05.06-.05h.25l.75-.02s.05.01.05.04c0,.02,0,.03-.02.03-.01,0-.06.02-.14.03-.06.01-.1.03-.11.06s-.03.19-.04.49c0,.07,0,.1,0,.11,0,0-.07.04-.19.11-.13.07-.26.11-.39.15-.13.03-.27.05-.4.05-.22,0-.42-.04-.6-.13-.18-.09-.32-.21-.42-.37-.11-.16-.16-.35-.16-.57,0-.31.11-.58.32-.81.21-.23.51-.34.88-.34.13,0,.25.02.36.05.11.03.23.08.36.14.03.01.05.02.07.02.02,0,.04-.02.05-.05.02-.04.04-.06.06-.06.03,0,.05.03.05.1Z"/>
      <path class="cls-2" d="M20.23,13.55c.22,0,.41.04.57.13s.3.21.39.38c.1.17.15.35.15.54,0,.3-.11.57-.34.81-.23.23-.51.35-.84.35-.3,0-.56-.1-.78-.29-.22-.19-.32-.46-.32-.79,0-.31.11-.58.33-.8.22-.22.5-.33.83-.33ZM20.79,14.66c0-.33-.06-.57-.17-.74-.11-.17-.25-.25-.42-.25s-.31.08-.42.25c-.11.17-.17.41-.17.74s.05.56.16.73c.11.17.25.26.43.26.16,0,.3-.08.41-.23.12-.16.18-.41.18-.76Z"/>
    </g>
    <g>
      <path class="cls-1" d="M9.59,14.92l.64-.12c.44-.07.88-.12,1.32-.12.07,0,.14,0,.2,0,.14,0,.29.03.42.09.02.01.05.02.07.03.01,0,.02,0,.03,0,.04,0,.07-.02.1-.06.01-.02.02-.05.02-.07,0-.03,0-.06-.03-.08-.03-.03-.06-.05-.1-.07-.13-.08-.27-.11-.42-.12-.12-.01-.24-.01-.36-.01-.27,0-.53.02-.8.05-.31.04-.62.08-.92.14-.03,0-.05,0-.06,0-.04,0-.05-.02-.08-.08-.03-.08-.07-.14-.16-.15h-.03c-.07,0-.13.03-.17.1-.04.05-.07.1-.09.16-.03.07-.08.1-.15.12-.24.05-.48.1-.71.16-.57.14-1.14.29-1.69.51-.33.14-.64.3-.9.54-.24.23-.4.49-.4.77s.08.53.23.7c.1.13.23.22.38.27.03,0,.05.01.07.01.06,0,.1-.03.13-.07.01-.02.02-.05.02-.07,0-.05-.03-.09-.07-.14-.05-.03-.09-.06-.14-.09-.19-.12-.3-.35-.3-.59,0-.13.04-.26.12-.37.12-.16.25-.29.42-.4.35-.23.72-.38,1.11-.51.49-.15.99-.27,1.49-.38.03,0,.05-.02.08-.02.01,0,.03,0,.04.02,0,.01.01.02.01.03,0,.03-.03.07-.04.09-.46.98-.92,1.97-1.33,2.98-.2.46-.39.92-.54,1.4-.03.11-.07.22-.07.34,0,.1.06.18.14.2.01,0,.03,0,.04,0,.07,0,.13-.05.16-.14.01-.02.01-.03.02-.05.09-.28.2-.55.31-.83.57-1.37,1.2-2.71,1.82-4.06.03-.07.08-.11.16-.12Z"/>
      <path class="cls-1" d="M10.82,16.41s-.08-.03-.11-.03c-.08,0-.15.04-.21.1-.16.12-.3.27-.44.42-.08.1-.18.2-.26.3,0-.01-.01-.02-.01-.02.03-.07.06-.13.09-.2.03-.06.04-.11.04-.16,0-.1-.05-.2-.16-.24-.04-.02-.08-.03-.12-.03-.1,0-.2.07-.26.18-.03.05-.06.1-.08.16-.15.36-.27.73-.36,1.1-.01.04-.01.08-.02.12v.03s0,.05,0,.08c.02.1.08.15.16.15.04,0,.08-.02.12-.05.05-.04.09-.08.13-.14l.51-.59c.23-.28.48-.55.74-.81.03-.03.06-.08.11-.08,0,.02,0,.05,0,.07,0,.07-.02.13-.02.2v.02c0,.1.04.15.1.16h.01c.06,0,.1-.04.13-.12.03-.1.05-.21.05-.31,0-.12-.03-.25-.15-.31Z"/>
      <path class="cls-1" d="M15.39,16.28s.03-.07.03-.1c0-.04-.02-.07-.05-.1-.02-.02-.05-.03-.08-.03-.04,0-.08.02-.12.06-.05.05-.09.1-.13.15-.31.39-.61.79-.9,1.18-.09.14-.19.27-.3.42,0-.03-.01-.06-.01-.08,0-.04,0-.07.01-.1.04-.21.07-.43.11-.64,0-.03,0-.05,0-.07,0-.05,0-.08-.03-.13-.05-.1-.14-.17-.25-.17h-.01c-.1.01-.2.09-.22.2-.01.05-.01.09-.01.13,0,.21,0,.41,0,.62-.03.02-.05.03-.07.05-.19.14-.35.29-.53.44-.12.1-.25.21-.38.31l-.02-.02c.07-.14.14-.28.2-.42.16-.34.33-.67.53-.99.05-.07.09-.14.09-.23v-.02c0-.12-.08-.2-.2-.2-.03,0-.05,0-.08.01-.05.02-.09.05-.13.09-.08.08-.16.18-.25.26-.04.04-.06.06-.08.06-.02,0-.04-.02-.07-.05-.12-.11-.25-.16-.39-.16-.06,0-.12,0-.18.03-.13.03-.25.09-.35.18-.25.23-.42.52-.49.86,0,.04-.01.07-.01.11,0,.07.01.12.04.19.05.13.16.2.29.2.03,0,.05,0,.08,0,.09-.02.17-.06.24-.11.23-.15.43-.35.64-.53.03-.03.05-.06.1-.07-.01.03-.01.05-.02.07-.11.26-.21.52-.29.79-.02.08-.04.15-.04.23,0,.12.07.2.17.2.03,0,.07,0,.1-.03.06-.03.11-.07.17-.11.34-.24.64-.53.95-.79,0,.05,0,.11.01.16,0,.04.01.08.03.13.03.1.1.15.18.15.05,0,.09-.01.14-.05.06-.04.1-.09.15-.15.41-.53.81-1.07,1.21-1.6.07-.1.14-.2.21-.29ZM12.15,17.36c-.19.2-.36.41-.59.57-.01.01-.03.03-.05.03-.02.01-.04.01-.05.01-.03,0-.04-.03-.04-.08,0-.02.01-.05.02-.07.1-.23.26-.42.48-.53.05-.03.09-.04.14-.04.02,0,.04,0,.06,0,.03,0,.05.03.05.05,0,.01,0,.03-.02.05Z"/>
      <path class="cls-1" d="M18.6,15.1s-.08-.04-.12-.04c-.06,0-.12.03-.17.08-.05.05-.08.1-.11.17-.31.68-.62,1.36-.91,2.05-.03.07-.05.13-.08.2-.04.01-.08.04-.11.05-.42.23-.88.38-1.34.49-.09.03-.19.05-.29.05-.14,0-.2-.05-.2-.15,0-.03,0-.06.01-.09.03-.1.08-.2.14-.29.03-.05.05-.08.08-.08s.05.01.09.04c.13.07.27.12.4.12.1,0,.22-.03.33-.09.2-.11.31-.27.31-.48,0-.05,0-.1-.02-.16-.06-.24-.27-.41-.51-.41-.04,0-.07,0-.11.01-.17.04-.31.12-.43.23-.28.25-.47.57-.57.93-.02.07-.03.14-.03.2,0,.29.17.47.44.48.04,0,.08,0,.12,0,.56-.11,1.08-.27,1.58-.53-.05.17-.1.34-.15.51-.01.08-.04.16-.04.25,0,.02,0,.04,0,.06.01.12.08.2.18.2.03,0,.05,0,.08-.01.09-.02.17-.08.24-.14.33-.29.66-.59.98-.9.03-.03.06-.06.08-.09.01-.02.02-.04.02-.06,0-.03-.01-.05-.03-.08-.03-.03-.06-.04-.09-.04-.01,0-.03,0-.05.01-.03.02-.07.05-.1.08l-.86.78s-.07.08-.16.1c.04-.1.07-.18.1-.26.29-.61.57-1.22.86-1.82.16-.34.35-.66.49-1,.01-.04.03-.07.05-.11,0-.03.01-.05.01-.07,0-.08-.05-.16-.12-.21ZM15.75,17.26c.08-.08.18-.15.29-.17.09,0,.15.05.2.12,0,.01.01.02.01.03,0,.02-.01.04-.03.06-.06.06-.13.09-.21.09-.08,0-.16-.03-.23-.06-.03-.01-.05-.03-.05-.05,0,0,0-.02.02-.03Z"/>
    </g>
  </g>
</svg>