<?xml version="1.0" encoding="UTF-8"?>
<svg id="Layer_1" data-name="Layer 1" xmlns="http://www.w3.org/2000/svg" viewBox="0 0 24.56 23.59">
  <defs>
    <style>
      .cls-1 {
        fill: #010101;
      }
    </style>
  </defs>
  <path class="cls-1" d="M13.47,16.15s.07-.07.1-.11c1.82-1.25,4.24-3.29,4.24-5.96,0-2.46-1.77-4.42-4.13-4.42-.15,0-.34.05-.57.13.46-.61.99-1.15,1.26-1.56-1.02-.63-2.08-.88-3.54-.88-1.99,0-5.94,3.13-5.94,4.54,0,1.87,1.91,2.51,3.89,3.16v6.21c-2.89-.42-4.26-2.69-4.28-4.14h-.2c-.17,1.67.88,4.74,4.48,5.1v1.02c0,.67-.47.63-1.4.67v.28h.02v.03h3.87v-.31s-.01,0-.02,0v-.03c-.47,0-1.05-.02-1.29-.39-.06-.1-.1-.23-.1-.39v-.89c.91-.14,2.08-.75,2.98-1.49,2.98.44,2,4.31,7.46,3.34v-.12c-3.97.28-3.49-3.84-6.82-3.81ZM13.2,6.48c1.75,0,3.48,1.63,3.48,3.83,0,2.03-1.2,3.5-2.49,4.72.04-.13.06-.25.06-.37,0-2.64-2.26-3.62-4.41-4.4v-.3c.13-1.6.84-2.6,1.77-3.09-.31.4-.49.77-.49,1.16,0,.65.53,1.06,1.51,1.18l.06-.12c-.51-.28-.51-1.06-.51-1.24,0-.43.17-.88.41-1.3.2-.03.4-.05.6-.05ZM6,7.51c0-1.85,2.5-3.28,4.88-3.28.9,0,1.63.14,2.48.69-.43.49-.83.9-1.18,1.27-.83.43-1.76,1.04-2.34,1.57v-.91c0-.67.49-.65,1.42-.69l-.02-.26h-3.87v.28c.33,0,.71.02.99.16.24.39.39,1.1.39,3.25v.27c-1.52-.56-2.77-1.15-2.77-2.36ZM9.85,11.42c1.75.62,3.3,1.43,3.3,3.31,0,1.68-1.18,2.58-3.3,2.6v-5.92Z"/>
</svg>