<?xml version="1.0" encoding="UTF-8"?>
<svg id="Layer_1" data-name="Layer 1" xmlns="http://www.w3.org/2000/svg" viewBox="0 0 24.56 23.59">
  <defs>
    <style>
      .cls-1 {
        fill: #004984;
      }

      .cls-2 {
        fill: #0069b5;
      }

      .cls-3 {
        fill: #e8a32b;
      }

      .cls-4 {
        fill: #414042;
      }
    </style>
  </defs>
  <g>
    <g>
      <polygon class="cls-3" points="8.63 14.56 8.72 14.57 8.72 14.07 8.63 14.08 8.34 14.08 8.25 14.07 8.25 14.57 8.34 14.56 8.63 14.56"/>
      <path class="cls-2" d="M10.35,14.01h-.73v1.85h-.21s-.23,0-.23,0v-.91l.11-.21h-1.3l-.44.36.03.14v.61h-.38v-.58s-.2-.24-.2-.24l-.14.03h-1.12l.4-.44.43-.03.27.07-.22-.61h-.94s-.06.23-.06.23l-.73.8-.22.08.52.47h0s1.42,0,1.42,0v.2h-2.47v-.9l.11-.21h-.87l.14.21v1.58l-.3.32-.25.12.57.3.7-.63-.11-.21v-.11l.15.16h2.31l.25-.26.35.26h1.57l.06.1.25-.35.24.25h.6l.35-.33-.03-.17v-1.76l.11-.21ZM8.56,15.86h-.35v-.52h.35v.52Z"/>
      <polygon class="cls-2" points="11.31 14.01 10.49 14.01 10.58 14.22 10.58 16.27 10.49 16.48 11.31 16.48 11.22 16.27 11.22 14.22 11.31 14.01"/>
      <polygon class="cls-4" points="12.97 14.39 13.06 14.4 13.06 13.89 12.97 13.9 12.68 13.9 12.59 13.89 12.59 14.4 12.68 14.39 12.97 14.39"/>
      <polygon class="cls-4" points="13.52 14.39 13.61 14.4 13.61 13.89 13.52 13.9 13.23 13.9 13.14 13.89 13.14 14.4 13.23 14.39 13.52 14.39"/>
      <polygon class="cls-4" points="14.29 16.68 14.19 16.67 14.19 17.17 14.29 17.16 14.58 17.16 14.67 17.17 14.67 16.67 14.58 16.68 14.29 16.68"/>
      <polygon class="cls-4" points="16.63 14.56 16.72 14.57 16.72 14.07 16.63 14.08 16.34 14.08 16.25 14.07 16.25 14.57 16.34 14.56 16.63 14.56"/>
      <polygon class="cls-4" points="16.08 14.56 16.17 14.57 16.17 14.07 16.08 14.08 15.79 14.08 15.69 14.07 15.69 14.57 15.79 14.56 16.08 14.56"/>
      <path class="cls-4" d="M21.55,15.15l.03-.14-.44-.36h-.79l-.44.36.03.14v.72h-.37v-.58s-.2-.24-.2-.24l-.14.03h-1.12l.4-.44.43-.03.27.07-.22-.61h-.94s-.06.23-.06.23l-.73.8-.22.08.52.47h0s1.42,0,1.42,0v.2h-2.41v-1.11h-.73l.11.21v.9h-.68s-.12,0-.12,0v-1.11h-.73l.11.21v.9h-.72v-1.04l.11-.21h-.7v.27l-.27-.27h-.33l-.44.36.03.14v.79l-.03.14.44.33h.44l.13-.18.24.28h1.41l.22-.24.2.21v.03h.99l.22-.24.22.23h0s.01.01.01.01h2.26l.25-.26.35.26h1.56l.44-.37-.03-.14v-.83ZM13.2,15.85h-.35v-.65h.35v.65ZM20.92,15.92h-.35v-.72h.35v.72Z"/>
    </g>
    <g>
      <path class="cls-2" d="M5.81,18.94h-.37l.03-.08-.03-.16h-.27l-.03.16.03.08h-.37l.04-.07.27-1.1-.06-.08h.44l.27,1.17.04.07ZM5.4,18.5l-.07-.4h-.07l-.07.4h.2Z"/>
      <path class="cls-2" d="M6.8,18.94h-.72l.04-.07v-1.1l-.04-.07h.39l-.04.07v.94c.1,0,.18,0,.24-.02.06-.02.11-.03.14-.05l-.03.3Z"/>
      <path class="cls-3" d="M7.05,18.38h.44v.18h-.44v-.18Z"/>
      <path class="cls-2" d="M8.2,18.94h-.41l.04-.07v-1.1l-.04-.07h.66l.07.28s-.03,0-.06-.02c-.03,0-.07-.01-.12-.02-.05,0-.12,0-.19,0v.35l.24-.11v.29s-.24-.08-.24-.08v.49l.05.07Z"/>
      <path class="cls-2" d="M9.18,18.94h-.39l.04-.07v-1.1l-.04-.07h.39l-.04.07v1.1l.04.07Z"/>
      <path class="cls-2" d="M10.49,18.94h-.39c-.02-.1-.04-.21-.06-.33,0-.07-.02-.14-.03-.2l-.16-.04v.5l.04.07h-.39l.04-.07v-1.1l-.04-.07h.39l-.04.07v.43l.11.03.15-.45-.03-.08h.42l-.04.07-.17.4-.22.09.27.07c.01.09.03.2.05.32.02.12.06.22.1.3Z"/>
      <path class="cls-2" d="M11.72,18.94h-.37s-.04-.09-.05-.15c-.01-.06-.03-.12-.04-.19l-.02-.12-.16-.04v.42l.04.07h-.39l.04-.07v-1.1l-.04-.07h.63l.25.19v.06s-.01.26-.01.26l-.21.14.19.05c.01.09.03.18.05.28.02.1.06.19.1.26ZM11.27,18.32v-.39h-.19v.34l.19.04Z"/>
      <path class="cls-4" d="M13.17,18.94h-.72l.04-.07v-1.1l-.04-.07h.39l-.04.07v.94c.1,0,.18,0,.24-.02.06-.02.11-.03.14-.05l-.03.3Z"/>
      <path class="cls-4" d="M13.83,18.94h-.39l.04-.07v-1.1l-.04-.07h.39l-.04.07v1.1l.04.07Z"/>
      <path class="cls-4" d="M14.71,18.94h-.6l.04-.07v-1.1l-.04-.07h.62l.26.19v.06s-.01.19-.01.19l-.18.18.2.11v.28s-.28.23-.28.23ZM14.65,18.25v-.32h-.19v.32h.19ZM14.65,18.71v-.32h-.19v.32h.19Z"/>
      <path class="cls-4" d="M16.26,18.94h-.37s-.04-.09-.05-.15c-.01-.06-.03-.12-.04-.19l-.02-.12-.16-.04v.42l.04.07h-.39l.04-.07v-1.1l-.04-.07h.63l.25.19v.06s-.01.26-.01.26l-.21.14.19.05c.01.09.03.18.05.28s.06.19.1.26ZM15.82,18.32v-.39h-.19v.34l.19.04Z"/>
      <path class="cls-4" d="M17.48,18.94h-.37l.03-.08-.03-.16h-.27l-.03.16.03.08h-.37l.04-.07.27-1.1-.06-.08h.44l.27,1.17.04.07ZM17.08,18.5l-.07-.4h-.07l-.07.4h.2Z"/>
      <path class="cls-4" d="M18.71,18.94h-.37s-.04-.09-.05-.15c-.01-.06-.03-.12-.04-.19l-.02-.12-.16-.04v.42l.04.07h-.39l.04-.07v-1.1l-.04-.07h.63l.25.19v.06s-.01.26-.01.26l-.21.14.19.05c.01.09.03.18.05.28.02.1.06.19.1.26ZM18.27,18.32v-.39h-.19v.34l.19.04Z"/>
      <path class="cls-4" d="M19.5,18.94h-.39l.04-.07v-.31l-.28-.21v-.06s.01-.52.01-.52l-.04-.07h.39l-.03.07v.59h.21v-.59l-.03-.07h.39l-.04.07v.58s-.26.21-.26.21v.31l.04.07Z"/>
    </g>
  </g>
  <g>
    <polygon class="cls-2" points="12.55 5.53 7.29 4.66 7.29 5.53 7.29 9.04 8.16 9.04 8.16 5.68 12.55 6.41 16.93 5.68 16.93 9.04 17.81 9.04 17.81 5.53 17.81 4.66 12.55 5.53"/>
    <g>
      <rect class="cls-3" x="14.32" y="7.61" width=".59" height=".59"/>
      <path class="cls-3" d="M8.15,10.14h8.44v-2.63h-.88v1.94h-.29v-.97h-1.61v.97h-.32v-.97h-2.04v-.32h2.04v-.65h-2.69v1.61h2.04v.32h-4.68M8.16,9.44v-.84h-.88v2.21h-.54v.86h1.42v-1.53M14.78,9.44h-.32v-.32h.32v.32Z"/>
      <rect class="cls-3" x="16.93" y="7.51" width=".88" height="2.63"/>
    </g>
    <polygon class="cls-1" points="16.93 10.14 16.93 10.79 12.55 11.67 8.16 10.79 8.16 11.67 12.55 12.55 17.81 11.67 17.81 10.79 17.81 10.14 16.93 10.14"/>
  </g>
</svg>