<?xml version="1.0" encoding="UTF-8"?>
<svg id="Layer_1" data-name="Layer 1" xmlns="http://www.w3.org/2000/svg" viewBox="0 0 24.56 23.59">
  <path d="M9.9,7.83s-.1.04-.14.06c-.63.28-1.02.76-1.11,1.45-.05.38.07.72.25,1.05.25.44.61.81.99,1.14.38.33.78.64,1.16.97.26.22.5.45.74.69.2.21.3.48.4.75.03.08.05.16.08.23.05.1.14.1.2,0,.03-.05.05-.12.06-.18.09-.42.29-.77.6-1.06.42-.4.86-.79,1.29-1.19.42-.38.82-.78,1.13-1.26.14-.22.25-.45.31-.7.13-.58-.06-1.07-.43-1.5-.2-.23-.47-.37-.75-.49-.04-.01-.07-.03-.1-.06.11-.04.19.04.31.05-.04-.03-.06-.05-.08-.06-.6-.34-1.15-.74-1.68-1.17-.65-.52-1.32-1.02-2.08-1.36-.7-.31-1.43-.51-2.2-.57-.33-.03-.66-.02-.97.07-.14.04-.28.1-.41.17-.54.31-.5.92-.25,1.27.16.22.39.35.64.44.18.06.37.1.59.16-.07,0-.11,0-.15,0-.35-.04-.68-.12-.96-.33-.43-.32-.73-1.06-.16-1.66.12-.12.26-.2.42-.26.27-.1.55-.15.83-.17.65-.03,1.3.03,1.94.12,1.03.15,2.01.48,2.98.86.58.23,1.18.44,1.78.61.49.14.99.16,1.5.08.34-.06.66-.19.93-.41.02-.02.05-.04.08-.06.01.03.02.05.02.07.03.46-.01.9-.2,1.32-.26.55-.7.87-1.29.99-.32.06-.64.06-.96,0,.04.03.09.06.13.08.63.36,1.02.9,1.21,1.6.09.33.12.66.08.99-.05.51-.28.94-.64,1.29-.33.32-.68.61-1.02.91-.4.35-.83.67-1.18,1.07-.46.53-.6,1.18-.31,1.83.2.46.56.74,1.04.86.23.05.45.09.69.07-.03.02-.07.05-.1.06-.23.08-.46.13-.71.09-.2-.03-.41-.06-.59-.15-.39-.2-.74-.45-.99-.82-.14-.2-.24-.42-.31-.65,0-.02,0-.03-.02-.04-.03-.04-.07-.1-.11-.1-.04,0-.09.05-.11.09-.03.04-.04.1-.05.15-.16.6-.53,1.03-1.05,1.35-.26.16-.54.24-.84.27-.27.03-.54-.03-.79-.18.03,0,.06,0,.08,0,.72.12,1.62-.4,1.76-1.23.1-.57-.06-1.06-.44-1.49-.29-.32-.63-.58-.97-.84-.38-.29-.75-.59-1.12-.89-.32-.26-.59-.56-.76-.95-.15-.34-.2-.7-.18-1.07.03-.46.14-.9.39-1.3.35-.55.83-.94,1.48-1.08.03,0,.05,0,.08,0,0,0,0,0,.02.03Z"/>
  <path d="M14.29,5.42c-.23-.08-.43-.16-.63-.23-.59-.21-1.18-.44-1.77-.63-.32-.11-.67-.16-1-.24-.13-.03-.13-.03-.13-.16,0-.48.24-.84.62-1.11.08-.06.17-.11.27-.18-.21-.03-.64.19-.89.45-.24.25-.37.55-.46.88-.04,0-.08,0-.12,0,0-.03,0-.04,0-.06.22-.87.81-1.43,1.72-1.51.51-.04,1.01.04,1.47.26.45.22.74.58.85,1.07.1.47.08.95.06,1.46Z"/>
  <path d="M16.18,19.52c.19,0,.35,0,.51,0,.09,0,.17,0,.26,0,.09,0,.11.03.11.12,0,.09-.02.12-.11.13-.2,0-.4,0-.6,0-.05,0-.1,0-.16,0v.68c.06,0,.11,0,.17,0,.27,0,.54,0,.81,0,.12,0,.14.02.14.13,0,.1-.02.13-.12.13-.18,0-.35,0-.53,0-.21,0-.42,0-.63,0-.15,0-.17-.01-.17-.16,0-.38,0-.76,0-1.14,0-.03,0-.05,0-.11-.04.04-.06.06-.08.09-.13.22-.26.45-.39.67-.01.02-.02.05-.04.07-.09.13-.21.13-.29,0-.13-.22-.25-.45-.38-.67-.02-.04-.05-.08-.09-.12-.03.23-.02.45-.02.68,0,.22,0,.45,0,.69h-.31c0-.06,0-.12,0-.18,0-.58,0-1.16,0-1.74,0-.07-.04-.16.07-.19.13-.04.22,0,.28.11.16.29.33.58.49.87.03.05.06.11.11.18.04-.07.07-.12.1-.17.17-.3.35-.59.52-.89.05-.08.1-.12.19-.12.39,0,.77,0,1.16,0,.02,0,.04,0,.07.01,0,.03.02.06.02.09,0,.12-.01.14-.14.14-.25,0-.49,0-.74,0-.06,0-.12,0-.19,0-.02.23,0,.45,0,.69Z"/>
  <path d="M9.3,19.52c.24,0,.46,0,.67,0,.04,0,.08,0,.11,0,.1,0,.13.03.13.12,0,.1-.03.13-.14.13-.19,0-.39,0-.58,0-.06,0-.12,0-.19,0-.01.23,0,.45,0,.68.07,0,.13,0,.18,0,.28,0,.56,0,.84,0,.12,0,.14.03.14.14,0,.09-.03.11-.14.11-.28,0-.56,0-.84,0-.16,0-.31,0-.45,0-.02-.02-.02-.02-.03-.02,0,0,0,0,0-.01,0-.03-.01-.05-.01-.08,0-.64,0-1.28,0-1.92,0-.02,0-.04.01-.06.11-.04,1.21-.05,1.41,0v.21c-.36.04-.72,0-1.1.03-.01.22,0,.44,0,.68Z"/>
  <path d="M13.52,19.97c-.14,0-.28-.01-.42-.02-.06,0-.08.05-.09.09-.06.17-.13.33-.19.5-.08.19-.18.23-.38.12.02-.05.03-.1.05-.15.23-.59.46-1.19.69-1.78.03-.07.05-.14.14-.15.12-.01.17.01.2.13.17.61.34,1.22.51,1.83,0,.03.02.06.02.09,0,.02,0,.04-.02.06-.07.07-.3.01-.32-.08-.05-.17-.09-.34-.14-.51-.01-.04-.03-.08-.04-.13ZM13.46,19.7c-.04-.15-.08-.28-.13-.45-.08.16-.13.3-.18.45h.31Z"/>
  <path d="M10.82,20.82c.07.01.14.03.2.03.16.02.31,0,.45-.07.22-.12.3-.33.2-.56-.04-.09-.1-.18-.15-.26-.11-.16-.23-.32-.35-.48-.02-.03-.04-.06-.06-.09-.2-.33-.14-.63.17-.86.23-.17.48-.23.79-.19-.14.04-.26.06-.36.1-.25.11-.34.3-.26.56.05.15.12.29.2.42.11.18.24.36.35.54.04.07.08.14.11.21.09.26-.02.53-.28.67-.29.16-.6.17-.92.06-.04-.01-.07-.04-.11-.06,0,0,0-.01,0-.02Z"/>
  <path d="M7.06,20.82c.07.01.13.02.2.03.16.02.31,0,.45-.07.23-.12.31-.34.2-.57-.04-.09-.1-.18-.16-.26-.12-.18-.25-.35-.37-.53-.26-.39-.16-.76.25-.98.21-.11.43-.16.67-.12-.12.03-.25.05-.36.1-.25.11-.34.3-.25.56.04.14.11.27.19.39.12.19.25.37.37.56.05.09.1.18.12.28.05.26-.06.47-.28.6-.3.18-.63.19-.96.06-.03-.01-.05-.03-.08-.05v-.02Z"/>
</svg>