<?xml version="1.0" encoding="UTF-8"?>
<svg id="Layer_1" data-name="Layer 1" xmlns="http://www.w3.org/2000/svg" xmlns:xlink="http://www.w3.org/1999/xlink" viewBox="0 0 24.56 23.59">
  <defs>
    <style>
      .cls-1, .cls-2 {
        fill: url(#Or_radial);
      }

      .cls-3 {
        fill: #fff;
      }

      .cls-4 {
        fill: url(#Or_radial-2);
      }

      .cls-4, .cls-5, .cls-6, .cls-7, .cls-8, .cls-2, .cls-9, .cls-10, .cls-11 {
        stroke: #000;
        stroke-miterlimit: 10;
        stroke-width: 0px;
      }

      .cls-12 {
        fill: url(#Or_radial-3);
      }

      .cls-5 {
        fill: none;
      }

      .cls-13 {
        fill: url(#Or_radial-6);
      }

      .cls-6 {
        fill: url(#Or_radial-11);
      }

      .cls-14 {
        clip-path: url(#clippath-1);
      }

      .cls-15 {
        fill: url(#Or_radial-9);
      }

      .cls-16 {
        clip-path: url(#clippath-3);
      }

      .cls-7 {
        fill: url(#Or_radial-7);
      }

      .cls-17 {
        fill: #1c7dc1;
      }

      .cls-18 {
        fill: #f15833;
      }

      .cls-8 {
        fill: url(#Or_radial-5);
      }

      .cls-9 {
        fill: url(#Or_radial-10);
      }

      .cls-19 {
        clip-path: url(#clippath-2);
      }

      .cls-10 {
        fill: url(#Or_radial-4);
      }

      .cls-20 {
        clip-path: url(#clippath);
      }

      .cls-11 {
        fill: url(#Or_radial-8);
      }
    </style>
    <radialGradient id="Or_radial" data-name="Or radial" cx="13.06" cy="12.73" fx="13.06" fy="12.73" r=".87" gradientUnits="userSpaceOnUse">
      <stop offset="0" stop-color="#fcf9ce"/>
      <stop offset=".12" stop-color="#f8f0bc"/>
      <stop offset=".35" stop-color="#edd990"/>
      <stop offset=".37" stop-color="#edd88d"/>
      <stop offset=".69" stop-color="#edbc2a"/>
      <stop offset="1" stop-color="#c2932e"/>
    </radialGradient>
    <clipPath id="clippath">
      <path class="cls-2" d="M12.18,12.73c-.03.33.01.57.13.71.07.09.18.14.31.14h1.16s.01,0,.01-.01l.09-.93s0,0,0,0c0,0,0,0,0,0,0,0-.43,0-.43,0,0,0-.01,0-.01.01l-.05.48h-.61c-.06-.02-.1-.06-.11-.12-.02-.21.02-.41.09-.62.03-.05.08-.07.15-.07h1s.01,0,.01-.01l.04-.41s0,0,0,0c0,0,0,0,0,0h-1.13c-.36.02-.58.3-.63.85"/>
    </clipPath>
    <radialGradient id="Or_radial-2" data-name="Or radial" cx="13.05" cy="12.73" fx="13.05" fy="12.73" r=".88" xlink:href="#Or_radial"/>
    <radialGradient id="Or_radial-3" data-name="Or radial" cx="14.93" cy="12.73" fx="14.93" fy="12.73" r=".85" xlink:href="#Or_radial"/>
    <radialGradient id="Or_radial-4" data-name="Or radial" cx="14.93" cy="12.73" fx="14.93" fy="12.73" r=".85" xlink:href="#Or_radial"/>
    <clipPath id="clippath-1">
      <path class="cls-10" d="M14.8,11.88c-.2,0-.36.06-.45.14-.09.08-.16.21-.19.39-.02.17.02.31.1.4.08.1.22.15.41.15h.43c.09,0,.15,0,.19.01.03,0,.05.03.06.07-.01.05-.04.08-.08.09-.04,0-.1,0-.18,0h-.95s-.01,0-.01.01l-.04.43s0,0,0,0c0,0,0,0,0,0h.99c.21,0,.37-.05.46-.13.09-.08.15-.21.18-.39.02-.17-.01-.31-.08-.41-.07-.1-.2-.15-.38-.16h-.45c-.07,0-.12,0-.16-.01-.03,0-.05-.03-.05-.08.02-.04.05-.06.08-.06.03,0,.08,0,.14,0h.91s.01,0,.01-.01l.04-.44s0,0,0,0c0,0,0,0,0,0h-.97Z"/>
    </clipPath>
    <radialGradient id="Or_radial-5" data-name="Or radial" cx="14.93" cy="12.73" fx="14.93" fy="12.73" r=".85" xlink:href="#Or_radial"/>
    <radialGradient id="Or_radial-6" data-name="Or radial" cx="16.75" cy="12.73" fx="16.75" fy="12.73" r=".85" xlink:href="#Or_radial"/>
    <radialGradient id="Or_radial-7" data-name="Or radial" cx="16.75" cy="12.73" fx="16.75" fy="12.73" r=".85" xlink:href="#Or_radial"/>
    <clipPath id="clippath-2">
      <path class="cls-7" d="M16.62,11.88c-.2,0-.36.06-.45.14-.09.08-.16.21-.19.39-.02.17.02.31.1.4.08.1.22.15.41.15h.43c.09,0,.15,0,.19.01.03,0,.05.03.06.07-.01.05-.04.08-.08.09-.04,0-.1,0-.18,0h-.95s-.01,0-.01.01l-.04.43s0,0,0,0c0,0,0,0,0,0h.99c.21,0,.37-.05.46-.13.09-.08.15-.21.18-.39.02-.17-.01-.31-.08-.41-.07-.1-.2-.15-.38-.16h-.45c-.07,0-.12,0-.16-.01-.03,0-.05-.03-.05-.08.02-.04.05-.06.08-.06.03,0,.08,0,.14,0h.91s.01,0,.01-.01l.04-.44s0,0,0,0c0,0,0,0,0,0h-.97Z"/>
    </clipPath>
    <radialGradient id="Or_radial-8" data-name="Or radial" cx="16.75" cy="12.73" fx="16.75" fy="12.73" r=".85" xlink:href="#Or_radial"/>
    <radialGradient id="Or_radial-9" data-name="Or radial" cx="18.67" cy="12.73" fx="18.67" fy="12.73" r=".87" xlink:href="#Or_radial"/>
    <radialGradient id="Or_radial-10" data-name="Or radial" cx="18.67" cy="12.73" fx="18.67" fy="12.73" r=".87" xlink:href="#Or_radial"/>
    <clipPath id="clippath-3">
      <path class="cls-9" d="M18.42,11.88c-.36.02-.58.3-.63.85-.03.33.01.57.13.71.07.09.18.14.31.14h1.16s.01,0,.01-.01l.04-.44s0,0,0,0c0,0,0,0,0,0h-1.06s-.07-.04-.07-.12v-.08s1.15,0,1.15,0c0,0,.01,0,.01-.01l.04-.4s0,0,0,0c0,0,0,0,0,0h-1.16s.04-.13.04-.13c.01-.04.06-.06.13-.06,0,0,.01,0,.02,0h1s.01,0,.01-.01l.04-.41s0,0,0,0c0,0,0,0,0,0h-1.13Z"/>
    </clipPath>
    <radialGradient id="Or_radial-11" data-name="Or radial" cx="18.66" cy="12.73" fx="18.66" fy="12.73" r=".88" xlink:href="#Or_radial"/>
  </defs>
  <g>
    <polygon class="cls-17" points="4.57 15.01 4.57 15.01 4.57 15.01 4.57 15.01"/>
    <polygon class="cls-17" points="5.41 7.06 5.41 7.06 5.41 7.06 5.41 7.06"/>
    <polygon class="cls-17" points="6.52 5.75 6.52 5.75 6.52 5.75 6.52 5.75"/>
    <path class="cls-17" d="M19.2,11.57h0s-5.13,0-5.13,0c.09-.86-.14-1.77-.57-2.5-.52-.89-1.36-1.51-2.29-1.89-.04-.01-.08-.02-.12-.03-.04,0-.1-.02-.11-.03.22.25.42.52.53.82.25.66.15,1.37-.3,2.07-.17.27-.38.49-.59.71-.18.19-.35.36-.49.56-.51.73-.48,1.58.08,2.29.09.11.21.22.34.33.35.24.78.48,1.25.4.27-.05.51-.13.72-.24h4.77l-.06.14c-.2.5-.47.94-.79,1.33-.32.39-.71.73-1.15,1.01h0s0,0,0,0c-.87.6-1.83.89-2.9.9-.79,0-1.51-.14-2.17-.41-.66-.27-1.25-.68-1.79-1.23-.53-.54-.93-1.15-1.19-1.81-.26-.66-.4-1.39-.4-2.19,0-.78.13-1.5.39-2.16.26-.66.65-1.26,1.17-1.81h0s0,0,0,0h0c.54-.55,1.13-.96,1.77-1.23.65-.27,1.35-.41,2.11-.41.84,0,1.61.16,2.3.47h0s0,0,0,0h0c.61.31,1.15.72,1.61,1.21l.11.12h3.38l-.32-.57c-.64-1.14-1.46-2.05-2.45-2.71h0s0,0,0,0h0c-.62-.43-1.31-.75-2.06-.97-.75-.21-1.56-.32-2.43-.32-1.14,0-2.24.19-3.27.56h0s0,0,0,0c-.97.39-1.86.98-2.64,1.76-.43.43-.81.88-1.11,1.32-.3.44-.57.92-.8,1.43h0s0,0,0,0c-.42.99-.63,2.07-.63,3.19,0,1.2.2,2.31.59,3.31.39,1,.99,1.92,1.77,2.75h0s0,0,0,0c.8.81,1.69,1.41,2.68,1.82.98.4,2.05.6,3.21.6,1.19,0,2.27-.19,3.26-.59.99-.4,1.88-1,2.67-1.8h0s0,0,0,0h0c.79-.8,1.4-1.7,1.8-2.7.38-.95.58-1.99.6-3.12v-.39s-1.37,0-1.37,0Z"/>
  </g>
  <g>
    <path class="cls-18" d="M9.36,15.11l-.18-.26-.18.12.16.22-.08.05-.16-.22-.26.18-.11-.15.6-.42.29.41-.08.06Z"/>
    <path class="cls-18" d="M9.09,15.73l-.13-.13.53-.5.13.13-.53.5Z"/>
    <path class="cls-18" d="M9.74,16.27l-.15-.12.04-.39.04-.05.14.11.14-.18-.18-.14-.39.5-.15-.11.44-.58.39.3c.06.05.07.09.05.12l-.16.21s-.04.03-.08.02c-.02,0-.05-.03-.1-.07l-.04.39Z"/>
    <path class="cls-18" d="M10.38,16.6l-.46-.23.32-.65.46.23-.04.09-.29-.14-.09.19.25.12-.04.08-.25-.12-.1.2.29.15-.04.09Z"/>
    <path class="cls-18" d="M11.53,16.91l-.18-.04v-.14s-.24-.05-.24-.05l-.06.13-.18-.04h0s.38-.67.38-.67l.19.04.09.76ZM11.34,16.63l-.02-.34-.15.3.18.04Z"/>
    <path class="cls-18" d="M12.34,16.94h-.16s-.29-.47-.29-.47c0,.02.01.04.01.05v.41s-.19,0-.19,0v-.73s.18,0,.18,0l.29.45s-.01-.04-.01-.05v-.4s.19,0,.19,0v.73Z"/>
    <path class="cls-18" d="M13.15,16.69s0,.08-.05.11c-.04.03-.09.05-.17.06l-.37.06-.11-.72.37-.06c.07-.01.13,0,.18,0,.05.02.07.05.08.09l.07.45ZM12.96,16.7l-.06-.41s-.04-.05-.12-.04l-.14.02.08.53.13-.02c.07-.01.11-.04.1-.08Z"/>
    <path class="cls-18" d="M14.27,16.38s0,.08-.08.1l-.36.15c-.07.03-.11.02-.13-.02l-.23-.55s0-.08.08-.1l.36-.15c.07-.03.11-.02.13.02l.06.14-.17.07-.05-.12-.22.09.21.5.22-.09-.08-.19-.13.05-.04-.09.3-.12.12.3Z"/>
    <path class="cls-18" d="M15.02,16.01l-.16.1-.1-.1-.2.12.04.14-.16.1h0s-.17-.75-.17-.75l.17-.1.58.5ZM14.69,15.94l-.25-.23.09.33.15-.09Z"/>
    <path class="cls-18" d="M15.56,15.47s.01.07-.04.12l-.28.24c-.06.05-.1.06-.13.02l-.11-.13.14-.12.1.11.17-.15-.09-.11-.42.08s-.05,0-.07-.02l-.11-.12s-.02-.08.04-.12l.28-.24c.06-.05.1-.06.13-.02l.11.12-.14.12-.09-.1-.17.15.09.1.41-.09s.05,0,.07.02l.11.13Z"/>
  </g>
  <g>
    <path class="cls-3" d="M16.22,17.01c-.05-.06-.03-.13.06-.21l.47-.43c.09-.09.17-.1.22-.04l.2.22-.23.21-.17-.19-.28.26.16.18.7-.17c.05-.01.09,0,.12.03l.19.2c.05.06.03.13-.06.21l-.47.43c-.09.09-.17.1-.22.05l-.19-.2.23-.21.16.17.28-.26-.15-.17-.7.17c-.05.01-.09,0-.12-.03l-.2-.22Z"/>
    <path class="cls-3" d="M15.75,18.65l-.05-.59c0-.06,0-.16-.02-.29l-.25-.38.27-.17.25.38s.08.05.12.08c.08.04.13.06.13.07l.51.29s0,0,0,0l-.27.18-.5-.32.08.59-.27.18s0,0,0,0Z"/>
    <path class="cls-3" d="M14.08,18.13c-.03-.07.02-.13.14-.18l.59-.23c.12-.05.19-.03.22.04l.11.28-.29.11-.09-.24-.36.14.09.23.72.1c.05,0,.09.03.1.07l.1.26c.03.07-.02.13-.14.18l-.59.23c-.12.05-.19.03-.22-.04l-.1-.26.29-.11.08.22.36-.14-.08-.21-.72-.1c-.05,0-.09-.03-.1-.07l-.11-.28Z"/>
    <path class="cls-3" d="M13.13,19.29l.34-.06-.19-1.06.31-.05.19,1.06.34-.06.03.16-1,.18-.03-.16Z"/>
    <path class="cls-3" d="M11.95,18.23h.88s0,1.24,0,1.24h-.87s0-.16,0-.16h.55s0-.37,0-.37h-.47s0-.16,0-.16h.47s0-.39,0-.39h-.56s0-.16,0-.16ZM12.17,19.53h.23s.39.21.39.21h0s-.38,0-.38,0l-.24-.21h0Z"/>
    <path class="cls-3" d="M10.53,18.01l.3.05-.11.6s-.02.07-.04.13l.38-.58.16.03.16.67c0-.06,0-.11,0-.14l.11-.6.3.05-.22,1.22-.29-.05-.21-.73s0-.03,0-.06c0,.01,0,.03-.02.05l-.45.62-.29-.05.22-1.22Z"/>
    <path class="cls-3" d="M9.53,17.61l.81.33-.47,1.15-.8-.33.06-.15.51.21.14-.34-.44-.18.06-.15.44.18.15-.36-.52-.21.06-.15Z"/>
    <path class="cls-3" d="M7.95,16.79c.05-.06.11-.08.19-.07.08.01.17.06.27.13l.51.4-.77.98-.51-.4c-.1-.08-.16-.16-.2-.23-.03-.08-.03-.15.02-.2l.48-.61ZM8.18,17.01l-.44.56c-.04.05-.02.12.08.2l.18.14.57-.73-.18-.14c-.1-.08-.17-.09-.22-.04Z"/>
    <path class="cls-3" d="M7.37,15.82l.59.65-.92.83-.58-.64.12-.11.37.41.27-.24-.32-.35.12-.11.32.35.29-.26-.38-.42.12-.11Z"/>
    <path class="cls-3" d="M6.4,14.38c.07-.03.13,0,.19.12l.29.57c.06.11.05.19-.02.22l-.26.13-.14-.28.23-.11-.17-.34-.22.11-.03.72c0,.05-.02.09-.06.11l-.25.13c-.07.03-.13,0-.19-.12l-.29-.57c-.06-.11-.05-.19.01-.22l.25-.13.14.28-.21.11.17.34.2-.1.03-.72c0-.05.02-.09.06-.11l.26-.13Z"/>
    <path class="cls-3" d="M4.76,13.79l.31.32.06.22h0s-.27-.16-.27-.16l-.11-.37h0ZM6.18,13.3l.25.84-1.19.35-.24-.83.16-.05.16.53.35-.1-.13-.46.15-.05.13.46.37-.11-.16-.54.16-.05Z"/>
    <path class="cls-3" d="M5.92,12.12c.08,0,.12.05.13.18l.07.65c.01.12-.02.19-.09.2l-1.01.11c-.08,0-.12-.05-.13-.17l-.07-.65c-.01-.13.02-.2.09-.2l.29-.03.04.31-.24.03.05.41.92-.1-.05-.41-.26.03-.04-.31.31-.03Z"/>
    <path class="cls-3" d="M5.97,10.84c.08,0,.11.07.1.2l-.04.67c0,.13-.05.19-.12.19l-1.13-.06.02-.32,1.08.06.02-.42-1.08-.06.02-.32,1.13.06Z"/>
    <path class="cls-3" d="M6.37,9.6l-.08.32-.64.2-.11-.03.07-.3-.38-.09-.09.39,1.05.25-.07.31-1.21-.29.2-.81c.03-.12.08-.18.16-.16l.44.11c.05.01.08.05.08.11,0,.03-.01.1-.04.2l.63-.21Z"/>
    <path class="cls-3" d="M6.56,9.17l-.12.29-1.15-.46.12-.29,1.15.46Z"/>
    <path class="cls-3" d="M6.15,7.63l-.17.3.94.53-.15.27-.94-.53-.17.3-.14-.08.49-.88.14.08Z"/>
    <path class="cls-3" d="M7.71,7.38l-.54.69-.97-.77.54-.68.13.1-.34.43.28.23.3-.37.13.1-.3.37.31.24.35-.44.13.1ZM6.49,6.5l-.08.44-.14.18h0s-.02-.32-.02-.32l.24-.3h0Z"/>
    <path class="cls-3" d="M8.49,6.69l-.24.2-.79-.96.24-.2.79.96Z"/>
    <path class="cls-3" d="M9.56,5.97l-.24.14-.84-.41s.05.05.06.07l.36.59-.26.16-.65-1.06.24-.14.83.39s-.05-.05-.06-.07l-.35-.58.26-.16.65,1.06Z"/>
    <path class="cls-3" d="M10.68,5.44c.02.07-.02.13-.15.17l-.62.22c-.12.04-.19.03-.21-.05l-.33-.96c-.02-.07.02-.13.14-.17l.62-.22c.12-.04.19-.03.22.05l.09.27-.3.1-.08-.23-.39.13.3.87.39-.13-.09-.25.3-.1.1.29Z"/>
    <path class="cls-3" d="M11.77,5.39l-.87.13-.18-1.23.86-.12.02.16-.55.08.05.36.47-.07.02.16-.47.07.06.39.55-.08.02.16Z"/>
    <path class="cls-3" d="M13.01,5.4h-.28s-.48-.8-.48-.8c.01.04.02.07.02.09l-.02.69h-.31s.03-1.25.03-1.25h.28s.49.79.49.79c-.01-.04-.02-.07-.02-.09l.02-.68h.31s-.03,1.25-.03,1.25Z"/>
    <path class="cls-3" d="M14.29,5.42c-.02.07-.06.12-.14.14-.08.02-.18.02-.3,0l-.63-.14.26-1.21.63.14c.12.03.21.07.28.13s.09.12.07.19l-.16.75ZM13.99,5.32l.15-.7c.01-.07-.04-.11-.16-.14l-.23-.05-.2.9.22.05c.13.03.2,0,.21-.06Z"/>
    <path class="cls-3" d="M14.72,5.87l-.29-.12.45-1.16.29.12-.45,1.16Z"/>
    <path class="cls-3" d="M15.68,6.38l-.76-.43.61-1.08.75.43-.08.14-.48-.27-.18.32.41.23-.08.14-.41-.23-.19.34.49.28-.08.14Z"/>
  </g>
  <path class="cls-18" d="M9.85,13.82c-.3-.38-.48-.8-.52-1.23-.06-.41,0-.87.32-1.37,0-.01.02-.03.03-.04.01-.02.02-.04.04-.06.02-.03.03-.05.05-.08.16-.23.35-.42.53-.61.2-.21.39-.41.54-.64.26-.41.51-1.03.26-1.71-.17-.45-.58-.85-.98-1.2-.03-.02-.04-.03-.04-.03.09.79-.47,1.45-.85,1.98-.14-.29-.39-.51-.73-.67.39,1.21-1.31,1.46-.34,3.09-.58-.25-.69-.8-.69-.8-.61,2.2.7,3.67,2.89,3.83-.19-.14-.37-.3-.5-.47"/>
  <g>
    <g>
      <path class="cls-1" d="M12.18,12.73c-.03.33.01.57.13.71.07.09.18.14.31.14h1.16s.01,0,.01-.01l.09-.93s0,0,0,0c0,0,0,0,0,0,0,0-.43,0-.43,0,0,0-.01,0-.01.01l-.05.48h-.61c-.06-.02-.1-.06-.11-.12-.02-.21.02-.41.09-.62.03-.05.08-.07.15-.07h1s.01,0,.01-.01l.04-.41s0,0,0,0c0,0,0,0,0,0h-1.13c-.36.02-.58.3-.63.85"/>
      <g class="cls-20">
        <rect class="cls-4" x="12.15" y="11.88" width="1.8" height="1.71"/>
      </g>
      <path class="cls-5" d="M12.18,12.73c-.03.33.01.57.13.71.07.09.18.14.31.14h1.16s.01,0,.01-.01l.09-.93s0,0,0,0c0,0,0,0,0,0,0,0-.43,0-.43,0,0,0-.01,0-.01.01l-.05.48h-.61c-.06-.02-.1-.06-.11-.12-.02-.21.02-.41.09-.62.03-.05.08-.07.15-.07h1s.01,0,.01-.01l.04-.41s0,0,0,0c0,0,0,0,0,0h-1.13c-.36.02-.58.3-.63.85"/>
    </g>
    <g>
      <path class="cls-12" d="M14.8,11.88c-.2,0-.36.06-.45.14-.09.08-.16.21-.19.39-.02.17.02.31.1.4.08.1.22.15.41.15h.43c.09,0,.15,0,.19.01.03,0,.05.03.06.07-.01.05-.04.08-.08.09-.04,0-.1,0-.18,0h-.95s-.01,0-.01.01l-.04.43s0,0,0,0c0,0,0,0,0,0h.99c.21,0,.37-.05.46-.13.09-.08.15-.21.18-.39.02-.17-.01-.31-.08-.41-.07-.1-.2-.15-.38-.16h-.45c-.07,0-.12,0-.16-.01-.03,0-.05-.03-.05-.08.02-.04.05-.06.08-.06.03,0,.08,0,.14,0h.91s.01,0,.01-.01l.04-.44s0,0,0,0c0,0,0,0,0,0h-.97Z"/>
      <g class="cls-14">
        <rect class="cls-8" x="14.08" y="11.88" width="1.7" height="1.71"/>
      </g>
      <path class="cls-5" d="M14.8,11.88c-.2,0-.36.06-.45.14-.09.08-.16.21-.19.39-.02.17.02.31.1.4.08.1.22.15.41.15h.43c.09,0,.15,0,.19.01.03,0,.05.03.06.07-.01.05-.04.08-.08.09-.04,0-.1,0-.18,0h-.95s-.01,0-.01.01l-.04.43s0,0,0,0c0,0,0,0,0,0h.99c.21,0,.37-.05.46-.13.09-.08.15-.21.18-.39.02-.17-.01-.31-.08-.41-.07-.1-.2-.15-.38-.16h-.45c-.07,0-.12,0-.16-.01-.03,0-.05-.03-.05-.08.02-.04.05-.06.08-.06.03,0,.08,0,.14,0h.91s.01,0,.01-.01l.04-.44s0,0,0,0c0,0,0,0,0,0h-.97Z"/>
    </g>
    <g>
      <path class="cls-13" d="M16.62,11.88c-.2,0-.36.06-.45.14-.09.08-.16.21-.19.39-.02.17.02.31.1.4.08.1.22.15.41.15h.43c.09,0,.15,0,.19.01.03,0,.05.03.06.07-.01.05-.04.08-.08.09-.04,0-.1,0-.18,0h-.95s-.01,0-.01.01l-.04.43s0,0,0,0c0,0,0,0,0,0h.99c.21,0,.37-.05.46-.13.09-.08.15-.21.18-.39.02-.17-.01-.31-.08-.41-.07-.1-.2-.15-.38-.16h-.45c-.07,0-.12,0-.16-.01-.03,0-.05-.03-.05-.08.02-.04.05-.06.08-.06.03,0,.08,0,.14,0h.91s.01,0,.01-.01l.04-.44s0,0,0,0c0,0,0,0,0,0h-.97Z"/>
      <g class="cls-19">
        <rect class="cls-11" x="15.9" y="11.88" width="1.7" height="1.71"/>
      </g>
      <path class="cls-5" d="M16.62,11.88c-.2,0-.36.06-.45.14-.09.08-.16.21-.19.39-.02.17.02.31.1.4.08.1.22.15.41.15h.43c.09,0,.15,0,.19.01.03,0,.05.03.06.07-.01.05-.04.08-.08.09-.04,0-.1,0-.18,0h-.95s-.01,0-.01.01l-.04.43s0,0,0,0c0,0,0,0,0,0h.99c.21,0,.37-.05.46-.13.09-.08.15-.21.18-.39.02-.17-.01-.31-.08-.41-.07-.1-.2-.15-.38-.16h-.45c-.07,0-.12,0-.16-.01-.03,0-.05-.03-.05-.08.02-.04.05-.06.08-.06.03,0,.08,0,.14,0h.91s.01,0,.01-.01l.04-.44s0,0,0,0c0,0,0,0,0,0h-.97Z"/>
    </g>
    <g>
      <path class="cls-15" d="M18.42,11.88c-.36.02-.58.3-.63.85-.03.33.01.57.13.71.07.09.18.14.31.14h1.16s.01,0,.01-.01l.04-.44s0,0,0,0c0,0,0,0,0,0h-1.06s-.07-.04-.07-.12v-.08s1.15,0,1.15,0c0,0,.01,0,.01-.01l.04-.4s0,0,0,0c0,0,0,0,0,0h-1.16s.04-.13.04-.13c.01-.04.06-.06.13-.06,0,0,.01,0,.02,0h1s.01,0,.01-.01l.04-.41s0,0,0,0c0,0,0,0,0,0h-1.13Z"/>
      <g class="cls-16">
        <rect class="cls-6" x="17.76" y="11.88" width="1.8" height="1.7"/>
      </g>
      <path class="cls-5" d="M18.42,11.88c-.36.02-.58.3-.63.85-.03.33.01.57.13.71.07.09.18.14.31.14h1.16s.01,0,.01-.01l.04-.44s0,0,0,0c0,0,0,0,0,0h-1.06s-.07-.04-.07-.12v-.08s1.15,0,1.15,0c0,0,.01,0,.01-.01l.04-.4s0,0,0,0c0,0,0,0,0,0h-1.16s.04-.13.04-.13c.01-.04.06-.06.13-.06,0,0,.01,0,.02,0h1s.01,0,.01-.01l.04-.41s0,0,0,0c0,0,0,0,0,0h-1.13Z"/>
    </g>
  </g>
</svg>