<?xml version="1.0" encoding="UTF-8"?>
<svg id="Layer_1" data-name="Layer 1" xmlns="http://www.w3.org/2000/svg" viewBox="0 0 24.56 23.59">
  <defs>
    <style>
      .cls-1 {
        fill: #fff;
      }

      .cls-2 {
        fill: #010101;
      }
    </style>
  </defs>
  <g>
    <path class="cls-2" d="M14.16,15.04v1.31h0c-.69,0-1.25-.56-1.25-1.25v-5.27c0-.69.56-1.25,1.25-1.25h0v2.35c0,.85.69,1.53,1.53,1.53h1.88c.88,0,1.6-.72,1.6-1.6v-3.48c0-.77-.63-1.4-1.4-1.4h-2.28c-.74,0-1.34.6-1.34,1.34h0c-.69,0-1.25.56-1.25,1.25h0v-1.22c0-1.47,1.2-2.67,2.67-2.67h2.19c1.47,0,2.67,1.2,2.67,2.67v3.56c0,1.57-1.27,2.85-2.85,2.85h-3.43v2.59"/>
    <path class="cls-1" d="M16.28,13.06c0-.22.19-.4.4-.4.22,0,.4.19.4.4,0,.21-.18.39-.4.4-.22,0-.4-.18-.4-.4Z"/>
    <path class="cls-1" d="M17.37,5.45h-1.32c-.05,0-.09-.04-.09-.09s.04-.09.09-.09h1.32c.05,0,.09.04.09.09s-.04.09-.09.09Z"/>
  </g>
  <g>
    <path class="cls-2" d="M6.98,12.46h2.35c.59,0,1.07-.48,1.07-1.07v-.46c0-.59-.48-1.07-1.07-1.07h-.19v-1.3h.02c1.38,0,2.49,1.12,2.49,2.49v4.03c0,.69-.56,1.25-1.25,1.25h0v-2.59h-3.43c-1.57,0-2.85-1.27-2.85-2.85v-3.38c0-1.57,1.27-2.85,2.85-2.85h3.38c.72,0,1.3.58,1.3,1.3h0s-4.67,0-4.67,0c-.88,0-1.6.72-1.6,1.6v3.28c0,.88.72,1.6,1.6,1.6Z"/>
    <g>
      <path class="cls-2" d="M7.66,8.33s0,.09,0,.13c.02.24-.14.36-.3.48-.05.04-.15.04-.21-.02-.08-.08-.16-.16-.23-.26-.03-.03-.04-.09-.04-.14,0-.14,0-.27,0-.41,0-.12.03-.15.15-.15.17,0,.34,0,.51,0,.09,0,.13.04.13.13,0,.07,0,.15,0,.22Z"/>
      <path class="cls-2" d="M6.37,8.82s.07,0,.11,0c.24-.03.38.13.5.3.03.05.02.16-.01.21-.07.09-.16.17-.26.24-.03.03-.09.03-.14.04-.14,0-.28,0-.42,0-.09,0-.13-.04-.13-.13,0-.18,0-.35,0-.53,0-.08.04-.13.13-.13.08,0,.15,0,.23,0Z"/>
      <path class="cls-2" d="M8.51,9.22c0,.09,0,.18,0,.27,0,.06-.04.11-.11.11-.17,0-.33.01-.5,0-.07,0-.14-.07-.21-.12-.04-.02-.06-.07-.1-.09-.1-.08-.1-.28,0-.36.03-.02.06-.06.08-.08.09-.09.2-.15.34-.13.12.01.24,0,.36,0,.09,0,.13.04.13.13,0,.09,0,.18,0,.27Z"/>
      <path class="cls-2" d="M7.26,10.47c-.09,0-.18,0-.27,0-.06,0-.11-.04-.11-.11,0-.17-.01-.33,0-.5,0-.07.07-.14.12-.21.02-.04.07-.06.09-.1.08-.1.28-.1.36,0,.02.03.06.06.08.08.09.09.15.2.13.34-.01.12,0,.24,0,.36,0,.09-.04.13-.13.13-.09,0-.18,0-.27,0Z"/>
    </g>
  </g>
  <g>
    <path class="cls-2" d="M4.12,17.81c.01-.24.06-.45.23-.63.14-.13.27-.21.46-.25l.09-.02s.04,0,.07,0c.01,0,.03,0,.04,0,0,0,.02,0,.03,0,.04,0,.07,0,.11.01.02,0,.05,0,.07,0,.04,0,.08.01.13.03,0,0,.01,0,.02,0,.11.02.2.07.29.13,0,0,.02.01.02.03,0,.02,0,.03,0,.05,0,0,0,0,0,0,.02.05.01.11.02.17,0,.06,0,.12.01.18,0,0,0,.01,0,.02-.01,0-.02,0-.03,0-.12-.08-.25-.17-.4-.19-.06,0-.13,0-.19,0-.11.02-.21.07-.29.16-.03.03-.05.06-.07.1-.01.02-.02.04-.04.06,0,0,0,.01,0,.02.01.04,0,.08-.02.13,0,.02-.01.04,0,.06,0,.03,0,.07,0,.1,0,.07.01.13.04.19.01.03.03.06.04.09.02.06.07.12.12.16.1.08.22.12.35.11.03,0,.05-.01.07-.04.01-.02.02-.05.02-.08v-.1s0-.03-.01-.04c0-.04-.03-.06-.07-.06-.04,0-.08,0-.12,0-.01,0-.02,0-.04,0-.02,0-.02,0-.02-.02,0-.05,0-.1,0-.15v-.12s0-.02,0-.03c0-.01,0-.02.02-.02,0,0,.02,0,.03,0h.66s.04,0,.05.05c0,.1,0,.21,0,.31,0,.05,0,.1.01.15,0,.03,0,.07,0,.1,0,.06,0,.12,0,.17v.1s0,.03-.02.04l-.04.02c-.14.07-.32.13-.48.13-.03,0-.06,0-.08,0-.04,0-.09,0-.13,0-.21,0-.47-.06-.63-.21-.17-.13-.28-.31-.3-.53,0-.04-.01-.09-.02-.13,0-.08,0-.16,0-.23Z"/>
    <path class="cls-2" d="M5.95,18.84h0c.06-.21.12-.41.2-.61l.22-.61c.02-.06.04-.13.07-.2h0c.03-.07.05-.15.08-.22l.08-.21c.03-.07.02-.06.08-.06.06,0,.11,0,.17,0,.1,0,.19,0,.29,0,.02,0,.03,0,.04.03.03.09.07.18.1.28l.04.11c.04.12.08.25.13.37l.12.33.25.73s0,.02.01.03c0,.01,0,.02,0,.03,0,.01-.02,0-.03,0-.09,0-.18,0-.27,0-.03,0-.07,0-.1,0-.03,0-.06,0-.1-.01,0,0-.02,0-.02-.02,0-.01,0-.02-.01-.04l-.07-.2v-.03s-.04-.04-.07-.04c-.04,0-.07,0-.1,0-.03,0-.06,0-.09,0-.01,0-.03,0-.05,0-.08,0-.17,0-.26.02s-.12.08-.15.16c-.02.04-.03.09-.05.13,0,.02-.01.02-.03.03-.06,0-.12,0-.19.02-.04,0-.09,0-.13,0-.05,0-.09,0-.14-.02,0,0-.01,0-.02,0,0,0-.01,0-.02,0,0,0,0-.01,0-.02ZM6.86,18.17s.18,0,.19,0c.02,0,.04-.03.03-.05l-.13-.6c-.01-.07-.05-.08-.08,0-.06.2-.08.36-.16.6-.03.08.1.05.14.05Z"/>
    <path class="cls-2" d="M7.96,18.68s0-.06,0-.09c0-.02,0-.04,0-.07,0-.02,0-.04,0-.07,0-.01,0-.02,0-.03,0-.06,0-.12,0-.18v-1.24c0-.06,0-.06.06-.06.05,0,.11,0,.16,0h.05c.07,0,.13,0,.2,0,.05,0,.11,0,.16,0,.03,0,.04,0,.05.04.1.31.19.62.27.93.01.04.03.08.04.12,0,.03.02.06.03.09,0,.01,0,.03.02.04,0,0,.03,0,.03,0,0-.01.02-.03.02-.05.01-.07.04-.13.06-.19.09-.31.18-.61.28-.91v-.02s.03-.04.06-.04c.03,0,.05,0,.08,0,.01,0,.03,0,.04,0,.02,0,.04,0,.06,0,.01,0,.02,0,.04,0,.05,0,.1,0,.15,0,.04,0,.09,0,.14,0,.03,0,.06,0,.08,0,0,0,.02,0,.03,0,.02,0,.03,0,.03.02,0,.01,0,.03,0,.05,0,.04,0,.08,0,.12,0,0,0,.01,0,.02,0,.01,0,.02,0,.04,0,.54,0,1.07.01,1.61h0c0,.05,0,.06-.05.06-.01,0-.03,0-.04,0-.03,0-.06,0-.08,0-.11,0-.21,0-.32-.01-.01,0-.02,0-.02-.02,0,0,0-.02,0-.03,0-.12,0-.23,0-.35v-.2s0-.08,0-.12c0-.01,0-.03,0-.04,0,0,0-.02,0-.03,0-.01,0-.03,0-.05v-.18s0-.02,0-.02c0,0,0-.01,0,0,0,0,0,0-.01,0,0,0,0,.01,0,.02v.03c-.03.06-.05.12-.08.17-.02.04-.04.08-.05.12-.03.08-.05.15-.08.23l-.13.36s0,.02,0,.03t-.04.02h0s-.02,0-.03,0c-.05,0-.26,0-.29,0,0,0-.01,0-.02,0,0-.01-.01-.03-.02-.04l-.19-.59h0s-.02-.04-.02-.05c-.03-.08-.06-.16-.08-.24v-.03s-.02,0-.03,0c0,0-.01,0-.01,0,0,.01,0,.03,0,.04v.21c0,.05,0,.11,0,.17-.03.09.03.43,0,.54,0,0,0,.01,0,.02,0,.02,0,.04-.02.04-.12,0-.24,0-.36,0h-.12s-.02-.04-.02-.06v-.06s0-.04,0-.06Z"/>
    <path class="cls-2" d="M10.25,18.73s0-.08,0-.11v-.69c0-.06,0-.11,0-.17v-.75s0-.04,0-.06c0-.01,0-.02.02-.02h.02c.07,0,.14,0,.21,0,.07,0,.13,0,.2,0h.34c.08,0,.16,0,.24,0h.16s.03,0,.03.02c0,.02.01.04,0,.06,0,0,0,0,0,.01.03.07.03.14.04.21,0,.03.01.07.02.1-.01,0-.02,0-.03,0,0,0-.02,0-.02,0-.03,0-.06,0-.08,0-.1,0-.21,0-.32,0-.07,0-.14,0-.21,0-.02,0-.05,0-.07.01-.03,0-.05.03-.06.06,0,.02-.01.05,0,.07,0,.04,0,.07,0,.1,0,.02,0,.04,0,.05,0,.02,0,.04,0,.05,0,.03.03.03.05.01.13-.11.28-.14.44-.16h.03s.03,0,.03.03l.02.1c.01.08.02.15.04.23h0s0,.03-.01.03c-.01,0-.03,0-.04,0-.07,0-.14.02-.21.04-.08.03-.15.08-.21.13-.04.03-.11.13-.12.19,0,.04,0,.08,0,.12,0,.04.04.07.08.07,0,0,0,0,.01,0,.02-.01.04,0,.06,0,.18,0,.37,0,.55,0,0,0,.02,0,.03,0,.03,0,.06,0,.09,0,0,0,0,0,0,0,0,0,0,0,0,0-.01.01,0,.03,0,.04.01.03.01.06,0,.09-.01.03-.02.07-.02.11,0,.04,0,.08,0,.11,0,.02,0,.02-.03.03h-.49s-.06,0-.09,0c-.02,0-.03,0-.05,0h-.6s-.03,0-.03,0c-.04,0-.04,0-.05-.04,0-.03,0-.06,0-.09Z"/>
    <path class="cls-2" d="M11.74,17.77v-.19s0-.04,0-.05c0,0,0-.02,0-.03,0-.02,0-.05,0-.08,0-.06,0-.12,0-.18,0-.05,0-.1,0-.15,0-.01,0-.02,0-.03,0-.03,0-.06,0-.09,0-.02,0-.03.03-.03h.19s.19,0,.19,0c0,0,.01,0,.02,0,.04,0,.08,0,.12,0,.07-.01.15,0,.22,0h.09c.05,0,.11,0,.16.01.02,0,.04.02.05.03.02,0,.04,0,.05.01.03.02.06.02.08.04.03.02.05.03.08.05h0s0,0,0,0c0,0,.01.02.03.02.02,0,.04.02.05.03.08.07.13.16.15.27.01.08.01.16,0,.24,0,.02-.01.04-.02.06-.06.23-.26.38-.45.51,0,0-.02,0-.03.01-.02,0-.1.06-.12.08,0,0-.01,0-.02,0,0,0-.01,0-.02,0-.03.03-.06.04-.09.04-.02,0-.03,0-.03.02,0,.01-.02.02-.03.02-.04.02-.07.04-.11.05-.02,0-.04.01-.05.03v.02s-.02.06-.03.09c0,0,0,.01,0,.02.01.02.01.04.01.06v.17s0,.02,0,.03c0,0,0,.02-.01.02-.03,0-.05,0-.08,0-.02,0-.04,0-.06,0-.05,0-.1.01-.15,0-.02,0-.04,0-.05,0,0,0-.02,0-.03,0,0,0-.01,0-.01,0-.02.02-.04,0-.05,0-.01,0-.03,0-.04,0,0,0-.01,0-.02,0-.01-.01-.02-.03-.02-.05v-.35s0-.05,0-.08c0-.02,0-.05,0-.07,0-.06,0-.11,0-.17,0,0,0-.01,0-.02,0-.02,0-.04,0-.05,0-.02,0-.04,0-.05,0,0,0-.01,0-.01.01-.02,0-.03,0-.05,0-.06,0-.12,0-.19ZM12.26,17.68h0v.11s0,.05,0,.08c0,.02,0,.04.01.05.01.03.04.04.07.03.03-.01.06-.03.09-.04.02-.01.04-.02.05-.03.11-.05.22-.14.25-.26,0-.04.01-.07,0-.11-.03-.09-.09-.16-.18-.18l-.1-.02s-.04,0-.06,0c-.07,0-.13.02-.14.1v.29Z"/>
    <path class="cls-2" d="M13.38,18.72v-.29c0-.22,0-.45,0-.67,0-.18,0-.36,0-.54v-.19s0-.02,0-.02c0-.04.02-.05.05-.06,0,0,.02,0,.03,0,.14,0,.27,0,.41,0,0,0,0,0,.01,0v.17s0,.1,0,.15c0,.1,0,.2,0,.29,0,.03,0,.05.03.06,0,0,.01.01.02.02.02.02.04.03.08.03.05,0,.1,0,.15,0,.1,0,.19,0,.29,0,.04,0,.05-.01.06-.05,0-.03.01-.06.02-.09,0-.04,0-.09,0-.14,0-.03,0-.06,0-.09,0-.08,0-.16,0-.24,0-.02,0-.05,0-.07h0s0-.04,0-.05c0-.01.03,0,.04,0,.03-.01.06,0,.1,0,.03,0,.06,0,.09,0,.05,0,.11,0,.16,0,.03,0,.05,0,.08,0,.02,0,.02,0,.03.02.01.04.01.08.01.12,0,.04,0,.08,0,.11,0,.1,0,.2,0,.3,0,.05,0,.11,0,.16,0,.12,0,.23,0,.35,0,.09,0,.19,0,.29,0,.03,0,.06,0,.09,0,.03,0,.06,0,.1,0,.03,0,.06,0,.09v.1s0,.06,0,.09v.06s0,.02-.03.03h0c-.08,0-.16.01-.23,0-.07,0-.15,0-.22,0-.02,0-.03,0-.03-.02,0-.01,0-.03,0-.04,0,0,0,0,0-.01-.01-.04-.01-.08,0-.12,0-.07,0-.14,0-.21,0-.03,0-.06,0-.09,0-.04,0-.07,0-.11,0-.02,0-.04,0-.05,0-.07-.05-.08-.11-.08-.09,0-.19,0-.28,0-.05,0-.09,0-.14,0-.05,0-.07.01-.09.07-.01.04-.02.07-.01.11,0,.02,0,.05,0,.07,0,0,0,.02,0,.02,0,.05,0,.1,0,.14,0,.06,0,.13,0,.19v.09s0,.03-.03.03c-.1,0-.2.01-.3.01,0,0,0,0-.01,0-.05.01-.11,0-.16,0,0,0-.01,0-.01-.01,0-.01,0-.03,0-.04,0-.03,0-.06,0-.09Z"/>
    <path class="cls-2" d="M15.2,17.9s0-.08,0-.12v-.12c.03-.13.07-.3.15-.4.02-.03.04-.06.07-.08.02-.02.04-.04.06-.05.02-.02.04-.04.07-.05.01-.01.03-.02.05-.03.02,0,.03-.03.05-.04.07-.03.14-.07.22-.08.09-.02.18-.04.28-.03.35.02.71.17.85.52,0,.02.01.05.02.07,0,.02.01.05.02.07,0,0,0,0,0,0,0,.02,0,.05,0,.07,0,.02.01.04.02.07,0,.03,0,.05,0,.08,0,.04,0,.07,0,.11,0,0,0,0,0,.01.01.05,0,.11,0,.16,0,.06-.03.28-.08.33v.02s-.02.04-.03.06c-.03.05-.07.11-.11.15h0s-.07.08-.11.11c-.04.03-.08.06-.13.08-.09.05-.18.08-.28.09-.08.01-.16.01-.24,0-.08,0-.15-.01-.22-.04-.02,0-.04,0-.06-.02-.02,0-.03,0-.05-.01-.16-.06-.26-.14-.37-.26-.02-.02-.04-.04-.04-.06,0-.02,0-.04-.03-.05,0,0-.01-.02-.02-.04-.03-.07-.05-.14-.07-.22,0-.05-.02-.09-.01-.14,0,0,0,0,0,0-.01-.05-.01-.1,0-.15ZM15.76,18.04c.01.1.05.19.12.27.07.08.15.11.25.12.04,0,.07,0,.11-.01.05-.02.1-.05.15-.09.06-.05.1-.12.12-.19.01-.04.02-.08.03-.12,0-.04.02-.09,0-.13,0-.05,0-.1-.02-.15-.02-.12-.08-.23-.18-.31-.03-.02-.06-.04-.09-.04-.01,0-.02,0-.03,0-.03-.01-.07-.01-.11,0-.04,0-.08.03-.12.04-.18.08-.23.33-.23.51,0,.03,0,.08,0,.12Z"/>
    <path class="cls-2" d="M17.25,18.55s0-.07,0-.11v-.57s0-.05,0-.08c0-.01,0-.02,0-.03v-.28s.01-.03.01-.05c0-.02-.02-.03-.01-.05,0-.09,0-.18,0-.27,0-.03,0-.06,0-.09,0-.02,0-.04,0-.07,0,0,0-.01.01-.01,0,0,.02,0,.03,0,.06,0,.12,0,.18,0h.04c.07,0,.15,0,.22,0h.01s.02,0,.03.02v.02c.11.17.21.33.3.5l.17.29s.03.04.03.06c0,0,0,0,0,.01.02.01.03.04.04.05.01.02.03.04.05.04.02,0,.03,0,.03-.02,0-.07,0-.15,0-.22,0-.13,0-.25,0-.38,0-.08,0-.17,0-.25,0-.03,0-.06,0-.09,0-.02,0-.02.02-.02.08,0,.15-.01.23,0,.08,0,.15,0,.23,0,.02,0,.02,0,.02.03,0,.04,0,.08,0,.11,0,.03,0,.05,0,.08,0,.02,0,.04,0,.06,0,.08,0,.15,0,.23,0,.04,0,.08,0,.12,0,.02,0,.04,0,.06,0,.16,0,.32,0,.49,0,.1,0,.21,0,.31,0,.02,0,.04,0,.06,0,0,0,.02,0,.03-.01.08,0,.17,0,.25,0,.03,0,.05,0,.08,0,.02,0,.02-.03.02-.05,0-.1,0-.15,0-.03,0-.07,0-.1,0-.04,0-.08,0-.11,0-.04,0-.07,0-.1,0-.02,0-.03,0-.04-.02-.01-.03-.03-.05-.04-.08,0,0-.01-.02,0-.03,0,0,0-.01,0-.01-.03,0-.03-.03-.04-.05v-.02s-.06-.06-.06-.1c0,0,0,0,0,0-.04-.03-.05-.08-.07-.12-.09-.15-.17-.3-.26-.45-.01-.03-.04-.05-.04-.08-.02-.02-.02-.05-.05-.07-.02-.01-.03,0-.04,0,0,.01-.01.03-.01.05v.11s0,.05,0,.07v.02s0,.03,0,.04c0,.05,0,.1,0,.16,0,.01,0,.03,0,.04,0,.01,0,.03,0,.04,0,.01,0,.15,0,.17,0,.03,0,.06,0,.08s0,.05,0,.08c0,0,0,.02,0,.03,0,.03,0,.07,0,.1,0,0,0,0,0,.01,0,.01-.02.02-.03,0-.02-.01-.02-.02-.03,0-.01,0-.02.01-.04.01-.08,0-.16,0-.24,0h-.14s-.03-.02-.03-.04c0-.02,0-.05,0-.07,0-.04,0-.07,0-.11-.01-.03,0-.07,0-.11Z"/>
    <path class="cls-2" d="M19.06,18.73s0-.08,0-.11v-.69c0-.06,0-.11,0-.17v-.75s0-.04,0-.06c0-.01,0-.02.02-.02h.02c.07,0,.14,0,.21,0,.07,0,.13,0,.2,0h.34c.08,0,.16,0,.24,0h.16s.03,0,.03.02c0,.02.01.04,0,.06,0,0,0,0,0,.01.03.07.03.14.04.21,0,.03.01.07.02.1-.01,0-.02,0-.03,0,0,0-.02,0-.02,0-.03,0-.06,0-.08,0-.1,0-.21,0-.32,0-.07,0-.14,0-.21,0-.02,0-.05,0-.07.01-.03,0-.05.03-.06.06,0,.02-.01.05,0,.07,0,.04,0,.07,0,.1,0,.02,0,.04,0,.05,0,.02,0,.04,0,.05,0,.03.03.03.05.01.13-.11.28-.14.44-.16h.03s.03,0,.03.03l.02.1c.01.08.02.15.04.23h0s0,.03-.01.03c-.01,0-.03,0-.04,0-.07,0-.14.02-.21.04-.08.03-.15.08-.21.13-.04.03-.11.13-.12.19,0,.04,0,.08,0,.12,0,.04.04.07.08.07,0,0,0,0,.01,0,.02-.01.04,0,.06,0,.18,0,.37,0,.55,0,0,0,.02,0,.03,0,.03,0,.06,0,.09,0,0,0,0,0,0,0,0,0,0,0,0,0-.01.01,0,.03,0,.04.01.03.01.06,0,.09-.01.03-.02.07-.02.11,0,.04,0,.08,0,.11,0,.02,0,.02-.03.03h-.49s-.06,0-.09,0c-.02,0-.03,0-.05,0h-.6s-.03,0-.03,0c-.04,0-.04,0-.05-.04,0-.03,0-.06,0-.09Z"/>
  </g>
</svg>