<?xml version="1.0" encoding="UTF-8"?>
<svg id="Layer_1" data-name="Layer 1" xmlns="http://www.w3.org/2000/svg" viewBox="0 0 24.56 23.59">
  <defs>
    <style>
      .cls-1 {
        fill: #010101;
      }
    </style>
  </defs>
  <g>
    <path class="cls-1" d="M4,17.04c.11.01.23.04.33.09.05.03.09.06.12.1.02.03.03.06.03.09,0,.02,0,.05-.02.07,0,.02-.02.04-.04.04,0,0-.01,0-.02,0-.02,0-.04-.02-.04-.04,0,0,0,0,0-.02,0-.02,0-.04,0-.06,0-.06-.03-.09-.11-.13-.09-.04-.19-.05-.29-.06-.02,0-.03,0-.04,0-.07,0-.12.03-.17.09-.11.14-.24.26-.39.36-.07.04-.14.08-.22.1-.02,0-.05.01-.08.01-.03,0-.07,0-.11-.03-.06-.03-.09-.08-.09-.14,0-.01,0-.02,0-.04.01-.05.04-.09.07-.13.08-.09.18-.15.29-.19.15-.06.3-.09.45-.1.05,0,.07-.03.1-.06.11-.17.21-.34.3-.52.29-.54.55-1.1.8-1.67.17-.39.34-.77.54-1.15t0-.01s0,0,0-.01h-.01s-.05,0-.07.01c-.11.02-.22.05-.34.06-.02,0-.04,0-.06,0-.02,0-.05,0-.08,0-.01,0-.03,0-.04-.01-.01,0-.02,0-.04,0,0,0-.02,0-.02-.01-.02-.03-.04-.05-.06-.09,0,0,0,0,0-.01,0-.02.01-.03.03-.03,0,0,0,0,.01,0h.02c.06.05.12.06.18.06.04,0,.08,0,.12-.01.17-.03.33-.06.49-.09.09-.01.17-.02.26-.03h.04c.06,0,.13.01.19.05.04.03.08.07.08.13h0s0,.04,0,.04c0,.03-.03.05-.04.05h0s-.02-.02-.02-.03,0-.02,0-.04c0-.02,0-.03,0-.04,0-.03-.02-.04-.06-.06-.04-.01-.08-.01-.12-.01h-.06s-.09.01-.14.02c-.02,0-.04,0-.04.03v.02s0,.01,0,.02c0,.02-.02.05-.02.07-.08.18-.16.36-.25.54-.2.43-.4.87-.62,1.3-.19.39-.4.77-.63,1.14-.06.1-.12.19-.19.28-.01.02-.03.04-.03.06.03.01.06.02.09.02ZM3.66,17.12c-.17.02-.34.06-.5.14-.08.04-.14.09-.19.16-.02.03-.03.07-.03.1,0,.02,0,.04.02.06.02.03.06.04.09.04.02,0,.04,0,.06,0,.06-.02.11-.04.15-.08.16-.1.28-.24.4-.39,0,0,0,0,0-.01s0,0,0-.01c0,0,0,0,0,0Z"/>
    <path class="cls-1" d="M7.77,14.02c-.07-.04-.14-.05-.22-.05-.9,0-1.99,2.56-1.82,2.56s.58-.51.71-.68c.02-.02.09-.01.08,0-.17.23-.56.76-.85.76-.15,0-.21-.12-.21-.26,0-.04,0-.08.02-.13-.15.19-.32.39-.52.39-.17,0-.24-.1-.24-.25,0-.37.45-1.02.9-1.02.09,0,.16.04.18.11.32-.59,1.01-1.56,1.75-1.56.1,0,.17.01.26.06.03.02,0,.08-.03.06ZM5.55,15.99c.06-.16.1-.24.13-.3.04-.08.08-.15.05-.21-.01-.03-.04-.05-.09-.05-.26,0-.67.83-.67,1.05,0,.04.01.06.04.06.16,0,.48-.39.54-.55Z"/>
    <path class="cls-1" d="M7.74,15.86c-.11.14-.33.41-.53.41-.04,0-.07-.01-.1-.03-.18.23-.43.39-.6.39-.49,0-.24-.73.21-1.08.15-.12.31-.19.45-.19.15,0,.23.07.23.21,0,.19-.14.45-.26.61.02.02.04.02.07.02.14,0,.35-.24.43-.34.01-.01.09-.01.08,0ZM7.04,15.8c.04-.17.13-.31.22-.36-.01,0-.02,0-.04,0-.11,0-.2.07-.33.24-.25.32-.48.87-.34.87.18,0,.39-.2.51-.35-.06-.08-.07-.22-.03-.38ZM7.31,15.49c-.08,0-.19.28-.2.34-.03.12-.02.23.01.3.1-.13.23-.39.23-.56,0-.06-.01-.09-.04-.09Z"/>
    <path class="cls-1" d="M9.28,13.9c.48,0,.12,1.16-1,1.39-.36.63-.58,1.26-.48,1.26.18,0,.57-.52.7-.69.02-.01.09,0,.08,0-.17.23-.55.76-.84.76-.32,0-.24-.48.07-1.1.18-.35.88-1.62,1.47-1.62ZM8.32,15.2c1-.23,1.31-1.24.94-1.24-.22,0-.6.62-.94,1.24Z"/>
    <path class="cls-1" d="M12.56,15.9s-.04.02-.05,0c-.1-.08-.13-.19-.13-.3-.06.01-.13.02-.21.02-.38.68-.91,1.43-1.77,1.43-.58,0-.79-.36-.77-.74,0-.04.03-.06.06-.06.03,0,.06.02.05.06-.09.34.15.67.62.67.67,0,1.08-.65,1.47-1.37-.08,0-.14-.02-.2-.04-.02,0-.03-.02-.02-.05,0-.02.02-.03.04-.02.06.02.13.04.21.04.28-.52.56-1.07.92-1.42.04-.04.06-.06.08-.08-.17-.02-.35-.03-.54-.03-2.24,0-2.33,2.01-1.47,2.01.24,0,.4-.12.46-.34,0-.04.03-.05.07-.05.04,0,.05.03.04.06-.07.23-.32.4-.61.4-1.12,0-1.04-2.15,1.42-2.15.24,0,.48.02.69.05.27-.21.61-.32.95-.32.27,0,.41.08.41.23s-.19.26-.49.26c-.19,0-.44-.04-.72-.08-.21.21-.36.48-.5.74-.14.27-.26.51-.39.73.06,0,.12-.01.17-.02.04-.21.2-.38.36-.38.12,0,.17.1.11.21-.06.1-.2.18-.41.23,0,.09.02.19.11.26.02.02.02.03,0,.05ZM12.8,15.32c.04-.06.02-.1-.05-.1-.12,0-.25.13-.29.3.17-.04.29-.11.34-.19ZM13.72,14.08c.3.02.51-.06.51-.19,0-.1-.12-.15-.33-.15-.28,0-.53.1-.74.28.22.03.41.06.56.06Z"/>
    <path class="cls-1" d="M14.29,15.86c-.23.3-.58.76-.84.76-.22,0-.19-.25-.08-.53-.21.26-.46.53-.66.53-.45,0,.13-1.01.29-1.19.03-.04.12-.05.19-.05.09,0,.15.02.13.07-.17.3-.71,1.09-.55,1.09.23,0,.68-.66.81-.87.07-.12.13-.2.17-.24.03-.04.12-.05.19-.05.09,0,.16.02.13.07-.18.3-.72,1.09-.56,1.09.17,0,.49-.41.71-.69.01-.02.09-.01.08,0Z"/>
    <path class="cls-1" d="M14.66,15.29c.21.08.4.13.28.36-.11.2-.51.66-.51.83,0,.04.03.05.05.05.18,0,.5-.41.72-.68.02-.01.09-.02.08,0-.23.3-.56.76-.85.76-.12,0-.19-.07-.19-.2,0-.32.45-.76.45-.95,0-.05-.03-.09-.07-.12-.1.18-.21.36-.34.52-.02,0-.07,0-.08,0,.09-.11.25-.34.36-.55-.11-.05-.21-.13-.13-.26.02-.03.03-.04.04-.05.04-.03.13-.05.21-.05s.13.02.11.07c-.04.09-.09.17-.13.26Z"/>
    <path class="cls-1" d="M15,16.6c-.09,0-.18-.03-.15-.07.15-.28.45-.87.58-1.11.02-.03.09-.05.16-.05.08,0,.15.02.12.07-.05.1-.1.19-.15.29.18-.2.38-.38.59-.38.6,0-.45,1.19-.28,1.19s.49-.41.71-.69c.02-.02.09-.02.08,0-.23.3-.58.76-.84.76-.6,0,.45-1.17.23-1.17-.1,0-.32.21-.47.38-.1.12-.15.2-.25.38-.06.12-.13.24-.19.36-.02.02-.07.04-.12.04Z"/>
    <path class="cls-1" d="M17.38,15.86c-.23.3-.57.76-.84.76-.45,0,.13-1.01.29-1.19.03-.04.12-.05.19-.05.09,0,.15.02.13.07-.17.3-.71,1.09-.55,1.09.17,0,.49-.41.7-.69.02-.01.09-.02.08,0ZM17.37,15.08c-.05.06-.12.11-.19.11-.02,0-.04,0-.06-.01-.07-.03-.09-.13-.02-.21.05-.06.12-.11.19-.11.02,0,.04,0,.06.01.07.03.09.13.02.21Z"/>
    <path class="cls-1" d="M18.03,15.12h.28s.03.07-.02.07h-.3c-.3.49-.67,1.16-.67,1.32,0,.02,0,.03.04.03.18,0,.55-.41.76-.69.02-.02.1-.02.08,0-.23.3-.62.76-.92.76-.12,0-.17-.07-.17-.17,0-.28.26-.81.53-1.25h-.29s-.03-.07.02-.07h.32c.11-.18.21-.35.3-.47.04-.03.13-.04.21-.04s.14.02.11.06c-.05.08-.15.24-.28.45Z"/>
    <path class="cls-1" d="M19.67,15.86c-.23.3-.58.76-.84.76-.22,0-.19-.25-.08-.53-.21.26-.46.53-.66.53-.45,0,.13-1.01.29-1.19.03-.04.12-.05.19-.05.09,0,.15.02.13.07-.17.3-.71,1.09-.55,1.09.23,0,.68-.66.81-.87.07-.12.13-.2.17-.24.03-.04.12-.05.19-.05.09,0,.16.02.13.07-.18.3-.72,1.09-.56,1.09.17,0,.49-.41.71-.69.01-.02.09-.01.08,0Z"/>
    <path class="cls-1" d="M20.04,15.29c.21.08.4.13.28.36-.11.2-.51.66-.51.83,0,.04.03.05.05.05.18,0,.5-.41.72-.68.02-.01.09-.02.08,0-.23.3-.56.76-.85.76-.12,0-.19-.07-.19-.2,0-.32.45-.76.45-.95,0-.05-.03-.09-.07-.12-.1.18-.21.36-.34.52-.02,0-.07,0-.08,0,.09-.11.25-.34.36-.55-.11-.05-.21-.13-.13-.26.02-.03.03-.04.04-.05.04-.03.13-.05.21-.05s.13.02.11.07c-.04.09-.09.17-.13.26Z"/>
    <path class="cls-1" d="M20.74,16.54c.31,0,.67-.45.86-.69.02-.02.09-.02.08,0-.23.3-.58.76-1.01.76-.18,0-.28-.09-.28-.25,0-.37.45-1.01.9-1.01.14,0,.21.06.21.17,0,.2-.25.34-.59.34-.15.23-.26.5-.26.61,0,.05.02.07.09.07ZM20.95,15.79c.26,0,.48-.12.48-.26,0-.06-.04-.11-.1-.11-.11,0-.26.16-.38.36Z"/>
  </g>
  <g>
    <path class="cls-1" d="M8.97,7.36c0-.39.05-.79.13-1.19.04-.22.16-.29.38-.23.19.05.38.11.58.13.08,0,.16.02.23.03.17.02.24.1.21.26-.08.42-.14.85-.12,1.28.01.31.03.63.16.93.14.32.35.55.73.6.23.03.45,0,.67-.07.25-.07.48-.18.72-.29.44-.21.87-.43,1.33-.6.39-.14.79-.25,1.21-.23.65.02,1.25.22,1.77.61.36.27.47.64.4,1.07-.07.38-.27.7-.51,1.01-.2.27-.45.5-.72.69-.02.01-.04.03-.06.04-.06.04-.12.04-.16-.02-.05-.05-.04-.1,0-.15.05-.06.1-.11.15-.17.21-.23.39-.49.53-.77.15-.29.08-.54-.2-.72-.61-.38-1.26-.46-1.95-.27-.6.17-1.15.46-1.69.76-.24.13-.47.27-.73.38-.94.42-1.98.04-2.48-.76-.27-.43-.43-.9-.51-1.4-.05-.31-.07-.61-.07-.94Z"/>
    <path class="cls-1" d="M8.01,12.44c.04-.14.1-.29.2-.42.24-.33.52-.64.81-.94.06-.06.12-.13.18-.2.04-.04.04-.08,0-.12-.05-.04-.1-.09-.14-.14-.08-.08-.07-.19,0-.27.07-.08.16-.09.26-.03.93.56,1.96.84,3.03,1,.33.05.67.07,1.01.06.55,0,1.09-.08,1.62-.21.1-.03.2-.05.3-.05.09,0,.15.03.15.11.03.38.18.72.27,1.09.03.1.06.21.09.31.03.1,0,.16-.08.19-.07.03-.13,0-.19-.09-.24-.37-.49-.74-.74-1.11-.04-.05-.08-.06-.14-.05-.55.13-1.1.18-1.66.16-.84-.03-1.65-.19-2.43-.5-.08-.03-.14-.04-.22,0-.1.06-.2.03-.3-.01-.22-.1-.23-.1-.4.08-.41.42-.81.84-1.21,1.26-.06.06-.12.1-.21.09-.1-.01-.18-.1-.18-.23Z"/>
  </g>
</svg>